<svg width="434" height="496" viewBox="0 0 434 496" fill="none" xmlns="http://www.w3.org/2000/svg">
<path d="M66.5 185.5C66.5 109.837 127.837 48.5 203.5 48.5C279.163 48.5 340.5 109.837 340.5 185.5V486C340.5 491.247 336.247 495.5 331 495.5H76C70.7533 495.5 66.5 491.247 66.5 486V185.5Z" stroke="#090809"/>
<path d="M64 198.5L70.5 194L68.5 315.5L64.5 312.5L64 198.5Z" fill="white"/>
<path d="M217.687 368.731C217.687 368.731 219.687 369.777 220.597 370.257C224.943 373.381 233.769 364.447 237.387 360.361C237.437 360.305 237.503 360.265 237.576 360.246C237.649 360.228 237.726 360.232 237.797 360.257C237.868 360.283 237.93 360.329 237.975 360.39C238.019 360.451 238.044 360.524 238.047 360.599C237.934 363.427 237.135 366.185 235.719 368.635C231.421 376.673 231.257 395.567 227.119 398.129C226.868 398.289 226.584 398.391 226.289 398.429C225.994 398.467 225.694 398.44 225.411 398.349C224.371 398.043 222.955 395.795 220.341 381.445C219.533 377.295 218.47 373.199 217.157 369.179C217.136 369.109 217.135 369.033 217.156 368.963C217.177 368.892 217.218 368.829 217.275 368.781C217.331 368.734 217.4 368.704 217.473 368.695C217.547 368.686 217.621 368.699 217.687 368.731V368.731Z" fill="#090809"/>
<path d="M109.857 271.481C110.916 271.273 112.006 271.284 113.06 271.515C114.114 271.746 115.11 272.192 115.984 272.824C116.858 273.456 117.593 274.262 118.143 275.19C118.693 276.119 119.045 277.151 119.179 278.221C119.185 278.317 119.154 278.411 119.093 278.485C119.031 278.558 118.945 278.606 118.85 278.618C118.755 278.63 118.659 278.606 118.581 278.55C118.504 278.494 118.45 278.411 118.431 278.317C118.221 276.694 117.46 275.191 116.274 274.062C115.088 272.932 113.551 272.245 111.918 272.114C110.286 271.983 108.659 272.417 107.308 273.343C105.958 274.27 104.967 275.632 104.501 277.201C104.469 277.293 104.403 277.368 104.316 277.412C104.23 277.456 104.13 277.465 104.038 277.438C103.945 277.411 103.866 277.348 103.817 277.265C103.769 277.181 103.755 277.082 103.777 276.987C104.175 275.594 104.956 274.339 106.031 273.366C107.105 272.393 108.431 271.74 109.857 271.481V271.481Z" fill="#090809"/>
<path d="M87.3446 258.719C88.8825 258.185 90.5481 258.138 92.1136 258.585C93.6792 259.033 95.0682 259.953 96.091 261.22C97.1137 262.487 97.7202 264.039 97.8275 265.664C97.9349 267.289 97.5378 268.907 96.6906 270.297C96.3221 270.9 95.8733 271.45 95.3566 271.931C95.3204 271.965 95.2781 271.991 95.2318 272.009C95.1855 272.026 95.1362 272.034 95.0868 272.033C95.0374 272.031 94.9888 272.02 94.9438 271.999C94.8988 271.979 94.8583 271.95 94.8246 271.913C94.7908 271.877 94.7645 271.835 94.7472 271.789C94.7298 271.742 94.7217 271.693 94.7234 271.644C94.7251 271.594 94.7364 271.546 94.7569 271.501C94.7773 271.456 94.8065 271.415 94.8426 271.381C96.0314 270.259 96.7995 268.763 97.0188 267.143C97.2381 265.523 96.8954 263.876 96.0478 262.478C95.2002 261.08 93.899 260.015 92.3611 259.46C90.8232 258.905 89.1415 258.894 87.5966 259.429C87.5024 259.463 87.3989 259.457 87.3086 259.415C87.2184 259.372 87.149 259.295 87.1156 259.2C87.0821 259.106 87.0875 259.003 87.1305 258.912C87.1734 258.822 87.2504 258.753 87.3446 258.719V258.719Z" fill="#090809"/>
<path d="M72.0947 247.863C74.8947 243.305 80.5148 242.087 82.1188 243.009C83.9708 244.071 92.9547 249.743 141.023 278.985C141.102 279.04 141.157 279.123 141.178 279.217C141.198 279.311 141.181 279.409 141.132 279.492C141.082 279.574 141.003 279.635 140.91 279.661C140.817 279.687 140.718 279.676 140.633 279.631L136.601 277.183C137.669 279.253 137.995 281.626 137.526 283.907C137.057 286.188 135.82 288.239 134.022 289.719C132.224 291.199 129.973 292.018 127.645 292.04C125.316 292.062 123.05 291.285 121.225 289.839C120.496 291.878 119.137 293.631 117.344 294.844C115.551 296.057 113.419 296.667 111.256 296.585C109.093 296.503 107.012 295.734 105.316 294.389C103.62 293.044 102.397 291.193 101.825 289.105C100.21 290.199 98.3147 290.806 96.3648 290.855C94.415 290.904 92.492 290.394 90.8236 289.383C89.1553 288.373 87.8116 286.905 86.9518 285.155C86.092 283.404 85.7522 281.443 85.9727 279.505C83.8581 279.906 81.671 279.627 79.7246 278.708C77.7781 277.79 76.172 276.28 75.136 274.393C74.1 272.507 73.6873 270.341 73.9568 268.206C74.2264 266.07 75.1644 264.075 76.6367 262.505C75.3117 261.914 74.128 261.047 73.1648 259.962C72.2015 258.877 71.4809 257.599 71.051 256.213C70.6211 254.827 70.4918 253.365 70.6718 251.925C70.8518 250.486 71.3369 249.101 72.0947 247.863V247.863ZM71.8547 256.237C72.3019 257.552 73.0342 258.751 73.9993 259.749C74.9643 260.748 76.1382 261.52 77.4367 262.011C78.7282 262.494 80.0962 262.738 81.4747 262.733C81.5746 262.733 81.6709 262.77 81.7449 262.837C81.819 262.904 81.8653 262.996 81.8747 263.095C81.8783 263.146 81.8717 263.196 81.8553 263.243C81.839 263.291 81.8132 263.335 81.7796 263.372C81.746 263.409 81.7053 263.439 81.6598 263.461C81.6143 263.482 81.5649 263.494 81.5147 263.495C80.1149 263.51 78.7236 263.277 77.4047 262.807C76.3911 263.814 75.6194 265.038 75.1479 266.386C74.6764 267.735 74.5174 269.173 74.6828 270.592C74.8483 272.011 75.3339 273.374 76.103 274.578C76.8722 275.782 77.9047 276.795 79.1227 277.541C80.1747 278.204 81.3509 278.645 82.5793 278.838C83.8076 279.031 85.0624 278.97 86.2667 278.661C87.4703 278.334 88.6084 277.802 89.6307 277.087C89.7108 277.04 89.8053 277.024 89.8964 277.042C89.9875 277.06 90.0688 277.111 90.1247 277.186C90.1806 277.26 90.2072 277.352 90.1995 277.445C90.1917 277.537 90.1502 277.624 90.0827 277.687C89.0727 278.393 87.9567 278.933 86.7767 279.287C86.5016 281.125 86.7755 283.003 87.5641 284.686C88.3527 286.368 89.6208 287.78 91.2092 288.745C92.7976 289.709 94.6355 290.182 96.4921 290.106C98.3487 290.029 100.141 289.405 101.645 288.313C101.409 286.992 101.384 285.642 101.569 284.313C101.584 284.215 101.638 284.126 101.718 284.067C101.798 284.008 101.899 283.983 101.998 283.998C102.096 284.014 102.185 284.067 102.244 284.148C102.303 284.228 102.328 284.329 102.313 284.427C101.98 286.095 102.099 287.822 102.658 289.428C103.218 291.034 104.197 292.46 105.494 293.56C106.792 294.66 108.36 295.392 110.035 295.681C111.711 295.97 113.434 295.805 115.025 295.203C116.345 294.702 117.535 293.908 118.505 292.882C119.475 291.855 120.199 290.622 120.625 289.275C119.848 288.469 119.176 287.568 118.625 286.593C118.577 286.506 118.566 286.403 118.594 286.307C118.623 286.211 118.688 286.13 118.776 286.082C118.864 286.035 118.967 286.024 119.063 286.052C119.158 286.08 119.239 286.146 119.287 286.233C120.157 287.981 121.564 289.404 123.302 290.294C125.039 291.184 127.016 291.494 128.943 291.179C130.526 290.944 132.023 290.31 133.293 289.337C134.564 288.364 135.566 287.084 136.206 285.617C136.846 284.15 137.102 282.545 136.951 280.952C136.8 279.359 136.247 277.83 135.343 276.509C135.169 276.253 83.2487 244.663 82.0527 243.923C78.8887 241.981 68.9447 247.711 71.8547 256.241V256.237Z" fill="#090809"/>
<path d="M85.601 225.825C86.3595 224.589 87.3729 223.529 88.5736 222.716C89.7742 221.903 91.1345 221.355 92.5637 221.109C93.9929 220.863 95.4581 220.924 96.8616 221.289C98.2652 221.654 99.5747 222.314 100.703 223.225C101.213 221.798 102.034 220.503 103.108 219.434C104.181 218.365 105.48 217.549 106.909 217.045C108.338 216.541 109.861 216.363 111.368 216.522C112.875 216.682 114.327 217.176 115.619 217.967C117.782 219.304 119.375 221.393 120.091 223.833C121.716 222.751 123.618 222.158 125.57 222.126C127.523 222.094 129.443 222.624 131.103 223.652C132.763 224.681 134.092 226.164 134.932 227.927C135.773 229.689 136.089 231.656 135.843 233.593C137.962 233.158 140.166 233.409 142.133 234.31C144.1 235.211 145.729 236.716 146.783 238.605C147.838 240.495 148.262 242.671 147.996 244.819C147.729 246.966 146.785 248.973 145.301 250.547C147.415 251.517 149.133 253.181 150.171 255.262C151.208 257.344 151.502 259.718 151.004 261.989C150.506 264.261 149.246 266.294 147.433 267.75C145.62 269.207 143.363 269.999 141.037 269.995L144.987 272.395C145.072 272.448 145.133 272.533 145.156 272.631C145.179 272.729 145.162 272.832 145.109 272.917C145.056 273.003 144.971 273.064 144.873 273.087C144.775 273.109 144.672 273.092 144.587 273.039C118.031 256.899 85.535 236.839 85.335 236.503C84.423 234.862 83.9668 233.006 84.0136 231.128C84.0603 229.251 84.6084 227.42 85.601 225.825V225.825ZM86.001 236.133C86.117 236.333 114.913 253.679 139.401 269.001C139.533 269.088 139.683 269.146 139.839 269.169C142.079 269.463 144.351 268.943 146.24 267.704C148.129 266.464 149.511 264.588 150.134 262.416C150.756 260.244 150.579 257.921 149.634 255.869C148.689 253.817 147.038 252.172 144.983 251.233C143.772 250.776 142.495 250.516 141.201 250.463C141.106 250.456 141.017 250.414 140.952 250.344C140.887 250.274 140.85 250.182 140.85 250.086C140.85 249.991 140.887 249.899 140.952 249.829C141.017 249.759 141.106 249.716 141.201 249.709C142.323 249.756 143.435 249.946 144.509 250.273C145.525 249.268 146.298 248.044 146.771 246.695C147.245 245.346 147.405 243.908 147.24 242.488C147.076 241.068 146.591 239.704 145.822 238.499C145.053 237.295 144.02 236.28 142.801 235.533C141.127 234.533 139.191 234.057 137.244 234.168C135.297 234.28 133.428 234.973 131.879 236.157C131.798 236.216 131.697 236.239 131.598 236.223C131.499 236.207 131.411 236.153 131.353 236.071C131.295 235.99 131.271 235.889 131.287 235.791C131.303 235.692 131.358 235.604 131.439 235.545C132.54 234.777 133.754 234.187 135.039 233.797C135.33 231.961 135.073 230.079 134.298 228.389C133.523 226.698 132.266 225.275 130.684 224.297C129.103 223.319 127.267 222.83 125.409 222.892C123.55 222.954 121.752 223.564 120.239 224.645C120.46 225.858 120.484 227.099 120.311 228.319C120.289 228.413 120.232 228.495 120.152 228.548C120.072 228.602 119.975 228.622 119.88 228.606C119.785 228.59 119.7 228.539 119.641 228.462C119.583 228.385 119.557 228.289 119.567 228.193C119.955 225.845 119.441 223.437 118.126 221.452C116.812 219.468 114.796 218.054 112.482 217.495C110.169 216.937 107.729 217.274 105.654 218.439C103.579 219.605 102.021 221.513 101.295 223.779C102.307 224.745 103.145 225.877 103.773 227.127C103.937 227.489 103.435 228.127 102.921 227.141C102.34 226.018 101.557 225.011 100.611 224.171C99.5827 223.237 98.361 222.541 97.033 222.133C95.7049 221.726 94.3033 221.616 92.9279 221.812C91.5526 222.008 90.2375 222.505 89.0764 223.268C87.9153 224.031 86.9369 225.041 86.2109 226.225C85.3092 227.713 84.815 229.412 84.7782 231.151C84.7413 232.891 85.163 234.609 86.001 236.133Z" fill="#090809"/>
<path d="M125.931 240.843C126.005 240.783 126.099 240.752 126.194 240.758C126.289 240.764 126.379 240.805 126.445 240.875C126.511 240.944 126.548 241.035 126.549 241.131C126.55 241.226 126.515 241.319 126.451 241.389C125.263 242.517 124.498 244.018 124.285 245.642C124.072 247.266 124.424 248.914 125.281 250.31C126.138 251.705 127.449 252.764 128.994 253.308C130.539 253.852 132.224 253.848 133.767 253.297C133.859 253.272 133.957 253.282 134.042 253.326C134.127 253.37 134.192 253.444 134.224 253.534C134.257 253.624 134.254 253.723 134.216 253.811C134.178 253.899 134.108 253.969 134.021 254.007C132.316 254.616 130.453 254.62 128.745 254.019C127.037 253.418 125.587 252.248 124.639 250.705C123.691 249.163 123.302 247.341 123.537 245.545C123.772 243.75 124.617 242.09 125.931 240.843V240.843Z" fill="#090809"/>
<path d="M102.943 234.391C103.167 236.011 103.94 237.504 105.132 238.622C106.324 239.741 107.864 240.417 109.494 240.538C111.124 240.659 112.747 240.217 114.091 239.287C115.435 238.357 116.42 236.994 116.881 235.425C116.909 235.329 116.973 235.248 117.061 235.2C117.149 235.152 117.252 235.141 117.348 235.168C117.444 235.196 117.525 235.261 117.573 235.349C117.621 235.436 117.633 235.539 117.605 235.635C117.097 237.37 116.009 238.877 114.524 239.906C113.038 240.936 111.244 241.424 109.442 241.29C107.64 241.156 105.938 240.408 104.621 239.171C103.304 237.934 102.451 236.282 102.205 234.491C102.205 234.401 102.238 234.313 102.298 234.245C102.358 234.177 102.44 234.133 102.53 234.12C102.62 234.108 102.711 234.129 102.787 234.179C102.863 234.229 102.918 234.304 102.943 234.391V234.391Z" fill="#090809"/>
<path d="M48.1308 217.493C73.0628 174.637 131.293 168.743 162.683 206.913C170.836 219.281 180.007 230.947 190.101 241.789C190.135 241.825 190.161 241.868 190.179 241.914C190.196 241.96 190.204 242.009 190.203 242.059C190.201 242.108 190.19 242.157 190.17 242.202C190.15 242.247 190.121 242.288 190.085 242.321C190.049 242.355 190.006 242.382 189.96 242.399C189.914 242.417 189.865 242.425 189.815 242.424C189.766 242.422 189.717 242.411 189.672 242.391C189.627 242.37 189.587 242.341 189.553 242.305C179.428 231.453 170.232 219.769 162.063 207.377C162.046 207.353 162.032 207.327 162.023 207.299C131.119 169.863 73.5788 175.251 48.7848 217.863C24.0528 260.375 46.4528 315.437 93.0028 325.957C108.544 327.907 123.933 330.914 139.065 334.957C139.156 334.988 139.233 335.052 139.279 335.137C139.324 335.222 139.335 335.322 139.31 335.415C139.284 335.508 139.223 335.587 139.141 335.637C139.058 335.687 138.959 335.703 138.865 335.681C123.887 331.466 108.592 328.467 93.1308 326.715C93.078 326.726 93.0236 326.726 92.9708 326.715C45.7608 316.159 23.1588 260.421 48.1308 217.493Z" fill="#090809"/>
<path d="M129.581 162.963C141.981 171.563 164.627 185.421 191.243 189.643C193.283 189.969 195.799 189.497 197.349 190.883C202.247 195.261 203.255 210.537 215.349 210.869C217.033 215.113 218.549 219.229 220.191 222.737C219.615 221.937 217.649 221.537 214.779 221.513C209.809 221.622 204.864 222.258 200.029 223.413C191.985 225.213 185.309 227.767 182.681 229.863C181.807 230.559 181.379 231.209 181.507 231.763C178.769 225.873 179.839 219.889 181.639 213.661C159.935 209.471 129.865 194.133 115.439 181.515C116.585 174.295 122.973 166.689 129.581 162.963Z" fill="#BF0808"/>
<path d="M167.941 345.372C167.96 345.326 167.987 345.285 168.022 345.25C168.057 345.216 168.099 345.189 168.144 345.17C168.19 345.151 168.238 345.142 168.288 345.142C168.337 345.142 168.385 345.152 168.431 345.171C185.363 352.073 201.967 360.533 218.873 369.355C217.515 366.823 217.565 362.294 219.073 356.204C221.267 348.114 224.442 340.323 228.527 333.003L168.483 296.549C168.397 296.496 168.336 296.412 168.313 296.313C168.29 296.215 168.307 296.112 168.36 296.027C168.413 295.941 168.498 295.88 168.596 295.857C168.694 295.834 168.797 295.85 168.883 295.904L228.879 332.327C230.025 330.233 231.155 328.288 232.321 326.38L169.671 288.294C169.585 288.24 169.524 288.156 169.501 288.057C169.478 287.959 169.495 287.856 169.548 287.77C169.601 287.685 169.686 287.624 169.784 287.601C169.882 287.578 169.985 287.594 170.071 287.647L232.715 325.738C236.972 318.63 242.076 312.066 247.915 306.188C252.629 301.655 256.663 299.336 259.567 299.436C243.367 287.484 230.297 278.164 217.923 268.236C217.85 268.171 217.804 268.081 217.796 267.984C217.788 267.887 217.817 267.791 217.878 267.715C217.939 267.639 218.027 267.59 218.124 267.577C218.221 267.565 218.318 267.59 218.397 267.647C235.243 281.173 260.731 299.08 261.637 300.048C267.379 303.612 262.977 321.797 251.543 341.615C241.275 359.415 229.309 371.648 222.661 371.648C221.771 371.668 220.897 371.402 220.171 370.887C170.201 344.771 167.441 346.59 167.941 345.372Z" fill="#090809"/>
<path d="M6.64504 192.147L1.88903 181.511H10.421C10.4832 181.507 10.5435 181.488 10.597 181.456C10.6505 181.424 10.6958 181.38 10.7292 181.327C10.7626 181.274 10.7833 181.214 10.7895 181.152C10.7957 181.09 10.7873 181.028 10.765 180.969L5.76504 169.815C5.72419 169.724 5.64877 169.653 5.55538 169.617C5.46199 169.582 5.35825 169.585 5.26702 169.625C5.17579 169.666 5.10453 169.742 5.0689 169.835C5.03327 169.928 5.03617 170.032 5.07702 170.123L9.83102 180.759H1.29903C1.23522 180.761 1.1729 180.779 1.11773 180.811C1.06255 180.844 1.01625 180.889 0.983024 180.943C0.819024 181.197 0.561043 180.445 5.94704 192.455C5.98789 192.548 6.0638 192.621 6.15813 192.657C6.25246 192.694 6.35747 192.691 6.45003 192.65C6.54259 192.61 6.61512 192.534 6.65169 192.439C6.68826 192.345 6.68588 192.24 6.64504 192.147V192.147Z" fill="#090809"/>
<path d="M182.695 445.155L192.433 445.441L192.719 435.701C192.728 435.606 192.773 435.518 192.845 435.454C192.917 435.391 193.01 435.357 193.106 435.36C193.202 435.363 193.293 435.402 193.361 435.469C193.429 435.537 193.469 435.628 193.473 435.723L193.187 445.463L202.927 445.749C203.022 445.758 203.111 445.802 203.175 445.873C203.239 445.944 203.273 446.036 203.272 446.132C203.27 446.228 203.233 446.319 203.166 446.388C203.1 446.457 203.01 446.498 202.915 446.503L193.165 446.217L192.879 455.957C192.876 456.055 192.835 456.149 192.765 456.217C192.695 456.285 192.601 456.323 192.503 456.323C192.401 456.322 192.305 456.28 192.234 456.207C192.163 456.135 192.124 456.037 192.125 455.935L192.411 446.195L182.671 445.909C182.575 445.9 182.487 445.855 182.424 445.783C182.36 445.711 182.327 445.617 182.33 445.521C182.333 445.425 182.372 445.334 182.44 445.266C182.508 445.198 182.599 445.159 182.695 445.155V445.155Z" fill="#090809"/>
<path d="M163.745 91.2974H170.157C171.639 91.3039 173.064 90.7245 174.121 89.6854C175.178 88.6463 175.782 87.2316 175.801 85.7494V79.3854C175.801 78.9654 176.557 78.7854 176.555 79.3854V85.7554C176.54 87.2433 177.115 88.6764 178.155 89.741C179.194 90.8056 180.613 91.4149 182.101 91.4354H188.461C188.556 91.4424 188.645 91.4851 188.71 91.555C188.775 91.625 188.812 91.7169 188.812 91.8124C188.812 91.9079 188.775 91.9999 188.71 92.0698C188.645 92.1398 188.556 92.1825 188.461 92.1894H182.061C180.58 92.1856 179.156 92.7663 178.1 93.8054C177.044 94.8445 176.441 96.2581 176.421 97.7394V104.103C176.421 104.203 176.381 104.299 176.311 104.369C176.24 104.44 176.145 104.479 176.045 104.479C175.945 104.479 175.85 104.44 175.779 104.369C175.709 104.299 175.669 104.203 175.669 104.103V97.7334C175.684 96.2447 175.108 94.8108 174.068 93.7458C173.028 92.6807 171.608 92.0715 170.119 92.0514H163.755C163.66 92.0459 163.57 92.0044 163.504 91.9353C163.438 91.8662 163.4 91.7747 163.399 91.6791C163.398 91.5835 163.433 91.491 163.497 91.4202C163.561 91.3494 163.65 91.3055 163.745 91.2974V91.2974ZM176.073 95.5774C176.4 94.6999 176.915 93.9048 177.583 93.2483C178.251 92.5917 179.054 92.0896 179.937 91.7774C179.06 91.4506 178.264 90.9352 177.608 90.2675C176.951 89.5999 176.449 88.7963 176.137 87.9134C175.81 88.7909 175.295 89.586 174.627 90.2426C173.959 90.8992 173.156 91.4013 172.273 91.7134C173.151 92.0403 173.946 92.5557 174.602 93.2234C175.259 93.891 175.761 94.6946 176.073 95.5774V95.5774Z" fill="#090809"/>
<path d="M324.801 432.407L313.601 425.881C313.515 425.838 313.416 425.829 313.323 425.856C313.231 425.884 313.152 425.945 313.104 426.028C313.055 426.112 313.041 426.21 313.062 426.304C313.084 426.398 313.141 426.48 313.221 426.533C322.325 431.831 324.043 432.869 324.447 433.067C324.533 433.104 324.63 433.107 324.719 433.076C324.808 433.045 324.881 432.982 324.926 432.899C324.97 432.816 324.982 432.72 324.959 432.629C324.936 432.538 324.879 432.459 324.801 432.407Z" fill="#090809"/>
<path d="M368.223 362.809C368.306 362.81 368.387 362.783 368.454 362.732C368.52 362.681 368.567 362.61 368.589 362.529C368.61 362.449 368.604 362.363 368.571 362.287C368.539 362.21 368.482 362.146 368.409 362.105L356.947 355.593C356.86 355.544 356.757 355.531 356.661 355.558C356.565 355.584 356.483 355.648 356.434 355.734C356.385 355.821 356.372 355.924 356.398 356.02C356.425 356.116 356.488 356.198 356.575 356.247C368.637 363.089 368.023 362.809 368.223 362.809Z" fill="#090809"/>
<path d="M249.631 369.709C254.985 353.729 263.459 338.97 274.563 326.291C280.939 319.331 285.837 314.587 290.747 316.905C293.721 318.537 294.459 320.847 293.959 324.255C294.807 323.19 295.99 322.442 297.316 322.131C298.642 321.82 300.034 321.966 301.267 322.544C302.5 323.122 303.502 324.099 304.112 325.316C304.722 326.534 304.903 327.922 304.627 329.255C305.599 328.462 306.793 327.99 308.045 327.905C309.297 327.82 310.544 328.127 311.614 328.782C312.684 329.437 313.524 330.409 314.017 331.563C314.51 332.717 314.632 333.995 314.367 335.221C315.284 334.474 316.402 334.016 317.58 333.905C318.758 333.793 319.942 334.035 320.983 334.597C340.123 345.209 325.535 337.299 349.143 350.705C349.23 350.755 349.293 350.837 349.319 350.933C349.346 351.03 349.333 351.133 349.283 351.219C349.233 351.306 349.151 351.37 349.055 351.396C348.959 351.422 348.856 351.409 348.769 351.359L333.519 342.695C336.543 348.669 331.897 364.973 321.771 382.617L358.293 404.173C358.379 404.224 358.441 404.307 358.466 404.404C358.491 404.501 358.476 404.603 358.425 404.689C358.374 404.775 358.291 404.837 358.194 404.862C358.097 404.887 357.995 404.872 357.909 404.821L321.401 383.277C311.201 400.837 299.385 413.037 292.707 413.373L306.291 421.285C306.371 421.339 306.428 421.421 306.45 421.515C306.471 421.609 306.457 421.707 306.408 421.79C306.36 421.874 306.281 421.935 306.189 421.963C306.096 421.99 305.997 421.981 305.911 421.937L278.689 406.115C277.799 405.41 277.124 404.47 276.739 403.401C276.355 402.333 276.277 401.178 276.513 400.067C275.539 400.845 274.35 401.304 273.106 401.38C271.862 401.457 270.625 401.148 269.564 400.495C268.502 399.842 267.668 398.877 267.175 397.732C266.683 396.588 266.556 395.319 266.811 394.099C266.047 394.707 265.15 395.126 264.194 395.321C263.237 395.516 262.248 395.482 261.307 395.221C260.529 394.991 259.806 394.608 259.179 394.094C258.551 393.58 258.033 392.946 257.654 392.229C257.276 391.512 257.044 390.727 256.973 389.919C256.902 389.111 256.993 388.297 257.241 387.525C256.181 388.31 254.919 388.775 253.603 388.864C252.287 388.954 250.973 388.664 249.817 388.029C244.935 384.943 246.801 378.883 249.631 369.709ZM250.213 387.391C251.529 388.063 253.038 388.256 254.481 387.936C255.923 387.616 257.21 386.804 258.119 385.639C258.177 385.563 258.261 385.512 258.355 385.495C258.45 385.479 258.547 385.5 258.626 385.552C258.706 385.605 258.763 385.686 258.785 385.779C258.807 385.873 258.793 385.97 258.745 386.053C258.231 386.784 257.895 387.625 257.765 388.509C257.634 389.393 257.713 390.295 257.995 391.143C258.269 391.942 258.731 392.664 259.342 393.247C259.954 393.831 260.696 394.259 261.507 394.495C262.598 394.802 263.758 394.754 264.821 394.359C265.883 393.963 266.792 393.241 267.417 392.295C267.781 391.707 268.435 392.223 268.187 392.633C267.448 393.827 267.214 395.265 267.535 396.631C267.856 397.998 268.707 399.181 269.901 399.919C271.094 400.658 272.533 400.893 273.899 400.571C275.265 400.25 276.448 399.399 277.187 398.205C277.557 397.831 278.121 398.243 277.881 398.643C277.223 399.746 276.987 401.049 277.219 402.312C277.45 403.575 278.133 404.71 279.139 405.507L288.635 411.005C283.157 400.167 302.755 360.235 320.745 344.855C323.039 342.937 326.449 340.485 329.421 340.325L320.621 335.267C319.428 334.634 318.037 334.483 316.735 334.843C315.433 335.203 314.319 336.049 313.621 337.205C313.56 337.29 313.468 337.349 313.365 337.369C313.263 337.389 313.156 337.369 313.067 337.313C312.979 337.257 312.915 337.17 312.888 337.068C312.862 336.967 312.875 336.859 312.925 336.767C313.663 335.587 313.905 334.163 313.6 332.804C313.294 331.446 312.466 330.263 311.294 329.511C310.122 328.76 308.701 328.501 307.339 328.79C305.977 329.08 304.784 329.894 304.019 331.057C303.755 331.457 302.931 331.233 303.219 330.749C303.648 330.054 303.908 329.267 303.978 328.452C304.047 327.637 303.924 326.818 303.619 326.059C303.244 325.103 302.598 324.277 301.761 323.683C300.924 323.088 299.931 322.75 298.905 322.712C297.878 322.673 296.863 322.934 295.983 323.464C295.103 323.993 294.397 324.768 293.951 325.693C293.907 325.769 293.685 326.157 293.551 326.377C293.221 326.921 292.763 326.557 292.813 326.191C293.713 322.239 293.849 319.467 290.413 317.581C285.981 315.499 281.075 320.303 275.121 326.801C264.09 339.396 255.671 354.058 250.353 369.933C247.527 379.087 245.827 384.615 250.213 387.391Z" fill="#090809"/>
<path d="M376.623 415.997C376.706 415.997 376.786 415.97 376.852 415.919C376.918 415.869 376.965 415.798 376.986 415.718C377.008 415.638 377.003 415.553 376.971 415.476C376.94 415.4 376.884 415.335 376.813 415.293L365.613 408.767C365.527 408.724 365.428 408.715 365.335 408.742C365.243 408.77 365.164 408.831 365.116 408.914C365.067 408.998 365.052 409.096 365.074 409.19C365.096 409.284 365.153 409.366 365.233 409.419C377.001 416.263 376.423 415.997 376.623 415.997Z" fill="#090809"/>
<path d="M296.633 227.539C296.315 221.359 298.093 215.252 301.68 210.209C305.267 205.166 310.452 201.482 316.394 199.755C322.337 198.027 328.689 198.358 334.42 200.692C340.151 203.026 344.926 207.228 347.971 212.615C353.905 211.891 363.689 211.255 364.693 214.723C365.805 218.565 355.151 223.799 351.503 225.523C351.636 231.585 349.759 237.52 346.165 242.404C342.572 247.287 337.463 250.844 331.636 252.52C325.809 254.196 319.591 253.896 313.952 251.668C308.314 249.439 303.571 245.408 300.463 240.201C280.065 242.663 278.137 236.385 296.633 227.539ZM323.523 199.429C318.891 199.53 314.365 200.833 310.388 203.209C306.412 205.586 303.12 208.955 300.837 212.986C298.554 217.017 297.358 221.572 297.365 226.205C297.373 230.838 298.583 235.389 300.879 239.413C318.077 236.929 334.852 232.096 350.735 225.049C350.456 218.067 347.449 211.472 342.361 206.682C337.273 201.892 330.51 199.288 323.523 199.429V199.429ZM363.967 214.933C363.367 212.863 357.409 212.255 348.367 213.333C350.221 216.853 351.283 220.735 351.481 224.707C354.425 223.297 364.875 218.073 363.967 214.933ZM343.307 244.629C348.167 239.601 350.843 232.856 350.753 225.863C334.984 232.825 318.343 237.611 301.285 240.089C303.421 243.566 306.325 246.508 309.774 248.688C313.223 250.869 317.125 252.231 321.182 252.669C325.239 253.107 329.342 252.61 333.178 251.217C337.013 249.823 340.478 247.57 343.307 244.629V244.629ZM284.707 237.867C285.307 239.903 290.973 240.557 300.061 239.511C298.142 236.078 296.989 232.271 296.681 228.349C288.581 232.263 284.113 235.801 284.711 237.863L284.707 237.867Z" fill="#090809"/>
<path d="M94.2186 147.339C99.7411 150.12 105.401 152.618 111.177 154.825C110.483 153.669 109.629 151.853 110.487 150.985C111.833 149.621 125.901 161.887 127.833 163.585C128.376 163.216 128.941 162.882 129.527 162.585C130.655 162.471 156.493 183.741 191.305 189.263C191.729 189.327 192.157 189.367 192.587 189.383C194.787 188.849 194.313 187.933 194.987 186.083C192.329 185.649 188.253 184.705 187.403 182.911C185.171 178.203 191.175 165.655 193.575 159.971C196.653 152.681 213.903 156.083 227.975 162.905C239.759 168.619 249.311 176.731 246.447 182.971C244.977 186.171 240.247 187.421 233.421 186.517C240.022 189.134 245.951 193.199 250.771 198.413C270.105 220.613 231.571 223.565 208.921 196.601C212.129 202.097 214.816 207.881 216.945 213.877C220.039 221.815 220.667 222.729 220.725 222.983C221.073 224.549 218.325 226.093 216.897 226.823C217.878 228.956 219.349 230.827 221.189 232.285C235.969 244.031 236.705 260.661 225.763 273.415L225.163 272.955C235.827 260.555 235.199 244.385 220.717 232.877C219.623 232.011 218.651 231.002 217.825 229.877C207.212 229.732 196.759 232.477 187.587 237.817C188.283 238.937 189.069 240.171 189.961 241.551C192.669 240.243 195.444 238.965 198.287 237.715C198.377 237.683 198.475 237.687 198.563 237.724C198.651 237.762 198.721 237.832 198.759 237.919C198.798 238.006 198.802 238.105 198.771 238.195C198.739 238.286 198.675 238.361 198.591 238.405C180.985 245.892 164.552 255.881 149.801 268.063C146.267 271.051 143.411 274.757 141.422 278.934C139.433 283.112 138.356 287.665 138.265 292.291C137.989 305.355 138.373 319.871 139.505 338.139C148.768 340.254 158.435 339.776 167.445 336.757C167.189 324.957 167.645 313.483 168.083 301.575C163.933 289.715 164.083 290.235 164.083 290.033C164.086 289.972 164.104 289.912 164.137 289.86C164.169 289.808 164.215 289.765 164.269 289.735C164.357 289.689 168.621 288.105 168.713 288.069C169.399 287.771 197.377 275.587 213.419 270.535C218.219 269.025 222.219 263.163 223.371 255.949C223.39 255.854 223.446 255.77 223.526 255.714C223.606 255.659 223.704 255.636 223.8 255.651C223.896 255.667 223.983 255.718 224.042 255.796C224.101 255.873 224.128 255.971 224.117 256.067C222.917 263.557 218.717 269.667 213.645 271.255C198.283 276.093 171.915 287.499 169.225 288.669C168.943 303.949 167.825 319.967 168.211 336.981C168.214 337.007 168.214 337.033 168.211 337.059C168.547 351.779 169.387 352.173 168.743 352.423C167.583 352.869 166.451 353.261 165.365 353.589C165.253 359.675 167.179 362.919 165.525 366.877C164.539 369.128 163.12 371.163 161.349 372.865C154.073 380.199 148.149 401.747 142.949 398.375C142.041 397.775 141.331 395.223 142.949 380.731C143.628 371.812 143.528 362.85 142.651 353.947C141.777 353.691 140.889 353.397 140.005 353.067C139.937 353.042 139.878 352.998 139.834 352.941C139.791 352.883 139.765 352.813 139.761 352.741C137.865 327.303 137.175 308.653 137.521 292.273C137.615 287.541 138.716 282.883 140.751 278.609C142.785 274.335 145.707 270.544 149.321 267.487C161.529 257.337 174.949 248.74 189.273 241.891C187.603 239.303 185.643 236.209 184.141 233.505C182.365 233.239 181.361 232.695 181.153 231.889C178.553 226.289 179.263 220.649 181.165 213.953C158.543 209.467 128.867 193.753 115.199 181.799C115.151 181.757 115.114 181.703 115.093 181.643C115.071 181.583 115.065 181.519 115.075 181.455C115.213 180.585 115.414 179.725 115.675 178.883C113.546 176.624 111.141 174.642 108.517 172.985C107.547 173.514 106.459 173.789 105.355 173.785C101.695 173.785 98.2326 170.815 98.0006 168.515C97.9539 167.973 98.0897 167.43 98.3866 166.973C97.9581 166.722 97.5891 166.38 97.305 165.973C97.0209 165.565 96.8283 165.101 96.7406 164.611C96.7021 164.176 96.7747 163.738 96.9518 163.339C97.1288 162.939 97.4044 162.591 97.7527 162.327C97.4554 161.928 97.2876 161.447 97.2719 160.949C97.2562 160.451 97.3932 159.961 97.6646 159.543C98.3709 158.719 99.2478 158.057 100.235 157.605C101.222 157.152 102.295 156.919 103.381 156.921C96.2126 153.173 93.1486 149.005 93.0866 147.813C93.0606 147.295 93.5006 146.923 94.2186 147.339ZM140.489 352.433C149.489 355.645 159.358 355.423 168.205 351.811C167.805 346.991 167.581 342.235 167.467 337.535C158.46 340.514 148.814 340.99 139.559 338.913C139.827 343.205 140.137 347.701 140.489 352.433ZM110.973 151.577C110.479 152.295 111.869 154.631 112.373 155.283C115.963 156.457 119.397 158.062 122.601 160.063C117.847 156.111 112.073 151.689 110.973 151.577ZM207.331 195.567C203.015 189.205 200.863 180.497 199.819 172.911C199.809 172.848 199.817 172.783 199.84 172.723C199.864 172.663 199.903 172.61 199.953 172.569C204.991 168.433 202.287 164.849 199.575 167.611C197.789 169.431 195.321 168.715 197.399 162.895C196.194 162.369 195.034 161.743 193.933 161.025C188.779 173.081 186.987 178.965 187.813 181.849C188.633 184.699 195.711 181.223 198.359 179.849C198.427 179.815 198.503 179.801 198.579 179.811C198.655 179.821 198.726 179.853 198.783 179.904C198.84 179.955 198.88 180.022 198.898 180.096C198.916 180.17 198.912 180.248 198.885 180.319C198.178 182.361 197.147 184.276 195.831 185.989C195.195 187.459 195.415 188.651 194.297 189.475C195.493 189.47 196.657 189.867 197.601 190.603C202.557 195.029 203.461 209.663 214.783 210.463C212.838 205.246 210.339 200.252 207.331 195.567ZM187.187 237.185C196.323 231.85 206.727 229.071 217.307 229.139C215.936 226.911 214.977 224.455 214.477 221.887C205.775 221.887 188.781 225.801 183.155 229.975C184.373 232.447 185.718 234.854 187.187 237.185ZM188.001 214.205C188.097 214.215 188.185 214.261 188.248 214.335C188.311 214.408 188.344 214.502 188.34 214.598C188.335 214.695 188.294 214.786 188.225 214.853C188.156 214.92 188.063 214.958 187.967 214.959H187.933C186.095 214.791 184.069 214.501 181.907 214.097C180.147 220.277 179.421 225.515 181.431 230.623C183.671 227.175 195.901 223.953 199.947 223.047C204.975 221.826 210.127 221.188 215.301 221.145C216.659 221.123 218.013 221.317 219.311 221.719C217.911 218.581 216.601 215.063 215.089 211.239C202.999 210.697 201.823 195.387 197.089 191.167C195.665 189.889 193.207 190.347 191.177 190.017C171.231 186.853 150.499 177.901 129.555 163.417C123.281 167.031 117.085 174.109 115.845 181.377C131.701 195.147 166.147 212.217 188.001 214.205ZM104.967 156.875C105.928 156.901 106.884 157.024 107.821 157.243C107.912 157.272 107.99 157.334 108.037 157.417C108.085 157.5 108.099 157.598 108.077 157.692C108.055 157.785 107.998 157.867 107.918 157.92C107.838 157.973 107.741 157.993 107.647 157.977C102.511 156.765 96.5546 159.049 98.3486 161.863C99.6909 161.1 101.171 160.609 102.703 160.419C104.235 160.228 105.79 160.342 107.279 160.753C107.327 160.765 107.372 160.785 107.413 160.814C107.453 160.843 107.487 160.88 107.513 160.922C107.539 160.964 107.557 161.011 107.565 161.059C107.573 161.108 107.571 161.158 107.56 161.206C107.548 161.255 107.528 161.3 107.499 161.34C107.47 161.38 107.433 161.415 107.391 161.441C107.349 161.467 107.302 161.484 107.254 161.492C107.205 161.5 107.155 161.499 107.107 161.487C104.223 160.807 100.249 161.011 98.1866 162.947C97.9528 163.126 97.7661 163.358 97.6431 163.626C97.52 163.893 97.4642 164.186 97.4807 164.479C97.5628 164.875 97.7273 165.25 97.9637 165.578C98.2001 165.906 98.503 166.18 98.8526 166.383C100.825 164.373 104.709 164.299 107.501 164.863C107.595 164.887 107.676 164.947 107.727 165.029C107.779 165.111 107.797 165.21 107.778 165.305C107.758 165.4 107.703 165.484 107.624 165.539C107.544 165.595 107.447 165.618 107.351 165.603C103.417 164.803 100.729 165.689 99.5246 166.781C99.2729 166.976 99.0712 167.227 98.9363 167.515C98.8013 167.803 98.737 168.12 98.7486 168.437C98.9982 169.273 99.4284 170.044 100.009 170.695C100.589 171.346 101.305 171.862 102.107 172.205C102.963 172.681 103.915 172.957 104.893 173.012C105.871 173.067 106.849 172.9 107.753 172.523C106.199 171.573 104.536 170.815 102.801 170.263C102.705 170.255 102.617 170.21 102.553 170.139C102.489 170.067 102.455 169.975 102.457 169.879C102.459 169.783 102.497 169.692 102.564 169.623C102.631 169.555 102.721 169.514 102.817 169.509C107.867 171.171 112.394 174.126 115.947 178.081C118.21 172.397 122.114 167.516 127.163 164.059C122.963 160.859 118.313 158.298 113.363 156.459C106.728 154.006 100.232 151.194 93.9026 148.035C94.3526 149.193 97.3826 153.209 104.969 156.875H104.967Z" fill="#090809"/>
<path fill-rule="evenodd" clip-rule="evenodd" d="M434 0H234V51.3946C295.261 65.2686 341 120.043 341 185.5V486C341 491.523 336.523 496 331 496H434V0Z" fill="white"/>
<path d="M218 254L226.5 255L219.5 268.5L217.5 267L218 254Z" fill="white"/>
</svg>
