<svg width="32" height="38" viewBox="0 0 32 38" fill="none" xmlns="http://www.w3.org/2000/svg">
<path d="M10.1978 38C8.94109 37.9317 7.75847 37.3835 6.89394 36.4686C5.8598 35.4734 4.93695 34.3686 4.14169 33.1738C2.89946 31.3944 1.91751 29.4468 1.22554 27.3899C0.441765 25.1771 0.0291267 22.8499 0.00431732 20.5024C-0.0559116 18.199 0.515014 15.923 1.65527 13.9209C2.48989 12.4776 3.68036 11.2724 5.11307 10.4202C6.52994 9.5716 8.14678 9.11485 9.7981 9.09665C11.0429 9.17031 12.2662 9.45492 13.4158 9.93834C14.3323 10.3417 15.297 10.6253 16.286 10.782C17.3773 10.5533 18.4437 10.2185 19.47 9.7824C20.6845 9.308 21.9705 9.04235 23.2735 8.99669C23.4474 8.99669 23.6193 8.99669 23.7852 9.01668C26.6425 9.09956 29.3 10.5025 30.9806 12.8153C28.3083 14.2444 26.6674 17.0563 26.7373 20.0866C26.7109 22.3849 27.669 24.5847 29.3697 26.1304C30.135 26.8598 31.0262 27.4443 32 27.8557C31.8001 28.4555 31.5703 29.0353 31.3264 29.6191C30.7721 30.9092 30.0884 32.1397 29.2857 33.2917C28.5279 34.4457 27.6459 35.513 26.6554 36.4746C25.7512 37.372 24.546 37.9014 23.2735 37.96C22.1949 37.9122 21.1354 37.6591 20.1515 37.2143C19.0906 36.752 17.9505 36.4987 16.7937 36.4686C15.6042 36.4919 14.4303 36.7437 13.3359 37.2103C12.3905 37.6369 11.3806 37.9025 10.3477 37.996L10.1978 38ZM16.4938 8.99669C16.3439 8.99669 16.194 8.99669 16.0441 8.97869C16.0126 8.74072 15.9959 8.50101 15.9942 8.26096C16.0595 6.26396 16.8398 4.35686 18.1928 2.88694C18.949 2.04241 19.8655 1.3567 20.8891 0.86968C21.8442 0.377863 22.888 0.0821667 23.9591 0C23.9891 0.261903 23.9891 0.517809 23.9891 0.761719C23.9608 2.72729 23.2225 4.61625 21.9104 6.07976C20.6243 7.80469 18.6415 8.87247 16.4938 8.99669Z" fill="#090809"/>
</svg>
