<svg width="176" height="215" viewBox="0 0 176 215" fill="none" xmlns="http://www.w3.org/2000/svg">
<path d="M54.998 42.9053L31.4498 2.11681C31.0784 1.47323 30.544 0.938787 29.9005 0.567205C29.257 0.195624 28.527 0 27.7839 0C27.0408 0 26.3108 0.195624 25.6672 0.567205C25.0237 0.938787 24.4894 1.47323 24.1179 2.11681L0.56742 42.9053C0.195712 43.5489 1.21834e-05 44.279 5.68842e-10 45.0222C-1.21823e-05 45.7654 0.195664 46.4955 0.567351 47.1391C0.939037 47.7827 1.47363 48.3171 2.11737 48.6885C2.76111 49.06 3.4913 49.2554 4.23452 49.2551H25.9995V214.764C26.0035 214.817 26.0276 214.868 26.0672 214.905C26.1068 214.941 26.1588 214.962 26.2128 214.962C26.2668 214.962 26.3189 214.941 26.3584 214.905C26.398 214.868 26.4222 214.817 26.4261 214.764H29.1416C29.1416 214.957 29.4811 215.165 29.5082 214.694C29.6712 212.287 29.5671 193.023 29.5671 49.2517H51.3321C52.0748 49.2518 52.8045 49.0564 53.4478 48.6851C54.0911 48.3139 54.6254 47.7798 54.9969 47.1366C55.3684 46.4935 55.5641 45.7639 55.5643 45.0211C55.5645 44.2784 55.3692 43.5486 54.998 42.9053Z" fill="#090809"/>
<path d="M26.7007 38.8226V28.8226" stroke="white" stroke-width="2" stroke-linecap="round" stroke-linejoin="round"/>
<path d="M32.7007 38.8226V22.8226" stroke="white" stroke-width="2" stroke-linecap="round" stroke-linejoin="round"/>
<path d="M20.7007 38.8226V34.8226" stroke="white" stroke-width="2" stroke-linecap="round" stroke-linejoin="round"/>
<path d="M87.6026 170.612C87.7451 176.609 82.976 188.479 80.2627 204.23C75.6826 205.536 70.8284 205.536 66.2483 204.23L73.2148 168.201C77.6336 170.511 82.6723 171.355 87.6026 170.612Z" fill="#15CD98"/>
<path d="M145.923 191.109C144.324 196.323 142.443 197.863 137.53 201.089L111.68 173.209C116.259 171.526 120.192 168.445 122.922 164.402C126.562 167.392 129.854 170.781 132.737 174.507C136.686 179.92 145.923 191.109 145.923 191.109Z" fill="#15CD98"/>
<path d="M120.56 159.247C132.075 152.673 140.75 142.07 144.911 129.48C149.073 116.891 148.426 103.207 143.097 91.0653C143.079 91.0144 143.08 90.9585 143.102 90.9089C143.123 90.8593 143.163 90.8196 143.212 90.7978C143.261 90.776 143.317 90.7738 143.368 90.7915C143.419 90.8092 143.462 90.8456 143.487 90.8933C148.859 103.131 149.511 116.923 145.317 129.612C141.124 142.302 132.382 152.99 120.776 159.617C120.727 159.645 120.669 159.653 120.614 159.639C120.559 159.624 120.512 159.589 120.483 159.54C120.454 159.491 120.446 159.432 120.461 159.377C120.475 159.322 120.511 159.275 120.56 159.247Z" fill="#090809"/>
<path d="M142.501 89.7674C138.133 80.619 131.272 72.8895 122.706 67.4685C114.139 62.0475 104.217 59.1554 94.0793 59.1249C84.9112 59.0942 75.8905 61.4312 67.8905 65.9095C59.8905 70.3878 53.1823 76.8557 48.4153 84.6871C48.3853 84.7351 48.3374 84.7692 48.2822 84.7819C48.2271 84.7947 48.1691 84.785 48.1211 84.755C48.0731 84.725 48.039 84.6771 48.0262 84.6219C48.0135 84.5668 48.0232 84.5088 48.0532 84.4608C52.8587 76.5674 59.6208 70.0485 67.6848 65.5353C75.7489 61.0221 84.8416 58.6675 94.0826 58.6994C104.301 58.7303 114.303 61.6459 122.937 67.1106C131.571 72.5752 138.487 80.3668 142.889 89.5886C142.9 89.6141 142.907 89.6417 142.908 89.6697C142.909 89.6977 142.905 89.7257 142.895 89.752C142.885 89.7783 142.871 89.8025 142.851 89.8231C142.832 89.8437 142.81 89.8603 142.784 89.8721C142.733 89.8958 142.674 89.8981 142.621 89.8784C142.567 89.8588 142.524 89.8189 142.501 89.7674Z" fill="#090809"/>
<path d="M73.2201 162.489C60.8872 157.324 50.9096 147.766 45.2187 135.667C39.5279 123.567 38.5287 109.787 42.4146 96.993C42.4311 96.939 42.4684 96.8938 42.5182 96.8672C42.5681 96.8407 42.6265 96.8351 42.6805 96.8516C42.7345 96.8681 42.7797 96.9054 42.8063 96.9552C42.8328 97.0051 42.8384 97.0635 42.8219 97.1175C38.9669 109.81 39.9584 123.481 45.6046 135.485C51.2507 147.488 61.1498 156.97 73.3853 162.093C73.4378 162.115 73.4794 162.157 73.5011 162.21C73.5227 162.262 73.5226 162.322 73.5007 162.374C73.4788 162.427 73.4369 162.468 73.3843 162.49C73.3316 162.511 73.2726 162.511 73.2201 162.489Z" fill="#090809"/>
<path d="M89.4468 166.469C89.3336 166.459 89.3201 166.044 89.595 166.053C90.0804 166.067 91.2492 166.239 94.0824 166.239C97.0964 166.363 100.114 166.115 103.067 165.502C103.122 165.487 103.18 165.494 103.229 165.522C103.278 165.55 103.314 165.596 103.329 165.65C103.344 165.705 103.337 165.763 103.309 165.812C103.281 165.861 103.235 165.897 103.181 165.912C99.673 166.858 93.0381 166.773 89.4468 166.469Z" fill="#090809"/>
<path d="M155.228 85.9319C156.116 86.2125 157.875 86.9434 158.875 87.3564C161.604 88.4879 161.101 89.1724 160.626 89.1249C158.626 88.9416 156.059 88.3928 154.218 88.248C154.644 88.5094 155.01 88.7345 155.201 88.8545C157.708 90.417 157.098 91.0099 156.643 90.8911C154.832 90.4102 151.989 89.3342 150.295 88.9404C148.227 88.5132 146.126 88.2671 144.015 88.205L141.156 89.2346L140.339 88.8499C137.951 87.5892 136.077 85.5348 135.042 83.041L134.758 81.845C135.382 81.4069 136.094 81.1086 136.844 80.9704C140.875 79.6703 144.82 78.1182 148.657 76.3234C153.257 74.2596 152.001 75.8595 150.829 77.2535C149.975 78.2718 145.711 81.1095 148 81.802C150.238 82.1109 158.122 83.2367 159.679 83.7662C164.082 85.253 163.4 86.2555 159.146 85.985C157.639 85.8889 155.791 85.8991 155.228 85.9319Z" fill="#15CD98"/>
<path d="M43.9728 85.28C42.1093 87.9115 40.9176 90.9588 40.5015 94.1564L36.7586 93.7457C34.718 94.2968 32.7317 95.0319 30.824 95.9419C29.2739 96.7339 26.7699 98.4424 25.1202 99.3363C24.7027 99.5626 23.9707 99.1304 26.0379 97.0202C26.1997 96.8584 26.4984 96.554 26.8525 96.1998C25.1836 96.7486 22.5529 97.9717 20.8308 98.568C20.3782 98.723 19.731 98.1765 22.1162 96.4307C22.6367 96.0505 24.4346 94.7448 25.3318 94.1824C24.0457 94.4406 22.7743 94.7676 21.5233 95.1623C17.4556 96.4375 16.555 95.6149 20.4801 93.1358C21.2619 92.638 26.1374 90.4791 31.4305 88.4379C33.4943 87.2193 28.6142 85.4961 27.5416 84.712C26.0707 83.6326 24.4776 82.3732 29.4357 83.2943C33.5804 84.1396 37.7757 84.7148 41.995 85.0164C42.665 84.9789 43.3361 85.0683 43.9728 85.28Z" fill="#15CD98"/>
<path d="M94.569 77.9299C94.561 77.8111 93.3436 71.8075 94.9989 70.9374C98.8459 68.92 97.0831 65.3932 95.0759 67.0746C94.1107 67.8802 93.7475 67.7535 93.6876 67.104C93.7204 63.5274 90.223 57.3632 86.4077 66.1807C85.1517 69.0818 84.7976 71.0891 84.9831 72.4638C85.3056 74.8738 87.3264 75.5188 89.75 75.2235L91.4314 74.8727L89.6663 77.4015C89.4841 78.6315 88.9999 79.8693 87.762 79.5796C86.8325 79.35 85.8869 79.1915 84.9333 79.1055C84.9333 79.1055 87.7122 89.0919 90.5703 93.7819C92.6085 88.3397 95.4843 83.2493 99.0937 78.6948C96.2854 78.9698 95.1845 80.8978 94.569 77.9299Z" fill="#15CD98"/>
<path d="M154.451 37.8646C146.096 36.2805 137.665 41.0576 136.13 49.1793C135.625 51.908 135.969 54.7259 137.114 57.2535L133.499 63.1722C133.48 63.2046 133.47 63.2415 133.469 63.2792C133.469 63.3169 133.478 63.354 133.496 63.3869C133.515 63.4197 133.542 63.4471 133.574 63.4662C133.607 63.4854 133.644 63.4956 133.681 63.4958C133.795 63.4958 134.813 63.2695 140.568 62.0984C149.574 70.6411 165.175 66.7205 167.376 55.0833C168.863 47.2207 163.065 39.4984 154.451 37.8646ZM166.957 55.012C165.539 62.5103 157.692 67.6121 149.134 65.993C145.978 65.4089 143.063 63.9143 140.746 61.6934C140.708 61.6685 140.705 61.6515 140.534 61.6764C140.137 61.7352 138.836 62.0226 134.118 62.981L137.513 57.4368C137.565 57.2818 137.612 57.3236 137.522 57.1222C132.8 46.5995 142.53 36.0497 154.381 38.2866C162.754 39.8684 168.401 47.3723 166.957 55.012Z" fill="#090809"/>
<path d="M142.613 158.091C142.557 158.091 142.503 158.069 142.463 158.029C142.423 157.989 142.401 157.935 142.401 157.879C142.401 157.822 142.423 157.768 142.463 157.728C142.503 157.688 142.557 157.666 142.613 157.666H147.247C147.303 157.666 147.357 157.688 147.397 157.728C147.437 157.768 147.459 157.822 147.459 157.879C147.459 157.935 147.437 157.989 147.397 158.029C147.357 158.069 147.303 158.091 147.247 158.091H142.613Z" fill="#090809"/>
<path d="M155.466 158.068C155.409 158.068 155.355 158.045 155.315 158.005C155.276 157.965 155.253 157.911 155.253 157.855C155.253 157.799 155.276 157.744 155.315 157.705C155.355 157.665 155.409 157.642 155.466 157.642H160.099C160.156 157.642 160.21 157.665 160.25 157.705C160.29 157.744 160.312 157.799 160.312 157.855C160.312 157.911 160.29 157.965 160.25 158.005C160.21 158.045 160.156 158.068 160.099 158.068H155.466Z" fill="#090809"/>
<path d="M151.131 153.757V149.123C151.131 149.096 151.136 149.068 151.146 149.042C151.156 149.017 151.171 148.993 151.191 148.973C151.21 148.953 151.233 148.938 151.259 148.927C151.284 148.916 151.312 148.911 151.34 148.911C151.396 148.913 151.449 148.936 151.489 148.975C151.529 149.014 151.553 149.066 151.557 149.122V153.756C151.557 153.784 151.551 153.811 151.541 153.837C151.53 153.863 151.515 153.886 151.495 153.906C151.455 153.946 151.401 153.969 151.345 153.969C151.317 153.969 151.289 153.964 151.263 153.953C151.237 153.942 151.214 153.927 151.194 153.907C151.154 153.867 151.132 153.813 151.131 153.757Z" fill="#090809"/>
<path d="M151.154 166.611V161.978C151.158 161.924 151.182 161.874 151.221 161.837C151.261 161.8 151.313 161.78 151.367 161.78C151.421 161.78 151.473 161.8 151.513 161.837C151.552 161.874 151.576 161.924 151.58 161.978V166.611C151.576 166.665 151.552 166.716 151.513 166.753C151.473 166.789 151.421 166.81 151.367 166.81C151.313 166.81 151.261 166.789 151.221 166.753C151.182 166.716 151.158 166.665 151.154 166.611Z" fill="#090809"/>
<path d="M148.444 155.178C148.315 155.178 148.557 155.385 145.011 151.846C144.971 151.806 144.949 151.752 144.949 151.695C144.949 151.639 144.971 151.585 145.011 151.545C145.051 151.505 145.105 151.482 145.162 151.482C145.218 151.482 145.272 151.505 145.312 151.545L148.593 154.815C148.623 154.844 148.643 154.882 148.652 154.923C148.66 154.965 148.656 155.007 148.64 155.046C148.624 155.085 148.597 155.118 148.562 155.142C148.527 155.165 148.486 155.178 148.444 155.178Z" fill="#090809"/>
<path d="M157.549 164.251C157.421 164.251 157.662 164.458 154.117 160.919C154.097 160.899 154.082 160.876 154.071 160.85C154.06 160.824 154.054 160.796 154.054 160.768C154.054 160.74 154.06 160.713 154.071 160.687C154.081 160.661 154.097 160.637 154.117 160.618C154.136 160.598 154.16 160.582 154.186 160.571C154.212 160.56 154.239 160.555 154.267 160.555C154.295 160.555 154.323 160.56 154.349 160.571C154.375 160.582 154.398 160.597 154.418 160.617L157.699 163.888C157.729 163.918 157.749 163.956 157.758 163.997C157.766 164.038 157.762 164.081 157.746 164.12C157.729 164.159 157.702 164.192 157.667 164.215C157.632 164.239 157.591 164.251 157.549 164.251Z" fill="#090809"/>
<path d="M154.256 155.168C154.214 155.168 154.173 155.155 154.138 155.132C154.103 155.109 154.076 155.075 154.06 155.037C154.044 154.998 154.039 154.955 154.048 154.914C154.056 154.872 154.076 154.834 154.106 154.805L157.376 151.523C157.416 151.483 157.47 151.461 157.526 151.46C157.582 151.46 157.637 151.482 157.677 151.522C157.717 151.562 157.739 151.616 157.74 151.672C157.74 151.729 157.718 151.783 157.678 151.823C154.13 155.391 154.381 155.168 154.256 155.168Z" fill="#090809"/>
<path d="M145.184 164.274C145.142 164.274 145.101 164.262 145.066 164.239C145.03 164.215 145.003 164.182 144.987 164.143C144.97 164.104 144.966 164.061 144.974 164.02C144.982 163.978 145.003 163.94 145.033 163.911L148.304 160.629C148.344 160.589 148.398 160.567 148.454 160.567C148.511 160.567 148.565 160.589 148.605 160.629C148.645 160.669 148.667 160.723 148.667 160.78C148.667 160.836 148.645 160.89 148.605 160.93C145.056 164.496 145.313 164.274 145.184 164.274Z" fill="#090809"/>
<path d="M57.2914 24.1229C57.5419 23.8219 57.8629 23.5874 58.2259 23.4404C58.5889 23.2934 58.9825 23.2384 59.3719 23.2802C59.7613 23.3221 60.1343 23.4595 60.4577 23.6803C60.7811 23.9011 61.0449 24.1985 61.2257 24.5459C61.4065 24.8933 61.4986 25.2799 61.4938 25.6715C61.4891 26.0631 61.3876 26.4474 61.1985 26.7903C61.0093 27.1332 60.7384 27.4241 60.4097 27.637C60.081 27.8499 59.7048 27.9782 59.3145 28.0106C58.8467 28.0527 58.377 27.9548 57.965 27.7294C57.553 27.504 57.2172 27.1612 57.0005 26.7446C56.7837 26.3279 56.6956 25.8563 56.7474 25.3895C56.7992 24.9227 56.9886 24.4818 57.2914 24.1229ZM57.1692 25.8201C57.1971 26.1391 57.3033 26.4463 57.4784 26.7145C57.6535 26.9826 57.892 27.2034 58.1728 27.3573C58.4537 27.5112 58.7682 27.5934 59.0884 27.5966C59.4086 27.5998 59.7247 27.524 60.0086 27.3758C60.2924 27.2276 60.5354 27.0116 60.7158 26.7471C60.8962 26.4825 61.0086 26.1775 61.0429 25.8591C61.0772 25.5407 61.0324 25.2188 60.9125 24.9218C60.7926 24.6249 60.6013 24.3621 60.3555 24.1568C60.0607 23.9101 59.6994 23.7562 59.3173 23.7146C58.9351 23.673 58.5492 23.7456 58.2083 23.9232C57.8674 24.1009 57.5867 24.3755 57.4018 24.7125C57.2169 25.0495 57.1359 25.4338 57.1692 25.8167V25.8201Z" fill="#090809"/>
<path d="M43.6096 190.37V181.691C43.6096 181.634 43.632 181.58 43.6719 181.54C43.7118 181.5 43.7659 181.478 43.8223 181.478C43.8788 181.478 43.9329 181.5 43.9727 181.54C44.0126 181.58 44.0351 181.634 44.0351 181.691V190.371C44.0349 190.428 44.0123 190.482 43.9724 190.522C43.9324 190.561 43.8782 190.584 43.8218 190.583C43.7654 190.583 43.7113 190.561 43.6715 190.521C43.6317 190.481 43.6095 190.427 43.6096 190.37Z" fill="#090809"/>
<path d="M48.1583 186.243H39.4776C39.4212 186.243 39.3671 186.22 39.3272 186.18C39.2873 186.14 39.2649 186.086 39.2649 186.03C39.2649 185.973 39.2873 185.919 39.3272 185.879C39.3671 185.84 39.4212 185.817 39.4776 185.817H48.1583C48.2147 185.817 48.2688 185.84 48.3087 185.879C48.3486 185.919 48.371 185.973 48.371 186.03C48.371 186.086 48.3486 186.14 48.3087 186.18C48.2688 186.22 48.2147 186.243 48.1583 186.243Z" fill="#090809"/>
<path d="M47.6196 87.0201C47.3398 87.021 47.0665 87.1048 46.8343 87.2608C46.602 87.4168 46.4211 87.6381 46.3145 87.8967C46.2078 88.1554 46.1802 88.4398 46.235 88.7142C46.2898 88.9886 46.4246 89.2406 46.6224 89.4384C46.8203 89.6363 47.0723 89.7711 47.3466 89.8259C47.621 89.8807 47.9055 89.853 48.1641 89.7464C48.4228 89.6397 48.6441 89.4589 48.8001 89.2266C48.9561 88.9943 49.0398 88.7211 49.0407 88.4413C49.0412 88.2545 49.0047 88.0695 48.9335 87.8969C48.8622 87.7243 48.7575 87.5674 48.6255 87.4354C48.4934 87.3033 48.3366 87.1987 48.164 87.1274C47.9913 87.0562 47.8063 87.0197 47.6196 87.0201Z" fill="#090809"/>
<path d="M58.9525 102.098C59.7349 102.098 60.3691 101.464 60.3691 100.682C60.3691 99.8994 59.7349 99.2651 58.9525 99.2651C58.1701 99.2651 57.5359 99.8994 57.5359 100.682C57.5359 101.464 58.1701 102.098 58.9525 102.098Z" fill="#090809"/>
<path d="M72.1803 88.9697C71.8999 88.9691 71.6257 89.0516 71.3923 89.2068C71.1589 89.3621 70.9768 89.5831 70.8691 89.8419C70.7613 90.1007 70.7328 90.3856 70.7871 90.6606C70.8413 90.9356 70.976 91.1884 71.174 91.3868C71.3719 91.5853 71.6244 91.7205 71.8992 91.7755C72.1741 91.8304 72.4591 91.8025 72.7182 91.6954C72.9772 91.5883 73.1987 91.4067 73.3545 91.1737C73.5103 90.9407 73.5935 90.6667 73.5935 90.3863C73.5935 90.0112 73.4447 89.6514 73.1798 89.3858C72.9148 89.1203 72.5554 88.9706 72.1803 88.9697Z" fill="#090809"/>
<path d="M86.7267 103.896C87.509 103.896 88.1433 103.262 88.1433 102.479C88.1433 101.697 87.509 101.063 86.7267 101.063C85.9443 101.063 85.3101 101.697 85.3101 102.479C85.3101 103.262 85.9443 103.896 86.7267 103.896Z" fill="#090809"/>
<path d="M99.097 91.8029C99.3772 91.8029 99.6511 91.7199 99.8841 91.5642C100.117 91.4085 100.299 91.1873 100.406 90.9284C100.513 90.6696 100.541 90.3848 100.486 90.11C100.432 89.8352 100.297 89.5828 100.099 89.3846C99.9006 89.1865 99.6482 89.0516 99.3734 88.9969C99.0986 88.9423 98.8138 88.9703 98.5549 89.0776C98.2961 89.1848 98.0748 89.3664 97.9192 89.5993C97.7635 89.8323 97.6804 90.1062 97.6804 90.3863C97.6807 90.7619 97.8301 91.1221 98.0957 91.3877C98.3613 91.6533 98.7214 91.8026 99.097 91.8029Z" fill="#090809"/>
<path d="M114.54 92.6041C114.821 92.6041 115.094 92.521 115.327 92.3653C115.56 92.2097 115.742 91.9884 115.849 91.7296C115.956 91.4707 115.984 91.1859 115.93 90.9111C115.875 90.6363 115.74 90.3839 115.542 90.1858C115.344 89.9877 115.092 89.8528 114.817 89.7981C114.542 89.7434 114.257 89.7715 113.998 89.8787C113.739 89.9859 113.518 90.1675 113.363 90.4005C113.207 90.6334 113.124 90.9073 113.124 91.1875C113.124 91.5632 113.273 91.9235 113.539 92.1892C113.804 92.4548 114.165 92.6041 114.54 92.6041Z" fill="#090809"/>
<path d="M131.631 90.3863C131.912 90.3863 132.186 90.3032 132.418 90.1476C132.651 89.9919 132.833 89.7707 132.94 89.5118C133.047 89.253 133.075 88.9681 133.021 88.6933C132.966 88.4185 132.831 88.1661 132.633 87.968C132.435 87.7699 132.183 87.635 131.908 87.5803C131.633 87.5257 131.348 87.5537 131.089 87.6609C130.83 87.7682 130.609 87.9497 130.454 88.1827C130.298 88.4156 130.215 88.6895 130.215 88.9697C130.215 89.1557 130.251 89.3399 130.323 89.5118C130.394 89.6837 130.498 89.8399 130.63 89.9714C130.761 90.1029 130.917 90.2073 131.089 90.2785C131.261 90.3497 131.445 90.3863 131.631 90.3863Z" fill="#090809"/>
<path d="M124.068 105.63C124.85 105.63 125.484 104.995 125.484 104.213C125.484 103.431 124.85 102.796 124.068 102.796C123.285 102.796 122.651 103.431 122.651 104.213C122.651 104.995 123.285 105.63 124.068 105.63Z" fill="#090809"/>
<path d="M174.811 214.554H144.882C145.672 214.281 146.399 213.853 147.021 213.294C147.643 212.736 148.147 212.059 148.503 211.302C149.837 208.372 151.015 202.355 152.259 198.909C152.675 197.832 152.677 196.639 152.265 195.561C151.852 194.483 151.055 193.595 150.027 193.07L146.067 190.942C145.516 190.273 136.711 179.585 132.915 174.382C130.063 170.69 126.809 167.328 123.211 164.359C123.255 164.291 123.474 163.949 123.509 163.876C123.567 163.7 123.801 164.192 119.081 156.397L116.277 127.802C115.935 123.875 114.756 120.068 112.818 116.636C110.73 112.727 107.31 109.697 103.179 108.093C102.83 104.648 103.052 101.169 103.838 97.7965C106.193 99.5299 114.773 105.943 117.551 107.962C119.418 109.311 121.728 109.902 124.013 109.613C126.298 109.324 128.388 108.178 129.861 106.407C135.196 99.9734 140.765 93.7809 145.176 89.3727C145.451 89.1399 145.661 88.8407 145.787 88.5037C151.293 88.9269 152.796 90.0878 156.593 91.0925C156.713 91.133 156.844 91.1292 156.962 91.0817C157.08 91.0342 157.177 90.9461 157.236 90.8334C157.565 90.0753 155.809 88.9778 155.124 88.5501C156.801 88.7571 158.942 89.1826 160.612 89.3365C160.738 89.357 160.867 89.3318 160.976 89.2654C161.085 89.199 161.166 89.0958 161.206 88.9744C161.396 88.2129 159.682 87.4582 158.854 87.1143C158.175 86.8336 157.197 86.4286 156.364 86.1095C157.331 86.1027 158.365 86.1434 159.142 86.1932C160.035 86.2509 162.716 86.4059 162.888 85.5336C162.931 85.3209 163.058 84.6748 159.758 83.5603C158.317 83.0704 151.817 82.1154 148.057 81.5893C147.764 81.4976 147.597 81.3686 147.563 81.2057C147.366 80.2892 150.33 78.1847 150.999 77.387C151.809 76.423 152.357 75.709 152.057 75.3085C151.696 74.8299 150.423 75.2677 147.848 76.4603C145.45 77.5692 143.08 78.5354 139.927 79.6714C138.42 78.9394 136.275 78.4664 135.132 79.6805C130.447 83.7465 126.243 88.335 122.601 93.3566C121.191 92.1866 111.466 84.1713 104.702 80.0584C103.147 79.0019 101.307 78.4442 99.4275 78.4596C98.2327 78.5982 97.0609 78.891 95.9414 79.3308C95.439 79.4191 95.1245 79.2177 94.8756 78.3001C95.2737 78.4465 95.6971 78.5114 96.1208 78.4907C96.5445 78.4701 96.9597 78.3644 97.3416 78.18C97.7236 77.9955 98.0646 77.7361 98.3442 77.4171C98.6238 77.0982 98.8364 76.7262 98.9692 76.3234C99.3705 76.834 99.9189 77.2091 100.54 77.3977C101.162 77.5863 101.826 77.5793 102.443 77.3778C103.061 77.1763 103.601 76.79 103.992 76.2711C104.382 75.7522 104.604 75.1259 104.627 74.4768C105.18 74.7732 105.808 74.8987 106.433 74.8373C107.057 74.7759 107.65 74.5304 108.134 74.132C108.619 73.7337 108.975 73.2003 109.156 72.5995C109.337 71.9988 109.336 71.3577 109.152 70.7577C109.78 70.846 110.419 70.7442 110.988 70.4655C111.557 70.1867 112.029 69.7438 112.344 69.194C112.659 68.6441 112.801 68.0125 112.753 67.3808C112.705 66.7491 112.469 66.1463 112.075 65.6502C112.728 65.5353 113.328 65.2185 113.791 64.7445C114.255 64.2704 114.558 63.663 114.658 63.0078C114.758 62.3526 114.649 61.6825 114.349 61.0919C114.048 60.5013 113.569 60.02 112.98 59.7156C113.578 59.4238 114.068 58.9509 114.381 58.3643C114.694 57.7777 114.814 57.1072 114.724 56.4484C114.634 55.7896 114.339 55.1759 113.88 54.6948C113.421 54.2136 112.822 53.8896 112.168 53.7686C112.573 53.28 112.823 52.6808 112.884 52.0487C112.945 51.4167 112.814 50.7809 112.509 50.2239C112.204 49.6668 111.739 49.2143 111.174 48.925C110.608 48.6356 109.969 48.5228 109.339 48.6012C109.535 48.004 109.548 47.3623 109.378 46.7575C109.207 46.1527 108.861 45.6122 108.383 45.2047C107.905 44.7972 107.316 44.5411 106.692 44.469C106.068 44.3968 105.436 44.5118 104.878 44.7994C104.864 44.1521 104.652 43.5246 104.271 43.0012C103.89 42.4779 103.358 42.0838 102.746 41.8722C102.134 41.6606 101.472 41.6415 100.849 41.8175C100.226 41.9935 99.6718 42.3562 99.2612 42.8567C99.0359 42.2129 98.6167 41.6546 98.0612 41.2586C97.5058 40.8627 96.8413 40.6485 96.1592 40.6455C95.4771 40.6426 94.8108 40.8509 94.2519 41.242C93.693 41.6331 93.269 42.1877 93.0381 42.8295C92.633 42.3233 92.0824 41.9536 91.4606 41.7702C90.8388 41.5868 90.1756 41.5986 89.5607 41.8039C88.9458 42.0093 88.4087 42.3984 88.0219 42.9187C87.6351 43.439 87.4172 44.0654 87.3977 44.7134C86.8426 44.4205 86.2131 44.299 85.5889 44.3644C84.9647 44.4298 84.374 44.679 83.8917 45.0806C83.4094 45.4822 83.0573 46.018 82.8799 46.62C82.7026 47.222 82.708 47.8631 82.8955 48.462C82.2673 48.3777 81.6283 48.4837 81.061 48.7664C80.4937 49.0491 80.0242 49.4954 79.7133 50.0477C79.4023 50.6001 79.2642 51.233 79.3167 51.8646C79.3693 52.4963 79.6101 53.0976 80.008 53.591C79.2707 53.7262 78.6046 54.1171 78.1269 54.6949C77.6493 55.2727 77.3907 56.0004 77.3966 56.7501C77.4035 57.3284 77.5692 57.8937 77.8757 58.3842C78.1822 58.8747 78.6177 59.2715 79.1345 59.5312C78.5402 59.8274 78.0542 60.3032 77.7455 60.8911C77.4368 61.479 77.321 62.1492 77.4147 62.8067C77.5083 63.4641 77.8066 64.0753 78.2673 64.5536C78.7279 65.0319 79.3275 65.3531 79.9809 65.4714C79.5808 65.9628 79.3372 66.5628 79.2817 67.194C79.2261 67.8252 79.3611 68.4586 79.6692 69.0123C79.9773 69.566 80.4443 70.0145 81.01 70.3001C81.5756 70.5856 82.2139 70.6949 82.8424 70.614C82.6856 71.0984 82.6484 71.6135 82.7339 72.1153C82.8194 72.6172 83.0251 73.0909 83.3333 73.4961C83.6415 73.9013 84.0432 74.2258 84.5041 74.4421C84.965 74.6584 85.4713 74.76 85.9799 74.7382C87.04 75.4102 88.3103 75.6684 89.5486 75.4635C89.604 77.086 89.3845 79.7404 87.8118 79.3716C83.0947 78.2627 80.9834 79.0095 78.3006 81.1016C73.1909 84.7584 67.8842 88.1319 62.4046 91.2068C56.0502 87.3734 51.4893 85.7701 45.5649 83.2152C45.524 83.1978 45.4787 83.1936 45.4353 83.2031C45.3919 83.2127 45.3526 83.2355 45.3227 83.2684C44.8139 83.8296 44.3365 84.4185 43.8925 85.0323C43.2827 84.849 42.6457 84.7725 42.0098 84.806C37.797 84.495 33.6077 83.9218 29.4663 83.0896C26.7281 82.5816 26.0571 82.7332 25.8897 83.119C25.6905 83.5795 26.3932 84.1373 27.4081 84.8875C28.2228 85.4861 31.684 86.8416 31.7145 87.7682C31.7145 87.9346 31.5833 88.1009 31.3128 88.2604C25.9881 90.3186 21.0855 92.4978 20.3579 92.9583C17.4161 94.8218 17.6933 95.4193 17.7838 95.6161C17.897 95.8537 18.1968 95.9725 18.689 95.9725C20.0468 95.9725 21.5561 95.2778 24.2423 94.651C23.2669 95.3242 22.1445 96.1434 21.9793 96.2656C20.5831 97.2839 19.9777 98.0816 20.2301 98.5625C20.297 98.6709 20.4005 98.7519 20.5219 98.7907C20.6433 98.8295 20.7745 98.8236 20.892 98.7741C22.3029 98.2853 24.4663 97.3145 26.03 96.7205C25.4643 97.2964 24.0295 98.7695 24.5263 99.4269C24.61 99.5231 24.7254 99.5861 24.8516 99.6046C24.9778 99.623 25.1064 99.5957 25.2142 99.5276C28.8451 97.5555 30.3386 95.7383 36.6975 93.9834C37.0698 93.9834 37.4748 94.0174 40.2594 94.3444C40.184 94.8995 40.1293 95.4653 40.0953 96.0416C40.0885 96.1547 40.1327 96.2158 40.3895 96.3369C44.6091 98.0978 48.737 100.071 52.7576 102.248C54.5295 103.168 56.3602 104.12 58.5666 105.203C60.0815 105.952 61.7612 106.307 63.4496 106.233C65.1381 106.16 66.7807 105.661 68.2249 104.783C71.987 102.505 76.0184 100.091 80.3316 97.8112C81.2383 101.663 82.5546 105.408 84.2578 108.98C73.8879 158.456 72.2043 166.281 72.0096 167.537C71.9644 167.837 72.0096 167.763 72.03 167.791C72.1217 167.869 72.865 168.262 72.9714 168.318L66.0604 204.062C60.3555 205.759 53.6142 210.753 49.5318 214.554H4.1507C4.09429 214.554 4.04018 214.577 4.00029 214.617C3.9604 214.656 3.93799 214.711 3.93799 214.767C3.93799 214.823 3.9604 214.878 4.00029 214.917C4.04018 214.957 4.09429 214.98 4.1507 214.98C154.648 214.98 172.828 215.063 174.834 214.891C175.176 214.862 174.997 214.554 174.811 214.554ZM132.565 174.634C136.286 179.733 144.804 190.086 145.69 191.153C144.091 196.307 142.116 197.816 137.568 200.81L112.05 173.287C116.472 171.595 120.28 168.607 122.975 164.714C126.53 167.654 129.747 170.981 132.565 174.634ZM156.84 90.6648C156.832 90.6818 156.773 90.7022 156.697 90.6818C153.042 89.7166 151.69 88.6451 146.478 88.1382C149.038 88.11 151.598 88.2153 154.148 88.4539L155.089 89.0344C156.94 90.1885 156.84 90.6648 156.84 90.6648ZM158.794 87.5533C160.808 88.3906 160.787 88.8726 160.787 88.8726C160.787 88.8918 160.727 88.9212 160.646 88.9133C159.69 88.8262 158.579 88.6474 157.504 88.4765C155.981 88.1951 154.442 88.0159 152.895 87.9402C150.653 87.7343 148.4 87.6625 146.149 87.7253C149.076 86.7695 152.124 86.2361 155.201 86.1412C156.078 86.4274 157.943 87.2002 158.794 87.5533ZM159.615 83.9642C162.481 84.9328 162.464 85.4521 162.464 85.4521C162.437 85.5879 161.774 85.9387 159.164 85.7689C156.253 85.575 153.329 85.7201 150.451 86.2012C147.285 86.8719 144.182 87.8083 141.173 89.0004L140.446 88.661C138.111 87.4281 136.276 85.4234 135.254 82.9889L135.003 81.9446C135.57 81.5582 136.212 81.2967 136.887 81.1774C139.826 80.6502 157.487 83.239 159.615 83.9654V83.9642ZM148.744 76.5146C151.267 75.3662 151.662 75.528 151.707 75.5608C151.78 75.7871 150.941 76.7862 150.666 77.1143C149.888 78.0432 146.571 80.2145 147.203 81.4761C144.525 81.1288 140.908 80.7757 138.312 80.6841C141.863 79.4877 145.346 78.0957 148.744 76.5146ZM87.7145 79.7868C89.0723 80.1059 89.6606 78.8387 89.8733 77.456C89.9061 77.4096 91.5977 75.0132 91.6249 74.9668C91.6425 74.9298 91.6491 74.8885 91.6438 74.8479C91.6385 74.8073 91.6215 74.7691 91.5949 74.738C91.5683 74.7068 91.5333 74.6841 91.494 74.6725C91.4547 74.6609 91.4129 74.6609 91.3737 74.6726C91.3375 74.6839 87.9385 75.7645 86.1938 74.3671C84.1888 72.7627 85.4764 69.005 86.4506 66.6255C87.2042 64.788 88.8143 61.4943 90.7434 61.905C92.4146 62.2592 93.494 65.1795 93.4737 67.1098C93.474 67.1293 93.4767 67.1487 93.4816 67.1675C93.4986 67.2976 93.5518 67.6971 93.872 67.8215C94.2883 67.9833 94.8665 67.5307 95.2105 67.2433C96.9858 65.752 98.4295 68.91 94.9005 70.7509C93.9896 71.2284 93.5823 72.3949 94.1899 76.9446C94.7805 81.3109 96.0003 79.4451 98.6026 78.9812C95.2205 83.3304 92.5011 88.1564 90.533 93.3023C88.0743 89.0287 85.6959 80.993 85.2241 79.3512C86.0626 79.4437 86.8944 79.5892 87.7145 79.7868ZM27.6638 84.539C27.3244 84.2856 26.2687 83.515 26.2823 83.2865C26.5584 82.9312 29.6982 83.5614 30.0162 83.6259C33.4786 84.313 36.977 84.804 40.4947 85.0968C38.0394 85.7882 35.0478 86.8382 32.1218 87.9515C32.4601 86.5677 28.6595 85.2767 27.6638 84.5447V84.539ZM30.7188 95.7474C28.8315 96.7046 25.0049 99.3432 24.8646 99.1644C24.8646 99.1644 24.6553 98.7266 26.1805 97.1685C26.3344 97.0101 26.6184 96.7227 26.9567 96.3844C29.3769 95.5537 31.8385 94.8486 34.3316 94.2719C33.0983 94.6868 31.8934 95.1815 30.7245 95.753L30.7188 95.7474ZM23.6075 97.2353C22.6016 97.6528 21.5618 98.085 20.7517 98.3667C20.677 98.3928 20.6148 98.3769 20.6057 98.36C20.6057 98.36 20.4699 97.8927 22.2294 96.605C22.4557 96.441 24.4007 95.021 25.3839 94.3953C28.4104 93.7352 31.5183 93.5293 34.6054 93.7843C30.8445 94.6024 27.1654 95.7593 23.6132 97.2409L23.6075 97.2353ZM30.0162 93.3193C27.1101 93.5453 24.2385 94.0967 21.4554 94.9633C18.9594 95.7463 18.2319 95.563 18.1742 95.4374C18.1742 95.4374 18.035 94.9373 20.5899 93.3181C27.1878 90.1759 34.0101 87.5285 41.0005 85.3978C41.863 85.1642 42.7721 85.1642 43.6346 85.3978C41.8946 87.9488 40.7635 90.8652 40.3284 93.9223C36.9168 93.424 33.4682 93.2241 30.0218 93.3249L30.0162 93.3193ZM79.3484 88.5037C79.3467 88.4473 79.3227 88.3938 79.2817 88.3551C79.2406 88.3164 79.1858 88.2956 79.1294 88.2972C79.073 88.2989 79.0196 88.3229 78.9808 88.3639C78.9421 88.405 78.9213 88.4597 78.9229 88.5161C79.0964 91.5012 79.5348 94.4648 80.2332 97.3722C75.8736 99.6725 71.8048 102.11 68.0076 104.409C66.6244 105.25 65.0511 105.728 63.4338 105.798C61.8164 105.868 60.2076 105.528 58.7567 104.81C52.021 101.505 48.9921 99.5356 40.5332 95.9081C40.7356 91.3722 42.5023 87.0463 45.5332 83.6655C51.6578 86.2973 56.0095 87.835 62.288 91.6345C62.3206 91.6537 62.3577 91.6638 62.3955 91.6638C62.4333 91.6638 62.4704 91.6537 62.503 91.6345C62.6105 91.5745 73.3346 85.5098 78.5586 81.4365C79.3887 80.6692 80.3696 80.0833 81.4387 79.7163C82.5079 79.3492 83.6418 79.2091 84.7681 79.3048C85.1223 80.5494 87.7348 89.5367 90.3893 93.8918C90.41 93.9257 90.4398 93.9531 90.4754 93.9709C90.5109 93.9887 90.5507 93.9963 90.5903 93.9926C90.6299 93.9889 90.6676 93.9743 90.6993 93.9503C90.731 93.9262 90.7553 93.8938 90.7695 93.8567C92.7896 88.4623 95.6356 83.4146 99.2057 78.8941C101.085 78.8136 102.938 79.3509 104.483 80.4239C111.724 84.8287 122.395 93.739 122.502 93.8284C122.54 93.8601 122.589 93.8777 122.639 93.8782H122.662C122.691 93.8749 122.719 93.8658 122.744 93.8514C122.769 93.837 122.791 93.8176 122.808 93.7945C126.267 89.0269 130.22 84.6378 134.6 80.6999C134.48 81.513 134.564 82.3435 134.846 83.1156C135.904 85.6593 137.815 87.7546 140.251 89.0411C141.412 89.7006 142.746 89.9914 144.077 89.875C139.794 94.2244 134.557 100.075 129.529 106.138C128.126 107.826 126.134 108.918 123.956 109.193C121.778 109.468 119.577 108.906 117.798 107.62C115.023 105.6 106.361 99.1339 103.941 97.3484C104.231 96.0967 104.614 94.8683 105.087 93.6734C105.109 93.6215 105.11 93.5629 105.089 93.5105C105.068 93.458 105.027 93.4161 104.975 93.3939C104.923 93.3717 104.865 93.371 104.812 93.392C104.76 93.4131 104.718 93.454 104.696 93.5059C102.933 98.1569 102.267 103.152 102.748 108.102C95.8464 110.194 90.7446 110.382 84.6346 108.77C81.6142 102.409 79.8211 95.5351 79.3495 88.5094L79.3484 88.5037ZM72.4192 167.525L84.6448 109.205C91.0252 110.866 96.3963 110.478 102.975 108.47C107.04 110.022 110.403 112.997 112.441 116.843C114.349 120.223 115.51 123.974 115.845 127.842L118.655 156.484C118.666 156.597 118.599 156.434 123.056 163.793C121.891 165.671 120.441 167.355 118.756 168.785L113.299 162.28C113.263 162.237 113.211 162.21 113.155 162.205C113.098 162.2 113.042 162.217 112.999 162.254C112.956 162.29 112.928 162.342 112.923 162.398C112.918 162.455 112.936 162.511 112.972 162.554L118.431 169.057C116.108 170.914 113.489 172.368 110.685 173.356L105.868 168.775C103.757 166.768 102.247 164.213 101.509 161.395L91.6316 123.717C91.6174 123.663 91.582 123.616 91.5333 123.588C91.4846 123.559 91.4266 123.551 91.372 123.565C91.3174 123.579 91.2706 123.615 91.2421 123.664C91.2136 123.712 91.2055 123.77 91.2198 123.825L96.5377 144.117C88.0675 169.781 89.612 164.823 88.1648 170.309C86.2606 170.619 84.3272 170.711 82.4022 170.582L84.681 162.342C84.693 162.289 84.684 162.233 84.6559 162.186C84.6278 162.14 84.5828 162.105 84.5301 162.091C84.4774 162.076 84.4212 162.083 84.373 162.108C84.3249 162.134 84.2885 162.177 84.2714 162.229L81.97 170.549C78.6075 170.237 75.351 169.208 72.4204 167.53L72.4192 167.525ZM73.3685 168.514C77.6967 170.706 82.5921 171.523 87.3977 170.853C87.4112 176.85 82.7586 188.61 80.0804 204.061C75.6396 205.298 70.9457 205.302 66.5028 204.072L73.3685 168.514ZM80.4142 214.549C80.9739 214.283 81.4377 213.851 81.7416 213.312C82.0456 212.772 82.1748 212.152 82.1114 211.536C81.8569 209.037 81.3112 206.577 80.4855 204.205C83.1184 188.951 87.8627 176.803 87.8208 170.791C87.857 170.791 88.3866 170.71 88.4171 170.697C88.5948 170.633 88.5088 170.712 89.6697 166.317L96.7482 144.873L101.108 161.5C101.866 164.394 103.417 167.019 105.585 169.08C110.685 173.93 110.514 173.846 110.683 173.807C110.797 173.782 111.475 173.512 111.627 173.455L137.366 201.216C139.703 204.724 139.235 206.489 138.955 207.541C136.422 209.901 135.068 209.965 133.277 214.549H80.4142Z" fill="#090809"/>
<path d="M109.245 121.179C109.302 121.179 109.356 121.157 109.396 121.117C109.436 121.077 109.458 121.023 109.458 120.967C109.458 120.91 109.436 120.856 109.396 120.816C109.356 120.776 109.302 120.754 109.245 120.754C109.212 120.754 109.188 120.754 109.158 120.754C105.377 120.754 102.143 119.057 99.2623 115.586C99.2263 115.543 99.1744 115.516 99.1182 115.51C99.062 115.505 99.006 115.522 98.9624 115.558C98.9189 115.594 98.8915 115.646 98.8862 115.702C98.8809 115.758 98.8981 115.814 98.9341 115.858C101.64 119.129 105.034 121.26 109.245 121.179Z" fill="#090809"/>
</svg>
