<svg width="288" height="235" viewBox="0 0 288 235" fill="none" xmlns="http://www.w3.org/2000/svg">
<path d="M242.521 80.5225C242.521 80.447 242.491 80.3746 242.438 80.3213C242.384 80.2679 242.312 80.2379 242.237 80.2379C242.161 80.2379 242.089 80.2679 242.035 80.3213C241.982 80.3746 241.952 80.447 241.952 80.5225V124C241.95 125.182 241.479 126.315 240.643 127.151C239.807 127.987 238.673 128.458 237.491 128.459H149.114C149.038 128.459 148.966 128.489 148.912 128.543C148.859 128.596 148.829 128.668 148.829 128.744C148.829 128.819 148.859 128.892 148.912 128.945C148.966 128.998 149.038 129.028 149.114 129.028H237.491C238.824 129.027 240.103 128.497 241.046 127.554C241.989 126.611 242.52 125.333 242.521 124V80.5225Z" fill="#090809"/>
<path d="M174.952 51.994H149.114C147.78 51.9956 146.502 52.5261 145.559 53.4691C144.616 54.4121 144.085 55.6907 144.083 57.0243V69.1572C144.083 69.2327 144.113 69.305 144.167 69.3584C144.22 69.4118 144.293 69.4418 144.368 69.4418C144.444 69.4418 144.516 69.4118 144.569 69.3584C144.623 69.305 144.653 69.2327 144.653 69.1572V57.0243C144.654 55.8415 145.124 54.7075 145.961 53.8711C146.797 53.0348 147.931 52.5644 149.114 52.5632H174.952C175.028 52.5632 175.1 52.5332 175.154 52.4798C175.207 52.4265 175.237 52.3541 175.237 52.2786C175.237 52.2031 175.207 52.1307 175.154 52.0774C175.1 52.024 175.028 51.994 174.952 51.994Z" fill="#090809"/>
<path d="M242.521 57.0228C242.52 55.6893 241.989 54.4109 241.046 53.4681C240.103 52.5254 238.824 51.9952 237.491 51.994H211.937V45.6998C211.937 45.6243 211.907 45.5519 211.853 45.4985C211.8 45.4451 211.728 45.4152 211.652 45.4152H174.952C174.877 45.4152 174.804 45.4451 174.751 45.4985C174.698 45.5519 174.668 45.6243 174.668 45.6998V55.7149C174.668 55.7523 174.675 55.7893 174.689 55.8238C174.704 55.8583 174.725 55.8897 174.751 55.9161C174.778 55.9425 174.809 55.9635 174.843 55.9778C174.878 55.9921 174.915 55.9995 174.952 55.9995H211.652C211.69 55.9995 211.727 55.9921 211.761 55.9778C211.796 55.9635 211.827 55.9425 211.853 55.9161C211.88 55.8897 211.901 55.8583 211.915 55.8238C211.929 55.7893 211.937 55.7523 211.937 55.7149V52.5632H237.491C238.673 52.5648 239.807 53.0351 240.643 53.8711C241.479 54.707 241.95 55.8404 241.952 57.0228V59.6371C241.952 59.7125 241.982 59.7849 242.035 59.8383C242.089 59.8917 242.161 59.9217 242.237 59.9217C242.312 59.9217 242.384 59.8917 242.438 59.8383C242.491 59.7849 242.521 59.7125 242.521 59.6371V57.0228ZM211.368 55.4257H175.237V45.9798H211.368V55.4257Z" fill="#090809"/>
<path d="M193.301 45.6998C192.64 45.7001 191.995 45.5045 191.445 45.1377C190.896 44.771 190.468 44.2495 190.215 43.6394C189.962 43.0292 189.895 42.3577 190.024 41.7098C190.153 41.062 190.471 40.4668 190.938 39.9996C191.404 39.5324 191.999 39.2142 192.647 39.0853C193.295 38.9563 193.967 39.0223 194.577 39.275C195.187 39.5278 195.709 39.9558 196.076 40.505C196.443 41.0542 196.639 41.6999 196.639 42.3604C196.638 43.2455 196.286 44.0942 195.66 44.7203C195.035 45.3463 194.186 45.6986 193.301 45.6998ZM193.301 39.5932C192.753 39.5932 192.218 39.7556 191.763 40.0599C191.307 40.3642 190.952 40.7967 190.743 41.3027C190.533 41.8087 190.479 42.3655 190.585 42.9026C190.692 43.4397 190.956 43.933 191.344 44.3202C191.731 44.7073 192.224 44.9709 192.762 45.0776C193.299 45.1842 193.856 45.1292 194.361 44.9194C194.867 44.7096 195.3 44.3545 195.604 43.899C195.908 43.4435 196.07 42.908 196.07 42.3604C196.068 41.6266 195.776 40.9232 195.257 40.4045C194.738 39.8858 194.035 39.594 193.301 39.5932Z" fill="#090809"/>
<path d="M178.025 71.9682H153.943C153.867 71.9682 153.795 71.9382 153.742 71.8849C153.688 71.8315 153.658 71.7591 153.658 71.6836V62.1136C153.658 62.0381 153.688 61.9657 153.742 61.9123C153.795 61.859 153.867 61.829 153.943 61.829H178.03C178.067 61.829 178.104 61.8363 178.139 61.8506C178.173 61.8649 178.205 61.8859 178.231 61.9123C178.258 61.9388 178.279 61.9701 178.293 62.0047C178.307 62.0392 178.315 62.0762 178.315 62.1136V71.6836C178.315 71.7214 178.307 71.7588 178.292 71.7936C178.278 71.8284 178.257 71.86 178.23 71.8865C178.203 71.913 178.171 71.9339 178.136 71.9479C178.101 71.9619 178.063 71.9688 178.025 71.9682ZM154.223 71.3991H177.741V62.3982H154.223V71.3991Z" fill="#090809"/>
<path d="M178.025 89.6627H166.101C166.026 89.6627 165.954 89.6328 165.9 89.5794C165.847 89.526 165.817 89.4536 165.817 89.3782C165.817 89.3027 165.847 89.2303 165.9 89.1769C165.954 89.1235 166.026 89.0936 166.101 89.0936H177.741V81.6473H159.925C159.85 81.6473 159.777 81.6173 159.724 81.564C159.671 81.5106 159.641 81.4382 159.641 81.3627C159.641 81.2872 159.671 81.2148 159.724 81.1615C159.777 81.1081 159.85 81.0781 159.925 81.0781H178.025C178.101 81.0781 178.173 81.1081 178.227 81.1615C178.28 81.2148 178.31 81.2872 178.31 81.3627V89.3857C178.308 89.4599 178.277 89.5303 178.224 89.5821C178.171 89.6338 178.1 89.6628 178.025 89.6627Z" fill="#090809"/>
<path d="M161.778 107.407H153.943C153.867 107.407 153.795 107.377 153.742 107.324C153.688 107.271 153.658 107.198 153.658 107.123V99.0996C153.658 99.0242 153.688 98.9518 153.742 98.8984C153.795 98.845 153.867 98.8151 153.943 98.8151H155.608C155.683 98.8151 155.756 98.845 155.809 98.8984C155.863 98.9518 155.893 99.0242 155.893 99.0996C155.893 99.1751 155.863 99.2475 155.809 99.3009C155.756 99.3543 155.683 99.3842 155.608 99.3842H154.23V106.83H161.786C161.862 106.831 161.935 106.863 161.988 106.918C162.042 106.972 162.071 107.046 162.07 107.123C162.069 107.199 162.038 107.272 161.983 107.325C161.928 107.379 161.855 107.408 161.778 107.407Z" fill="#090809"/>
<path d="M177.741 103.65V99.3917H173.944C173.869 99.3917 173.796 99.3617 173.743 99.3083C173.69 99.255 173.66 99.1826 173.66 99.1071C173.66 99.0316 173.69 98.9592 173.743 98.9059C173.796 98.8525 173.869 98.8225 173.944 98.8225H178.031C178.107 98.8225 178.179 98.8525 178.233 98.9059C178.286 98.9592 178.316 99.0316 178.316 99.1071V103.648C178.316 103.725 178.286 103.798 178.232 103.852C178.179 103.906 178.105 103.937 178.029 103.937C177.953 103.937 177.88 103.907 177.826 103.853C177.772 103.799 177.741 103.726 177.741 103.65Z" fill="#090809"/>
<path d="M173.016 119.458H153.592C153.516 119.458 153.443 119.428 153.39 119.375C153.336 119.322 153.306 119.249 153.305 119.174V116.11C153.306 116.034 153.336 115.962 153.39 115.909C153.443 115.855 153.516 115.825 153.592 115.825H169.955C170.031 115.825 170.103 115.855 170.157 115.909C170.21 115.962 170.24 116.034 170.24 116.11C170.24 116.185 170.21 116.258 170.157 116.311C170.103 116.365 170.031 116.394 169.955 116.394H153.876V118.892H173.016C173.086 118.899 173.151 118.932 173.198 118.985C173.245 119.037 173.272 119.105 173.272 119.175C173.272 119.246 173.245 119.314 173.198 119.366C173.151 119.418 173.086 119.451 173.016 119.458Z" fill="#090809"/>
<path d="M232.604 119.458H183.669C183.593 119.458 183.521 119.428 183.467 119.375C183.414 119.322 183.384 119.249 183.384 119.174C183.384 119.098 183.414 119.026 183.467 118.973C183.521 118.919 183.593 118.889 183.669 118.889H232.318V116.391H186.165C186.089 116.391 186.017 116.361 185.964 116.308C185.91 116.255 185.88 116.182 185.88 116.107C185.88 116.031 185.91 115.959 185.964 115.906C186.017 115.852 186.089 115.822 186.165 115.822H232.604C232.642 115.822 232.679 115.83 232.713 115.844C232.748 115.858 232.779 115.879 232.806 115.906C232.832 115.932 232.853 115.963 232.867 115.998C232.882 116.032 232.889 116.069 232.889 116.107V119.174C232.889 119.211 232.882 119.248 232.867 119.283C232.853 119.317 232.832 119.349 232.806 119.375C232.779 119.401 232.748 119.422 232.713 119.437C232.679 119.451 232.642 119.458 232.604 119.458Z" fill="#090809"/>
<path d="M128.425 51.9925H102.871V45.6998C102.871 45.6243 102.841 45.5519 102.788 45.4985C102.734 45.4451 102.662 45.4152 102.586 45.4152H65.8865C65.811 45.4152 65.7386 45.4451 65.6852 45.4985C65.6319 45.5519 65.6019 45.6243 65.6019 45.6998V51.994H40.0494C38.7155 51.9952 37.4366 52.5255 36.4932 53.4686C35.5499 54.4116 35.0192 55.6904 35.0176 57.0243V73.7606C35.0176 73.8361 35.0476 73.9084 35.1009 73.9618C35.1543 74.0152 35.2267 74.0452 35.3022 74.0452C35.3776 74.0452 35.45 74.0152 35.5034 73.9618C35.5568 73.9084 35.5868 73.8361 35.5868 73.7606V57.0243C35.5884 55.8414 36.0591 54.7074 36.8957 53.8711C37.7323 53.0347 38.8664 52.5644 40.0494 52.5632H65.6019V55.7149C65.6019 55.7904 65.6319 55.8627 65.6852 55.9161C65.7386 55.9695 65.811 55.9995 65.8865 55.9995H102.586C102.662 55.9995 102.734 55.9695 102.788 55.9161C102.841 55.8627 102.871 55.7904 102.871 55.7149V52.5617H128.425C128.5 52.5617 128.573 52.5317 128.626 52.4783C128.68 52.425 128.71 52.3526 128.71 52.2771C128.71 52.2016 128.68 52.1292 128.626 52.0759C128.573 52.0225 128.5 51.9925 128.425 51.9925ZM102.302 55.4257H66.171V45.9798H102.302V55.4257Z" fill="#090809"/>
<path d="M84.2364 45.6998C83.5756 45.7016 82.929 45.5072 82.3787 45.1414C81.8283 44.7755 81.3989 44.2546 81.1448 43.6446C80.8906 43.0346 80.8232 42.3629 80.951 41.7145C81.0788 41.0661 81.3962 40.4702 81.8628 40.0023C82.3295 39.5344 82.9245 39.2154 83.5725 39.0858C84.2205 38.9562 84.8924 39.0218 85.5031 39.2743C86.1139 39.5268 86.6359 39.9548 87.0033 40.5042C87.3706 41.0535 87.5667 41.6995 87.5667 42.3604C87.5659 43.2442 87.2151 44.0918 86.591 44.7176C85.9668 45.3434 85.1202 45.6966 84.2364 45.6998ZM84.2364 39.5932C83.6887 39.5932 83.1534 39.7556 82.698 40.0599C82.2427 40.3642 81.8878 40.7967 81.6783 41.3027C81.4688 41.8087 81.4141 42.3655 81.521 42.9026C81.628 43.4397 81.8918 43.933 82.2792 44.3202C82.6665 44.7073 83.16 44.9709 83.6972 45.0776C84.2344 45.1842 84.7911 45.1292 85.297 44.9194C85.8029 44.7096 86.2352 44.3545 86.5392 43.899C86.8433 43.4435 87.0054 42.908 87.0051 42.3604C87.0039 41.6266 86.7118 40.9232 86.1928 40.4045C85.6737 39.8857 84.9702 39.594 84.2364 39.5932Z" fill="#090809"/>
<path d="M123.601 71.2174H99.5058C99.4684 71.2174 99.4314 71.21 99.3969 71.1957C99.3623 71.1814 99.331 71.1605 99.3045 71.134C99.2781 71.1076 99.2571 71.0762 99.2428 71.0417C99.2285 71.0072 99.2212 70.9702 99.2212 70.9328V61.7835C99.2212 61.7079 99.2511 61.6354 99.3044 61.5818C99.3578 61.5282 99.4302 61.4978 99.5058 61.4974H123.601C123.676 61.4978 123.749 61.5282 123.802 61.5818C123.855 61.6354 123.885 61.7079 123.885 61.7835V70.9313C123.885 70.9688 123.878 71.0059 123.864 71.0407C123.85 71.0754 123.829 71.1069 123.802 71.1335C123.776 71.1601 123.744 71.1812 123.71 71.1956C123.675 71.21 123.638 71.2174 123.601 71.2174ZM99.7904 70.6482H123.316V62.0696H99.7904V70.6482Z" fill="#090809"/>
<path d="M123.601 119.458H44.8725C44.797 119.458 44.7246 119.428 44.6712 119.375C44.6179 119.322 44.5879 119.249 44.5879 119.174V116.11C44.5879 116.034 44.6179 115.962 44.6712 115.909C44.7246 115.855 44.797 115.825 44.8725 115.825H123.601C123.676 115.825 123.749 115.855 123.802 115.909C123.855 115.962 123.885 116.034 123.885 116.11V119.177C123.885 119.252 123.854 119.323 123.801 119.376C123.748 119.429 123.676 119.458 123.601 119.458ZM45.1571 118.889H123.316V116.391H45.1571V118.889Z" fill="#090809"/>
<path d="M123.601 107.079H99.5058C99.4302 107.079 99.3577 107.049 99.3041 106.995C99.2504 106.942 99.2201 106.87 99.2197 106.794V103.084C99.225 103.012 99.2573 102.944 99.3102 102.895C99.3632 102.846 99.4328 102.819 99.5051 102.819C99.5774 102.819 99.6469 102.846 99.6999 102.895C99.7528 102.944 99.7852 103.012 99.7904 103.084V106.51H123.316V92.5132C123.316 92.4378 123.346 92.3654 123.399 92.312C123.453 92.2586 123.525 92.2286 123.601 92.2286C123.676 92.2286 123.748 92.2586 123.802 92.312C123.855 92.3654 123.885 92.4378 123.885 92.5132V106.793C123.885 106.83 123.878 106.867 123.864 106.902C123.85 106.937 123.829 106.968 123.802 106.995C123.776 107.021 123.744 107.043 123.71 107.057C123.675 107.071 123.638 107.079 123.601 107.079Z" fill="#090809"/>
<path d="M115.114 78.7727H102.462C102.387 78.7727 102.314 78.7427 102.261 78.6893C102.208 78.6359 102.178 78.5636 102.178 78.4881C102.178 78.4126 102.208 78.3402 102.261 78.2869C102.314 78.2335 102.387 78.2035 102.462 78.2035H115.114C115.19 78.2035 115.262 78.2335 115.316 78.2869C115.369 78.3402 115.399 78.4126 115.399 78.4881C115.399 78.5636 115.369 78.6359 115.316 78.6893C115.262 78.7427 115.19 78.7727 115.114 78.7727Z" fill="#090809"/>
<path d="M256.221 106.75L274.473 91.1947L256.221 75.6376C256.164 75.5884 256.128 75.5185 256.122 75.4431C256.116 75.3677 256.141 75.2931 256.19 75.2357C256.239 75.1783 256.309 75.1428 256.384 75.137C256.46 75.1311 256.534 75.1555 256.592 75.2047C276.434 92.1045 275.196 90.9903 275.196 91.1947C275.196 91.399 276.453 90.2561 256.592 107.185C256.534 107.229 256.461 107.249 256.388 107.241C256.316 107.233 256.249 107.198 256.202 107.142C256.154 107.087 256.13 107.015 256.133 106.942C256.137 106.87 256.168 106.801 256.221 106.75Z" fill="#090809"/>
<path d="M20.6686 106.726C20.5066 106.726 21.7661 107.74 1.97801 90.8844C1.94671 90.8577 1.92157 90.8245 1.90434 90.7871C1.8871 90.7497 1.87817 90.7091 1.87817 90.6679C1.87817 90.6268 1.8871 90.5861 1.90434 90.5487C1.92157 90.5114 1.94671 90.4782 1.97801 90.4515L19.2487 75.73C19.3063 75.681 19.381 75.6569 19.4564 75.663C19.5317 75.6691 19.6016 75.7049 19.6506 75.7625C19.6996 75.8202 19.7236 75.8949 19.7175 75.9702C19.7114 76.0456 19.6756 76.1155 19.618 76.1644L2.60169 90.6679L20.8533 106.225C20.8975 106.263 20.9291 106.313 20.9439 106.37C20.9586 106.426 20.9557 106.485 20.9355 106.54C20.9154 106.594 20.879 106.642 20.8313 106.675C20.7836 106.708 20.7268 106.726 20.6686 106.726Z" fill="#090809"/>
<path d="M128.425 128.462H47.1353C47.0924 125.417 45.8603 122.508 43.7022 120.359C41.5441 118.209 38.6311 116.988 35.5852 116.958V96.6624C35.5852 96.5869 35.5552 96.5145 35.5018 96.4612C35.4485 96.4078 35.3761 96.3778 35.3006 96.3778C35.2251 96.3778 35.1527 96.4078 35.0994 96.4612C35.046 96.5145 35.016 96.5869 35.016 96.6624V116.973C32.7724 117.063 30.6022 117.798 28.7648 119.089C26.9274 120.38 25.5005 122.172 24.6544 124.252C23.8084 126.332 23.579 128.612 23.9937 130.818C24.4084 133.025 25.4496 135.066 26.993 136.697L21.5934 142.104C21.3553 141.936 21.064 141.861 20.7742 141.892C20.4844 141.923 20.2159 142.059 20.0191 142.274L8.85801 153.433C8.62957 153.675 8.50444 153.997 8.50916 154.33C8.51389 154.662 8.6481 154.98 8.88331 155.216C9.11851 155.451 9.43621 155.586 9.76894 155.591C10.1017 155.596 10.4233 155.471 10.6655 155.242L21.8265 144.083C22.0423 143.886 22.1786 143.617 22.2098 143.327C22.2411 143.037 22.165 142.745 21.996 142.507L27.4033 137.1C29.0361 138.649 31.0813 139.694 33.2935 140.109C35.5056 140.524 37.7905 140.291 39.8737 139.439C41.9569 138.587 43.7499 137.152 45.0372 135.306C46.3245 133.459 47.0515 131.281 47.1308 129.031H128.42C128.496 129.032 128.569 129.003 128.622 128.95C128.676 128.897 128.707 128.825 128.707 128.749C128.708 128.674 128.678 128.601 128.626 128.547C128.573 128.493 128.5 128.463 128.425 128.462ZM27.6076 136.499C26.089 134.968 25.0478 133.029 24.6104 130.918C24.1731 128.806 24.3586 126.613 25.1443 124.605C25.93 122.597 27.2821 120.861 29.0362 119.607C30.7903 118.353 32.8709 117.636 35.0251 117.542C35.0251 124.619 34.901 124.694 35.4217 125.957C35.8072 126.868 36.4523 127.645 37.2765 128.192C38.1008 128.739 39.0678 129.031 40.0569 129.031H46.5661C46.4876 131.194 45.7799 133.286 44.5298 135.052C43.2798 136.818 41.5416 138.181 39.5284 138.973C37.5152 139.766 35.3145 139.954 33.196 139.515C31.0774 139.075 29.1332 138.027 27.6016 136.499H27.6076Z" fill="#090809"/>
<path d="M117.764 6.74435H105.378C105.302 6.74435 105.23 6.71437 105.177 6.661C105.123 6.60762 105.093 6.53524 105.093 6.45976C105.093 6.38428 105.123 6.3119 105.177 6.25852C105.23 6.20515 105.302 6.17517 105.378 6.17517H117.764C117.839 6.17517 117.911 6.20515 117.965 6.25852C118.018 6.3119 118.048 6.38428 118.048 6.45976C118.048 6.53524 118.018 6.60762 117.965 6.661C117.911 6.71437 117.839 6.74435 117.764 6.74435Z" fill="#090809"/>
<path d="M111.286 12.651V0.265308C111.291 0.19322 111.324 0.12579 111.377 0.0765739C111.43 0.0273575 111.499 0 111.571 0C111.644 0 111.713 0.0273575 111.766 0.0765739C111.819 0.12579 111.852 0.19322 111.857 0.265308V12.6495C111.852 12.7216 111.82 12.7891 111.767 12.8385C111.714 12.8878 111.644 12.9154 111.572 12.9156C111.5 12.9158 111.43 12.8886 111.377 12.8395C111.324 12.7904 111.292 12.7231 111.286 12.651Z" fill="#090809"/>
<path d="M174.946 187.893C174.191 187.892 173.453 187.671 172.822 187.258C172.19 186.845 171.692 186.257 171.389 185.566C171.086 184.874 170.99 184.11 171.114 183.365C171.238 182.621 171.575 181.928 172.086 181.372C172.596 180.816 173.257 180.421 173.988 180.234C174.719 180.047 175.489 180.076 176.204 180.319C176.918 180.562 177.547 181.008 178.013 181.601C178.479 182.195 178.762 182.912 178.828 183.664C178.875 184.202 178.81 184.744 178.636 185.255C178.463 185.767 178.185 186.236 177.819 186.634C177.454 187.032 177.01 187.349 176.515 187.566C176.021 187.783 175.486 187.894 174.946 187.893ZM174.958 180.683C174.289 180.682 173.634 180.883 173.081 181.26C172.528 181.637 172.101 182.173 171.858 182.797C171.614 183.421 171.565 184.104 171.717 184.756C171.868 185.408 172.213 185.999 172.707 186.452C173.201 186.905 173.819 187.197 174.482 187.292C175.145 187.387 175.821 187.279 176.422 186.982C177.022 186.686 177.519 186.215 177.847 185.631C178.175 185.047 178.319 184.378 178.26 183.711C178.185 182.886 177.805 182.119 177.194 181.559C176.584 180.999 175.787 180.687 174.958 180.683Z" fill="#090809"/>
<path d="M219.129 99.6415C219.141 99.7807 219.126 99.9209 219.084 100.054C219.042 100.187 218.974 100.311 218.884 100.418C218.795 100.525 218.685 100.613 218.561 100.678C218.437 100.743 218.302 100.782 218.162 100.794C218.023 100.806 217.883 100.791 217.75 100.749C217.617 100.707 217.493 100.639 217.386 100.55C217.279 100.46 217.191 100.35 217.126 100.226C217.061 100.102 217.022 99.9669 217.01 99.8277C216.985 99.5467 217.073 99.2674 217.254 99.0512C217.436 98.835 217.695 98.6997 217.976 98.675C218.257 98.6503 218.537 98.7383 218.753 98.9195C218.969 99.1008 219.104 99.3605 219.129 99.6415Z" fill="#090809"/>
<path d="M208.136 92.3134C208.161 92.5944 208.073 92.8738 207.892 93.09C207.71 93.3061 207.451 93.4415 207.17 93.4661C206.888 93.4908 206.609 93.4029 206.393 93.2216C206.177 93.0404 206.041 92.7806 206.017 92.4996C205.992 92.2186 206.08 91.9392 206.261 91.723C206.443 91.5069 206.702 91.3715 206.983 91.3469C207.264 91.3222 207.544 91.4101 207.76 91.5914C207.976 91.7727 208.111 92.0324 208.136 92.3134Z" fill="#090809"/>
<path d="M218.062 83.809C218.086 84.09 217.998 84.3694 217.817 84.5855C217.636 84.8017 217.376 84.937 217.095 84.9617C216.814 84.9864 216.535 84.8985 216.319 84.7172C216.102 84.5359 215.967 84.2762 215.942 83.9952C215.93 83.856 215.945 83.7158 215.987 83.5826C216.029 83.4494 216.097 83.3257 216.187 83.2187C216.277 83.1116 216.387 83.0233 216.51 82.9587C216.634 82.8942 216.77 82.8547 216.909 82.8425C217.048 82.8302 217.188 82.8455 217.321 82.8875C217.455 82.9294 217.578 82.9972 217.685 83.087C217.792 83.1767 217.881 83.2867 217.945 83.4106C218.01 83.5345 218.049 83.6698 218.062 83.809Z" fill="#090809"/>
<path d="M89.5968 85.8934V96.5277L81.7494 91.6609C81.9613 88.3594 81.7842 85.182 80.6534 83.1838C80.6162 83.1179 80.5545 83.0695 80.4817 83.0493C80.4088 83.029 80.3309 83.0384 80.2651 83.0755C80.1993 83.1127 80.1509 83.1745 80.1306 83.2473C80.1103 83.3201 80.1197 83.398 80.1569 83.4638C82.6864 87.9401 80.1569 98.8438 79.5786 103.081C79.9208 104.289 80.4271 105.444 81.0833 106.514H57.4154C58.2899 105.486 59.0825 104.39 59.786 103.238C59.806 103.197 59.8155 103.151 59.8136 103.104C59.8118 103.058 59.7987 103.013 59.7754 102.973C57.7684 99.4861 56.1273 95.8006 54.8784 91.9758C53.572 87.7978 54.1639 87.4602 53.5871 87.4526C53.3494 87.4965 53.6931 87.0272 49.8118 93.7635C46.8735 94.7996 43.876 95.659 40.8351 96.337C38.2145 96.9315 35.4701 96.6278 33.0429 95.4748C30.6156 94.3217 28.6465 92.3861 27.4518 89.9791L15.7306 66.4399C17.2923 64.6098 19.2253 63.1327 21.4014 62.1068C23.5775 61.0808 25.947 60.5295 28.3525 60.4893C39.1987 82.3709 38.6462 81.5519 38.9974 81.4626C45.9875 79.4534 52.7869 76.832 59.3167 73.6288C64.1321 75.9964 69.7921 77.0469 74.7678 74.9277C77.9074 76.4657 82.5168 77.1756 87.7379 81.2991C87.7677 81.3223 87.8018 81.3394 87.8382 81.3493C87.8746 81.3593 87.9126 81.362 87.9501 81.3573C87.9875 81.3526 88.0237 81.3406 88.0565 81.3219C88.0893 81.3032 88.1181 81.2782 88.1413 81.2484C88.1644 81.2186 88.1815 81.1845 88.1915 81.1481C88.2015 81.1117 88.2042 81.0737 88.1995 81.0362C88.1948 80.9987 88.1827 80.9626 88.164 80.9298C88.1453 80.897 88.1204 80.8682 88.0906 80.845C79.3985 73.98 72.4412 76.4233 71.3785 69.4917C74.0904 69.2767 76.6944 68.3355 78.9171 66.7669C80.5293 65.5281 81.8135 63.9133 82.6576 62.0636H85.1236C85.199 62.0636 85.2714 62.0336 85.3248 61.9802C85.3782 61.9269 85.4081 61.8545 85.4081 61.779C85.4081 61.7035 85.3782 61.6311 85.3248 61.5778C85.2714 61.5244 85.199 61.4944 85.1236 61.4944H82.8983C83.7625 59.32 83.9998 56.9468 83.5834 54.6443C83.1669 52.3417 82.1133 50.2021 80.5422 48.4681C78.971 46.7341 76.9453 45.4753 74.6948 44.8345C72.4444 44.1938 70.0594 44.1966 67.8105 44.8429C68.0232 43.5144 67.8318 42.1527 67.2612 40.9343C66.6906 39.7159 65.7671 38.6971 64.6104 38.0099C63.4537 37.3227 62.1173 36.9989 60.7743 37.0805C59.4314 37.162 58.144 37.6452 57.079 38.4673C56.014 39.2894 55.2205 40.4125 54.8016 41.691C54.3826 42.9695 54.3574 44.3444 54.7293 45.6374C55.1012 46.9304 55.853 48.0818 56.8872 48.9424C57.9214 49.8029 59.1902 50.3329 60.5293 50.4636C59.5526 52.1129 58.9662 53.9639 58.8151 55.8749C58.6639 57.7858 58.952 59.706 59.6573 61.4884H44.8723C44.7968 61.4884 44.7244 61.5183 44.6711 61.5717C44.6177 61.6251 44.5877 61.6975 44.5877 61.773V79.0739C42.8514 79.6627 41.0182 80.2516 39.0685 80.848C28.0936 58.6879 28.8036 59.9579 28.5735 59.908C27.6952 59.9111 26.8183 59.9794 25.9501 60.1123C24.2942 57.4103 22.92 54.5453 21.8493 51.5626C20.9411 48.8181 20.3916 48.5168 19.9813 48.5956C19.291 48.7197 19.2623 50.1457 19.282 50.7527C19.3168 51.773 20.0252 54.7475 19.5665 55.0609C19.5136 55.0972 19.3652 55.0821 19.1124 54.9368C14.9556 51.9909 10.4052 48.9452 9.64073 48.5274C7.02644 47.0939 6.42245 47.3391 6.1969 47.6494C6.09547 47.7872 5.83813 48.1384 6.76759 49.307C2.16269 46.4309 1.43759 47.6812 2.09608 48.7242C0.665567 48.4487 0.181159 48.7242 0.0403784 49.0482C-0.00926513 49.1681 -0.0132693 49.3021 0.0291223 49.4248C0.0715139 49.5475 0.157368 49.6505 0.270472 49.7142C1.80241 50.6921 4.28651 51.8623 5.73974 52.6994C6.54204 53.1626 9.7028 55.1487 10.4597 55.7088C15.0828 59.7067 14.9178 59.7339 16.925 64.419C16.2957 64.9893 15.7003 65.5958 15.1418 66.2356C15.1055 66.3869 15.0555 66.3612 15.1418 66.5141L26.9492 90.2153C28.1984 92.7387 30.2601 94.7686 32.8026 95.9783C35.3452 97.1881 38.2208 97.5074 40.9668 96.8849C42.196 96.6079 43.4145 96.3067 44.5998 95.9842V106.794C44.5998 106.87 44.6298 106.942 44.6832 106.995C44.7366 107.049 44.8089 107.079 44.8844 107.079H89.8813C89.9568 107.079 90.0292 107.049 90.0826 106.995C90.136 106.942 90.1659 106.87 90.1659 106.794V85.8934C90.1659 85.818 90.136 85.7456 90.0826 85.6922C90.0292 85.6388 89.9568 85.6088 89.8813 85.6088C89.8059 85.6088 89.7335 85.6388 89.6801 85.6922C89.6267 85.7456 89.5968 85.818 89.5968 85.8934ZM67.8453 60.185C66.2846 58.4109 67.6425 56.6398 68.6946 58.7666C68.9337 59.2495 69.2229 59.3237 69.4197 59.2979C70.1205 59.2162 70.6413 57.6328 70.9334 56.4975C72.6725 57.2233 74.5085 57.6905 76.383 57.8841C76.2211 63.1823 74.895 69.7157 71.1908 65.9525C69.895 64.631 69.9011 63.974 69.4954 64.0512C69.4397 64.0627 69.3887 64.0906 69.3491 64.1314C69.3094 64.1721 69.2828 64.2238 69.2728 64.2798C69.1336 65.1828 69.1973 66.1054 69.4591 66.9807C69.721 67.8561 70.1744 68.6621 70.7866 69.3403C70.8489 70.4251 71.1876 71.4759 71.7705 72.3929C72.3534 73.3099 73.1611 74.0626 74.1169 74.5795C70.0206 76.1523 65.0343 75.7057 59.9571 73.3034C62.5557 72.3002 64.6861 70.3626 65.9304 67.8704C67.6576 64.6431 68.2798 60.6861 67.8453 60.185ZM45.1569 62.0681H59.8995C61.0486 64.5105 62.9315 66.5332 65.2856 67.8538C63.5326 70.9979 61.984 71.6201 59.1699 73.0657C54.6465 75.342 49.9631 77.2853 45.1569 78.8801V62.0681ZM20.0616 49.1572C20.0782 49.1572 20.496 49.2979 21.3089 51.7412C22.2077 54.2903 23.344 56.7494 24.7028 59.086C23.5114 58.1248 21.7827 56.8471 19.9147 55.5105C20.7685 54.8671 19.8966 52.0697 19.8511 50.7345C19.7939 50.1995 19.866 49.6585 20.0616 49.1572ZM0.55052 49.2889C0.626209 49.1995 1.1969 49.0406 2.78031 49.4705C3.43275 50.017 6.02433 51.8032 7.53205 53.1293C4.53326 51.2553 3.63862 51.0206 0.55052 49.2889ZM10.2296 54.7642C8.07047 52.7303 5.76152 50.8616 3.32224 49.1738C2.63045 48.6531 2.42155 48.2111 2.44728 48.1142C3.01494 47.7781 6.17419 49.3706 8.68706 51.3052C10.3952 53.0091 11.9212 54.8862 13.2405 56.9062C13.4716 57.2947 13.7037 57.7014 13.9368 58.1263C12.8303 57 11.4482 55.8117 10.2296 54.7642ZM13.731 56.6155C12.2291 54.3361 10.4779 52.2311 8.50994 50.3394C6.88869 48.7908 6.62378 48.1051 6.64043 47.9961C6.64043 47.9961 7.06732 47.7675 9.36523 49.027C10.599 49.7021 22.2187 57.5965 25.1993 60.2425C22.3085 60.8086 19.6131 62.1122 17.3746 64.027C16.3023 61.489 15.0858 59.0145 13.731 56.6155ZM56.6328 106.51H45.1569V95.8283C48.3393 94.9772 51.4417 93.8507 54.4288 92.4617C55.6639 96.1629 57.2606 99.7335 59.1956 103.122C58.4417 104.323 57.5841 105.457 56.6328 106.51ZM89.5968 106.51H81.7478C81.087 105.435 80.5512 104.288 80.1508 103.091C80.4717 100.79 81.3618 96.5383 81.7024 92.3028L89.5968 97.2059V106.51Z" fill="#090809"/>
<path d="M287.482 38.6077C287.34 38.4412 286.902 37.9295 284.288 39.7627C283.405 40.3809 282.476 40.93 281.508 41.4051C282.081 40.7179 282.981 39.6068 284.407 37.822C285.013 37.0651 286.325 35.2486 285.647 34.6174C285.164 34.1632 284.097 34.6855 282.476 36.1614C281.698 36.8737 280.885 37.5462 280.04 38.1763C280.858 36.8699 282.079 34.8596 283.016 33.0627C283.507 32.1196 284.227 30.4666 283.487 29.9898C282.716 29.4902 281.368 30.9616 280.637 31.885C280.456 32.1106 278.629 34.2692 276.769 36.4596C277.056 35.2597 277.449 34.0875 277.944 32.9568C278.637 31.3491 278.7 30.2077 278.121 29.905C277.541 29.6022 276.607 30.35 275.574 32.0424C275.393 32.3452 272.455 37.0606 271.917 37.6873C271.133 38.6077 270.629 38.8605 270.484 38.809C268.734 38.1672 266.699 33.7848 264.874 34.6461C263.511 35.2849 265.497 38.4306 266.339 40.2229C266.469 40.8982 266.408 41.5967 266.162 42.2389C265.915 42.8811 265.494 43.4413 264.945 43.8559C264.921 43.8726 264.763 44.0073 264.519 44.2147C264.134 43.9259 263.673 43.756 263.192 43.7258C262.712 43.6957 262.233 43.8067 261.814 44.0452C261.566 44.2404 243.952 58.1899 232.901 66.6655V62.1136C232.901 62.0381 232.871 61.9657 232.818 61.9123C232.764 61.859 232.692 61.829 232.617 61.829H228.319C228.359 61.4279 228.306 61.023 228.163 60.6462C228.02 60.2694 227.791 59.9312 227.494 59.6582C227.876 59.451 228.201 59.1527 228.44 58.7898C228.679 58.4269 228.825 58.0105 228.864 57.5777C228.904 57.145 228.836 56.7091 228.667 56.3089C228.497 55.9086 228.232 55.5564 227.894 55.2834C228.14 54.9801 228.292 54.6121 228.334 54.2238C228.724 54.5317 229.212 54.6869 229.708 54.6605C230.204 54.6341 230.673 54.4277 231.028 54.0802C231.382 53.7326 231.598 53.2676 231.634 52.7724C231.671 52.2772 231.525 51.7857 231.225 51.39C231.722 51.3375 232.183 51.1042 232.519 50.7344C232.855 50.3646 233.044 49.8841 233.049 49.3843C233.054 48.8845 232.875 48.4003 232.546 48.0238C232.218 47.6472 231.762 47.4046 231.266 47.3422C231.581 46.9559 231.744 46.4677 231.724 45.9696C231.704 45.4715 231.502 44.9981 231.157 44.6386C230.811 44.2791 230.346 44.0585 229.85 44.0183C229.353 43.9781 228.858 44.1212 228.46 44.4206C228.385 43.9203 228.134 43.4632 227.751 43.1321C227.369 42.8009 226.88 42.6175 226.375 42.615C225.869 42.6124 225.379 42.7909 224.993 43.1181C224.607 43.4454 224.351 43.8999 224.271 44.3994C223.877 44.1015 223.387 43.9569 222.894 43.9924C222.401 44.028 221.938 44.2414 221.59 44.5928C221.243 44.9443 221.035 45.41 221.005 45.9035C220.974 46.3969 221.124 46.8844 221.427 47.2756C221.123 47.3028 220.83 47.4012 220.572 47.5627C220.313 47.7241 220.096 47.9442 219.939 48.205C219.659 47.8099 219.28 47.4956 218.84 47.2939C218.4 47.0922 217.914 47.0102 217.432 47.0563C216.95 47.1024 216.489 47.2748 216.095 47.5563C215.701 47.8377 215.388 48.2181 215.188 48.6591C214.797 48.341 214.321 48.1428 213.819 48.0883C213.318 48.0338 212.811 48.1253 212.36 48.3518C211.909 48.5783 211.533 48.9301 211.277 49.3652C211.021 49.8002 210.896 50.2998 210.917 50.8042C210.424 50.724 209.918 50.7869 209.46 50.9853C209.002 51.1837 208.61 51.5093 208.331 51.9235C208.053 52.3377 207.898 52.8232 207.887 53.3224C207.876 53.8216 208.008 54.3135 208.268 54.74C207.775 54.8901 207.337 55.1819 207.009 55.579C206.681 55.9761 206.478 56.461 206.423 56.9732C206.369 57.4854 206.467 58.0022 206.704 58.4592C206.942 58.9162 207.309 59.2932 207.759 59.5432C207.445 59.8271 207.206 60.1829 207.06 60.5801C206.915 60.9772 206.869 61.4038 206.925 61.8229H187.594C187.518 61.8229 187.446 61.8529 187.393 61.9063C187.339 61.9596 187.309 62.032 187.309 62.1075V107.123C187.309 107.198 187.339 107.27 187.393 107.324C187.446 107.377 187.518 107.407 187.594 107.407H232.604C232.68 107.407 232.752 107.377 232.806 107.324C232.859 107.27 232.889 107.198 232.889 107.123V88.2307L271.754 57.6964C272.792 56.9395 272.571 55.3848 272.188 54.1617C278.065 49.2208 279.59 47.4799 284.147 43.2777C284.719 42.7509 285.326 42.1545 285.951 41.5066C287.358 40.0367 287.872 39.0633 287.482 38.6077ZM222.279 67.2771C222.734 67.4817 223.238 67.5517 223.731 67.4787C224.225 67.4058 224.687 67.193 225.063 66.8655C225.439 66.538 225.714 66.1096 225.854 65.6309C225.994 65.1523 225.995 64.6435 225.855 64.1647C226.376 64.1401 226.878 63.9581 227.294 63.6428C227.71 63.3275 228.021 62.8935 228.186 62.3982H232.318V67.0999C228.199 70.2531 225.089 72.5647 224.312 72.9734C219.821 75.3288 217.197 73.7772 216.561 69.1269C216.961 68.9347 217.305 68.6447 217.562 68.2837C217.858 68.7045 218.27 69.0291 218.749 69.217C219.227 69.405 219.751 69.4479 220.254 69.3406C220.756 69.2333 221.217 68.9804 221.577 68.6135C221.937 68.2466 222.181 67.7818 222.279 67.2771ZM207.798 62.763C208.159 61.116 208.947 57.9643 210.54 57.3906C211.944 56.8835 213.311 58.7681 213.909 60.1366C214.132 60.6479 214.294 61.184 214.389 61.7336C214.592 62.3588 215.023 62.4738 215.449 62.218C215.72 62.033 215.962 61.8085 216.166 61.552C217.529 59.9625 219.194 62.5692 216.325 64.7642C215.914 65.076 215.88 66.8441 215.88 67.3633C215.88 69.8565 216.536 73.0324 218.756 74.1874C215.376 80.6709 212.352 83.1777 210.078 76.2885C210.75 75.6422 211.279 74.8614 211.63 73.997C211.98 73.1326 212.145 72.2041 212.113 71.2719L213.286 69.6961C213.312 69.6516 213.326 69.6007 213.326 69.5489C213.325 69.4971 213.311 69.4464 213.283 69.4024C213.256 69.3584 213.217 69.3229 213.171 69.2996C213.124 69.2764 213.072 69.2664 213.021 69.2707C212.869 69.2949 212.718 69.4221 212.149 69.6204C207.379 71.3491 206.719 67.6873 207.798 62.763ZM187.88 62.3982H207.06C207.105 62.5168 207.159 62.6321 207.22 62.7433C206.233 67.4542 206.779 71.617 211.459 70.4257C211.628 71.439 211.542 72.4785 211.208 73.45C210.873 74.4215 210.302 75.2941 209.545 75.9888C206.829 78.9301 200.573 76.2416 187.875 95.6073L187.88 62.3982ZM196.041 106.838C198.344 104.58 200.383 102.067 202.119 99.3479C202.682 101.252 203.663 104.222 204.657 106.838H196.041ZM202.497 98.6046C200.176 90.4711 201.422 88.9649 203.013 85.6119C203.045 85.5434 203.049 85.465 203.023 85.3939C202.998 85.3228 202.945 85.2648 202.876 85.2327C202.808 85.2006 202.729 85.1969 202.658 85.2226C202.587 85.2483 202.529 85.3012 202.497 85.3697C200.876 88.8256 199.568 90.3485 201.91 98.6228C200.035 101.634 197.784 104.395 195.211 106.838H187.88V96.6518C200.142 77.6676 206.1 79.469 209.601 76.6927C210.396 79.0164 211.324 80.3757 212.42 80.8132C210.827 87.9764 211.127 96.6518 213.249 106.838H205.26C204.152 103.909 203.095 100.703 202.497 98.6046ZM232.318 106.838H227.122C227.119 101.751 227.583 96.6749 228.508 91.673L232.318 88.6788V106.838ZM271.412 57.2332L233.361 87.1347C228.538 87.9718 228.787 87.884 228.678 88.0354C228.561 88.2368 228.006 91.2583 227.968 91.4626C227.021 96.5318 226.547 101.678 226.552 106.835H213.837C211.733 96.7321 211.401 88.0354 212.971 80.9495C215.523 81.284 218.077 76.6973 219.27 74.4054C220.172 74.6064 221.106 74.6273 222.016 74.467C222.927 74.3067 223.797 73.9684 224.577 73.4714C227.479 71.947 260.756 45.6043 262.158 44.4872C264.893 42.4072 274.298 55.1366 271.412 57.2332ZM285.538 41.1069C284.073 42.6207 284.144 42.4451 280.178 46.2159C277.894 48.3882 275.914 50.2728 271.985 53.5804C270.516 49.9928 268.111 46.8647 265.022 44.522C265.152 44.41 265.237 44.3373 265.269 44.3131C265.927 43.8256 266.428 43.1548 266.707 42.3846C266.987 41.6143 267.034 40.7788 266.841 39.9822C266.44 39.1269 264.406 35.4923 265.105 35.1608C266.33 34.5826 268.484 38.6879 270.276 39.3434C270.459 39.41 271.012 39.6128 272.338 38.0567C272.93 37.3664 276.02 32.3846 276.048 32.3376C277.147 30.5453 277.769 30.3697 277.847 30.4106C277.965 30.4727 278.086 31.1675 277.408 32.7327C276.746 34.2008 276.277 35.748 276.012 37.3361L275.317 38.1581C274.94 37.8947 274.534 37.6374 274.092 37.3846C274.027 37.3497 273.951 37.3417 273.88 37.3621C273.809 37.3825 273.748 37.4298 273.712 37.494C273.675 37.5582 273.664 37.6342 273.683 37.7058C273.701 37.7775 273.746 37.8393 273.809 37.878C276.219 39.1633 278.098 41.257 279.117 43.7908C279.148 43.8597 279.205 43.9133 279.276 43.9398C279.347 43.9664 279.426 43.9637 279.494 43.9324C279.563 43.9011 279.617 43.8437 279.643 43.7728C279.67 43.702 279.667 43.6235 279.636 43.5547C278.817 41.5596 277.487 39.8153 275.78 38.4972C276.178 38.043 280.935 32.4103 281.069 32.2377C282.432 30.5317 283.089 30.4212 283.165 30.4666C283.24 30.512 283.389 31.0933 282.498 32.8008C281.168 35.3531 279.192 38.4381 278.799 39.0482C278.763 39.1027 278.747 39.1678 278.754 39.2327C278.761 39.2975 278.789 39.3581 278.835 39.4043C278.881 39.4506 278.941 39.4796 279.006 39.4867C279.071 39.4938 279.136 39.4785 279.191 39.4433C280.489 38.5934 281.713 37.6364 282.851 36.5822C284.447 35.1305 285.138 34.9777 285.247 35.0291C285.305 35.1184 285.247 35.8329 283.955 37.4678C283.105 38.5275 280.526 41.77 280.231 41.9879C280.173 42.0279 280.131 42.088 280.115 42.1567C280.099 42.2253 280.108 42.2976 280.142 42.3595C280.176 42.4214 280.232 42.4685 280.299 42.4915C280.365 42.5146 280.438 42.5121 280.503 42.4845C281.948 41.8821 283.324 41.1259 284.607 40.2289C286.272 39.0648 286.943 38.9437 287.029 38.9604C287.07 39.077 286.866 39.7279 285.543 41.1069H285.538Z" fill="#090809"/>
<path d="M273.036 40.1245C274.658 42.9855 274.515 45.4151 272.609 47.3497C272.56 47.4042 272.535 47.4752 272.537 47.548C272.539 47.6209 272.57 47.69 272.621 47.7413C272.673 47.7925 272.743 47.8219 272.816 47.8234C272.888 47.8249 272.959 47.7984 273.013 47.7494C275.12 45.6119 275.294 42.9522 273.531 39.8429C273.493 39.7773 273.432 39.7292 273.359 39.7092C273.286 39.6891 273.208 39.6989 273.142 39.7362C273.077 39.7736 273.029 39.8354 273.009 39.9083C272.989 39.9811 272.998 40.0589 273.036 40.1245Z" fill="#090809"/>
<path d="M143.166 68.8681C140.372 71.496 136.222 71.1736 131.297 69.1572C132.947 68.7379 132.508 64.4554 132.71 62.6207C130.528 64.6113 128.254 66.1796 127.509 64.9262C126.752 63.6456 126.734 60.8103 127.869 53.2096C128.588 53.5966 129.341 53.9135 130.12 54.1557C129.833 57.0909 130.842 57.2574 131.43 56.2265C132.521 54.3086 134.701 55.8708 132.579 58.8166C133.66 59.9459 138.166 64.7203 138.897 65.509C140.039 66.9465 141.501 68.0968 143.166 68.8681Z" fill="#15CD98"/>
<path d="M212.002 141.79C208.599 141.597 205.781 147.428 204.727 151.175C203.938 153.784 203.692 156.527 204.002 159.236C204.317 161.304 205.131 162.745 206.376 163.097L175.308 154.504C173.02 153.872 170.896 152.75 169.084 151.216L147.861 133.238C146.528 148.167 138.047 213.529 138.047 213.529C131.193 215.337 123.931 214.804 117.414 212.015C118.574 200.798 124.592 136.85 129.474 105.23C128.351 103.505 126.36 95.1728 125.219 90.1032C131.065 93.3805 125.001 70.8874 124.957 70.7269C126.017 70.4242 127.208 70.1426 128.63 69.8005C129.671 72.7527 130.444 75.7925 130.941 78.8831L147.092 78.4426C146.541 75.3477 145.752 72.2999 144.732 69.3267C146.158 69.7154 147.526 70.2948 148.798 71.0493C148.887 71.1175 150.513 72.9128 151.445 78.5138C151.859 81.065 151.983 83.6549 151.815 86.234C151.404 91.6373 151.465 97.066 151.998 102.459C158.347 105.324 161.872 111.894 164.562 117.433C168.183 124.915 177.238 133.222 177.238 133.222C215.34 142.607 211.851 141.782 212.002 141.79Z" fill="#15CD98"/>
<path d="M98.8415 73.7545C94.9997 74.2774 91.3503 75.7549 88.2269 78.0521C88.0393 75.7373 87.4535 73.4722 86.4951 71.3567C83.4403 70.9813 82.0946 67.1696 82.8772 65.7739C83.057 65.4734 83.348 65.2558 83.6871 65.1684C83.4678 64.5893 83.4455 63.9541 83.6235 63.361C83.7625 63.1386 83.9593 62.9581 84.1928 62.8386C84.4263 62.7192 84.6879 62.6654 84.9496 62.6828C84.9474 62.3768 85.0071 62.0735 85.1252 61.7912C85.5793 60.8148 87.7122 60.836 89.7724 62.212C86.7964 56.5747 87.4473 52.648 88.0028 53.8212C89.8757 57.3041 91.9354 60.6832 94.173 63.9438C94.2578 63.0764 94.4954 61.602 95.1221 61.4869C95.8306 61.3567 97.962 69.9762 98.8415 73.7545Z" fill="#15CD98"/>
<path d="M197.156 127.047C195.954 126.588 194.786 126.048 193.658 125.429C194.938 126.746 196.288 127.993 197.703 129.165C199.574 130.426 198.641 131.587 196.319 130.535C194.874 129.822 193.475 129.018 192.132 128.128C193.218 129.405 194.191 130.647 194.654 131.064C196.327 132.566 195.26 133.62 193.125 132.275C191.877 131.451 190.683 130.547 189.55 129.57C189.887 130.249 190.28 130.9 190.723 131.516C192.173 133.153 191.254 133.797 189.254 132.36C185.387 129.421 181.72 126.227 178.278 122.799C182.238 121.106 185.433 118.008 187.247 114.101C188.856 115.363 190.705 116.285 192.682 116.809C198.685 118.338 198.021 120.04 190.811 119.654C193.054 121.912 195.564 123.888 198.286 125.539C200.184 126.762 199.574 127.935 197.156 127.047Z" fill="#15CD98"/>
<path d="M135.579 234.377H135.778C135.846 230.999 135.324 227.635 134.233 224.437C133.955 223.603 134.071 224.314 135.092 214.405C136.068 214.254 137.084 214.054 138.119 213.812C138.176 213.799 138.227 213.768 138.266 213.725C138.305 213.683 138.33 213.629 138.337 213.571C138.421 212.925 146.636 149.564 148.103 133.815L168.91 151.438C170.753 152.997 172.912 154.139 175.239 154.784L206.271 163.365C206.972 163.473 207.688 163.394 208.348 163.135C209.008 162.877 209.588 162.448 210.028 161.893C211.181 163.507 211.969 165.353 212.337 167.303C213.589 171.646 213.973 177.041 216.273 179.383C218.168 181.319 220.015 180.837 221.583 178.708C224.404 174.875 226.262 165.933 226.642 158.953C227.085 150.778 225.628 145.875 222.758 145.632C221.546 145.529 218.2 144.888 214.635 144.092C214.495 143.466 214.181 142.892 213.729 142.436C213.276 141.981 212.705 141.663 212.079 141.519L177.39 132.995C176.643 132.3 168.245 124.392 164.825 117.342C162.034 111.578 158.531 105.197 152.27 102.298C151.949 99.566 151.808 96.8156 151.848 94.0648C159.447 105.813 166.884 113.791 177.049 123.471C177.102 123.522 177.173 123.55 177.246 123.55C177.583 123.438 177.913 123.303 178.231 123.146C181.641 126.533 185.272 129.69 189.1 132.595C189.747 133.06 191.038 133.82 191.572 133.232C191.772 133.01 191.955 132.475 190.947 131.331C190.796 131.15 190.662 130.955 190.546 130.75C191.328 131.382 192.143 131.973 192.986 132.521C195.541 134.136 196.693 132.51 194.857 130.856C194.38 130.368 193.928 129.855 193.505 129.319C194.381 129.861 195.285 130.354 196.213 130.798C197.511 131.39 198.567 131.382 198.905 130.78C199.199 130.256 198.813 129.569 197.874 128.933C196.938 128.19 196.05 127.389 195.214 126.534C196.378 127.079 199.05 128.331 199.629 127.18C199.893 126.65 199.454 125.946 198.452 125.3C195.958 123.784 193.639 121.997 191.537 119.972C194.111 120.065 196.877 119.92 197.037 118.873C197.16 118.073 195.721 117.288 192.765 116.534C190.9 116.04 189.151 115.183 187.618 114.01C187.738 113.738 187.853 113.461 187.959 113.178C187.98 113.124 187.984 113.065 187.97 113.009C187.956 112.953 187.926 112.903 187.883 112.864C179.241 105.036 171.432 96.3331 164.583 86.8956C159.09 79.684 153.035 71.3355 144.521 68.9937C142.744 68.5047 141.548 68.0567 139.108 65.3152C135.778 61.5807 140.649 53.5078 143.239 49.304C144.824 46.7306 142.677 45.4348 140.991 46.8184C140.678 45.9102 139.131 45.509 137.842 46.667C137.453 45.7966 135.815 45.4848 134.647 46.8275C134.159 45.9919 132.583 45.7679 131.388 47.3588C130.796 46.4657 128.91 46.8578 128.396 49.024C128.074 50.3864 127.801 51.8563 127.588 53.1702C126.262 61.3446 126.55 63.8105 127.258 65.067C127.338 65.2108 127.432 65.3466 127.538 65.4727C128.248 66.3098 131.192 66.0933 132.294 65.9873C132.205 67.3846 131.964 68.7 131.235 68.8862C119.606 71.835 120.264 70.3349 108.109 87.8341C105.024 83.4499 102.578 78.6497 100.843 73.5774C100.824 73.5175 100.785 73.4656 100.733 73.43C100.682 73.3944 100.619 73.377 100.557 73.3806L99.0655 73.4624C96.1711 61.0116 95.3749 61.1569 95.0706 61.2114C94.5529 61.3067 94.1896 61.9683 93.9898 63.1581C91.8478 60.1302 89.9255 56.9527 88.2375 53.6501C88.0089 53.196 87.6229 53.2898 87.4594 53.5426C87.0658 54.1481 87.0416 57.2241 89.0912 61.4899C88.1082 60.9294 86.9599 60.7307 85.8457 60.9283C85.5087 61.0057 85.2087 61.1971 84.9966 61.4702C84.7845 61.7433 84.6732 62.0813 84.6816 62.4269C83.292 62.6162 82.9953 63.6304 83.3434 65.0004C81.2105 65.9858 82.803 71.0555 86.3014 71.6231C87.1919 73.6185 87.7439 75.7482 87.9347 77.925C87.6047 78.1687 87.2853 78.4169 86.9795 78.6697C86.9363 78.7057 86.9047 78.7536 86.8885 78.8074C86.8724 78.8613 86.8724 78.9187 86.8887 78.9725C89.7384 87.1327 93.5934 94.9062 98.3646 102.114C101.814 107.124 109.544 108.623 114.073 104.365C118.295 100.331 121.998 95.7884 125.098 90.8405C126.241 95.8738 128.077 103.435 129.185 105.303C124.299 137.005 118.296 200.787 117.141 211.998C117.135 212.058 117.148 212.119 117.178 212.171C117.208 212.223 117.254 212.265 117.309 212.289C118.298 212.724 119.308 213.105 120.337 213.432L119.91 217.088C119.701 218.912 119.02 220.65 117.935 222.131C116.85 223.612 115.397 224.785 113.72 225.533C109.197 227.557 104.929 230.109 101.005 233.135C100.822 233.279 100.695 233.481 100.645 233.707C100.595 233.934 100.625 234.171 100.729 234.378H101.024C100.766 234.378 100.477 234.832 101.086 234.879C104.454 235.103 -89.8524 234.947 135.579 234.947C135.654 234.947 135.727 234.917 135.781 234.864C135.834 234.81 135.864 234.738 135.864 234.662C135.864 234.586 135.834 234.514 135.781 234.46C135.727 234.407 135.654 234.377 135.579 234.377ZM210.22 161.279C209.587 160.662 208.805 160.218 207.95 159.99C206.748 159.564 205.514 159.234 204.261 159.001C203.563 153.974 205.926 146.475 209.244 143.335C212.758 144.272 217.067 145.303 221.438 146.018C216.581 149.196 213.305 170.945 215.974 178.067C213.648 174.286 213.478 164.552 210.22 161.279ZM196.462 118.783C196.434 118.966 195.402 119.596 190.936 119.371C190.534 118.954 190.122 118.5 189.712 118.02C189.662 117.964 189.593 117.93 189.519 117.925C189.444 117.92 189.371 117.944 189.314 117.992C189.257 118.041 189.222 118.109 189.215 118.184C189.209 118.258 189.231 118.332 189.279 118.39C194.371 124.346 199.573 125.989 199.106 126.921C199.032 127.073 198.481 127.233 197.256 126.781C195.094 125.93 193.028 124.853 191.092 123.568C191.029 123.527 190.952 123.512 190.878 123.527C190.804 123.542 190.74 123.586 190.698 123.649C190.656 123.712 190.642 123.789 190.657 123.863C190.672 123.937 190.716 124.002 190.779 124.044C191.251 124.354 192.228 124.978 193.487 125.66C194.772 126.978 196.126 128.227 197.544 129.401C198.319 129.923 198.478 130.35 198.395 130.498C198.275 130.713 197.57 130.79 196.438 130.276C193.8 128.898 191.27 127.324 188.869 125.566C188.808 125.531 188.737 125.519 188.668 125.533C188.599 125.547 188.538 125.586 188.496 125.642C188.454 125.698 188.435 125.768 188.441 125.838C188.448 125.908 188.48 125.973 188.531 126.021C189.193 126.507 190.541 127.437 191.948 128.34C193.072 129.666 193.99 130.84 194.468 131.27C195.169 131.9 195.264 132.354 195.16 132.492C195.008 132.687 194.312 132.675 193.283 132.026C191.134 130.56 189.114 128.914 187.244 127.106C187.19 127.053 187.118 127.024 187.042 127.025C186.967 127.026 186.895 127.057 186.842 127.111C186.789 127.165 186.76 127.237 186.761 127.313C186.761 127.388 186.792 127.46 186.846 127.513C187.326 127.984 188.227 128.814 189.327 129.74C189.668 130.424 190.065 131.078 190.514 131.696C191.185 132.453 191.171 132.802 191.142 132.836C191.079 132.907 190.516 132.902 189.424 132.12C185.675 129.274 182.116 126.185 178.772 122.873C182.515 121.171 185.551 118.223 187.361 114.531C188.932 115.712 190.717 116.577 192.617 117.077C195.841 117.904 196.489 118.603 196.462 118.783ZM187.338 113.154C186.422 115.383 185.058 117.4 183.331 119.08C181.603 120.76 179.549 122.068 177.296 122.922C167.022 113.129 159.545 105.068 151.845 93.0173C151.934 86.0539 152.585 83.6622 151.725 78.4851C151.428 76.2227 150.763 74.024 149.757 71.9758C160.921 79.0996 166.1 94.1254 187.338 113.154ZM144.509 69.581C145.461 72.3939 146.22 75.2688 146.78 78.1853L131.201 78.6107C130.705 75.6889 129.969 72.813 128.999 70.0125C129.783 69.8248 130.558 69.6386 131.28 69.4554C135.295 71.0872 139.992 72.103 143.239 69.1965C143.729 69.3767 144.296 69.5205 144.509 69.581ZM132.994 62.6525C133 62.5951 132.989 62.5372 132.961 62.4863C132.934 62.4355 132.892 62.3942 132.84 62.3679C132.789 62.3416 132.731 62.3316 132.674 62.3392C132.616 62.3468 132.563 62.3716 132.52 62.4103C131.489 63.3488 128.533 65.9495 127.756 64.7854C127.017 63.4669 127.108 60.3304 128.092 53.6471C128.65 53.9226 129.226 54.1594 129.816 54.3555C129.769 54.8537 129.774 55.3555 129.831 55.8526C130.048 57.374 131.074 57.427 131.677 56.3673C132.612 54.7264 134.156 56.1433 132.347 58.6501C132.308 58.7039 132.289 58.7699 132.294 58.8363C132.305 58.9876 132.39 59.0346 132.88 59.5402C133.931 60.621 135.016 61.6958 136.098 62.7191C137.821 64.796 140.419 67.9083 142.639 68.9468C140.251 70.9147 136.736 70.9646 131.948 69.0981C133.153 67.9674 132.814 64.4584 132.994 62.6525ZM83.4524 68.7348C82.8848 67.6146 82.5275 65.8087 83.7552 65.4409C84.7634 65.1381 86.5693 65.6694 88.3313 67.5223C88.3842 67.5729 88.4545 67.6011 88.5277 67.6012C88.6009 67.6013 88.6712 67.5732 88.7242 67.5227C88.7772 67.4723 88.8087 67.4033 88.8122 67.3302C88.8158 67.2572 88.791 67.1855 88.7431 67.1302C88.1642 66.3972 87.4234 65.8082 86.5788 65.4096C85.7341 65.0109 84.8086 64.8133 83.8748 64.8323C83.7429 64.3914 83.7429 63.9215 83.8748 63.4805C83.9938 63.3073 84.1564 63.1686 84.3462 63.0782C84.5359 62.9879 84.7461 62.9491 84.9556 62.9658C85.8646 63.0153 86.753 63.2553 87.5632 63.6702C88.3735 64.0851 89.0875 64.6657 89.6589 65.3743C89.6838 65.4022 89.7141 65.4249 89.7478 65.4412C89.7815 65.4574 89.8181 65.4669 89.8555 65.469C89.8929 65.4711 89.9304 65.4658 89.9657 65.4535C90.0011 65.4411 90.0336 65.4219 90.0616 65.397C90.0895 65.372 90.1122 65.3418 90.1285 65.3081C90.1447 65.2743 90.1542 65.2377 90.1563 65.2003C90.1584 65.1629 90.1531 65.1255 90.1408 65.0902C90.1284 65.0548 90.1092 65.0222 90.0843 64.9943C88.8728 63.5268 87.133 62.5944 85.2402 62.3982C85.2317 62.1804 85.3019 61.9669 85.4378 61.7966C85.5736 61.6262 85.7663 61.5104 85.9804 61.4702C87.2687 61.3182 88.5661 61.6685 89.6029 62.4481C90.1751 62.835 90.6959 63.2927 91.153 63.8105C91.2032 63.8669 91.2737 63.9011 91.3491 63.9055C91.4244 63.9099 91.4985 63.8842 91.5549 63.834C91.6113 63.7838 91.6455 63.7133 91.6499 63.6379C91.6543 63.5625 91.6285 63.4885 91.5784 63.4321C91.1052 62.8991 90.5683 62.4263 89.9798 62.0243C88.5542 59.6505 87.8119 56.9291 87.8348 54.1602C89.6907 57.5737 91.7198 60.8902 93.9141 64.0966C94.4741 65.1563 94.9332 66.2662 95.2856 67.4118C95.3084 67.4812 95.3571 67.5392 95.4216 67.5737C95.486 67.6082 95.5612 67.6166 95.6317 67.5971C95.7021 67.5777 95.7624 67.5319 95.8 67.4692C95.8376 67.4065 95.8496 67.3317 95.8336 67.2604C95.4792 66.0989 95.0165 64.9733 94.4515 63.8983C94.5847 62.6252 94.8557 61.9531 95.0903 61.8063C95.6232 62.433 97.0189 67.2559 98.4781 73.5214C94.8732 74.056 91.4437 75.4278 88.4645 77.5268C88.2333 75.3515 87.6542 73.2274 86.7494 71.2356C86.2389 70.009 85.5713 68.854 84.7634 67.7993C84.4394 67.5586 84.1109 68.0219 84.394 68.2277C85.0136 69.087 85.549 70.0041 85.9925 70.9661C85.4375 70.7908 84.925 70.5019 84.4877 70.1177C84.0504 69.7336 83.6978 69.2626 83.4524 68.7348ZM113.676 103.948C109.417 107.957 102.093 106.522 98.8263 101.788C94.1243 94.6801 90.3162 87.0197 87.4882 78.9801C91.1014 75.915 95.636 74.1465 100.37 73.9558C101.676 77.7175 103.363 81.3356 105.405 84.7536C105.405 92.1938 105.331 91.888 105.531 92.0485L105.581 92.0757L105.631 92.0909C105.686 92.1031 105.743 92.0984 105.796 92.0773C105.848 92.0562 105.893 92.0198 105.924 91.9728C117.461 75.6679 119.067 72.7736 124.757 71.0948C125.996 75.7482 128.474 86.8381 127.061 89.5629C127.035 89.5926 127.015 89.6278 127.004 89.6658C126.701 90.1563 126.283 90.3424 125.469 89.9262C124.971 87.71 124.641 86.1417 124.63 86.0978C124.614 86.024 124.57 85.9593 124.507 85.9182C124.443 85.877 124.366 85.8627 124.293 85.8783C124.219 85.894 124.154 85.9384 124.113 86.0017C124.072 86.065 124.057 86.142 124.073 86.2159C124.114 86.4157 124.438 87.9431 124.913 90.0624C121.769 95.1467 117.993 99.8124 113.676 103.948ZM129.757 105.285C129.762 105.254 129.762 105.222 129.757 105.191C129.66 104.654 128.931 105.156 125.628 90.6104C125.881 90.7227 126.161 90.7593 126.434 90.7158C126.708 90.6723 126.963 90.5505 127.169 90.3652L128.304 94.1208C128.326 94.1931 128.376 94.2537 128.442 94.2893C128.509 94.325 128.587 94.3327 128.659 94.3108C128.731 94.2889 128.792 94.2392 128.827 94.1727C128.863 94.1061 128.871 94.0281 128.849 93.9558L127.582 89.7627C129.235 86.1841 125.98 73.4608 125.311 70.9374C126.263 70.6755 127.358 70.4076 128.448 70.1457C129.488 73.0543 130.258 76.0527 130.749 79.1027C130.775 79.1293 130.806 79.1504 130.84 79.165C130.874 79.1795 130.911 79.1872 130.949 79.1874C131.1 79.1874 147.022 78.7666 147.173 78.7333C147.245 78.7148 147.307 78.6685 147.344 78.6046C147.7 77.9098 145.414 70.5211 145.175 69.7672C146.382 70.1395 147.54 70.6516 148.628 71.2931C148.832 71.5247 150.293 73.3413 151.171 78.5774C151.581 81.1087 151.704 83.6781 151.539 86.2371C151.436 87.931 151.236 92.934 151.282 93.146C151.282 93.7197 151.282 102.329 151.846 102.716L151.881 102.736C158.062 105.524 161.539 111.861 164.308 117.578C167.913 125.02 176.964 133.371 177.055 133.456C177.207 133.571 176.507 133.355 210.596 141.731C209.998 141.991 209.45 142.355 208.978 142.804C206.047 145.47 203.787 151.461 203.586 156.428L201.603 155.86C201.531 155.844 201.456 155.856 201.394 155.894C201.331 155.931 201.285 155.992 201.266 156.062C201.246 156.132 201.255 156.208 201.289 156.272C201.324 156.337 201.382 156.385 201.451 156.408L203.57 157.014C203.447 158.9 203.914 160.778 204.906 162.387L175.387 154.222C173.14 153.599 171.054 152.497 169.273 150.992L151.864 136.252L152.061 129.816C153.696 131.231 153.631 131.214 153.782 131.214C153.84 131.214 153.897 131.196 153.944 131.162C153.992 131.129 154.028 131.082 154.048 131.028C154.068 130.974 154.071 130.914 154.057 130.858C154.043 130.802 154.012 130.752 153.969 130.713L152.082 129.081C152.207 125.035 152.3 123.6 152.252 123.079C152.211 122.625 151.754 122.711 151.698 123.023C151.468 125.848 147.851 132.639 147.618 133.075C147.517 133.226 141.142 187.419 137.779 213.29C131.108 214.986 124.067 214.476 117.711 211.836C119.58 193.665 125.058 135.704 129.754 105.285H129.757ZM101.344 233.58C105.229 230.583 109.457 228.056 113.937 226.052C115.704 225.264 117.235 224.028 118.38 222.468C119.525 220.907 120.243 219.075 120.464 217.153L120.879 213.602C125.302 214.883 129.951 215.187 134.503 214.493C133.514 224.09 133.355 223.624 133.685 224.617C134.729 227.714 135.246 230.964 135.213 234.231C130.605 234.231 108.57 234.369 101.624 234.375C101.533 234.371 101.446 234.34 101.373 234.286C101.3 234.232 101.245 234.158 101.215 234.072C101.185 233.987 101.181 233.894 101.204 233.807C101.227 233.719 101.276 233.64 101.344 233.58Z" fill="#090809"/>
<path d="M125.985 164.941L126.453 160.485C126.461 160.41 126.438 160.334 126.391 160.276C126.343 160.217 126.274 160.18 126.199 160.172C126.124 160.164 126.049 160.187 125.99 160.234C125.932 160.282 125.894 160.351 125.887 160.426L125.419 164.882C125.411 164.957 125.433 165.032 125.481 165.091C125.528 165.15 125.597 165.187 125.672 165.195C125.747 165.203 125.823 165.18 125.881 165.133C125.94 165.085 125.977 165.016 125.985 164.941Z" fill="#090809"/>
<path d="M122.246 200.597L122.713 196.14C122.721 196.065 122.699 195.99 122.651 195.931C122.628 195.902 122.599 195.878 122.566 195.86C122.533 195.843 122.497 195.831 122.46 195.827C122.385 195.82 122.31 195.842 122.251 195.89C122.192 195.937 122.155 196.006 122.147 196.081L121.68 200.538C121.672 200.613 121.694 200.688 121.742 200.746C121.789 200.805 121.858 200.842 121.933 200.85C122.008 200.858 122.083 200.836 122.142 200.788C122.201 200.741 122.238 200.672 122.246 200.597Z" fill="#090809"/>
<path d="M123.493 188.71L123.959 184.254C123.967 184.179 123.945 184.104 123.897 184.045C123.85 183.987 123.781 183.949 123.706 183.941C123.631 183.934 123.556 183.956 123.497 184.003C123.438 184.051 123.401 184.12 123.393 184.195L122.925 188.651C122.923 188.724 122.948 188.794 122.996 188.849C123.043 188.903 123.11 188.938 123.182 188.945C123.254 188.953 123.326 188.933 123.384 188.889C123.441 188.845 123.48 188.782 123.493 188.71Z" fill="#090809"/>
<path d="M121.041 211.962L121.468 208.026C121.476 207.951 121.453 207.876 121.406 207.817C121.358 207.759 121.289 207.721 121.214 207.714C121.139 207.706 121.064 207.728 121.005 207.776C120.947 207.823 120.91 207.892 120.902 207.967L120.473 211.903C120.471 211.975 120.496 212.046 120.544 212.1C120.591 212.155 120.658 212.189 120.73 212.197C120.802 212.204 120.874 212.184 120.931 212.14C120.989 212.097 121.028 212.033 121.041 211.962Z" fill="#090809"/>
<path d="M124.739 176.83L125.207 172.374C125.215 172.299 125.192 172.224 125.145 172.165C125.097 172.106 125.028 172.069 124.953 172.061C124.878 172.053 124.803 172.076 124.744 172.123C124.686 172.171 124.648 172.24 124.641 172.315L124.171 176.771C124.169 176.844 124.194 176.914 124.242 176.969C124.289 177.023 124.356 177.057 124.428 177.065C124.5 177.072 124.572 177.052 124.629 177.009C124.687 176.965 124.726 176.902 124.739 176.83Z" fill="#090809"/>
<path d="M130.97 117.401L131.437 112.949C131.445 112.874 131.423 112.799 131.375 112.74C131.352 112.711 131.323 112.687 131.29 112.669C131.257 112.652 131.221 112.64 131.184 112.637C131.109 112.629 131.034 112.651 130.975 112.699C130.916 112.746 130.879 112.815 130.871 112.89L130.404 117.339C130.395 117.414 130.417 117.489 130.465 117.548C130.512 117.607 130.581 117.645 130.656 117.653C130.731 117.661 130.806 117.639 130.865 117.592C130.924 117.545 130.961 117.476 130.97 117.401Z" fill="#090809"/>
<path d="M131.649 105.457C131.641 105.533 131.664 105.608 131.711 105.666C131.759 105.725 131.828 105.762 131.903 105.77C131.978 105.778 132.053 105.756 132.112 105.708C132.17 105.66 132.208 105.592 132.215 105.517C132.265 105.032 132.376 105.651 131.004 101.105C130.983 101.033 130.933 100.973 130.866 100.937C130.8 100.901 130.722 100.894 130.649 100.915C130.577 100.937 130.517 100.987 130.481 101.054C130.445 101.12 130.438 101.198 130.459 101.27C131.81 105.71 131.678 105.187 131.649 105.457Z" fill="#090809"/>
<path d="M128.478 141.17L128.944 136.715C128.948 136.678 128.945 136.641 128.934 136.605C128.924 136.569 128.906 136.535 128.883 136.506C128.859 136.477 128.83 136.453 128.797 136.435C128.765 136.417 128.728 136.406 128.691 136.402C128.654 136.398 128.617 136.401 128.581 136.412C128.545 136.423 128.511 136.44 128.482 136.464C128.453 136.487 128.429 136.516 128.411 136.549C128.393 136.582 128.382 136.618 128.378 136.655L127.906 141.105C127.901 141.143 127.905 141.181 127.915 141.217C127.925 141.254 127.943 141.288 127.966 141.317C127.99 141.347 128.019 141.371 128.052 141.39C128.085 141.408 128.122 141.42 128.159 141.424C128.197 141.428 128.235 141.425 128.271 141.415C128.308 141.404 128.341 141.387 128.371 141.363C128.401 141.34 128.425 141.31 128.444 141.277C128.462 141.244 128.474 141.208 128.478 141.17Z" fill="#090809"/>
<path d="M127.231 153.064L127.699 148.608C127.706 148.533 127.684 148.457 127.636 148.399C127.589 148.34 127.52 148.303 127.445 148.295C127.37 148.287 127.295 148.309 127.236 148.357C127.178 148.405 127.14 148.473 127.132 148.549L126.665 153.005C126.657 153.08 126.679 153.155 126.727 153.214C126.774 153.273 126.843 153.31 126.918 153.318C126.993 153.326 127.068 153.303 127.127 153.256C127.186 153.208 127.223 153.139 127.231 153.064Z" fill="#090809"/>
<path d="M129.722 129.286L130.19 124.829C130.193 124.757 130.167 124.686 130.12 124.632C130.072 124.578 130.006 124.543 129.934 124.536C129.862 124.528 129.79 124.548 129.732 124.592C129.674 124.635 129.635 124.699 129.623 124.77L129.156 129.227C129.148 129.302 129.171 129.377 129.218 129.436C129.266 129.494 129.335 129.532 129.41 129.539C129.485 129.547 129.56 129.525 129.619 129.477C129.677 129.43 129.715 129.361 129.722 129.286Z" fill="#090809"/>
<path d="M162.638 138.974C162.695 139.023 162.77 139.048 162.845 139.042C162.92 139.037 162.991 139.002 163.04 138.944C163.089 138.887 163.114 138.813 163.108 138.737C163.103 138.662 163.068 138.592 163.01 138.543L159.621 135.612C159.564 135.566 159.491 135.544 159.417 135.55C159.344 135.557 159.276 135.592 159.228 135.648C159.18 135.703 159.155 135.775 159.159 135.849C159.163 135.922 159.195 135.992 159.249 136.042L162.638 138.974Z" fill="#090809"/>
<path d="M171.677 146.791C171.734 146.837 171.807 146.859 171.88 146.852C171.954 146.846 172.022 146.811 172.07 146.755C172.118 146.7 172.143 146.627 172.139 146.554C172.135 146.48 172.103 146.411 172.049 146.361L168.66 143.429C168.602 143.379 168.528 143.355 168.453 143.36C168.377 143.366 168.307 143.401 168.258 143.458C168.208 143.516 168.184 143.59 168.189 143.665C168.195 143.741 168.23 143.811 168.287 143.86L171.677 146.791Z" fill="#090809"/>
<path d="M189.951 153.123C193.614 154.175 194.189 154.371 194.341 154.371C194.409 154.37 194.475 154.344 194.526 154.299C194.578 154.254 194.611 154.192 194.621 154.124C194.63 154.057 194.615 153.988 194.578 153.93C194.541 153.873 194.485 153.83 194.42 153.81L190.111 152.577C190.075 152.566 190.038 152.563 190.001 152.567C189.964 152.571 189.927 152.582 189.895 152.6C189.862 152.618 189.833 152.642 189.809 152.671C189.786 152.7 189.768 152.734 189.758 152.77C189.747 152.806 189.744 152.843 189.748 152.88C189.752 152.918 189.763 152.954 189.781 152.986C189.799 153.019 189.823 153.048 189.852 153.072C189.882 153.095 189.915 153.113 189.951 153.123Z" fill="#090809"/>
<path d="M178.466 149.832C182.128 150.892 182.704 151.078 182.856 151.078C182.925 151.079 182.991 151.054 183.044 151.009C183.096 150.964 183.13 150.901 183.139 150.833C183.149 150.765 183.134 150.696 183.096 150.638C183.058 150.58 183.001 150.538 182.935 150.519L178.617 149.28C178.581 149.27 178.543 149.267 178.506 149.272C178.468 149.276 178.432 149.288 178.4 149.307C178.334 149.345 178.285 149.407 178.265 149.48C178.245 149.554 178.255 149.632 178.293 149.698C178.33 149.764 178.393 149.812 178.466 149.832Z" fill="#090809"/>
</svg>
