<svg width="188" height="215" viewBox="0 0 188 215" fill="none" xmlns="http://www.w3.org/2000/svg">
<path d="M107.537 178.066C107.537 178.066 108.172 172.104 108.115 172.093L110.042 172.556L113.363 140.942L103.298 126.975L101.552 143.979C101.444 145.659 100.943 147.291 100.089 148.744C99.2346 150.196 98.0511 151.43 96.633 152.346C95.1413 153.334 93.4196 153.923 91.6332 154.058C89.8468 154.192 88.0556 153.867 86.4318 153.113L54.8875 138.729L54.2754 140.987L48.7328 138.447L50.433 133.016C48.6732 132.114 46.8021 131.446 44.8677 131.029C55.2049 179.974 56.8257 187.923 57.1771 189.142C57.2791 189.469 57.3244 189.447 57.3811 189.447L110.654 187.843C110.701 187.832 110.743 187.806 110.774 187.768C110.804 187.73 110.82 187.683 110.82 187.635C110.82 187.586 110.804 187.539 110.774 187.501C110.743 187.463 110.701 187.437 110.654 187.426L111.606 179.037L107.537 178.066Z" fill="#090809"/>
<path d="M27.6164 49.4532C27.7978 50.3452 28.9539 55.9905 30.6088 64.1311C43.0769 65.0908 70.28 67.1232 82.8161 67.8232C82.9522 67.8232 84.9017 67.5748 85.7631 67.4958C87.5087 67.3264 88.7102 67.2361 89.1635 67.1458C92.8813 66.4344 92.1446 61.8956 92.1446 61.8956C91.3285 58.7455 84.5617 53.4953 84.5617 53.4953C81.9547 50.8646 85.3551 50.3678 85.3551 50.3678C85.2108 50.1119 85.1432 49.8202 85.1602 49.5272C85.1773 49.2342 85.2782 48.9522 85.4512 48.7146C85.6241 48.477 85.8618 48.2938 86.136 48.1865C86.4103 48.0793 86.7096 48.0526 86.9986 48.1096C87.1913 48.2 87.4973 47.7596 87.6787 47.4661L27.8205 49.2048C27.7894 49.2041 27.7586 49.2104 27.7303 49.2233C27.702 49.2362 27.6771 49.2553 27.6574 49.2793C27.6378 49.3033 27.6238 49.3314 27.6167 49.3615C27.6096 49.3917 27.6095 49.423 27.6164 49.4532Z" fill="#090809"/>
<path d="M111.073 97.9581C127.509 126.907 125.911 123.927 126.104 124.853C126.12 124.904 126.154 124.947 126.201 124.974C126.247 125.001 126.302 125.01 126.355 124.999C126.408 124.987 126.454 124.957 126.485 124.913C126.516 124.869 126.53 124.815 126.523 124.762L115.982 74.8461L111.073 77.7252V97.9581Z" fill="#090809"/>
<path d="M158.441 16.3716C158.434 16.3374 158.418 16.3055 158.396 16.2786C158.373 16.2517 158.345 16.2307 158.312 16.2173C158.28 16.204 158.245 16.1987 158.21 16.202C158.175 16.2053 158.141 16.217 158.112 16.2361L109.736 46.721L96.3384 47.15C97.7439 48.9904 102.958 56.1826 100.612 59.2536C100.186 59.7303 99.6612 60.1094 99.0742 60.3647C98.4872 60.6201 97.8516 60.7456 97.2111 60.7327C97.2566 61.7798 97.6893 62.773 98.4259 63.5214C99.1625 64.2697 100.151 64.7202 101.201 64.7861L112.536 58.3617L110.144 47.071L158.112 16.8119L187.582 156.196L139.557 186.489L132.031 150.844C132.015 150.793 131.981 150.749 131.934 150.722C131.888 150.695 131.833 150.686 131.78 150.698C131.727 150.709 131.681 150.739 131.65 150.783C131.619 150.827 131.605 150.881 131.612 150.934C131.793 151.837 132.031 149.003 129.129 174.441L130.852 174.52L130.388 180.38L126.126 180.516C125.75 182.807 125.602 185.129 125.684 187.448L139.421 187.042C139.421 187.042 139.421 187.042 139.625 186.94C140.441 186.466 146.063 182.864 187.934 156.455C188.149 156.297 189.441 162.62 158.441 16.3716Z" fill="#090809"/>
<path d="M41.7621 116.407C41.7621 116.52 45.3438 115.436 45.3438 115.436L56.0777 120.404L58.7527 115.955L64.42 118.326C64.1366 118.62 62.9692 120.506 62.9692 120.506L79.8125 128.07C75.7773 106.641 85.0037 99.0645 85.0037 99.0645L81.8754 84.0704L34.0999 78.1202L41.7621 116.407Z" fill="#090809"/>
<path d="M149.611 9.40515C149.407 5.15985 148.251 4.33563 147.265 8.90836C147.041 10.188 146.718 11.4486 146.302 12.6795C146.211 10.952 146.041 8.35512 145.871 5.90504C145.576 1.62586 144.261 1.05004 143.389 5.98407C143.122 7.81149 142.674 9.60802 142.051 11.3472C141.666 8.9874 141.031 5.36308 140.385 3.07107C139.251 -0.891964 137.948 -0.83551 137.869 3.61302C137.869 4.23401 137.699 10.0487 137.653 11.5843C137.143 10.3197 136.452 8.58093 135.806 6.797C134.468 3.17269 132.621 3.26301 133.539 7.67768C133.641 8.16318 134.536 13.052 134.808 14.4521C134.967 15.3441 135.058 17.5683 134.309 17.8393C132.043 18.6635 126.602 16.586 125.797 18.4038C125.276 19.5894 129.118 20.662 131.657 21.6781C133.131 22.2653 133.924 24.6589 133.629 26.3073C132.496 32.2914 133.278 27.7977 129.798 48.8887L110.994 59.2649L111.187 77.7365L139.807 60.9811C141.303 60.1069 142.574 58.896 143.517 57.4452C144.459 55.9944 145.048 54.344 145.236 52.6259C145.95 46.0548 147.084 35.6899 148.081 28.3058C148.985 22.0433 149.496 15.7309 149.611 9.40515Z" fill="#15CD98"/>
<path d="M82.839 67.8006L27.8886 63.973C26.1204 63.8376 23.7061 62.5391 23.2528 61.0939C22.4707 58.61 21.7452 54.9518 20.4531 55.1324C18.4695 55.3921 20.0451 60.7778 18.9456 62.494C18.5602 63.1037 16.1913 62.494 15.3412 62.0988L8.33637 59.3213C3.80251 57.447 3.51915 59.0503 7.2029 61.1165C10.0932 62.7536 12.2695 64.1085 12.9269 64.5037C10.796 63.9279 6.5795 62.8214 4.09721 62.1891C-0.742679 60.9584 -0.731346 62.573 3.26978 64.1085C6.95354 65.5199 11.3741 67.2812 11.6914 67.4167C9.88921 67.1796 6.9082 66.7505 4.04054 66.1747C-0.89003 65.1811 -0.663337 66.6715 3.38313 68.128C6.48882 69.2571 9.66252 70.2281 10.8527 70.5216C9.11789 70.4852 7.38746 70.3344 5.67273 70.07C0.651481 69.2797 0.991521 70.77 5.29868 72.0685C8.33637 72.9943 10.2293 73.3104 15.8399 74.8347C21.1579 76.1423 26.5419 77.1674 31.9691 77.9058L81.9095 84.0479L83.4737 91.4094C90.5352 95.1467 82.839 67.8006 82.839 67.8006Z" fill="#15CD98"/>
<path d="M101.145 64.7861C100.113 64.6852 99.1517 64.22 98.4345 63.4745C97.7172 62.729 97.2915 61.7525 97.2342 60.7215C99.9319 60.6424 103.842 58.8585 98.9118 50.6727C93.5729 41.8208 90.7279 48.7872 91.2266 52.6035C91.2266 53.3035 90.8752 53.4841 89.7417 52.7502C87.3727 51.226 85.9445 55.2116 90.3311 56.86C91.1586 57.1762 94.4457 65.7458 89.481 67.0217L88.2455 67.191L90.5125 77.3527L105.509 76.0542V62.3135L101.145 64.7861Z" fill="#15CD98"/>
<path d="M34.8487 27.8316C34.6603 26.6489 34.2072 25.5235 33.5229 24.5389C32.8386 23.5542 31.9407 22.7356 30.8957 22.1435C29.8506 21.5515 28.6853 21.2012 27.4859 21.1187C26.2865 21.0362 25.0839 21.2236 23.967 21.6669C23.5806 21.0722 23.0558 20.5791 22.4373 20.2296C21.8187 19.88 21.1247 19.6843 20.4139 19.6589C19.7032 19.6336 18.9969 19.7795 18.3548 20.0841C17.7128 20.3887 17.154 20.8432 16.7259 21.4088C16.2978 21.9745 16.013 22.6347 15.8957 23.3334C15.7785 24.0321 15.8321 24.7486 16.0522 25.4222C16.2723 26.0959 16.6523 26.7066 17.16 27.2027C17.6676 27.6988 18.2879 28.0656 18.9683 28.2719C18.8462 29.4061 18.9697 30.5532 19.3302 31.6359C19.6908 32.7186 20.2801 33.7117 21.0585 34.5484C21.8369 35.3851 22.7862 36.0459 23.8426 36.4862C24.899 36.9266 26.0379 37.1364 27.1825 37.1013C28.3272 37.0663 29.451 36.7874 30.4782 36.2832C31.5055 35.7791 32.4124 35.0615 33.1378 34.1788C33.8631 33.2962 34.3901 32.2689 34.6833 31.1662C34.9765 30.0635 35.029 28.9111 34.8373 27.7864L34.8487 27.8316ZM28.1723 36.5706C27.0307 36.7556 25.8617 36.6784 24.7545 36.3449C23.6474 36.0113 22.6313 35.4303 21.7839 34.6461C20.9365 33.8619 20.2801 32.8953 19.8648 31.82C19.4495 30.7446 19.2863 29.589 19.3877 28.4413C20.2034 28.6033 21.0485 28.5328 21.8258 28.2379C22.6031 27.9429 23.281 27.4355 23.7818 26.774C24.2826 26.1124 24.5858 25.3236 24.6567 24.4981C24.7276 23.6725 24.5632 22.8439 24.1824 22.1072C25.1749 21.7037 26.2421 21.5144 27.3135 21.5518C28.3849 21.5892 29.4361 21.8524 30.3979 22.3241C31.3597 22.7959 32.2101 23.4654 32.893 24.2885C33.576 25.1116 34.076 26.0695 34.3601 27.0992C34.6441 28.1289 34.7058 29.2069 34.5409 30.262C34.3761 31.3172 33.9885 32.3255 33.4038 33.2205C32.8191 34.1156 32.0505 34.8769 31.1487 35.4544C30.247 36.0318 29.2325 36.4123 28.1723 36.5706Z" fill="#090809"/>
<path d="M157.262 188.972C157.217 188.95 157.181 188.913 157.16 188.868C157.14 188.822 157.136 188.771 157.149 188.722C157.163 188.674 157.193 188.632 157.234 188.603C157.275 188.575 157.325 188.562 157.376 188.566C167.804 191.739 166.92 176.711 177.699 179.996C177.753 180.014 177.798 180.053 177.824 180.104C177.849 180.155 177.853 180.213 177.835 180.267C177.828 180.294 177.815 180.318 177.797 180.339C177.78 180.36 177.758 180.378 177.734 180.39C177.71 180.403 177.683 180.411 177.656 180.413C177.628 180.415 177.601 180.412 177.575 180.403C167.044 177.196 168.133 192.292 157.262 188.972Z" fill="#090809"/>
<path d="M25.2927 150.11C25.2454 150.099 25.2033 150.072 25.1731 150.034C25.1429 149.996 25.1265 149.949 25.1265 149.901C25.1265 149.853 25.1429 149.806 25.1731 149.768C25.2033 149.73 25.2454 149.703 25.2927 149.692L29.226 148.811C29.2545 148.803 29.2846 148.8 29.3143 148.803C29.3439 148.807 29.3726 148.816 29.3984 148.831C29.4242 148.846 29.4465 148.866 29.4641 148.89C29.4816 148.914 29.4939 148.942 29.5002 148.971C29.5065 149 29.5067 149.03 29.5007 149.059C29.4947 149.088 29.4827 149.116 29.4655 149.14C29.4482 149.165 29.4261 149.185 29.4005 149.2C29.3748 149.216 29.3463 149.225 29.3167 149.229C26.0635 149.963 25.4061 150.11 25.2927 150.11Z" fill="#090809"/>
<path d="M36.2649 147.66C36.2176 147.649 36.1754 147.622 36.1452 147.584C36.1151 147.546 36.0986 147.499 36.0986 147.451C36.0986 147.403 36.1151 147.356 36.1452 147.318C36.1754 147.28 36.2176 147.253 36.2649 147.242L40.1982 146.361C40.2516 146.355 40.3056 146.368 40.3496 146.399C40.3936 146.43 40.4243 146.476 40.4356 146.529C40.447 146.581 40.4383 146.636 40.4111 146.682C40.3839 146.729 40.3403 146.763 40.2889 146.779C36.9223 147.513 36.3216 147.66 36.2649 147.66Z" fill="#090809"/>
<path d="M31.731 144.803L30.8468 140.885C30.8402 140.859 30.839 140.831 30.8435 140.804C30.8479 140.776 30.8579 140.75 30.8727 140.727C30.8876 140.704 30.907 140.684 30.9298 140.668C30.9526 140.653 30.9784 140.642 31.0055 140.637C31.0331 140.63 31.0617 140.629 31.0897 140.633C31.1177 140.638 31.1446 140.647 31.1688 140.662C31.1931 140.677 31.2141 140.696 31.2308 140.719C31.2476 140.742 31.2596 140.768 31.2662 140.795L32.1504 144.713C32.1571 144.766 32.1436 144.82 32.1125 144.864C32.0813 144.907 32.0349 144.938 31.9822 144.949C31.9296 144.961 31.8746 144.952 31.828 144.925C31.7815 144.898 31.7469 144.854 31.731 144.803Z" fill="#090809"/>
<path d="M34.1906 155.676L33.2952 151.758C33.2884 151.705 33.3019 151.651 33.3331 151.608C33.3642 151.564 33.4107 151.533 33.4633 151.522C33.516 151.51 33.571 151.519 33.6175 151.546C33.664 151.573 33.6986 151.617 33.7145 151.668L34.5987 155.586C34.6107 155.64 34.6007 155.696 34.571 155.743C34.5412 155.789 34.4941 155.822 34.44 155.834C34.3859 155.846 34.3292 155.836 34.2824 155.807C34.2357 155.777 34.2026 155.73 34.1906 155.676Z" fill="#090809"/>
<path d="M29.6908 146.542C29.5775 146.542 29.6908 146.598 26.177 144.363C26.1358 144.33 26.1083 144.283 26.0995 144.231C26.0907 144.18 26.1012 144.126 26.1292 144.082C26.1571 144.037 26.2005 144.005 26.2511 143.99C26.3017 143.975 26.356 143.979 26.4037 144.002L29.8042 146.147C29.8432 146.172 29.8731 146.208 29.8895 146.252C29.9059 146.295 29.9079 146.342 29.8951 146.386C29.8824 146.431 29.8557 146.47 29.8188 146.498C29.782 146.526 29.7371 146.541 29.6908 146.542Z" fill="#090809"/>
<path d="M39.1554 152.492C39.042 152.492 39.1554 152.56 35.6302 150.313C35.6071 150.298 35.5872 150.279 35.5715 150.257C35.5559 150.234 35.5449 150.209 35.5391 150.182C35.5333 150.155 35.5329 150.128 35.5378 150.101C35.5427 150.074 35.5529 150.048 35.5678 150.025C35.5827 150.002 35.602 149.982 35.6246 149.967C35.6471 149.951 35.6726 149.94 35.6994 149.934C35.7263 149.929 35.754 149.928 35.781 149.933C35.808 149.938 35.8338 149.948 35.8569 149.963L39.2574 152.108C39.2988 152.129 39.3317 152.164 39.3507 152.206C39.3696 152.249 39.3734 152.296 39.3615 152.341C39.3496 152.386 39.3227 152.425 39.2852 152.453C39.2477 152.48 39.2019 152.494 39.1554 152.492Z" fill="#090809"/>
<path d="M34.6326 145.436C34.5943 145.435 34.5569 145.425 34.5241 145.405C34.4912 145.386 34.4642 145.358 34.4457 145.325C34.4273 145.291 34.4181 145.254 34.419 145.216C34.42 145.178 34.4311 145.141 34.4512 145.108L36.6048 141.721C36.6379 141.68 36.6848 141.653 36.7368 141.644C36.7888 141.635 36.8422 141.646 36.8869 141.673C36.9316 141.701 36.9645 141.744 36.9794 141.795C36.9943 141.845 36.9901 141.899 36.9676 141.947C34.6325 145.616 34.8026 145.436 34.6326 145.436Z" fill="#090809"/>
<path d="M28.6594 154.897C28.6212 154.897 28.5837 154.886 28.5509 154.867C28.5181 154.847 28.4911 154.82 28.4726 154.786C28.4541 154.753 28.4449 154.715 28.4459 154.677C28.4468 154.639 28.4579 154.602 28.478 154.57L30.6317 151.183C30.6618 151.136 30.7091 151.103 30.7633 151.092C30.8175 151.08 30.8742 151.09 30.9207 151.12C30.9673 151.15 31.0001 151.198 31.0118 151.252C31.0235 151.306 31.0132 151.362 30.9831 151.408C28.6481 155.033 28.8181 154.897 28.6594 154.897Z" fill="#090809"/>
<path d="M175.681 54.726L179.626 49.171L174.094 45.3773C174.074 45.3574 174.058 45.3336 174.047 45.3075C174.036 45.2813 174.03 45.2532 174.03 45.2249C174.03 45.1965 174.036 45.1685 174.047 45.1423C174.058 45.1161 174.074 45.0924 174.094 45.0725L177.948 39.461L172.337 35.4076C172.313 35.3928 172.293 35.3733 172.277 35.3501C172.261 35.327 172.25 35.3008 172.244 35.2732C172.239 35.2456 172.24 35.2172 172.246 35.1899C172.252 35.1625 172.264 35.1367 172.281 35.1141L176.271 29.5703L170.535 25.5283C170.489 25.4963 170.458 25.4477 170.447 25.3929C170.436 25.3381 170.448 25.2814 170.478 25.2347C170.498 25.2131 170.521 25.1958 170.548 25.1839C170.574 25.172 170.603 25.1659 170.631 25.1659C170.66 25.1659 170.689 25.172 170.715 25.1839C170.742 25.1958 170.765 25.2131 170.784 25.2347L176.69 29.3897C176.714 29.4045 176.735 29.424 176.751 29.4472C176.767 29.4703 176.778 29.4965 176.783 29.5241C176.788 29.5517 176.788 29.5801 176.782 29.6074C176.775 29.6348 176.763 29.6606 176.747 29.6832L172.802 35.2157L178.413 39.2803C178.45 39.3201 178.471 39.3726 178.471 39.4271C178.471 39.4816 178.45 39.5341 178.413 39.5739L174.548 45.095L180.113 48.9339C180.138 48.9498 180.158 48.9704 180.175 48.9945C180.191 49.0186 180.202 49.0458 180.207 49.0742C180.212 49.1027 180.212 49.132 180.205 49.1603C180.199 49.1885 180.187 49.2152 180.17 49.2387L176.101 54.9744C176.068 55.0298 176.014 55.0698 175.951 55.0857C175.888 55.1016 175.822 55.092 175.766 55.0591C175.711 55.0261 175.67 54.9725 175.654 54.9101C175.639 54.8476 175.648 54.7814 175.681 54.726Z" fill="#090809"/>
<path d="M180.373 43.4579L184.318 37.9029L178.753 34.0866C178.729 34.0718 178.708 34.0523 178.692 34.0291C178.676 34.006 178.665 33.9798 178.66 33.9522C178.654 33.9246 178.655 33.8963 178.661 33.8689C178.667 33.8415 178.679 33.8157 178.696 33.7931L182.64 28.2268L177.03 24.1621C176.992 24.1223 176.971 24.0699 176.971 24.0153C176.971 23.9608 176.992 23.9083 177.03 23.8686L180.929 18.2797L175.182 14.2489C174.955 14.0795 175.182 13.7295 175.431 13.8989L181.348 18.0651C181.386 18.1049 181.407 18.1574 181.407 18.2119C181.407 18.2664 181.386 18.3189 181.348 18.3587L177.449 23.925L183.06 27.9784C183.084 27.9932 183.104 28.0127 183.12 28.0359C183.136 28.059 183.147 28.0852 183.153 28.1128C183.158 28.1404 183.158 28.1687 183.151 28.1961C183.145 28.2235 183.133 28.2493 183.116 28.2719L179.172 33.8382C185.1 37.9255 184.839 37.6884 184.839 37.8126C184.839 37.9368 185.168 37.5077 180.736 43.7063C180.703 43.7542 180.652 43.7871 180.595 43.7977C180.537 43.8083 180.478 43.7957 180.43 43.7628C180.382 43.7298 180.349 43.6792 180.338 43.622C180.328 43.5649 180.34 43.5058 180.373 43.4579Z" fill="#090809"/>
<path d="M105.407 82.4786L92.0542 83.506C92.0259 83.5075 91.9982 83.5145 91.9726 83.5266C91.947 83.5387 91.9241 83.5558 91.9051 83.5768C91.8862 83.5977 91.8716 83.6222 91.8621 83.6489C91.8527 83.6755 91.8486 83.7037 91.8502 83.7319C92.5869 92.7644 92.7456 95.158 92.8136 95.7903C92.8136 96.05 92.8136 96.0048 92.9043 96.0274C99.1953 99.6179 100.748 100.544 101.168 100.724C101.394 100.849 101.394 100.815 101.587 100.611C101.961 100.194 102.993 98.9517 106.461 94.8984C106.497 94.864 106.524 94.8213 106.54 94.7741C106.556 94.7269 106.56 94.6765 106.552 94.6274C106.552 94.108 106.348 91.9741 105.634 82.6705C105.632 82.6428 105.625 82.6156 105.613 82.5907C105.601 82.5658 105.583 82.5437 105.562 82.5257C105.541 82.5077 105.516 82.4942 105.489 82.4861C105.463 82.478 105.435 82.4755 105.407 82.4786ZM101.326 100.307L93.2444 95.7113L92.3262 83.9125L105.26 82.9189L106.166 94.6161L101.326 100.307Z" fill="#090809"/>
<path d="M89.1751 103.05C88.7597 104.631 87.968 106.088 86.8669 107.299C85.7659 108.509 84.388 109.438 82.8501 110.005C82.8189 110.011 82.7892 110.023 82.7632 110.041C82.7372 110.059 82.7156 110.082 82.6997 110.11C82.6839 110.137 82.6743 110.167 82.6717 110.199C82.669 110.23 82.6733 110.262 82.6844 110.291C82.6954 110.321 82.7128 110.348 82.7355 110.37C82.7581 110.392 82.7853 110.409 82.8152 110.419C82.8451 110.43 82.877 110.433 82.9085 110.43C82.94 110.427 82.9704 110.417 82.9975 110.4C84.592 109.811 86.0197 108.846 87.1586 107.587C88.2974 106.329 89.1138 104.815 89.5378 103.174C89.5322 103.135 89.5159 103.098 89.4906 103.068C89.4654 103.038 89.4321 103.015 89.3946 103.002C89.3571 102.989 89.3167 102.987 89.278 102.995C89.2393 103.004 89.2037 103.023 89.1751 103.05Z" fill="#090809"/>
<path d="M149.781 9.37128C149.702 7.68897 149.43 5.66793 148.648 5.60019C147.514 5.49857 147.004 9.16805 146.381 11.4826C146.29 9.90194 146.154 7.91478 146.018 5.92762C145.905 4.30176 145.599 2.33717 144.771 2.3033C143.717 2.3033 143.207 5.4647 143.116 5.97278C142.876 7.52022 142.523 9.04841 142.062 10.5455C141.677 8.21963 141.11 5.09211 140.532 3.0372C140.135 1.63715 139.512 0 138.73 0C137.698 0 137.596 2.60815 137.596 3.6469C137.596 4.18885 137.483 8.60351 137.438 10.6584C136.984 9.52935 136.452 8.14059 135.942 6.75184C135.25 4.88887 134.366 3.85013 133.675 4.05336C132.983 4.25659 132.802 5.60019 133.233 7.74542C133.323 8.15189 134.491 14.5198 134.491 14.5198C134.706 15.6489 134.649 17.4893 134.139 17.6812C131.986 18.4829 126.398 16.3376 125.502 18.3587C124.856 19.8152 128.903 20.9104 131.476 21.9265C132.847 22.4685 133.595 24.7718 133.323 26.3186C131.782 35.2157 134.581 18.2796 129.538 48.7645L101.099 64.5715C100.157 64.511 99.2703 64.1094 98.6053 63.4424V63.3747C97.9919 62.7013 97.5969 61.8592 97.4719 60.9585C98.1226 60.9465 98.7631 60.7951 99.3498 60.5145C99.9366 60.234 100.456 59.8309 100.872 59.3326C102.108 57.6051 101.518 54.6696 99.1267 50.5936C98.6454 49.7622 98.0997 48.9694 97.4945 48.2226C96.8825 47.3871 95.5223 45.3209 94.8876 44.3499C94.4342 43.6611 94.7969 44.237 93.3347 41.7869C93.1096 41.4179 92.7555 41.1449 92.3406 41.0202C91.9256 40.8956 91.479 40.9281 91.0867 41.1116C90.6943 41.2951 90.3839 41.6166 90.2151 42.0143C90.0464 42.412 90.0311 42.8578 90.1723 43.266C89.879 43.2258 89.5802 43.2601 89.3038 43.3657C89.0273 43.4713 88.7821 43.6449 88.591 43.8702C88.3999 44.0954 88.269 44.3652 88.2106 44.6544C88.1522 44.9435 88.1681 45.2427 88.2568 45.5241C87.9868 45.531 87.722 45.6003 87.4834 45.7264C87.2448 45.8525 87.0388 46.0321 86.8817 46.251C86.7246 46.4699 86.6206 46.7221 86.578 46.9878C86.5353 47.2535 86.5552 47.5255 86.6359 47.7822C86.3648 47.788 86.0987 47.8562 85.8584 47.9816C85.6182 48.1069 85.4103 48.2859 85.2511 48.5047C85.0919 48.7234 84.9857 48.9758 84.9408 49.2423C84.896 49.5087 84.9136 49.7819 84.9924 50.0404C84.6484 50.0528 84.3157 50.1663 84.0362 50.3667C83.7568 50.567 83.543 50.8451 83.4219 51.1661C83.3007 51.4871 83.2776 51.8367 83.3554 52.1708C83.4331 52.5048 83.6083 52.8086 83.859 53.0437C83.961 53.1566 83.7683 52.7727 88.0981 56.7696C90.4671 58.9487 91.7139 60.7214 91.9632 61.873C92.1899 64.1312 91.6912 66.2087 89.5036 66.7958L82.8842 67.5297L27.8998 63.7021C26.2336 63.5779 23.8874 62.3247 23.4567 60.9811C22.6972 58.5649 21.9945 54.8615 20.5437 54.8615C18.1407 54.8615 19.8409 60.6311 18.7641 62.3247C18.5261 62.7085 16.5652 62.3247 15.3637 61.8504C15.3637 61.8504 8.75563 59.2423 8.35892 59.0729C7.06677 58.5423 4.84518 57.7632 4.44847 58.5874C4.15377 59.1858 5.10588 60.1794 7.0101 61.252L11.4079 63.7473L4.06309 61.9521C2.6916 61.6021 0.345326 61.1504 0.0732947 61.9521C-0.198737 62.7537 2.34022 63.9279 3.11098 64.2102C5.51392 65.136 8.25691 66.22 9.91176 66.8861C8.33625 66.6603 6.29601 66.3329 3.96108 65.8699C1.62614 65.407 0.186642 65.4296 0.0166224 66.0393C-0.221405 66.8974 2.15887 67.8571 3.19032 68.2297C4.56181 68.7265 7.14611 69.5959 8.97099 70.1265C7.9282 70.0588 6.77207 69.9459 5.5706 69.7652C3.09964 69.3701 1.78482 69.483 1.64881 70.0927C1.35411 71.3798 6.81741 72.6895 8.15489 73.017C11.3286 73.8299 13.5955 74.4283 15.7491 75.0154C21.0818 76.3342 26.4809 77.3706 31.9236 78.1204L81.694 84.2964L84.7771 98.9743C83.7683 99.8549 75.9474 107.42 79.5745 127.698L63.3206 120.404C64.0687 119.196 64.3747 118.767 64.454 118.564C64.5334 118.36 64.5221 118.417 64.454 118.338C64.386 118.259 59.4668 116.08 58.7867 115.764C58.7538 115.74 58.7141 115.727 58.6734 115.727C58.6326 115.727 58.593 115.74 58.56 115.764C58.4127 115.933 56.8938 118.383 55.9417 120.099C44.8905 114.984 45.3892 115.188 45.2645 115.199C44.6184 115.323 45.4912 115.199 39.0191 116.836C31.2835 118.486 23.7805 121.076 16.6785 124.548C16.6385 124.562 16.6038 124.588 16.5793 124.622C16.5548 124.656 16.5416 124.697 16.5416 124.74C16.5416 124.782 16.5548 124.823 16.5793 124.857C16.6038 124.892 16.6385 124.918 16.6785 124.932C18.2654 125.541 19.9769 126.061 21.7338 126.603C33.2498 129.911 38.7357 128.861 48.0868 133.027L49.8777 133.829C49.5037 134.958 48.4382 138.221 48.4042 138.48C48.3702 138.74 48.4042 138.605 48.5289 138.695C52.7114 140.535 53.7995 141.055 54.1962 141.156C54.2503 141.174 54.3093 141.17 54.3603 141.145C54.4113 141.119 54.4501 141.075 54.4682 141.021C54.6382 140.366 54.8083 139.711 55.001 139.056L86.3526 153.215C87.9299 153.919 89.6523 154.24 91.3784 154.152C93.1044 154.063 94.7849 153.569 96.2817 152.708C97.7786 151.847 99.0491 150.645 99.989 149.2C100.929 147.756 101.511 146.109 101.688 144.397L103.457 127.799L113.136 140.998L109.861 172.353C107.832 171.878 108.228 171.935 108.115 171.935C108.082 171.941 108.051 171.955 108.024 171.974C107.996 171.994 107.973 172.019 107.956 172.048C107.956 172.161 107.344 178.111 107.356 178.224C107.36 178.259 107.372 178.292 107.392 178.322C107.412 178.351 107.438 178.376 107.469 178.393C107.639 178.461 109.736 178.946 111.391 179.262C110.439 187.629 110.155 189.943 110.099 190.61C110.099 190.926 110.099 190.869 110.099 190.914C115.528 198.931 119.552 206.721 128.03 214.941C128.059 214.969 128.096 214.988 128.135 214.996C128.175 215.004 128.216 215 128.254 214.986C128.292 214.972 128.325 214.948 128.349 214.916C128.374 214.884 128.389 214.846 128.393 214.806C128.5 207.942 127.892 201.086 126.579 194.347C125.922 190.457 125.785 186.497 126.171 182.571L126.353 180.708C126.579 180.708 130.365 180.708 130.546 180.561C130.589 180.526 130.621 180.478 130.637 180.425C130.637 180.324 131.226 174.34 131.215 174.306C131.158 174.024 131.045 174.136 129.402 174.215L132.802 144.306C133.34 139.677 132.379 134.997 130.059 130.95L111.3 97.9016V77.8494L139.897 61.1843C141.422 60.2932 142.716 59.0592 143.677 57.5811C144.637 56.1029 145.237 54.4215 145.429 52.6711C148.478 24.7266 150.042 14.8134 149.781 9.37128ZM143.559 6.05182C144.137 2.76622 144.749 2.73235 144.771 2.73235C144.794 2.73235 145.44 3.35334 145.61 5.9502C145.814 8.88578 146.154 13.7295 146.086 14.5424C144.946 14.0782 143.761 13.7302 142.55 13.5037C142.55 13.1875 142.391 12.3746 142.221 11.381C142.889 9.66735 143.338 7.87696 143.559 6.05182ZM138.039 3.60173C138.039 1.11778 138.515 0.406465 138.73 0.383884C138.945 0.361303 139.512 0.891965 140.147 3.10494C141.031 6.26634 141.904 12.0246 142.108 13.3908C140.929 13.2175 139.734 13.1872 138.549 13.3004C138.447 13.0408 138.197 12.4311 137.857 11.6181C137.88 11.0649 138.027 4.33563 138.039 3.60173ZM90.433 56.668H90.365C86.3186 55.1438 87.4747 51.5646 89.5943 52.9308C90.3197 53.3937 90.7277 53.5292 91.0791 53.3711C91.1922 53.2869 91.2818 53.1753 91.3393 53.0468C91.3969 52.9183 91.4205 52.7773 91.4078 52.6372C91.4134 52.5508 91.4134 52.464 91.4078 52.3776C91.2265 50.5597 91.8272 47.7032 93.346 46.8112C94.8649 45.9193 96.1117 47.4661 96.2364 47.5338C97.2154 48.4872 98.048 49.579 98.7073 50.7743C100.974 54.6921 101.609 57.4697 100.487 59.0504C98.968 61.1843 94.7289 60.394 94.6835 60.3827C94.6382 60.3714 94.2642 60.5407 94.6835 60.8794C95.1029 61.2182 95.9984 61.8956 98.2993 63.6795C99.0538 64.4578 100.072 64.9286 101.156 65.0006C102.599 64.3284 104.003 63.5745 105.361 62.7424V75.8622L90.7391 77.1381L88.4722 67.3829L89.5149 67.27C94.6269 65.9151 91.5552 57.4245 90.467 56.668H90.433ZM3.315 63.8828C1.04807 63.0134 0.492676 62.2908 0.538015 62.1214C0.583353 61.9521 1.2861 61.6698 4.00642 62.3698L13.8109 64.7522C13.574 65.6064 13.4408 66.4858 13.4142 67.3716L11.7253 67.1797C11.3286 67.0216 6.94209 65.2715 3.315 63.8828ZM0.52668 66.2199C0.52668 66.107 1.22943 65.8022 3.92707 66.3441C7.02743 66.9916 10.1602 67.4741 13.3122 67.7894C13.3519 68.6078 13.4695 69.4206 13.6635 70.2169C12.7654 70.1539 11.864 70.1539 10.9659 70.2169C8.40358 69.5986 5.87615 68.8448 3.39434 67.9587C1.12742 67.0555 0.481341 66.378 0.52668 66.2199ZM5.32123 71.8653C2.81628 71.0975 2.12487 70.4314 2.1702 70.2733C2.21554 70.1152 2.85028 69.8443 5.5706 70.2733C8.26653 70.6812 10.9965 70.8211 13.7202 70.6911C13.8676 71.312 14.0376 71.9331 14.2529 72.5653C14.2731 72.6165 14.3122 72.6579 14.3622 72.6812C14.4121 72.7045 14.4691 72.7078 14.5215 72.6904C14.5738 72.673 14.6174 72.6363 14.6434 72.5878C14.6693 72.5394 14.6756 72.4828 14.661 72.4298C13.5025 69.5295 13.5025 66.2976 14.661 63.3973C14.6773 63.3703 14.6875 63.34 14.6908 63.3086C14.6941 63.2772 14.6903 63.2455 14.6799 63.2157C14.6694 63.1859 14.6525 63.1588 14.6303 63.1363C14.6082 63.1137 14.5813 63.0964 14.5516 63.0854C14.5219 63.0744 14.4901 63.07 14.4585 63.0727C14.427 63.0753 14.3964 63.0849 14.3689 63.1007C14.3415 63.1164 14.3179 63.138 14.2998 63.1639C14.2817 63.1898 14.2696 63.2194 14.2643 63.2505C14.1169 63.6344 13.9922 63.9957 13.8902 64.3796L12.9268 64.1538L7.25946 60.9246C5.25323 59.7955 4.7885 59.0052 4.87918 58.8133C4.96986 58.6213 5.92197 58.5536 8.27957 59.5133L15.2844 62.2908C15.2844 62.2908 18.5714 63.5215 19.1495 62.5956C20.283 60.8682 18.8095 55.5615 20.5096 55.3357C21.6431 55.1776 22.5839 59.581 23.0713 61.1504C23.5587 62.7198 26.0523 64.0296 27.8885 64.1763L82.6575 67.9587C84.267 73.9654 87.7807 89.411 85.2191 91.3982C84.8337 91.6918 84.301 91.6466 83.6096 91.2514L81.4447 80.9543C81.4268 80.9047 81.3921 80.8629 81.3466 80.8361C81.3011 80.8093 81.2475 80.7992 81.1953 80.8075L73.7485 82.806L31.969 77.6687C26.5504 76.9285 21.1742 75.9072 15.8624 74.6089C10.2971 73.0847 8.41559 72.7686 5.32123 71.8427V71.8653ZM54.1395 140.739L48.9596 138.48C51.1637 130.649 54.4927 123.177 58.8434 116.294L64.0233 118.552C59.5482 125.356 56.2103 132.837 54.1395 140.705V140.739ZM45.3325 115.662L49.0616 117.389C42.0681 119.433 32.7511 121.24 22.1645 126.298C20.5663 125.835 18.9568 125.327 17.3586 124.74C28.6366 119.072 38.5317 117.728 45.3325 115.662ZM130.75 174.498L130.206 180.143C122.66 180.521 115.1 179.798 107.764 177.998L108.308 172.353C115.623 174.269 123.202 174.993 130.75 174.498ZM127.962 214.241C119.008 205.389 114.621 196.515 110.473 190.677L110.937 186.613C115.097 192.574 119.767 200.805 127.939 209.194C127.996 210.876 128.007 212.547 127.962 214.241ZM115.415 106.11C112.207 104.981 110.507 101.447 110.484 101.413C110.455 101.373 110.413 101.345 110.366 101.332C110.318 101.319 110.268 101.323 110.223 101.342C110.177 101.362 110.141 101.397 110.118 101.441C110.095 101.484 110.089 101.534 110.099 101.582C110.178 101.752 112.048 105.704 115.766 106.641L129.719 131.108C131.999 135.07 132.945 139.656 132.417 144.194L129.016 174.182C122.741 174.414 116.463 173.811 110.348 172.386L113.646 140.908C113.646 140.784 113.907 141.168 109.113 134.653L104.715 116.17C104.704 116.123 104.677 116.081 104.639 116.051C104.601 116.021 104.554 116.004 104.505 116.004C104.456 116.004 104.409 116.021 104.371 116.051C104.333 116.081 104.306 116.123 104.295 116.17L101.337 144.397C101.166 146.042 100.606 147.623 99.7029 149.011C98.7998 150.399 97.5793 151.554 96.1416 152.382C94.7038 153.209 93.0896 153.685 91.4314 153.771C89.7732 153.857 88.1181 153.55 86.6019 152.876L55.205 138.684C57.0533 132.399 59.7208 126.382 63.1392 120.788L73.9411 125.632C81.6147 135.556 81.32 135.229 81.4447 135.308C81.4819 135.327 81.524 135.335 81.5657 135.33C81.6073 135.326 81.6468 135.31 81.6793 135.283C81.7118 135.257 81.7359 135.222 81.7486 135.182C81.7612 135.142 81.762 135.1 81.7507 135.059C74.3038 107.962 85.0831 99.3356 85.1511 99.2452C85.2191 99.1549 85.3098 99.392 83.7343 91.8386C89.5943 94.4919 84.7431 74.1573 83.0995 67.9926L88.0868 67.4393L90.3537 77.4316C90.3642 77.4774 90.3902 77.5181 90.4274 77.5469C90.4646 77.5758 90.5106 77.5909 90.5577 77.5897L105.621 76.3026C105.735 76.3026 105.757 76.2009 105.757 76.088V62.4601L110.767 59.6149V98.0033C110.779 98.071 110.881 98.1613 115.415 106.11ZM149.056 16.778C148.376 26.3412 148.183 23.3943 144.998 52.5921C144.812 54.2757 144.234 55.8931 143.312 57.3159C142.389 58.7387 141.146 59.9278 139.682 60.7891L111.345 77.3639L111.175 59.3778C126.012 51.2033 128.971 49.6 129.617 49.2162C129.832 49.0807 129.912 49.0129 129.923 48.9678L133.754 26.3864C134.071 24.6589 133.221 22.1524 131.646 21.5314C130.07 20.9104 125.468 19.499 125.91 18.528C126.613 16.936 132.088 18.9006 134.298 18.0764C135.296 17.7038 135.046 15.0731 134.933 14.4408C134.933 14.4408 133.799 8.02769 133.663 7.66639C133.221 5.4647 133.505 4.55015 133.799 4.45983C134.094 4.3695 134.865 5.06952 135.534 6.89862C136.588 9.75516 137.732 12.544 138.084 13.3908C137.517 13.4585 136.95 13.5488 136.282 13.673C136.251 13.6746 136.221 13.6828 136.194 13.6969C136.166 13.711 136.143 13.7307 136.124 13.7548C136.105 13.7788 136.091 13.8067 136.084 13.8364C136.076 13.8661 136.076 13.8971 136.081 13.9271C136.087 13.9572 136.099 13.9857 136.117 14.0107C136.135 14.0358 136.157 14.0567 136.184 14.0722C136.21 14.0877 136.24 14.0974 136.27 14.1006C136.301 14.1038 136.332 14.1005 136.361 14.0908C139.716 13.3327 143.229 13.6937 146.358 15.1182C146.409 15.1314 146.463 15.1256 146.509 15.102C146.556 15.0785 146.593 15.0387 146.612 14.9903C146.632 14.9418 146.633 14.8879 146.615 14.8387C146.598 14.7895 146.563 14.7484 146.517 14.7231C146.556 14.0763 146.556 13.4278 146.517 12.7811C146.912 11.5249 147.234 10.2469 147.48 8.95352C148.104 6.08569 148.614 6.05182 148.614 6.05182C148.614 6.05182 149.248 6.70668 149.373 9.43902C149.441 11.2907 149.214 14.4634 149.056 16.778Z" fill="#090809"/>
<path d="M137.755 16.2586C137.727 16.2458 137.697 16.239 137.666 16.2388C137.635 16.2386 137.605 16.2449 137.577 16.2574C137.549 16.2699 137.524 16.2883 137.503 16.3113C137.483 16.3342 137.468 16.3613 137.459 16.3906C137.45 16.4199 137.447 16.4508 137.451 16.4812C137.455 16.5116 137.466 16.5408 137.482 16.5668C137.498 16.5928 137.52 16.615 137.545 16.632C137.571 16.6489 137.6 16.6602 137.63 16.6651C141.609 17.9071 143.559 20.1765 143.411 23.4395C143.411 23.4964 143.434 23.551 143.474 23.5912C143.515 23.6314 143.57 23.654 143.627 23.654C143.684 23.654 143.739 23.6314 143.779 23.5912C143.819 23.551 143.842 23.4964 143.842 23.4395C143.944 19.9733 141.949 17.5684 137.755 16.2586Z" fill="#090809"/>
<path d="M23.7176 71.8427C20.3171 71.1766 18.1294 68.8958 17.2453 65.0683C17.2294 65.017 17.1947 64.9736 17.1482 64.9465C17.1017 64.9195 17.0467 64.9107 16.9941 64.9221C16.9414 64.9334 16.895 64.964 16.8638 65.0078C16.8327 65.0516 16.8192 65.1054 16.8259 65.1586C17.7554 69.1668 20.0337 71.5492 23.6269 72.2492C23.675 72.248 23.7213 72.2308 23.7584 72.2004C23.7955 72.1699 23.8214 72.128 23.8318 72.0813C23.8422 72.0345 23.8367 71.9856 23.816 71.9424C23.7953 71.8992 23.7607 71.8641 23.7176 71.8427Z" fill="#090809"/>
</svg>
