<svg width="87" height="80" viewBox="0 0 87 80" fill="none" xmlns="http://www.w3.org/2000/svg">
<path d="M-5 85.9998V45.75H35.25L16.7523 64.2648C23.1345 70.7911 31.8717 74.479 41 74.4997C55.6018 74.4781 68.6087 65.2665 73.476 51.4999H73.5795C74.2381 49.629 74.7363 47.7054 75.0687 45.75H86.6377C83.7401 68.7492 64.1813 85.9989 41 85.9998H40.9425C28.7454 86.036 17.0407 81.191 8.43775 72.5447L-5 85.9998ZM6.9255 34.2501H-4.6435C-1.74694 11.2595 17.7987 -5.98721 40.9712 -5.99977H41C53.1994 -6.0388 64.9069 -1.1935 73.5105 7.45534L87 -5.99977V34.2501H46.75L65.2765 15.7353C58.8876 9.20129 50.1384 5.51266 41 5.50036C26.3982 5.52191 13.3913 14.7335 8.524 28.5001H8.4205C7.7567 30.3695 7.25837 32.2935 6.93125 34.2501H6.9255Z" fill="#09A4F9"/>
</svg>
