<svg width="379" height="16" viewBox="0 0 379 16" fill="none" xmlns="http://www.w3.org/2000/svg">
<path d="M36.2334 1.90758C36.2334 1.90758 36.2334 1.90764 36.2334 1.90765C43.4462 4.06155 50.3081 6.1296 57.2996 8.13036C60.9583 9.17716 68.3189 9.60093 72.6193 9.1702C73.352 9.09682 74.146 9.07796 74.9074 9.08782C84.0007 9.20471 92.0826 7.91282 99.9871 6.41876C108.252 4.85683 116.361 5.30264 124.508 6.54C131.195 7.55548 138.266 7.85046 145.339 8.21157C149.319 8.4149 153.179 8.99704 157.062 9.44807C162.724 10.1059 167.711 11.3908 173.126 12.1902C180.769 13.3188 188.722 14.5254 197.242 14.0712C206.244 13.5912 215.042 12.6723 223.201 11.1405C229.988 9.86604 236.225 8.1643 242.994 6.87269C246.729 6.15974 251.049 5.89203 255.118 5.44013C262.777 4.58969 268.961 5.91407 275.362 7.27761C279.314 8.11934 283.838 8.69654 288.29 9.03561C294.804 9.53189 301.387 9.87502 308.082 10.0905C324.183 10.6086 339.672 9.65575 354.529 7.60914C362.201 6.55219 369.841 5.59327 377.735 4.87394C377.863 4.86232 377.988 4.84552 378.111 4.82574C378.493 4.76428 378.994 5.32345 378.617 5.41025C377.373 5.69624 375.97 5.88855 374.592 6.07766C364.746 7.4264 354.957 8.84389 345.017 10.0824C337.15 11.0625 329.157 11.9228 320.709 11.8259C315.953 11.7717 311.18 11.7412 306.432 11.8329C298.321 11.9901 290.731 11.0872 283.084 10.295C277.731 9.74073 272.916 8.71018 267.927 7.7997C260.607 6.46401 252.742 6.72767 245.534 8.19301C238.682 9.58584 232.27 11.3105 225.296 12.5969C219.71 13.6271 213.633 14.2957 207.66 14.9779C203.738 15.426 199.636 15.7814 195.571 15.8672C191.801 15.9464 187.865 15.7756 184.199 15.4188C179.781 14.9887 175.548 14.2676 171.274 13.6338C163.583 12.4936 155.934 11.314 148.237 10.181C147.205 10.029 146.001 10.0302 144.868 9.99743C137.181 9.77583 129.682 9.33843 122.519 8.1028C115.926 6.96551 109.277 6.90025 102.346 8.12253C95.8739 9.2636 89.0512 10.3092 82.099 10.7733C78.5684 11.0091 74.6756 11.6032 70.5305 11.0233C66.8491 10.5085 62.5714 11.1208 58.6142 10.4809C54.9077 9.8817 51.6809 9.09508 48.7177 8.07061C43.3824 6.22588 37.8439 4.47454 31.3569 3.23051C25.3079 2.07088 14.4629 2.61618 9.19872 4.25903C7.19247 4.88497 4.94452 5.44013 2.58671 5.83547C2.18317 5.90316 1.64345 5.85197 1.05949 5.76223C0.252033 5.63815 -0.236453 4.28605 0.560758 4.10763C5.32183 3.04081 10.0253 1.7904 15.2122 1.19318C19.4975 0.69951 24.4388 0.933001 29.0643 1.02611C31.3833 1.0728 33.6478 1.52494 36.2334 1.9075C36.2335 1.90751 36.2335 1.90758 36.2334 1.90758Z" fill="url(#paint0_linear_135_401)"/>
<defs>
<linearGradient id="paint0_linear_135_401" x1="-0.999976" y1="8.38761" x2="20.6581" y2="-80.3102" gradientUnits="userSpaceOnUse">
<stop stop-color="#8A3CFC"/>
<stop offset="1" stop-color="#BF0808"/>
</linearGradient>
</defs>
</svg>
