<svg width="20" height="21" viewBox="0 0 20 21" fill="none" xmlns="http://www.w3.org/2000/svg">
<path d="M0 10.5206C0.00116354 15.44 3.5784 19.6286 8.437 20.3996V13.4106H5.9V10.5206H8.44V8.3206C8.32645 7.27814 8.68252 6.23919 9.41164 5.48553C10.1408 4.73187 11.1674 4.34161 12.213 4.4206C12.9635 4.43272 13.7122 4.49956 14.453 4.6206V7.0796H13.189C12.7538 7.0226 12.3164 7.16632 11.9998 7.47027C11.6832 7.77421 11.5218 8.20548 11.561 8.6426V10.5206H14.332L13.889 13.4116H11.561V20.3996C16.8155 19.5692 20.5001 14.7704 19.9455 9.47967C19.3909 4.18897 14.7913 0.258528 9.47882 0.535777C4.16636 0.813027 0.000844477 5.20091 0 10.5206Z" fill="#090809"/>
</svg>
