<svg width="349" height="230" viewBox="0 0 349 230" fill="none" xmlns="http://www.w3.org/2000/svg">
<path d="M141.514 184.908C141.428 184.878 141.357 184.815 141.318 184.732C141.278 184.65 141.273 184.555 141.303 184.469C141.334 184.383 141.397 184.312 141.479 184.273C141.562 184.233 141.656 184.228 141.743 184.258C154.589 188.756 168.304 190.213 181.809 188.515C181.899 188.505 181.989 188.531 182.059 188.587C182.13 188.643 182.176 188.724 182.188 188.814C182.199 188.903 182.175 188.994 182.12 189.065C182.065 189.137 181.984 189.185 181.895 189.197C168.284 190.909 154.461 189.441 141.514 184.908Z" fill="#023551"/>
<path d="M208.453 180.658C227.595 171.488 242.743 155.663 251.069 136.139C251.105 136.055 251.173 135.989 251.258 135.955C251.343 135.921 251.437 135.922 251.521 135.958C251.605 135.994 251.672 136.062 251.706 136.147C251.74 136.232 251.739 136.326 251.703 136.41C243.312 156.088 228.045 172.037 208.753 181.28C208.671 181.32 208.576 181.325 208.489 181.295C208.403 181.265 208.332 181.202 208.292 181.119C208.252 181.036 208.247 180.941 208.277 180.855C208.307 180.768 208.37 180.698 208.453 180.658Z" fill="#023551"/>
<path d="M258.324 99.1175C258.234 99.1181 258.147 99.0838 258.081 99.0217C258.016 98.9596 257.977 98.8745 257.972 98.7844C257.568 86.7074 254.633 74.8499 249.356 63.9793C249.336 63.9385 249.324 63.8943 249.322 63.8491C249.319 63.8039 249.326 63.7587 249.34 63.7159C249.355 63.6732 249.378 63.6338 249.409 63.6C249.439 63.5662 249.475 63.5386 249.516 63.5189C249.598 63.4791 249.693 63.4736 249.779 63.5036C249.822 63.5185 249.861 63.5417 249.895 63.5718C249.929 63.6019 249.957 63.6383 249.976 63.6791C255.295 74.6362 258.253 86.5878 258.661 98.7606C258.663 98.8525 258.629 98.9417 258.566 99.0086C258.503 99.0755 258.416 99.1147 258.324 99.1175Z" fill="#023551"/>
<path d="M236.45 44.4908C223.006 29.1204 204.598 18.9504 184.43 15.7505C184.34 15.7364 184.259 15.687 184.205 15.6132C184.151 15.5394 184.129 15.4472 184.143 15.3569C184.157 15.2666 184.206 15.1856 184.28 15.1317C184.354 15.0778 184.446 15.0554 184.536 15.0695C204.866 18.2974 223.419 28.5518 236.968 44.0478C237.013 44.1177 237.031 44.2015 237.019 44.2836C237.006 44.3657 236.965 44.4406 236.902 44.4946C236.839 44.5485 236.758 44.5778 236.675 44.5771C236.592 44.5764 236.512 44.5458 236.45 44.4908Z" fill="#023551"/>
<path d="M89.8871 67.3091C97.1552 50.4616 109.493 36.2979 125.184 26.7877C140.875 17.2775 159.14 12.8936 177.439 14.2457C177.53 14.2527 177.614 14.2956 177.674 14.365C177.733 14.4343 177.763 14.5244 177.756 14.6154C177.749 14.7065 177.706 14.791 177.636 14.8504C177.567 14.9098 177.477 14.9392 177.386 14.9321C159.231 13.5948 141.111 17.9461 125.544 27.3814C109.976 36.8166 97.7349 50.8671 90.5205 67.58C90.4846 67.664 90.4168 67.7303 90.332 67.7643C90.2472 67.7983 90.1524 67.7972 90.0684 67.7612C89.9844 67.7253 89.9181 67.6575 89.8841 67.5727C89.8501 67.4879 89.8512 67.3931 89.8871 67.3091Z" fill="#023551"/>
<path d="M123.363 176.046C108.943 166.79 97.5324 153.533 90.5255 137.895C83.5186 122.258 81.2192 104.918 83.9086 87.9948C83.9232 87.9045 83.973 87.8237 84.0472 87.7702C84.1213 87.7166 84.2137 87.6947 84.304 87.7093C84.3943 87.7238 84.4751 87.7737 84.5287 87.8478C84.5823 87.922 84.6042 88.0144 84.5896 88.1047C81.9221 104.894 84.2039 122.097 91.1563 137.61C98.1086 153.123 109.43 166.275 123.737 175.457C123.815 175.506 123.87 175.585 123.891 175.675C123.911 175.766 123.894 175.86 123.845 175.938C123.795 176.017 123.717 176.072 123.626 176.092C123.536 176.112 123.442 176.096 123.363 176.046Z" fill="#023551"/>
<path d="M314.736 77.7947C293.823 80.3393 274.671 81.8568 254.297 80.4967C255.632 81.2211 256.916 82.0352 258.141 82.9332C256.539 87.3871 254.432 92.6994 254.723 97.0288C247.816 101.014 238.762 103.593 233.192 101.935C227.482 89.8309 225.976 82.9094 226.107 78.192C226.19 75.8407 226.689 73.5227 227.581 71.3456L223.793 76.7842L175.779 47.5661C176.37 44.0268 177.675 40.6448 179.615 37.626C181.555 34.6073 184.089 32.015 187.063 30.0071C200.783 38.0196 233.338 59.6206 236.337 59.8622C235.729 67.7369 236.508 75.6572 238.638 83.2627C241.973 75.1891 246.459 67.6403 251.955 60.8508C268.035 63.3568 290.433 59.703 313.209 57.272C310.073 57.5246 309.877 70.8293 312.925 76.2186C313.489 77.2181 314.115 77.7947 314.736 77.7947Z" fill="#4FBEFB"/>
<path d="M145.481 109.762C134.925 108.944 124.334 108.66 113.749 108.909C114.405 106.655 114.798 104.331 114.919 101.986C106.215 104.241 97.814 104.282 86.6474 102.698C86.6474 102.647 86.6474 102.599 86.6474 102.55C81.4503 105.973 76.8519 117.561 80.2037 126.932L71.1386 146.109L45.4663 129.712C37.7266 134.561 33.8329 140.716 31.0046 150.206L63.386 172.385C65.5593 173.874 68.0229 174.886 70.6151 175.356C73.2073 175.825 75.8694 175.741 78.4267 175.109C80.9841 174.476 83.3788 173.31 85.4537 171.687C87.5286 170.064 89.2367 168.021 90.466 165.691L100.824 146.021L88.5585 136.485C98.8703 142.087 118.886 140.535 130.602 139.085C127.527 151.344 125.121 163.761 123.393 176.281C129.995 180.735 138.053 182.489 145.909 181.183C151.774 164.727 156.731 147.962 160.759 130.963C161.367 128.548 161.439 126.031 160.972 123.586C160.504 121.141 159.508 118.827 158.052 116.808C156.597 114.788 154.718 113.111 152.546 111.894C150.375 110.677 147.963 109.95 145.481 109.762Z" fill="#4FBEFB"/>
<path d="M165.528 38.2942C164.259 40.618 162.224 42.4296 159.769 43.4199C157.37 38.7791 153.93 34.7562 149.719 31.6656C152.111 28.744 154.37 23.5232 154.268 20.812C153.996 17.7396 153.465 14.6956 152.682 11.7122C152.543 11.055 153.415 10.2349 155.458 13.8741C155.615 14.1578 155.754 14.4233 156.091 15.031C155.705 12.3547 154.799 8.93881 154.453 6.83912C154.339 6.13434 155.313 5.30691 157.29 9.28846C157.557 9.81567 157.87 10.5699 158.471 11.8513C158.804 8.15348 158.817 4.60213 158.826 1.69515C158.826 1.39493 159.274 0.977556 159.525 1.14597C161.707 2.5537 164.625 17.4145 163.853 25.048C164.268 23.7666 164.697 22.3992 165.063 21.1782C166.322 16.9678 167.75 16.7317 168.211 19.494C169.117 25.8884 168.187 32.4087 165.528 38.2942Z" fill="#4FBEFB"/>
<path d="M100.223 72.4934C91.9357 73.9139 86.2993 63.7852 86.2993 63.7852C86.7447 64.0013 87.2299 64.1234 87.7246 64.1437C88.2192 64.1641 88.7128 64.0823 89.1745 63.9035C89.6361 63.7247 90.056 63.4527 90.4079 63.1045C90.7599 62.7563 91.0363 62.3393 91.22 61.8796C91.6912 59.0005 91.0356 56.0505 89.3894 53.6419C89.5649 52.9488 89.547 52.2208 89.3375 51.5372C89.128 50.8535 88.735 50.2405 88.2013 49.7647C85.3401 47.6321 87.286 45.0473 89.0983 46.8174C90.7037 48.3863 90.1967 46.0852 89.0452 44.0551C89.2836 44.2579 89.5689 44.3979 89.8752 44.4622C90.1815 44.5266 90.499 44.5133 90.7989 44.4236C91.0987 44.3339 91.3714 44.1706 91.592 43.9487C91.8126 43.7267 91.9742 43.453 92.062 43.1526C92.2877 43.3295 92.5497 43.4543 92.8292 43.518C93.1088 43.5817 93.399 43.5827 93.679 43.5209C93.9591 43.4591 94.2219 43.3361 94.4487 43.1607C94.6756 42.9853 94.8607 42.7619 94.991 42.5064C96.2724 43.3924 97.9803 42.8396 98.0664 41.4977C105.541 54.6561 103.692 57.4898 94.8665 56.5654L99.0165 59.39C99.2246 60.1239 99.6187 60.7916 100.161 61.3286C100.831 61.8745 101.668 62.1764 102.532 62.1847C103.397 62.1931 104.239 61.9073 104.92 61.3743L106.809 60.276C106.809 60.276 108.503 71.0728 100.223 72.4934Z" fill="#4FBEFB"/>
<path d="M32.6978 63.3202C29.028 63.4057 25.4231 62.3434 22.3861 60.2814C19.9734 58.8041 19.4571 59.8128 20.9527 62.253C21.3926 63.0523 21.556 63.9745 21.4177 64.8762C18.9917 65.353 16.5917 65.9536 14.2271 66.6757C1.14203 70.886 8.50835 70.8421 12.6217 70.0531C10.7847 70.6127 8.98581 71.2902 7.23608 72.0814C-2.26287 76.409 -1.04736 78.3384 9.98197 74.5454C8.56385 75.2896 7.1904 76.116 5.86863 77.0204C2.66875 79.1988 3.87511 79.7992 7.05668 78.8235C8.66761 78.3329 10.4671 77.7764 11.7833 77.3407C10.8784 77.853 10.0093 78.426 9.182 79.056C5.56475 81.7891 7.29832 82.4884 10.5659 81.4046C18.0897 78.9041 28.4344 77.1192 33.2452 77.3773C32.0498 72.7861 31.8631 67.9905 32.6978 63.3202Z" fill="#4FBEFB"/>
<path d="M60.0707 29.5569C59.2503 29.5546 58.4425 29.3548 57.7157 28.9744C56.9888 28.5939 56.3644 28.0439 55.8951 27.371C55.4258 26.698 55.1256 25.922 55.0197 25.1084C54.9139 24.2949 55.0056 23.4678 55.2871 22.6972C55.5685 21.9266 56.0315 21.2352 56.6367 20.6814C57.242 20.1276 57.9718 19.7278 58.7643 19.5157C59.5568 19.3037 60.3888 19.2857 61.1897 19.4632C61.9907 19.6407 62.737 20.0086 63.3657 20.5357C64.1669 21.2114 64.741 22.117 65.0104 23.1298C65.2798 24.1426 65.2314 25.2137 64.8718 26.1982C64.5123 27.1826 63.8589 28.0327 63.0001 28.6335C62.1413 29.2342 61.1187 29.5566 60.0707 29.5569ZM56.6969 21.6084C56.2297 22.1651 55.9071 22.8285 55.7575 23.5397C55.608 24.2508 55.6362 24.9879 55.8395 25.6857C56.0429 26.3834 56.4152 27.0201 56.9235 27.5396C57.4318 28.059 58.0603 28.4451 58.7534 28.6636C59.4466 28.8821 60.1829 28.9262 60.8972 28.7922C61.6114 28.6581 62.2816 28.35 62.8484 27.8951C63.4151 27.4401 63.8609 26.8524 64.1462 26.184C64.4316 25.5157 64.5477 24.7872 64.4842 24.0632C64.4054 23.194 64.0713 22.3675 63.524 21.6877C62.9766 21.0079 62.2404 20.5052 61.408 20.2428C60.5756 19.9804 59.6841 19.97 58.8459 20.213C58.0076 20.456 57.2599 20.9415 56.6969 21.6084Z" fill="#023551"/>
<path d="M255.122 189.214H247.946V182.029C247.946 181.939 247.911 181.853 247.847 181.789C247.784 181.726 247.698 181.69 247.608 181.69C247.518 181.69 247.432 181.726 247.368 181.789C247.305 181.853 247.269 181.939 247.269 182.029V189.205H240.08C239.991 189.205 239.904 189.24 239.841 189.304C239.777 189.367 239.742 189.454 239.742 189.543C239.742 189.633 239.777 189.719 239.841 189.783C239.904 189.846 239.991 189.882 240.08 189.882H247.256V197.069C247.253 197.116 247.259 197.163 247.275 197.207C247.29 197.251 247.315 197.291 247.346 197.326C247.378 197.36 247.417 197.387 247.46 197.406C247.503 197.425 247.549 197.434 247.596 197.434C247.643 197.434 247.689 197.425 247.732 197.406C247.775 197.387 247.813 197.36 247.845 197.326C247.877 197.291 247.902 197.251 247.917 197.207C247.933 197.163 247.939 197.116 247.935 197.069V189.895H255.122C255.167 189.895 255.211 189.886 255.253 189.869C255.294 189.852 255.331 189.827 255.363 189.795C255.395 189.764 255.42 189.726 255.437 189.685C255.454 189.643 255.463 189.599 255.463 189.554C255.463 189.51 255.454 189.465 255.437 189.424C255.42 189.383 255.395 189.345 255.363 189.314C255.331 189.282 255.294 189.257 255.253 189.24C255.211 189.223 255.167 189.214 255.122 189.214Z" fill="#023551"/>
<path d="M91.7177 200.024L93.8687 204.384L98.6813 205.083L95.1995 208.477L96.0215 213.27L91.7177 211.007L87.414 213.27L88.2359 208.477L84.7542 205.083L89.5649 204.384L91.7177 200.024Z" fill="#023551"/>
<path d="M316.341 71.0563C318.523 70.1914 320.499 68.8789 322.143 67.2034C323.787 65.5279 325.061 63.5266 325.884 61.3286C325.916 61.2429 325.913 61.148 325.875 61.0647C325.837 60.9815 325.767 60.9167 325.682 60.8846C325.596 60.8526 325.501 60.8559 325.418 60.8938C325.335 60.9318 325.27 61.0012 325.238 61.0869C324.445 63.1979 323.219 65.1193 321.639 66.7273C320.058 68.3354 318.158 69.5943 316.061 70.423C316.019 70.4413 315.982 70.4677 315.95 70.5007C315.919 70.5336 315.894 70.5723 315.878 70.6147C315.845 70.7004 315.847 70.7957 315.884 70.8797C315.921 70.9637 315.99 71.0295 316.076 71.0626C316.162 71.0957 316.257 71.0935 316.341 71.0563Z" fill="#023551"/>
<path d="M348.311 102.374C347.743 97.7062 332.599 104.646 324.943 103.996C323.12 103.799 321.276 103.961 319.515 104.474C315.968 105.572 315.488 108.803 310.26 112.162C309.038 111.39 307.762 110.708 306.441 110.119C306.104 110.076 307.402 109.021 279.365 134.983C278.554 130.54 273.004 104 255.062 96.7891C254.824 91.9087 257.612 85.7268 259.148 81.1118C278.468 81.9795 295.923 80.3942 314.825 78.1353C315.728 78.1023 316.347 77.1193 316.694 76.2681C325.805 75.6201 324.961 75.8214 331.321 74.9427C333.569 74.6334 341.87 73.8664 341.654 71.8728C341.567 71.0765 340.152 70.7122 337.444 70.7928C336.386 70.8239 335.368 70.7928 334.422 70.7434C337.018 70.2473 340.364 69.4363 340.417 69.4235C341.662 69.1141 344.534 68.2629 344.342 67.0822C344.21 66.284 342.775 65.9838 340.078 66.198C337.803 66.3811 335.791 66.4579 334.171 66.4891C336.13 65.9271 338.98 65.1161 341.493 64.4278C344.043 63.7304 345.462 62.7986 345.286 61.94C345.07 60.8874 342.804 60.9735 340.941 61.2298C340.518 61.2883 336.426 61.7991 333.333 62.1835L338.103 60.0088C340.514 58.9104 341.764 57.7718 341.457 56.9517C341.078 55.9467 338.854 56.3897 337.063 56.937C336.274 57.1787 329.009 59.3388 327.874 59.4998C326.19 59.7488 325.553 59.5328 325.509 59.3864C324.756 57.0066 327.932 50.5391 325.441 49.7336C324.983 49.589 323.596 49.1478 320.035 56.6075C319.199 58.3594 317.853 58.7804 315.534 58.9122C315.029 57.9457 314.188 56.7979 313.11 56.9389C289.129 59.5017 267.856 62.9926 252.023 60.514C251.229 60.4052 250.468 60.1219 249.796 59.6846C249.123 59.2472 248.556 58.6665 248.135 57.9841C271.859 52.8713 293.296 27.7958 287.352 22.877C282.169 18.5934 269.71 28.2333 266.538 30.8291C266.924 28.0722 266.32 26.2398 264.735 25.3757C259.745 22.6518 246.246 30.9774 240.835 36.2458C239.431 37.5448 238.344 39.1496 237.66 40.9358C235.352 46.0816 234.874 49.7446 236.238 51.826C236.706 52.4553 237.322 52.9592 238.032 53.2929C238.741 53.6267 239.522 53.7799 240.305 53.739C240.014 56.3018 238.951 59.1722 236.392 59.5218C233.677 59.3864 200.638 37.54 187.235 29.7106C187.179 29.6778 187.115 29.6614 187.05 29.6633C186.985 29.6653 186.922 29.6855 186.869 29.7216C186.285 30.1115 185.723 30.5197 185.183 30.9408C185 30.7906 184.833 30.635 184.67 30.4739C181.902 26.4027 183.094 21.8903 184.242 17.3486C184.848 14.9487 186.784 10.6321 187.504 7.98327C187.567 7.79577 187.562 7.59176 187.488 7.40812C187.414 7.22447 187.277 7.07331 187.101 6.98193C185.741 6.38516 183.623 10.1434 182.843 11.4101C183.372 8.62398 183.993 5.71151 184.227 3.33723C184.24 3.20723 184.219 3.07603 184.164 2.95725C184.11 2.83846 184.025 2.73641 183.917 2.6617C183.81 2.58698 183.685 2.54232 183.555 2.53235C183.424 2.52238 183.294 2.54746 183.176 2.60499C180.868 3.78755 175.685 15.8878 174.823 23.9241C174.335 22.1685 173.258 18.0351 171.426 18.3097C170.743 18.4103 170.327 19.1682 170.318 20.338C170.304 25.1561 170.256 29.3829 170.007 36.0591C169.892 39.129 173.302 42.1605 176.273 44.2107C175.937 45.3061 175.658 46.4181 175.437 47.5424C175.413 47.9085 172.05 45.7008 225.758 78.3861C225.657 84.0188 227.889 91.5005 232.771 101.882L202.943 133.807C197.5 139.642 193.519 146.684 191.326 154.356C179.742 195.024 180.105 193.481 180.159 193.748C180.82 194.391 181.537 194.973 182.301 195.487C180.917 202.746 178.845 209.857 176.112 216.722C171.719 226.672 171.667 228.661 172.193 229.298C175.189 232.932 184.185 218.926 191.002 215.342C192.644 214.527 194.11 213.396 195.317 212.016C197.72 209.16 196.448 205.991 199.057 200.324C200.597 200.225 202.128 200.004 203.633 199.663C203.895 199.544 203.042 202.317 215.333 157.812L246.954 130.153L265.315 158.11C266.433 159.812 267.906 161.25 269.634 162.326C271.361 163.403 273.302 164.092 275.322 164.345C277.341 164.599 279.392 164.411 281.332 163.795C283.272 163.179 285.056 162.15 286.559 160.777C323.105 127.415 321.739 128.77 321.769 128.521C321.426 127.072 320.967 125.654 320.398 124.279C326.105 119.502 332.057 115.024 338.229 110.864C347.282 104.836 348.4 103.189 348.311 102.374ZM278.785 135.717C279.109 139.273 279.165 140.454 279.151 140.899C279.131 142.303 279.542 142.137 279.916 141.591C280.533 140.694 282.455 137.58 289.415 126.6L306.41 110.857C308.987 112.024 311.368 113.583 313.467 115.479L280.712 145.135C280.175 145.62 279.524 145.959 278.819 146.12C278.114 146.281 277.379 146.259 276.685 146.056C275.991 145.852 275.361 145.475 274.854 144.959C274.348 144.443 273.981 143.806 273.791 143.109C268.037 122.009 264.079 109.49 250.359 99.6118C251.86 98.9559 253.327 98.2226 254.753 97.4151C273.93 105.076 278.748 135.407 278.785 135.717ZM340.131 66.8863C343.293 66.6392 343.661 67.1938 343.661 67.1938C343.661 67.3769 342.852 68.1091 340.25 68.7572C337.427 69.493 334.562 70.0585 331.67 70.4505C330.788 70.3689 329.912 70.2313 329.047 70.0386C329.399 69.0986 329.675 68.132 329.873 67.1481C333.295 67.2542 336.72 67.1656 340.131 66.8826V66.8863ZM341.047 61.9144C343.895 61.5208 344.604 61.973 344.624 62.0792C344.658 62.2421 343.95 63.0475 341.329 63.7651C330.345 66.7691 332.359 66.5641 330.005 66.4653C330.164 65.409 330.225 64.3403 330.188 63.2727C331.592 63.0988 340.933 61.9254 341.039 61.9107L341.047 61.9144ZM320.661 56.9059C323.098 51.8004 324.648 50.2041 325.238 50.3926C326.792 50.8924 324.139 57.3123 324.859 59.5932C324.936 59.8422 325.17 60.6 327.982 60.1827C329.263 59.9996 337.193 57.6198 337.27 57.5979C340.016 56.7631 340.792 57.0963 340.829 57.1951C340.887 57.3526 340.314 58.2569 337.836 59.3918C330.085 62.9157 331.416 62.4361 330.162 62.5899C330.133 62.1579 330.092 61.7149 330.034 61.2572C330.021 61.1678 329.974 61.087 329.902 61.0322C329.83 60.9775 329.74 60.9531 329.65 60.9644C329.561 60.9757 329.479 61.0217 329.423 61.0926C329.367 61.1635 329.341 61.2535 329.351 61.3433C329.867 65.5975 328.938 69.9018 326.713 73.5643C326.671 73.6454 326.663 73.7398 326.691 73.8269C326.718 73.9139 326.779 73.9864 326.861 74.0284C326.942 74.0704 327.036 74.0784 327.123 74.0508C327.21 74.0232 327.283 73.9621 327.325 73.881C327.894 72.7826 328.392 71.7319 328.807 70.6958C331.657 71.2915 334.565 71.5581 337.475 71.4902C340.148 71.4134 340.917 71.8143 340.974 71.9534C340.952 72.1474 340.047 72.8449 337.312 73.3629C335.052 73.7895 334.296 73.8462 331.226 74.2691C323.171 75.3821 321.688 75.124 313.125 75.8672C311.018 70.7844 310.521 65.1781 311.699 59.8037C316.015 59.5163 319.166 60.0124 320.654 56.9022L320.661 56.9059ZM240.36 56.5984C242.766 54.3101 243.593 53.5358 243.879 53.2337C244.194 52.9024 244.02 52.615 243.601 52.6205C242.653 52.8889 241.676 53.0359 240.692 53.058C234.422 53.0891 235.716 46.9621 238.292 41.2177C239.399 38.7409 241.53 35.1017 243.934 36.3941C245.821 37.4119 247.106 41.053 246.91 43.3906C246.887 43.586 246.919 43.7841 247.003 43.9621C247.087 44.1401 247.219 44.291 247.384 44.3974C247.789 44.5897 248.331 44.4121 249.199 43.7952C251.489 42.1568 252.86 46.1109 248.4 48.0348C247.981 48.2179 247.524 49.3053 247.467 49.5414C246.143 54.8501 246.097 59.6335 251.359 61.0614C246.209 67.4954 241.954 74.5966 238.709 82.1718C236.811 75.0021 236.117 67.567 236.655 60.1699C237.539 59.9686 238.352 59.529 239.003 58.8987C239.655 58.2684 240.122 57.4716 240.353 56.5947L240.36 56.5984ZM184.401 10.2294C186.124 7.48352 186.836 7.61715 186.836 7.61715C186.419 9.25194 185.883 10.8543 185.234 12.4115C184.494 14.1863 183.882 16.0118 183.403 17.874C182.439 20.8228 182.136 23.9479 182.517 27.0269C181.097 23.1351 181.657 18.057 182.503 13.27C182.642 13.1327 182.439 13.3341 184.394 10.2257L184.401 10.2294ZM170.695 36.0829C170.942 29.4598 170.992 25.2201 171.006 20.3398C171.006 19.4629 171.281 19.0254 171.525 18.9888C171.938 18.9339 172.839 19.721 173.595 22.174C174.732 25.8572 175.942 31.144 175.953 31.1897C175.973 31.2788 176.028 31.3561 176.106 31.4047C176.183 31.4533 176.276 31.4691 176.366 31.4487C176.455 31.4284 176.532 31.3734 176.581 31.296C176.629 31.2186 176.645 31.125 176.625 31.0359C176.625 31.0012 176.075 28.6562 175.389 26.0128C175.409 18.3353 181.43 4.2635 183.544 3.26949C182.739 11.4394 177.533 25.1982 184.643 31.3801C180.81 34.5537 177.979 38.7709 176.495 43.5206C174.117 41.8639 170.591 38.9057 170.695 36.0829ZM226.45 78.203C226.562 75.8854 227.057 73.6023 227.914 71.4463C227.934 71.3808 227.934 71.3107 227.913 71.2453C227.893 71.18 227.853 71.1224 227.799 71.0802C227.402 70.7507 227.392 71.0271 223.7 76.3248L176.171 47.4015C176.761 43.9849 178.031 40.7215 179.905 37.8042C181.779 34.887 184.219 32.3751 187.081 30.4172C199.957 37.9593 231.564 58.8298 235.972 60.1369C235.409 67.9535 236.199 75.8088 238.31 83.3562C238.33 83.4254 238.371 83.4867 238.428 83.5314C238.484 83.5762 238.553 83.6022 238.625 83.6058C238.697 83.6094 238.768 83.5905 238.829 83.5516C238.89 83.5128 238.937 83.456 238.964 83.3891C242.252 75.406 246.678 67.9409 252.105 61.2261C267.849 63.6809 291.434 59.9721 311.878 57.7663C309.354 61.184 310.205 74.518 313.535 77.5989C273.593 82.4042 257.335 80.1618 254.278 80.1618C254.192 80.1599 254.108 80.1911 254.043 80.249C253.979 80.307 253.939 80.3874 253.932 80.4737C253.924 80.5601 253.95 80.646 254.004 80.7139C254.058 80.7818 254.136 80.8266 254.222 80.8391C254.63 80.9636 257.407 82.8527 257.729 83.0761C256.228 87.2224 254.154 92.5219 254.372 96.8513C248.915 99.9981 239.432 103.379 233.424 101.651C228.509 91.2076 226.294 83.7571 226.45 78.203ZM194.78 211.562C193.631 212.875 192.235 213.949 190.671 214.723C184.264 218.095 174.937 231.543 172.714 228.852C172.476 228.563 172.392 226.838 176.733 216.991C179.463 210.181 181.533 203.125 182.915 195.919C187.42 199.022 192.81 200.579 198.275 200.357C195.921 205.687 196.92 209.025 194.782 211.56L194.78 211.562ZM214.794 157.352C214.611 157.514 215.129 155.925 203.223 199.041C200.682 199.596 198.075 199.792 195.48 199.623L207.336 154.224L242.026 124.092L243.873 131.929L214.794 157.352ZM265.884 157.719L242.105 121.52C242.06 121.453 241.994 121.404 241.916 121.38C241.839 121.357 241.756 121.362 241.682 121.394C241.608 121.426 241.547 121.483 241.511 121.555C241.474 121.627 241.464 121.709 241.483 121.788L241.849 123.334L206.806 153.777C206.623 153.937 207.153 152.203 194.784 199.564C189.644 199.008 184.793 196.906 180.872 193.536L191.983 154.544C194.147 146.977 198.075 140.032 203.445 134.278L233.294 102.325C238.237 103.692 244.86 101.907 249.621 99.9285C263.455 109.726 267.206 121.557 273.134 143.29C273.355 144.102 273.78 144.844 274.37 145.445C274.96 146.046 275.694 146.485 276.502 146.721C277.31 146.957 278.166 146.982 278.986 146.793C279.806 146.604 280.565 146.208 281.188 145.642L313.98 115.957C317.427 119.366 319.869 123.658 321.037 128.363L286.09 160.259C284.661 161.565 282.965 162.544 281.119 163.13C279.274 163.716 277.324 163.894 275.403 163.653C273.482 163.412 271.636 162.757 269.993 161.733C268.35 160.709 266.949 159.34 265.886 157.722L265.884 157.719ZM337.841 110.279C331.709 114.418 325.788 118.863 320.103 123.598C318.15 119.113 314.949 115.285 310.88 112.569C315.929 109.233 316.462 106.14 319.711 105.127C321.387 104.641 323.142 104.489 324.877 104.679C332.199 105.307 347.198 98.962 347.617 102.453C347.664 102.823 346.8 104.333 337.843 110.282L337.841 110.279Z" fill="#023551"/>
<path d="M168.546 19.4409C168.081 16.6785 166.229 16.0488 164.722 21.0884C164.594 21.5204 164.455 21.9726 164.314 22.4321C164.345 14.4946 161.877 2.26809 159.706 0.867684C159.205 0.538177 158.474 1.14776 158.474 1.70793C158.474 4.58196 158.423 7.56583 158.212 10.4948L157.59 9.1438C156.428 6.80064 155.393 5.69496 154.606 5.94941C154.422 6.02198 154.271 6.15824 154.179 6.33333C154.087 6.50843 154.061 6.71067 154.106 6.90315C154.344 8.35115 155.001 11.0934 155.399 13.1107C154.335 11.3552 153.455 10.5955 152.779 10.8499C152.605 10.9286 152.465 11.0673 152.384 11.2406C152.303 11.414 152.288 11.6105 152.34 11.7945C153.116 14.7586 153.643 17.7822 153.916 20.834C154.009 23.3053 151.948 28.268 149.625 31.2244C149.338 31.0075 148.999 30.8681 148.643 30.8193C148.286 30.7706 147.923 30.8143 147.588 30.9462C134.286 42.3396 119.928 52.4377 104.708 61.1034C104.088 61.5899 103.322 61.8516 102.534 61.8456C101.746 61.8396 100.983 61.5663 100.371 61.0704C99.4529 59.9095 98.9153 58.4935 98.8316 57.0157C99.5325 57.0331 100.228 56.8878 100.863 56.5912C101.498 56.2945 102.056 55.8545 102.493 55.3059C103.917 53.1293 102.676 48.9519 98.3501 41.3311C97.5813 39.9728 96.7209 38.5193 95.7964 37.0109C94.623 35.0943 92.2945 35.0339 91.8295 36.2055C90.4035 35.3524 88.1995 35.6691 87.8279 37.0622C87.5277 36.8366 87.1781 36.6859 86.8081 36.6226C86.438 36.5593 86.0582 36.5852 85.7002 36.6982C85.3422 36.8111 85.0163 37.0079 84.7495 37.2721C84.4828 37.5363 84.283 37.8603 84.1667 38.2173C83.8769 38.0472 83.5479 37.9555 83.212 37.951C82.8761 37.9466 82.5448 38.0296 82.2506 38.1919C81.9565 38.3542 81.7096 38.5902 81.5343 38.8768C81.3589 39.1633 81.2612 39.4906 81.2505 39.8264C78.8561 39.1857 77.1555 41.2561 79.9325 44.0532C81.1206 45.2541 86.2243 49.0782 89.0855 53.8231C90.6935 56.1527 91.337 59.0144 90.8813 61.8082C90.7063 62.2187 90.4492 62.5892 90.1258 62.8968C89.8024 63.2044 89.4195 63.4427 89.0007 63.597C88.5819 63.7513 88.136 63.8183 87.6904 63.794C87.2447 63.7698 86.8087 63.6546 86.4091 63.4557C86.2261 63.3935 64.259 57.5557 33.2999 60.5268C33.2333 60.5343 33.1702 60.5608 33.118 60.6029C33.0658 60.645 33.0267 60.7012 33.0052 60.7647C32.7709 61.497 32.5714 62.2457 32.4139 62.9816C28.8991 63.023 25.4578 61.9742 22.5635 59.9794C21.2821 59.2014 20.4565 59.0385 20.0135 59.4778C19.5357 59.9556 19.7536 60.9423 20.6579 62.4251C21.0422 63.0766 21.1878 63.8416 21.0698 64.5888C18.7222 65.0511 16.4003 65.6353 14.1135 66.3389C6.11196 68.9292 6.32431 69.6889 6.45062 70.1484C6.63368 70.7836 8.04141 70.8568 9.53701 70.7488C7.8492 71.3913 -0.128531 74.745 0.539636 76.4053C1.03756 77.6446 5.76049 76.2351 7.04374 75.8561C6.58975 76.1362 6.12844 76.4291 5.67994 76.7403C4.03241 77.8551 3.43381 78.6075 3.70839 79.1805C4.27039 80.3429 8.00846 78.9041 9.40886 78.4647C8.46062 79.153 6.37191 80.6962 6.90461 81.7159C7.40802 82.6751 9.6505 82.0692 10.672 81.7287C17.874 79.3282 25.3835 77.975 32.9704 77.7105C33.1425 78.4245 33.3317 79.1469 33.5379 79.878C33.6972 80.4418 33.8784 79.8981 45.1146 79.6766C45.1673 79.6912 45.223 79.6912 45.2757 79.6766C57.818 79.4154 70.3486 80.5997 82.6198 83.206C84.5258 89.4464 85.7533 95.8742 86.281 102.378C81.3768 105.799 76.4672 117.702 79.7824 127.025L70.9937 145.609C44.4318 128.634 45.7132 129.421 45.5301 129.366C44.0908 130.125 42.7458 131.051 41.523 132.125C40.853 131.733 40.5381 131.42 39.7601 130.88C35.8738 128.187 32.3242 125.008 29.895 124.616C27.648 124.453 25.3892 124.638 23.1987 125.165C14.2654 127.232 -5.1407 126.346 2.37572 131.448C8.28122 135.46 26.8727 142.85 32.0753 145.962C31.5255 147.376 31.0579 148.82 30.6749 150.288C30.7426 150.541 29.4685 149.567 63.2009 172.663C65.4147 174.178 67.9234 175.207 70.5627 175.684C73.202 176.161 75.9122 176.075 78.516 175.431C81.1197 174.788 83.558 173.601 85.6713 171.95C87.7846 170.299 89.5251 168.219 90.7788 165.848L104.098 140.549C112.791 140.987 121.506 140.63 130.135 139.482C127.124 151.598 124.757 163.864 123.043 176.229C123.034 176.294 123.043 176.359 123.069 176.418C123.095 176.478 123.138 176.528 123.191 176.564C124.16 177.217 125.165 177.814 126.201 178.353C126.111 178.574 126.018 178.774 125.937 178.999C124.29 183.642 122.249 187.766 122.51 190.166C122.945 192.376 123.719 194.506 124.804 196.479C129.168 204.556 133.441 223.508 136.377 214.893C138.713 208.051 140.906 188.064 142.625 181.926C143.745 181.857 144.859 181.719 145.962 181.513C146.021 181.502 146.076 181.476 146.121 181.437C146.167 181.399 146.202 181.349 146.222 181.293C152.097 164.828 157.057 148.05 161.081 131.038C161.699 128.577 161.772 126.012 161.296 123.52C160.82 121.029 159.806 118.671 158.324 116.612C156.842 114.553 154.929 112.843 152.717 111.6C150.506 110.357 148.05 109.612 145.521 109.416C134.978 108.609 124.456 108.318 114.236 108.552C114.764 106.411 115.121 104.23 115.303 102.032C116.72 93.8765 118.435 84.5222 117.798 76.3815C130.267 70.238 150.178 54.1709 160.087 45.4738C160.453 45.0967 160.495 44.4798 160.199 43.5956C162.611 42.57 164.602 40.7514 165.84 38.4406C168.509 32.4873 169.447 25.9026 168.546 19.4409ZM154.817 6.6011C154.817 6.6011 155.532 6.54253 156.969 9.43486L158.099 11.8915C157.841 15.3782 157.16 18.8206 156.071 22.1429C156.378 20.5736 156.556 18.9817 156.601 17.3833C156.73 14.1029 154.549 7.05875 154.817 6.6011ZM154.604 20.801C154.263 17.6684 153.735 14.5588 153.024 11.4888C153.101 11.4888 153.766 11.573 155.148 14.0516L155.752 15.15C155.869 15.8761 155.923 16.6112 155.913 17.3467C156.044 22.0282 154.382 26.5828 151.267 30.0803C153.14 27.3153 154.29 24.125 154.612 20.801H154.604ZM91.5568 61.951C92.0467 59.043 91.4041 56.0577 89.761 53.6089C89.9193 52.8703 89.8798 52.103 89.6465 51.3846C89.4131 50.6661 88.9941 50.0221 88.432 49.5176C88.1116 49.2613 87.0315 48.4393 87.0865 47.4142C87.1377 46.5959 87.9212 46.2316 88.7724 46.9932C89.0342 47.2275 89.5559 47.7931 90.0282 47.6668C90.9271 47.427 90.1674 45.5781 89.7738 44.7379C90.2501 44.8756 90.7595 44.8428 91.2142 44.6454C91.669 44.4479 92.0407 44.098 92.2652 43.656C92.7444 43.8947 93.2918 43.9588 93.8131 43.8372C94.3344 43.7155 94.7969 43.4158 95.1209 42.9897C95.6147 43.2714 96.1947 43.362 96.7509 43.2442C97.3071 43.1264 97.8006 42.8085 98.1378 42.3508C101.958 49.1899 103.124 53.0817 101.92 54.9251C100.746 56.7154 97.0925 56.4537 94.8903 56.223C94.8235 56.2155 94.7559 56.2278 94.696 56.2583C94.6361 56.2888 94.5864 56.3362 94.5531 56.3946C94.5198 56.453 94.5043 56.5199 94.5086 56.587C94.5129 56.6541 94.5368 56.7185 94.5773 56.7722C94.645 56.8582 98.6265 59.5547 98.7162 59.6169C98.9409 60.37 99.3572 61.0519 99.9244 61.5958C100.649 62.1918 101.554 62.5242 102.492 62.5388C103.43 62.5535 104.346 62.2494 105.089 61.6764L106.527 60.8398C106.751 62.9669 107.104 70.9611 100.17 72.1547C93.4972 73.3006 88.5052 66.5805 87.0407 64.3326C87.9551 64.5799 88.9292 64.4717 89.7671 64.0299C90.605 63.588 91.2444 62.8452 91.5568 61.951ZM1.18401 76.1728C1.20048 75.9001 2.3446 74.6882 7.37874 72.3945C10.7465 70.916 14.2579 69.7891 17.8571 69.0317C16.9715 69.9888 16.183 71.0312 15.5029 72.1437C13.7784 72.6733 12.0859 73.3023 10.434 74.0274C3.54547 76.4419 1.41283 76.3614 1.18401 76.1728ZM6.96136 78.4959C6.13594 78.8551 5.23171 78.9951 4.33629 78.9022C4.33629 78.9022 4.35459 78.4721 6.06803 77.306C8.79496 75.4193 11.8049 73.9789 14.9849 73.0389C14.4965 73.9502 14.0891 74.9028 13.7675 75.8854C11.1754 77.2382 12.5593 76.7879 6.96136 78.4959ZM10.4578 81.0752C8.44414 81.7452 7.59658 81.5456 7.51786 81.3955C7.45379 81.2747 7.66431 80.6358 9.39422 79.3306C10.6852 78.3659 12.0607 77.5198 13.5039 76.8026C13.3744 77.2826 13.2838 77.7724 13.233 78.267C13.2296 78.3121 13.2352 78.3574 13.2493 78.4003C13.2634 78.4433 13.2859 78.483 13.3154 78.5173C13.3749 78.5864 13.4596 78.6291 13.5506 78.6359C13.6416 78.6427 13.7316 78.6131 13.8008 78.5535C13.87 78.4939 13.9127 78.4093 13.9194 78.3183C14.129 76.8037 14.5886 75.3345 15.2796 73.9706C15.686 73.134 16.1345 72.4183 16.0246 72.6032C16.912 71.1476 17.9811 69.8108 19.2062 68.6253C19.3453 68.4422 19.1824 68.0011 18.6863 68.1127C17.8388 68.2958 14.8878 69.0152 13.0829 69.5479C11.1518 70.053 9.14318 70.1921 7.1609 69.958C7.37874 69.7017 8.50821 68.8761 14.3313 66.9979C16.5582 66.3123 18.8189 65.7423 21.1045 65.29C21.2691 67.1306 22.1225 68.8413 23.494 70.0798C24.8656 71.3183 26.6541 71.9933 28.502 71.9698C28.547 71.9661 28.5909 71.9535 28.6312 71.9328C28.6714 71.9121 28.7071 71.8837 28.7364 71.8492C28.7656 71.8147 28.7877 71.7748 28.8016 71.7317C28.8154 71.6886 28.8205 71.6433 28.8168 71.5982C28.8131 71.5531 28.8005 71.5092 28.7798 71.469C28.7591 71.4288 28.7307 71.393 28.6962 71.3638C28.6617 71.3345 28.6218 71.3124 28.5787 71.2986C28.5357 71.2848 28.4903 71.2796 28.4452 71.2833C27.0141 71.4082 25.5858 71.0148 24.4205 70.1748C23.2552 69.3348 22.4305 68.104 22.0967 66.7068C21.3645 64.6053 22.2798 63.7266 21.2528 62.0644C20.3723 60.6238 20.4217 60.0508 20.5096 59.9629C20.5975 59.875 21.0423 59.8458 22.212 60.5634C25.1729 62.6018 28.6856 63.6876 32.2803 63.6754C31.5588 68.1111 31.7394 72.6469 32.8112 77.0112C25.2061 77.3088 17.681 78.6769 10.4578 81.0752ZM34.1292 79.4276C32.2126 73.529 32.0278 67.2045 33.5965 61.2041C37.1369 60.8672 40.5528 60.6549 43.8368 60.5194C42.2909 66.6296 42.5935 73.0612 44.7064 78.9993C41.4717 79.0652 37.9844 79.208 34.1292 79.424V79.4276ZM14.7249 128.89C11.1406 129.22 5.02276 129.72 2.60272 130.77C1.28835 129.855 1.33594 129.531 1.33594 129.531C1.75149 127.428 16.5061 127.422 23.3525 125.839C25.0481 125.457 26.7787 125.252 28.5166 125.227C30.0155 125.187 31.4798 125.682 32.6464 126.624C31.6715 126.636 30.698 126.702 29.7303 126.822C24.7721 127.811 19.7588 128.501 14.7176 128.887L14.7249 128.89ZM23.6545 141.097C28.3528 137.031 33.7161 133.804 39.5093 131.557C40.1354 131.999 40.3917 132.251 40.9738 132.606C37.0876 136.064 34.1184 140.43 32.3316 145.314C29.5167 143.748 26.6175 142.339 23.6472 141.093L23.6545 141.097ZM31.4089 150.067C34.0908 141.179 37.7355 135.03 45.4716 130.124L54.2438 135.728C48.0765 140.072 43.6959 146.894 40.8804 156.547L31.4089 150.067ZM90.171 165.528C88.9634 167.814 87.2862 169.819 85.2495 171.411C83.2128 173.003 80.8625 174.147 78.3527 174.767C75.843 175.388 73.2304 175.471 70.6864 175.011C68.1424 174.55 65.7243 173.558 63.5908 172.098L41.4644 156.953C44.2744 147.218 48.6605 140.399 54.8662 136.125C71.9493 147.037 70.9534 146.453 71.1365 146.453C71.2018 146.454 71.2659 146.436 71.3212 146.401C71.3764 146.367 71.4204 146.316 71.4477 146.257L80.1284 127.902C81.5928 131.371 84.1301 134.28 87.3684 136.202L100.366 146.105L90.171 165.528ZM134.812 216.409C132.661 216.535 128.771 202.367 125.421 196.157C124.376 194.262 123.629 192.218 123.206 190.096C123.182 189.036 123.355 187.981 123.717 186.984C124.283 188.897 125.038 190.749 125.972 192.513C129.386 198.83 132.979 211.593 135.674 214.846C135.119 216.36 134.801 216.405 134.801 216.405L134.812 216.409ZM140.055 191.824C134.877 188.389 130.344 184.071 126.66 179.067C126.708 178.942 126.776 178.787 126.827 178.664C131.507 180.987 136.688 182.119 141.911 181.959C141.116 185.211 140.493 188.503 140.044 191.821L140.055 191.824ZM145.654 180.877C138.02 182.107 130.202 180.407 123.768 176.118C124.317 172.358 124.908 168.636 125.52 165.039C128.962 167.428 132.845 169.109 136.943 169.983C141.041 170.857 145.271 170.908 149.389 170.132C148.226 173.604 146.991 177.17 145.644 180.874L145.654 180.877ZM113.515 108.569C111.872 108.608 110.232 108.661 108.596 108.728C108.551 108.729 108.506 108.739 108.465 108.757C108.423 108.775 108.386 108.801 108.355 108.834C108.323 108.867 108.299 108.905 108.283 108.947C108.266 108.989 108.258 109.034 108.259 109.08C108.26 109.125 108.27 109.169 108.288 109.211C108.306 109.252 108.332 109.29 108.365 109.321C108.398 109.352 108.436 109.377 108.478 109.393C108.52 109.409 108.565 109.417 108.611 109.416C120.901 109.018 133.204 109.247 145.471 110.103C147.901 110.29 150.261 111.005 152.386 112.198C154.51 113.391 156.349 115.034 157.773 117.012C159.197 118.989 160.172 121.254 160.63 123.647C161.087 126.041 161.017 128.506 160.424 130.869C157.017 144.397 153.916 156.314 149.634 169.372C145.501 170.199 141.242 170.174 137.119 169.299C132.996 168.424 129.094 166.716 125.653 164.281C127.334 154.506 129.181 145.673 130.88 139.385C139.991 138.245 146.844 136.789 146.912 136.775C147.001 136.756 147.08 136.702 147.129 136.626C147.179 136.549 147.196 136.456 147.178 136.366C147.159 136.277 147.105 136.199 147.028 136.149C146.952 136.099 146.859 136.082 146.769 136.101C132.207 139.089 104.054 142.874 90.3101 136.947C88.2657 136.03 86.375 134.803 84.7049 133.309C82.8172 131.542 81.3745 129.354 80.4945 126.922C77.0933 117.707 82.3251 106.163 86.5647 103.029L86.6105 103.039C98.1542 104.677 106.297 104.503 114.544 102.44C114.416 104.515 114.067 106.57 113.504 108.571L113.515 108.569ZM119.651 74.6461C116.865 71.1845 116.949 71.071 116.539 71.3272C116.149 71.6934 116.722 71.8892 117.088 76.2058C117.762 84.2458 116.046 93.5122 114.655 101.699C106.467 103.793 98.416 103.998 86.9821 102.396C86.6185 97.1718 85.7379 91.9965 84.3534 86.9459C86.9437 83.5794 86.8119 83.7918 86.8375 83.6508C86.8492 83.5612 86.8255 83.4706 86.7716 83.3982C86.6197 83.2151 86.7039 83.281 82.964 82.5726C70.6355 79.9315 58.0423 78.7287 45.4368 78.9883C43.2793 73.0562 42.9736 66.6089 44.5599 60.4993C58.4974 59.8362 72.461 61.0436 86.0778 64.0891C88.9884 68.9951 94.3667 73.859 100.28 72.8412C108.107 71.4938 107.368 62.0846 107.181 60.4682C119.113 53.521 130.52 45.7078 141.309 37.0915C146.314 40.4812 150.407 45.0529 153.224 50.4017C145.019 57.2262 130.541 68.7553 119.651 74.6461ZM159.615 44.9758C159.541 45.0381 157.303 47.0023 153.771 49.9478C150.931 44.6195 146.845 40.0563 141.861 36.6466C143.959 34.9454 145.999 33.2326 147.981 31.5082C149.722 30.5929 157.848 39.4529 159.448 43.5443C159.728 44.2583 159.785 44.7928 159.615 44.9758ZM165.216 38.1496C164.055 40.3053 162.195 42.0022 159.942 42.9622C157.582 38.6094 154.35 34.7895 150.449 31.7407C158.686 25.2292 159.15 11.5913 159.164 1.71891C159.164 1.64203 159.318 1.4846 159.333 1.45531C161.346 2.75137 164.253 17.4876 163.506 24.9931C162.672 27.5925 161.906 29.8497 161.896 29.8844C161.866 29.9711 161.873 30.0658 161.914 30.1477C161.954 30.2295 162.026 30.2919 162.112 30.321C162.199 30.3502 162.294 30.3437 162.376 30.303C162.458 30.2623 162.52 30.1908 162.549 30.1041C162.56 30.0712 165.019 22.5126 165.385 21.2953C166.168 18.6775 166.886 18.0222 167.173 18.0332C167.325 18.0332 167.667 18.3773 167.869 19.5709C168.747 25.8894 167.828 32.3275 165.216 38.1477V38.1496Z" fill="#023551"/>
<path d="M48.7153 75.0361C48.7153 75.3516 48.8407 75.6543 49.0638 75.8775C49.287 76.1006 49.5896 76.226 49.9052 76.226C50.2208 76.226 50.5234 76.1006 50.7466 75.8775C50.9697 75.6543 51.0951 75.3516 51.0951 75.0361C51.0951 74.7205 50.9697 74.4178 50.7466 74.1947C50.5234 73.9715 50.2208 73.8462 49.9052 73.8462C49.5896 73.8462 49.287 73.9715 49.0638 74.1947C48.8407 74.4178 48.7153 74.7205 48.7153 75.0361Z" fill="#023551"/>
<path d="M64.5681 64.5998C64.5802 64.9061 64.7103 65.1959 64.9313 65.4084C65.1522 65.6208 65.4469 65.7395 65.7534 65.7395C66.06 65.7395 66.3546 65.6208 66.5756 65.4084C66.7966 65.1959 66.9267 64.9061 66.9387 64.5998C66.9267 64.2935 66.7966 64.0038 66.5756 63.7913C66.3546 63.5789 66.06 63.4602 65.7534 63.4602C65.4469 63.4602 65.1522 63.5789 64.9313 63.7913C64.7103 64.0038 64.5802 64.2935 64.5681 64.5998Z" fill="#023551"/>
<path d="M79.7349 76.2223C79.7349 76.5379 79.8602 76.8405 80.0834 77.0637C80.3065 77.2868 80.6092 77.4122 80.9248 77.4122C81.2403 77.4122 81.543 77.2868 81.7661 77.0637C81.9893 76.8405 82.1146 76.5379 82.1146 76.2223C82.1146 75.9067 81.9893 75.6041 81.7661 75.3809C81.543 75.1578 81.2403 75.0324 80.9248 75.0324C80.6092 75.0324 80.3065 75.1578 80.0834 75.3809C79.8602 75.6041 79.7349 75.9067 79.7349 76.2223Z" fill="#023551"/>
<path d="M100.435 79.5156C100.435 79.8311 100.561 80.1338 100.784 80.3569C101.007 80.5801 101.31 80.7054 101.625 80.7054C101.941 80.7054 102.243 80.5801 102.467 80.3569C102.69 80.1338 102.815 79.8311 102.815 79.5156C102.815 79.2 102.69 78.8973 102.467 78.6742C102.243 78.451 101.941 78.3257 101.625 78.3257C101.31 78.3257 101.007 78.451 100.784 78.6742C100.561 78.8973 100.435 79.2 100.435 79.5156Z" fill="#023551"/>
<path d="M111.177 61.4641C111.177 61.7796 111.302 62.0823 111.526 62.3054C111.749 62.5286 112.051 62.6539 112.367 62.6539C112.682 62.6539 112.985 62.5286 113.208 62.3054C113.431 62.0823 113.557 61.7796 113.557 61.4641C113.557 61.1485 113.431 60.8458 113.208 60.6227C112.985 60.3995 112.682 60.2742 112.367 60.2742C112.051 60.2742 111.749 60.3995 111.526 60.6227C111.302 60.8458 111.177 61.1485 111.177 61.4641Z" fill="#023551"/>
<path d="M133.686 61.2188C133.686 60.9032 133.561 60.6005 133.338 60.3774C133.115 60.1542 132.812 60.0289 132.496 60.0289C132.181 60.0289 131.878 60.1542 131.655 60.3774C131.432 60.6005 131.306 60.9032 131.306 61.2188C131.306 61.5343 131.432 61.837 131.655 62.0601C131.878 62.2833 132.181 62.4086 132.496 62.4086C132.812 62.4086 133.115 62.2833 133.338 62.0601C133.561 61.837 133.686 61.5343 133.686 61.2188Z" fill="#023551"/>
<path d="M140.488 45.2011C140.488 44.8855 140.363 44.5828 140.14 44.3597C139.917 44.1365 139.614 44.0112 139.299 44.0112C138.983 44.0112 138.68 44.1365 138.457 44.3597C138.234 44.5828 138.109 44.8855 138.109 45.2011C138.109 45.5166 138.234 45.8193 138.457 46.0424C138.68 46.2656 138.983 46.3909 139.299 46.3909C139.614 46.3909 139.917 46.2656 140.14 46.0424C140.363 45.8193 140.488 45.5166 140.488 45.2011Z" fill="#023551"/>
<path d="M91.7178 95.7126C91.7298 96.0189 91.86 96.3087 92.0809 96.5211C92.3019 96.7336 92.5965 96.8523 92.9031 96.8523C93.2096 96.8523 93.5043 96.7336 93.7252 96.5211C93.9462 96.3087 94.0763 96.0189 94.0884 95.7126C94.0763 95.4063 93.9462 95.1166 93.7252 94.9041C93.5043 94.6917 93.2096 94.573 92.9031 94.573C92.5965 94.573 92.3019 94.6917 92.0809 94.9041C91.86 95.1166 91.7298 95.4063 91.7178 95.7126Z" fill="#023551"/>
<path d="M109.993 94.5264C109.993 94.842 110.118 95.1446 110.341 95.3677C110.564 95.5909 110.867 95.7163 111.183 95.7163C111.498 95.7163 111.801 95.5909 112.024 95.3677C112.247 95.1446 112.372 94.842 112.372 94.5264C112.372 94.2108 112.247 93.9081 112.024 93.685C111.801 93.4619 111.498 93.3365 111.183 93.3365C110.867 93.3365 110.564 93.4619 110.341 93.685C110.118 93.9081 109.993 94.2108 109.993 94.5264Z" fill="#023551"/>
<path d="M92.9629 116.537C95.5775 116.047 98.0564 115.001 100.232 113.47C102.408 111.939 104.23 109.96 105.576 107.665C105.626 107.588 105.644 107.495 105.625 107.405C105.607 107.316 105.553 107.237 105.477 107.187C105.4 107.137 105.307 107.119 105.217 107.137C105.128 107.156 105.049 107.209 104.999 107.286C103.704 109.501 101.948 111.412 99.8514 112.891C97.7546 114.37 95.3651 115.383 92.8439 115.86C92.7572 115.879 92.6812 115.931 92.6318 116.005C92.5823 116.078 92.5633 116.168 92.5787 116.256C92.594 116.343 92.6426 116.421 92.7142 116.474C92.7858 116.526 92.8749 116.549 92.9629 116.537Z" fill="#023551"/>
<path d="M186.367 36.5039C186.367 36.8195 186.493 37.1221 186.716 37.3453C186.939 37.5684 187.241 37.6938 187.557 37.6938C187.873 37.6938 188.175 37.5684 188.398 37.3453C188.622 37.1221 188.747 36.8195 188.747 36.5039C188.747 36.1883 188.622 35.8857 188.398 35.6625C188.175 35.4394 187.873 35.314 187.557 35.314C187.241 35.314 186.939 35.4394 186.716 35.6625C186.493 35.8857 186.367 36.1883 186.367 36.5039Z" fill="#023551"/>
<path d="M307.199 63.831C307.199 63.5154 307.073 63.2128 306.85 62.9896C306.627 62.7665 306.324 62.6411 306.009 62.6411C305.693 62.6411 305.39 62.7665 305.167 62.9896C304.944 63.2128 304.819 63.5154 304.819 63.831C304.819 64.1466 304.944 64.4492 305.167 64.6724C305.39 64.8955 305.693 65.0209 306.009 65.0209C306.324 65.0209 306.627 64.8955 306.85 64.6724C307.073 64.4492 307.199 64.1466 307.199 63.831Z" fill="#023551"/>
</svg>
