<svg width="320" height="256" viewBox="0 0 320 256" fill="none" xmlns="http://www.w3.org/2000/svg">
<path d="M63.729 217.568C59.2799 213.8 54.3327 210.663 49.027 208.247C45.6742 211.784 40.4942 217.936 38.4993 220.065C41.6844 217.953 70.8704 238.891 72.0271 244.105C72.7648 234.231 59.0183 226.101 63.729 217.568Z" fill="#4FBEFB"/>
<path d="M165.419 227.509C163.743 223.502 127.885 217.048 126.979 220.535C127.734 216.009 129.209 214.098 129.561 206.269C135.122 205.789 140.722 206.02 146.224 206.956C145.654 217.199 163.759 217.702 165.419 227.509Z" fill="#4FBEFB"/>
<path d="M299.765 165.834C299.993 167.847 299.723 169.885 298.977 171.769C296.513 170.092 280.118 159.816 280.118 159.816L287.494 158.257C293.378 161.777 297.888 164.493 299.765 165.834Z" fill="#4FBEFB"/>
<path d="M256.665 125.249L252.172 126.204L256.062 144.544C254.385 143.471 253.094 142.583 252.223 141.996C250.898 127.797 246.64 106.322 242.868 90.3964C245.309 89.0678 247.532 87.3716 249.457 85.3672C252.91 99.7339 253.681 105.266 256.665 125.249Z" fill="#4FBEFB"/>
<path d="M287.394 184.66C247.646 162.263 242.868 159.363 238.778 154.803C234.688 150.244 233.43 143.169 227.043 114.335C226.152 124.187 224.081 133.896 220.874 143.253C220.261 144.422 219.729 145.632 219.282 146.874C222.936 165.499 226.322 179.748 229.625 194.065C225.954 198.038 213.766 201.608 206.474 199.597C194.622 153.563 193.951 149.422 194.471 143.22C194.907 137.939 197.187 132.038 211.956 99.8513C211.604 99.0466 211.051 97.5882 210.749 96.7667C219.131 99.1472 234.453 95.2077 242.902 90.3461C246.674 106.272 250.915 127.746 252.256 141.946L256.095 144.494L260.236 164.04L280.168 159.799C288.751 165.231 296.53 170.142 299.011 171.752C297.267 176.613 292.238 183.537 287.394 184.66Z" fill="#4FBEFB"/>
<path d="M170.918 114.687C176.198 117.42 178.746 119.499 179.182 121.393C179.277 121.935 179.217 122.493 179.009 123.003C178.802 123.513 178.455 123.954 178.009 124.276C178.193 124.645 178.26 125.061 178.2 125.469C178.14 125.877 177.956 126.256 177.673 126.556C177.473 126.858 177.179 127.086 176.838 127.207C176.496 127.328 176.125 127.335 175.779 127.227C174.857 129.875 173.332 129.943 171.923 129.339C170.968 131.937 168.436 131.015 167.045 130.68C167.129 129.976 167.179 129.205 167.213 128.35C167.33 125.785 164.53 125.165 164.044 127.612C163.776 129.004 163.91 128.87 163.726 128.87C163.726 128.568 163.826 128.233 163.877 127.897C164.246 125.265 161.312 124.545 160.641 126.959L160.205 128.635C160.356 128.048 160.49 127.495 160.591 127.093C161.228 124.427 158.194 123.488 157.356 125.986C157.356 126.154 157.238 126.338 157.171 126.523C157.161 126.467 157.161 126.41 157.171 126.355C157.993 123.824 155.193 122.768 154.053 125.064C153.751 125.668 153.299 126.741 152.88 127.83C152.108 127.713 150.616 127.512 149.359 127.394C151.874 122.985 151.723 115.66 149.644 111.301C153.617 111.871 154.439 112.055 155.612 111.402C158.361 109.843 159.468 107.898 161.01 108.334L162.955 108.937C161.513 110.614 160.105 112.659 158.16 115.509C156.786 117.52 160.557 118.862 165.168 113.564C166.958 114.419 168.937 114.805 170.918 114.687Z" fill="#4FBEFB"/>
<path d="M284.996 91.7543C284.917 91.7536 284.839 91.7311 284.771 91.6893C284.704 91.6475 284.649 91.5879 284.612 91.5171C284.576 91.4463 284.56 91.367 284.566 91.2876C284.571 91.2082 284.598 91.1319 284.644 91.067L318.457 42.7701L259.029 1.16196L230.664 41.6804C230.631 41.7277 230.589 41.7681 230.541 41.7992C230.492 41.8303 230.438 41.8515 230.381 41.8616C230.324 41.8717 230.266 41.8706 230.21 41.8582C230.153 41.8458 230.1 41.8224 230.053 41.7894C230.005 41.7563 229.965 41.7143 229.934 41.6657C229.903 41.6171 229.881 41.5628 229.871 41.506C229.861 41.4492 229.862 41.3909 229.875 41.3346C229.887 41.2782 229.911 41.2248 229.944 41.1775L258.56 0.37406C258.627 0.277573 258.73 0.211325 258.846 0.189409C258.962 0.167494 259.082 0.191641 259.18 0.256713L319.312 42.2839C319.36 42.3173 319.401 42.3601 319.433 42.4097C319.464 42.4593 319.485 42.5147 319.494 42.5726C319.504 42.6305 319.501 42.6898 319.487 42.7467C319.473 42.8037 319.448 42.8573 319.413 42.9042C282.884 95.1741 285.332 91.7543 284.996 91.7543Z" fill="#023551"/>
<path d="M270.445 111.603L257.805 129.674C257.805 129.931 257.872 130.2 258.006 130.479L270.965 112.039C270.993 112.005 271.015 111.965 271.028 111.923C271.042 111.88 271.047 111.835 271.043 111.791C271.039 111.747 271.026 111.704 271.006 111.664C270.985 111.625 270.957 111.59 270.923 111.561C270.889 111.532 270.849 111.511 270.807 111.497C270.764 111.484 270.72 111.479 270.675 111.483C270.631 111.487 270.588 111.499 270.548 111.52C270.509 111.541 270.474 111.569 270.445 111.603Z" fill="#023551"/>
<path d="M225.501 176.731C225.419 176.732 225.338 176.711 225.267 176.668C225.196 176.625 225.14 176.564 225.103 176.49C225.066 176.416 225.051 176.333 225.059 176.252C225.067 176.17 225.098 176.092 225.149 176.027L239.432 155.625C239.499 155.529 239.601 155.464 239.715 155.444C239.83 155.423 239.948 155.449 240.044 155.516C240.139 155.583 240.205 155.685 240.225 155.799C240.245 155.914 240.219 156.032 240.153 156.128C224.914 177.854 225.853 176.731 225.501 176.731Z" fill="#023551"/>
<path d="M170.382 255.437C170.164 255.437 173.734 257.986 91.021 199.982C90.9254 199.916 90.8603 199.814 90.8398 199.699C90.8194 199.584 90.8454 199.466 90.9121 199.37C90.9788 199.275 91.0807 199.21 91.1954 199.189C91.3102 199.169 91.4284 199.195 91.5239 199.261L170.314 254.398L208.419 199.865C208.452 199.818 208.494 199.777 208.543 199.746C208.591 199.715 208.645 199.694 208.702 199.684C208.759 199.674 208.817 199.675 208.874 199.687C208.93 199.7 208.983 199.723 209.031 199.756C209.078 199.789 209.118 199.831 209.15 199.88C209.181 199.928 209.202 199.983 209.212 200.039C209.222 200.096 209.221 200.154 209.209 200.211C209.196 200.267 209.173 200.321 209.14 200.368C168.001 259.26 170.734 255.437 170.382 255.437Z" fill="#023551"/>
<path d="M66.7467 182.883C66.5287 182.883 69.3283 185.012 0.294395 136.447C0.246134 136.414 0.20511 136.371 0.173779 136.321C0.142449 136.272 0.121458 136.216 0.112066 136.158C0.102673 136.1 0.105072 136.041 0.119119 135.984C0.133165 135.927 0.158571 135.874 0.193811 135.827C45.3559 71.2352 42.3048 75.5603 42.573 75.4765C42.8413 75.3927 42.2545 75.0909 51.7262 81.7127C51.7735 81.7457 51.8139 81.7877 51.8449 81.8363C51.876 81.885 51.8973 81.9392 51.9074 81.9961C51.9175 82.0529 51.9163 82.1111 51.9039 82.1675C51.8915 82.2239 51.8681 82.2772 51.8351 82.3246C51.8021 82.3719 51.7601 82.4123 51.7115 82.4433C51.6628 82.4744 51.6086 82.4957 51.5517 82.5058C51.4949 82.5159 51.4367 82.5147 51.3803 82.5023C51.3239 82.4899 51.2706 82.4665 51.2232 82.4335L42.8413 76.5159L1.14936 135.978L66.9981 182.078C67.0691 182.135 67.1214 182.212 67.1479 182.299C67.1745 182.387 67.1742 182.48 67.147 182.567C67.1199 182.653 67.0671 182.73 66.9957 182.787C66.9243 182.843 66.8375 182.877 66.7467 182.883Z" fill="#023551"/>
<path d="M152.109 153.127L146.727 149.355C146.632 149.288 146.567 149.187 146.546 149.072C146.526 148.957 146.552 148.839 146.618 148.743C146.685 148.648 146.787 148.583 146.902 148.562C147.016 148.542 147.135 148.568 147.23 148.634L152.259 152.155L167.347 130.529C167.414 130.434 167.516 130.368 167.63 130.348C167.745 130.328 167.863 130.354 167.959 130.42C168.054 130.487 168.12 130.589 168.14 130.704C168.16 130.818 168.135 130.937 168.068 131.032L152.679 153.01C152.615 153.096 152.521 153.156 152.416 153.177C152.311 153.199 152.201 153.181 152.109 153.127Z" fill="#023551"/>
<path d="M184.463 23.5251L182.267 11.0863C182.259 11.0292 182.239 10.9744 182.209 10.9253C182.179 10.8761 182.139 10.8337 182.092 10.8007C182.045 10.7676 181.991 10.7447 181.935 10.7333C181.878 10.7218 181.82 10.7221 181.764 10.7342L169.325 12.9135C169.268 12.9234 169.213 12.9445 169.164 12.9756C169.115 13.0066 169.072 13.0471 169.039 13.0945C169.005 13.142 168.982 13.1956 168.969 13.2523C168.956 13.309 168.955 13.3676 168.965 13.4248C168.974 13.4821 168.996 13.5368 169.027 13.5859C169.058 13.635 169.098 13.6775 169.146 13.7109C169.193 13.7444 169.247 13.7682 169.303 13.7809C169.36 13.7937 169.419 13.7952 169.476 13.7853L180.875 11.7736L161.999 38.73L145.638 27.2802C145.544 27.2144 145.428 27.188 145.315 27.2068C145.202 27.2257 145.101 27.2881 145.034 27.3808L127.315 52.6944C127.273 52.7398 127.241 52.7937 127.222 52.8523C127.203 52.9109 127.196 52.9729 127.202 53.0343C127.209 53.0957 127.228 53.155 127.259 53.2083C127.29 53.2616 127.332 53.3078 127.382 53.3436C127.433 53.3795 127.49 53.4043 127.55 53.4164C127.611 53.4285 127.673 53.4276 127.734 53.4137C127.794 53.3999 127.85 53.3734 127.899 53.3361C127.948 53.2988 127.989 53.2515 128.019 53.1973L145.503 28.2525L161.848 39.7023C161.946 39.7652 162.063 39.7897 162.178 39.7711C162.292 39.7525 162.396 39.6922 162.469 39.6017L181.596 12.2765L183.591 23.676C183.601 23.7332 183.622 23.7879 183.653 23.837C183.684 23.8861 183.725 23.9286 183.772 23.9621C183.82 23.9956 183.873 24.0193 183.93 24.0321C183.987 24.0448 184.045 24.0463 184.102 24.0364C184.16 24.0265 184.214 24.0054 184.263 23.9744C184.313 23.9433 184.355 23.9029 184.389 23.8554C184.422 23.8079 184.446 23.7543 184.459 23.6976C184.471 23.641 184.473 23.5823 184.463 23.5251Z" fill="#023551"/>
<path d="M177.774 171.551L171.169 172.724L169.995 166.119C169.988 166.08 169.972 166.042 169.95 166.008C169.928 165.974 169.899 165.946 169.866 165.923C169.832 165.9 169.794 165.885 169.755 165.877C169.715 165.869 169.675 165.868 169.635 165.876C169.595 165.884 169.558 165.899 169.524 165.921C169.49 165.944 169.461 165.972 169.439 166.006C169.416 166.039 169.4 166.077 169.392 166.117C169.384 166.156 169.384 166.197 169.392 166.237L170.549 172.825L163.944 173.998C163.872 174.022 163.812 174.071 163.773 174.136C163.734 174.2 163.719 174.277 163.731 174.351C163.743 174.425 163.781 174.493 163.839 174.542C163.896 174.591 163.969 174.618 164.044 174.618L170.649 173.445L171.823 180.05C171.847 180.121 171.895 180.182 171.96 180.221C172.025 180.26 172.101 180.275 172.175 180.262C172.25 180.25 172.318 180.212 172.367 180.155C172.416 180.098 172.443 180.025 172.443 179.949L171.269 173.344L177.874 172.171C177.946 172.147 178.006 172.098 178.045 172.034C178.084 171.969 178.099 171.893 178.087 171.818C178.075 171.744 178.037 171.676 177.979 171.627C177.922 171.578 177.849 171.551 177.774 171.551Z" fill="#023551"/>
<path d="M269.49 196.764L260.236 198.44L258.56 189.203C258.554 189.143 258.537 189.084 258.508 189.031C258.479 188.978 258.439 188.931 258.391 188.894C258.343 188.857 258.288 188.831 258.229 188.817C258.17 188.802 258.109 188.8 258.049 188.811C257.99 188.821 257.933 188.844 257.883 188.878C257.832 188.911 257.79 188.955 257.757 189.006C257.725 189.057 257.703 189.115 257.694 189.175C257.685 189.234 257.689 189.296 257.705 189.354L259.381 198.591L250.144 200.267C250.084 200.272 250.025 200.29 249.972 200.319C249.919 200.348 249.872 200.388 249.835 200.436C249.798 200.484 249.772 200.539 249.757 200.598C249.743 200.657 249.741 200.718 249.752 200.777C249.762 200.837 249.785 200.894 249.819 200.944C249.852 200.994 249.896 201.037 249.947 201.07C249.998 201.102 250.056 201.123 250.115 201.133C250.175 201.142 250.236 201.138 250.295 201.122L259.532 199.446L261.208 208.683C261.228 208.798 261.293 208.901 261.389 208.969C261.485 209.036 261.604 209.063 261.72 209.043C261.835 209.023 261.938 208.958 262.006 208.862C262.073 208.766 262.1 208.648 262.08 208.532L260.404 199.295L269.657 197.619C269.767 197.593 269.863 197.526 269.925 197.431C269.986 197.336 270.009 197.221 269.987 197.11C269.965 196.999 269.901 196.901 269.808 196.836C269.716 196.772 269.601 196.746 269.49 196.764Z" fill="#023551"/>
<path d="M97.8603 241.775C96.886 241.758 95.9382 241.454 95.136 240.901C94.3339 240.348 93.7131 239.57 93.3516 238.665C92.9901 237.76 92.9041 236.768 93.1042 235.814C93.3044 234.861 93.7819 233.987 94.4768 233.304C95.1716 232.621 96.0528 232.158 97.0098 231.974C97.9667 231.79 98.9567 231.892 99.8555 232.269C100.754 232.646 101.522 233.28 102.062 234.091C102.601 234.902 102.889 235.855 102.89 236.829C102.89 237.486 102.759 238.136 102.505 238.742C102.251 239.347 101.88 239.896 101.412 240.356C100.943 240.817 100.388 241.179 99.7786 241.423C99.1689 241.666 98.5168 241.786 97.8603 241.775ZM97.8603 232.773C97.0579 232.773 96.2736 233.01 95.6064 233.456C94.9393 233.902 94.4193 234.536 94.1123 235.277C93.8052 236.018 93.7249 236.834 93.8814 237.621C94.0379 238.408 94.4243 239.131 94.9917 239.698C95.559 240.265 96.2819 240.652 97.0689 240.808C97.8558 240.965 98.6715 240.885 99.4128 240.577C100.154 240.27 100.788 239.75 101.233 239.083C101.679 238.416 101.917 237.632 101.917 236.829C101.895 235.767 101.459 234.754 100.701 234.009C99.9428 233.263 98.9234 232.844 97.8603 232.84V232.773Z" fill="#023551"/>
<path d="M281.04 87.8148C282.281 87.8148 283.068 90.6646 281.526 90.6143C279.984 90.564 279.732 87.8148 281.04 87.8148Z" fill="#023551"/>
<path d="M190.112 112.592C190.481 113.682 188.151 115.492 187.899 114.268C187.648 113.044 189.743 111.502 190.112 112.592Z" fill="#023551"/>
<path d="M142.838 126.355C143.492 125.131 146.191 125.265 145.587 126.489C144.984 127.713 142.067 127.78 142.838 126.355Z" fill="#023551"/>
<path d="M76.9892 172.355C71.6248 154.2 72.3121 153.211 71.4236 153.328L26.5801 158.944C26.466 158.961 26.3625 159.02 26.2909 159.111C26.2192 159.201 26.1847 159.315 26.1945 159.43L30.8213 196.512C30.838 196.626 30.8976 196.73 30.988 196.801C31.0783 196.873 31.1926 196.907 31.3075 196.898C57.761 193.545 56.1181 193.83 56.2858 193.662C78.213 171.45 77.0898 172.741 76.9892 172.355ZM55.7661 192.891L31.6428 195.925L27.1165 159.766L33.2521 158.994L66.3777 182.179L55.7661 192.891Z" fill="#023551"/>
<path d="M42.0533 124.93C43.2938 124.343 43.2938 127.093 42.2712 127.411C41.2486 127.73 41.2654 125.299 42.0533 124.93Z" fill="#023551"/>
<path d="M287.209 111.653L288.349 116.967L293.261 115.928L291.92 109.658C291.672 108.473 291.005 107.417 290.041 106.684C289.077 105.951 287.881 105.59 286.673 105.668C287.093 107.634 287.273 109.644 287.209 111.653Z" fill="#023551"/>
<path d="M267.26 121.426L272.172 120.387L271.401 116.699C271.401 116.699 270.345 109.826 270.194 109.122C269.504 109.214 268.841 109.449 268.247 109.811C267.653 110.173 267.14 110.655 266.741 111.225C266.343 111.796 266.067 112.442 265.931 113.125C265.795 113.807 265.802 114.511 265.952 115.19L267.26 121.426Z" fill="#023551"/>
<path d="M40.0586 155.843L45.0877 155.223L44.4507 150.026C44.4507 150.026 44.4507 144.225 44.4507 144.041C42.9148 144.258 41.5259 145.071 40.5847 146.304C39.6435 147.537 39.2256 149.09 39.4215 150.629L40.0586 155.843Z" fill="#023551"/>
<path d="M61.1137 153.211L66.1429 152.591L65.5059 147.411C65.3254 145.957 64.6079 144.624 63.4942 143.672C62.2301 144.014 60.9487 144.288 59.6553 144.494C60.45 147.339 60.939 150.262 61.1137 153.211Z" fill="#023551"/>
<path d="M42.0533 124.93C43.2938 124.343 43.2938 127.093 42.2712 127.411C41.2486 127.73 41.2654 125.299 42.0533 124.93Z" fill="#023551"/>
<path d="M142.838 126.355C143.492 125.131 146.191 125.265 145.587 126.489C144.984 127.713 142.067 127.78 142.838 126.355Z" fill="#023551"/>
<path d="M187.9 114.184C188.151 115.492 190.498 113.682 190.113 112.508C189.727 111.335 187.598 112.692 187.9 114.184Z" fill="#023551"/>
<path d="M281.04 87.8148C282.281 87.8148 283.052 90.6646 281.526 90.6143C280.001 90.564 279.732 87.8148 281.04 87.8148Z" fill="#023551"/>
<path d="M308.298 171.366C305.668 170.278 302.969 169.365 300.218 168.634C300.353 167.689 300.353 166.729 300.218 165.784C300.2 165.671 300.14 165.569 300.05 165.499C298.022 164.057 292.288 160.654 287.745 157.905C287.696 157.875 287.641 157.855 287.584 157.847C287.527 157.838 287.468 157.841 287.412 157.855C287.356 157.869 287.304 157.894 287.257 157.929C287.211 157.963 287.172 158.006 287.142 158.056C287.112 158.105 287.093 158.16 287.084 158.217C287.076 158.274 287.078 158.333 287.092 158.389C287.106 158.445 287.131 158.497 287.166 158.544C287.2 158.59 287.243 158.629 287.293 158.659C291.283 161.056 297.351 164.677 299.38 166.102C299.542 167.801 299.342 169.516 298.793 171.132C296.312 169.539 280.353 159.397 280.353 159.397C280.304 159.366 280.25 159.345 280.194 159.335C280.137 159.325 280.079 159.326 280.023 159.339C279.967 159.351 279.914 159.375 279.867 159.408C279.82 159.441 279.78 159.482 279.749 159.531C279.718 159.579 279.697 159.633 279.687 159.69C279.677 159.746 279.679 159.804 279.691 159.86C279.704 159.916 279.727 159.969 279.76 160.016C279.793 160.063 279.835 160.104 279.883 160.134C279.883 160.134 296.111 170.394 298.458 171.869C296.312 177.569 291.048 183.218 287.444 184.107C247.613 161.66 243.07 158.877 239.063 154.418C235.056 149.959 233.581 141.945 227.429 114.184C227.407 114.092 227.356 114.01 227.284 113.95C227.211 113.889 227.121 113.854 227.026 113.849C223.674 113.648 222.802 112.391 222.483 113.195C222.443 113.302 222.445 113.421 222.489 113.526C222.532 113.632 222.614 113.718 222.718 113.765C223.935 114.255 225.217 114.565 226.524 114.687C225.595 124.318 223.553 133.808 220.438 142.968C219.794 144.163 219.234 145.401 218.762 146.673C218.393 147.746 228.82 192.791 229.038 193.88C225.685 197.401 213.951 201.156 206.725 199.194C195.141 154.166 194.303 149.439 194.806 143.203C195.259 137.838 197.874 131.367 212.274 100.002C212.392 99.7339 212.274 99.868 211.369 97.3534C214.036 97.8649 216.761 98.0003 219.466 97.7557C221.142 104.998 221.327 106.255 224.495 106.138C224.552 106.133 224.608 106.118 224.66 106.092C224.711 106.066 224.756 106.03 224.794 105.987C224.831 105.943 224.86 105.892 224.877 105.838C224.895 105.783 224.902 105.726 224.897 105.668C224.895 105.612 224.882 105.556 224.858 105.505C224.834 105.454 224.799 105.408 224.757 105.37C224.715 105.333 224.665 105.304 224.612 105.286C224.558 105.268 224.501 105.261 224.445 105.266C222.182 105.383 222.115 105.149 220.354 97.739C228.12 96.9755 235.661 94.6973 242.55 91.0334C245.903 105.601 250.379 127.461 251.77 142.013C251.77 142.264 251.653 142.197 255.793 144.896C255.891 144.96 256.011 144.983 256.125 144.96C256.24 144.936 256.341 144.868 256.405 144.77C256.47 144.672 256.493 144.553 256.469 144.438C256.446 144.323 256.377 144.223 256.28 144.158C254.72 143.152 253.48 142.314 252.608 141.728C251.2 127.042 246.758 105.098 243.338 90.5808C245.476 89.3782 247.443 87.8955 249.188 86.1719C250.563 91.989 251.904 98.1581 252.776 103.355C256.514 125.668 255.844 125.718 256.632 125.718C256.695 125.719 256.758 125.706 256.815 125.68C256.873 125.654 256.925 125.616 256.966 125.568C257.008 125.52 257.038 125.463 257.056 125.403C257.073 125.342 257.077 125.278 257.067 125.215C253.513 101.746 252.893 96.3643 245.97 69.6929C252.977 70.6485 254.519 71.5034 256.581 73.0457C258.643 74.588 259.297 77.4546 264.46 100.002C264.611 101.394 266.137 101.796 267.629 101.679C266.807 103.103 265.332 105.031 265.332 106.222C265.411 107.861 265.945 109.445 266.874 110.798C266.934 110.898 267.032 110.97 267.145 110.999C267.258 111.027 267.378 111.009 267.478 110.949C267.578 110.889 267.65 110.792 267.678 110.678C267.707 110.565 267.689 110.446 267.629 110.345C266.776 109.132 266.282 107.703 266.204 106.222C266.204 104.931 268.836 102.064 268.97 100.589C269.024 99.453 268.87 98.3169 268.517 97.2361C272.797 95.5486 277.331 94.5964 281.928 94.4197C282.783 97.7725 284.879 100.488 286.203 106.322C286.633 108.633 286.706 110.996 286.421 113.329C286.227 113.812 285.851 114.198 285.374 114.405C284.897 114.612 284.358 114.623 283.873 114.436C284.005 112.992 284.005 111.538 283.873 110.094C283.873 109.978 283.827 109.868 283.745 109.786C283.664 109.704 283.553 109.658 283.437 109.658C283.322 109.658 283.211 109.704 283.129 109.786C283.047 109.868 283.001 109.978 283.001 110.094C283.119 111.449 283.119 112.812 283.001 114.168C282.867 115.375 281.509 116.246 279.917 115.341C280.034 113.947 280.034 112.545 279.917 111.15C279.917 111.035 279.871 110.924 279.789 110.842C279.707 110.76 279.596 110.714 279.481 110.714C279.365 110.714 279.254 110.76 279.173 110.842C279.091 110.924 279.045 111.035 279.045 111.15C279.259 112.55 279.259 113.975 279.045 115.375C278.941 115.691 278.76 115.976 278.518 116.204C278.276 116.432 277.981 116.596 277.659 116.681C277.338 116.766 277 116.769 276.677 116.69C276.354 116.611 276.056 116.453 275.809 116.23C275.945 114.832 275.894 113.423 275.659 112.039C275.639 111.923 275.574 111.82 275.478 111.753C275.382 111.685 275.263 111.658 275.147 111.678C275.032 111.698 274.929 111.763 274.861 111.859C274.794 111.955 274.767 112.074 274.787 112.189C274.988 113.385 275.055 114.6 274.988 115.811C274.988 116.255 274.811 116.682 274.497 116.996C274.183 117.31 273.756 117.487 273.312 117.487C272.867 117.487 272.441 117.31 272.126 116.996C271.812 116.682 271.635 116.255 271.635 115.811C271.346 112.744 270.785 109.709 269.959 106.741C269.919 106.632 269.837 106.544 269.732 106.495C269.627 106.446 269.506 106.441 269.397 106.481C269.288 106.521 269.2 106.603 269.151 106.708C269.102 106.814 269.097 106.934 269.137 107.043C269.953 109.939 270.514 112.901 270.814 115.894C270.848 116.441 271.056 116.962 271.408 117.382C271.759 117.801 272.236 118.097 272.768 118.227C273.3 118.356 273.86 118.312 274.365 118.1C274.87 117.888 275.294 117.521 275.575 117.051C275.904 117.291 276.281 117.458 276.68 117.54C277.079 117.622 277.491 117.618 277.888 117.527C278.285 117.437 278.658 117.262 278.982 117.015C279.306 116.768 279.573 116.454 279.766 116.095C280.087 116.302 280.448 116.44 280.824 116.502C281.201 116.564 281.587 116.549 281.958 116.456C282.328 116.363 282.676 116.196 282.979 115.964C283.283 115.732 283.536 115.44 283.722 115.106C284.429 115.362 285.209 115.33 285.893 115.016C286.576 114.703 287.109 114.133 287.377 113.43C287.704 110.948 287.636 108.431 287.175 105.97C286.565 103.299 285.666 100.702 284.493 98.2251C285.099 98.0201 285.613 97.6092 285.947 97.064C286.281 96.5188 286.413 95.8737 286.32 95.2411C280.738 66.843 277.452 59.6681 271.015 53.7169C260.152 43.6585 247.059 42.9209 227.965 40.5404C225.803 40.2722 220.354 36.6847 216.331 33.0302C214.99 22.251 214.655 21.2954 209.307 20.6919C208.955 18.3114 207.379 17.9594 201.629 17.5571C197.589 17.2721 195.745 17.5571 194.923 18.5294C194.102 19.5017 194.236 20.5578 194.571 22.3348C195.058 24.9667 196.466 25.6876 198.964 25.8385C201.193 38.4617 201.83 40.2554 204.077 40.5069C205.569 40.6578 206.658 40.289 208.586 38.5288C208.586 40.356 208.418 43.5579 206.507 44.7314C200.489 48.2015 198.008 49.6432 195.913 52.6105C191.94 58.2431 192.157 61.9145 191.437 86.5407C187.547 89.8935 183.222 93.4139 179.4 96.599C171.018 103.305 171.018 103.305 171.018 104.126C170.984 105.042 171.302 105.935 171.907 106.624C171.56 106.886 171.134 107.022 170.7 107.009C167.464 107.127 164.765 106.054 163.474 107.479L162.821 108.216L161.144 107.697C159.3 107.177 158.177 109.222 155.394 110.798C154.372 111.385 153.718 111.2 149.912 110.681C149.508 109.789 148.939 108.981 148.236 108.3C147.834 107.948 125.538 105.333 124.984 105.266C123.995 74.2024 122.973 69.2571 119.486 66.1222C117.072 63.9429 113.099 62.937 107.265 63.1382C106.141 62.4444 105.189 61.5043 104.482 60.3889C105.232 60.4948 105.988 60.5508 106.745 60.5566C109.059 60.5566 109.712 59.9531 110.249 58.7796C111.087 56.9356 111.271 53.2475 110.416 44.0273C112.291 43.1535 113.882 41.7712 115.01 40.0375C115.452 39.4648 115.667 38.749 115.613 38.0276C115.559 37.3062 115.241 36.63 114.719 36.129C114.197 35.6279 113.509 35.3374 112.786 35.3131C112.063 35.2888 111.356 35.5325 110.802 35.9974C110.282 33.4828 106.98 33.5666 105.773 35.2766C105.423 34.9443 104.995 34.7058 104.528 34.583C104.062 34.4602 103.572 34.4572 103.104 34.5742C102.636 34.6913 102.205 34.9245 101.851 35.2524C101.497 35.5803 101.231 35.9922 101.079 36.45C100.715 36.1242 100.269 35.9046 99.7888 35.8152C99.3087 35.7258 98.8133 35.77 98.3566 35.943C97.8999 36.116 97.4995 36.4111 97.1991 36.7962C96.8988 37.1812 96.7099 37.6414 96.6533 38.1264C96.2678 37.8801 95.8199 37.7492 95.3625 37.7492C94.905 37.7492 94.4571 37.8801 94.0716 38.1264C92.9485 38.9646 91.0877 42.3174 97.7597 55.1921C85.9076 65.2505 79.3194 67.4968 74.4578 70.1791C59.7391 75.3759 47.1158 83.1544 42.204 90.4131C37.9292 96.7499 37.9795 107.864 39.7732 131.988C39.6056 133.329 41.8855 133.496 43.2434 133.496C43.1503 137.043 43.2735 140.593 43.6122 144.125C43.6189 144.19 43.6401 144.252 43.6741 144.308C43.7082 144.363 43.7542 144.41 43.8089 144.446C43.8636 144.481 43.9255 144.504 43.9901 144.512C44.0547 144.52 44.1203 144.514 44.1822 144.494C44.0707 146.286 44.0707 148.083 44.1822 149.875C44.2524 150.337 44.462 150.767 44.7829 151.107C45.1039 151.446 45.5209 151.68 45.9782 151.777C46.4356 151.873 46.9115 151.828 47.3425 151.647C47.7734 151.466 48.1388 151.158 48.3899 150.763C48.6037 151.137 48.9141 151.446 49.2887 151.659C49.6633 151.871 50.0882 151.979 50.5187 151.97C50.9491 151.961 51.3694 151.837 51.7352 151.61C52.101 151.383 52.399 151.062 52.5977 150.68C52.8548 151.027 53.1998 151.299 53.5972 151.469C53.9946 151.639 54.4301 151.699 54.8587 151.644C55.2874 151.59 55.6937 151.422 56.0359 151.158C56.378 150.894 56.6437 150.544 56.8054 150.143C57.1643 150.55 57.6508 150.823 58.1851 150.918C58.7195 151.013 59.2702 150.923 59.7472 150.664C60.2242 150.406 60.5991 149.992 60.8108 149.493C61.0225 148.993 61.0584 148.436 60.9126 147.913C60.9126 147.913 60.4432 145.566 60.2588 144.762C61.5731 144.689 62.8603 144.358 64.0474 143.79C65.003 143.002 64.3324 137.587 63.5613 136.397C62.197 134.826 60.7476 133.332 59.2194 131.921C60.3929 131.686 62.1363 131.166 62.086 129.959C61.7843 123.706 61.3317 109.558 61.3149 102.131L65.8747 100.689C64.8186 112.324 64.4833 123.673 66.7967 134.972C69.2778 147.897 73.7705 164.661 76.0672 172.355C72.1947 176.295 43.5116 205.196 41.6508 207.358C40.1588 209.035 41.8855 211.734 43.7128 213.377C42.0364 215.271 39.3038 218.406 38.0968 219.764C34.5261 223.586 52.9832 235.891 57.828 238.908C61.6502 241.305 73.3682 248.363 72.4797 243.937C72.9491 236.896 66.1094 230.794 63.863 224.776C64.9247 225.239 66.0596 225.512 67.2158 225.581C68.6072 225.581 68.7413 225.011 69.3951 224.307C101.75 189.102 103.778 186.253 104.599 180.117C105.287 175.088 103.895 164.158 102.571 153.026C108.153 156.379 114.859 160.369 122.822 165.482C123.358 170.746 124.498 198.339 124.163 208.515C123.811 210.544 126.493 211.499 128.522 211.868C128.035 214.735 126.627 218.875 126.493 220.552C126.057 225.899 152.276 229.252 160.356 229.252C162.234 229.252 166.391 229.252 165.838 227.408C164.564 219.764 153.785 217.651 148.957 212.673C150.633 212.572 153.047 212.069 152.98 210.426C151.035 159.162 150.432 153.244 146.392 147.209C142.586 141.51 139.452 138.995 123.442 129.155C129.242 129.507 137.071 129.574 147.716 129.574C147.844 129.583 147.971 129.54 148.068 129.456C148.612 128.92 149.085 128.318 149.476 127.663L152.209 127.998C152.096 128.459 152.131 128.945 152.311 129.384C152.491 129.824 152.806 130.196 153.21 130.445C153.614 130.695 154.087 130.81 154.561 130.774C155.035 130.738 155.485 130.552 155.847 130.244C155.947 130.608 156.136 130.941 156.397 131.213C156.658 131.486 156.983 131.689 157.341 131.806C157.7 131.922 158.082 131.947 158.453 131.88C158.825 131.812 159.173 131.653 159.468 131.418C159.618 131.772 159.856 132.082 160.159 132.32C160.462 132.558 160.82 132.715 161.2 132.777C161.579 132.839 161.969 132.803 162.331 132.674C162.694 132.545 163.018 132.326 163.273 132.038C163.489 132.418 163.813 132.726 164.204 132.923C164.595 133.119 165.035 133.195 165.47 133.141C165.904 133.087 166.312 132.906 166.643 132.62C166.974 132.334 167.213 131.957 167.33 131.535C167.33 131.384 167.33 131.25 167.33 131.099C169.375 131.619 171.169 131.669 172.074 129.758C173.985 130.395 175.243 129.44 175.997 127.579C176.374 127.637 176.761 127.583 177.107 127.422C177.453 127.26 177.744 127 177.942 126.674C178.231 126.345 178.432 125.947 178.523 125.518C178.614 125.089 178.592 124.644 178.461 124.226C178.868 123.883 179.183 123.445 179.379 122.951C179.575 122.456 179.646 121.921 179.584 121.393C180.255 120.739 181.261 119.817 182.3 118.895C183.457 119.834 185.435 120.806 186.374 119.733C193.079 114.604 206.39 103.154 211.05 99.013L211.369 99.8009C196.985 131.15 194.37 137.637 193.918 143.136C193.398 149.506 194.236 154.267 205.937 199.647C205.957 199.721 205.994 199.79 206.047 199.845C206.1 199.901 206.166 199.942 206.239 199.965C207.334 200.273 208.457 200.464 209.592 200.535C205.032 206.518 201.446 213.183 198.964 220.283C198.075 223.167 224.11 213.762 232.491 205.196C232.551 205.139 232.592 205.065 232.61 204.985C232.628 204.904 232.622 204.82 232.592 204.743C231.446 201.561 229.998 198.496 228.267 195.59C228.821 195.204 229.327 194.753 229.776 194.249C229.825 194.199 229.859 194.137 229.877 194.07C229.895 194.002 229.894 193.931 229.876 193.863C226.088 177.284 223.003 164.258 219.566 146.807C220.757 143.454 223.54 139.112 229.44 127.73C233.481 145.751 235.023 151.333 238.309 154.988C242.416 159.548 246.976 162.347 287.075 184.928C287.46 185.163 288.986 184.442 289.388 184.224C290.26 193.528 294.317 211.046 296.094 209.068C301.475 202.648 308.181 179.916 308.533 171.651C308.517 171.589 308.488 171.532 308.447 171.483C308.406 171.433 308.356 171.394 308.298 171.366ZM285.164 94.2521C283.387 93.3636 279.749 93.4809 274.602 94.6041C271.954 95.1909 266.807 96.532 265.047 98.5772C264.427 95.8279 263.857 93.3971 263.371 91.2178C265.718 86.7251 280.336 83.9255 283.487 86.1886C284.041 88.5859 284.594 91.2513 285.164 94.1347V94.2521ZM223.137 39.5514C221.404 43.6927 219.151 47.5966 216.432 51.1688C214.641 49.1713 213.099 46.9648 211.838 44.5973C215.406 43.0072 218.762 40.98 221.83 38.5623L223.137 39.5514ZM204.127 39.9202C202.451 39.7358 201.847 37.657 199.819 26.1234C201.277 26.1234 203.171 25.8552 205.418 25.587C207.429 28.1016 208.234 28.7889 208.905 28.571C209.24 28.4536 209.424 28.0848 209.424 27.4981C209.424 25.017 211.654 25.3858 211.704 29.3589C211.71 29.4434 211.739 29.5247 211.788 29.5936C214.395 32.9194 217.512 35.8108 221.025 38.16C218.037 40.4623 214.777 42.3879 211.319 43.8932C210.497 43.4208 209.77 42.8014 209.173 42.0659C209.173 41.848 209.173 41.6301 209.29 41.4122C210.545 39.5544 211.428 37.4707 211.889 35.2766C211.905 35.1851 211.892 35.0907 211.851 35.0072C211.811 34.9237 211.744 34.8554 211.662 34.8123C211.579 34.7693 211.485 34.7537 211.393 34.7678C211.302 34.782 211.217 34.8251 211.151 34.891C206.876 39.3837 205.803 39.9872 204.093 39.8028L204.127 39.9202ZM208.905 43.0885C209.447 43.6648 210.067 44.1615 210.749 44.5638C210.011 46.2402 209.19 48.1513 208.62 49.945C208.25 47.6261 208.336 45.2575 208.871 42.9712L208.905 43.0885ZM103.543 51.152C103.609 51.0714 103.644 50.9708 103.644 50.867C103.644 50.7633 103.609 50.6626 103.543 50.582C101.414 47.2292 103.409 45.5528 104.465 47.7322C105.287 49.4086 107.248 49.4086 107.148 45.2511C107.881 45.0535 108.598 44.8013 109.293 44.4967C110.215 54.5551 109.847 57.6732 108.874 59.0311C107.734 60.1375 104.13 56.6003 103.024 55.4771C102.962 55.4102 102.881 55.3642 102.791 55.3458C102.702 55.3274 102.609 55.3374 102.526 55.3744C102.443 55.4114 102.373 55.4735 102.327 55.5521C102.281 55.6306 102.261 55.7217 102.269 55.8124C102.454 59.0478 103.091 61.4618 105.622 63.2891C97.9946 63.9875 90.4506 65.4076 83.0913 67.5304C73.8376 69.9779 84.5162 68.8715 103.543 51.152ZM44.8695 149.858C44.7354 148.567 44.8695 147.176 44.8695 144.594C44.8695 142.365 47.3841 142.163 47.5349 144.326C47.6691 146.17 47.7026 147.494 47.7529 149.355C47.8196 149.733 47.7334 150.122 47.5133 150.436C47.2933 150.751 46.9573 150.965 46.5794 151.032C46.2015 151.098 45.8126 151.012 45.4982 150.792C45.1838 150.572 44.9697 150.236 44.903 149.858H44.8695ZM48.8761 150.026C48.6414 148.701 48.6749 147.293 48.5073 144.577C48.3731 142.247 50.9883 141.945 51.2733 144.175C51.5248 146.136 51.6421 147.528 51.8098 149.355C51.8321 149.712 51.7271 150.065 51.5136 150.351C51.3001 150.638 50.9919 150.839 50.6438 150.919C50.2957 151 49.9304 150.954 49.6128 150.791C49.2952 150.627 49.046 150.356 48.9096 150.026H48.8761ZM52.9497 149.757C52.6479 148.433 52.5977 146.874 52.3127 144.242C52.1115 142.432 53.6035 141.778 54.5087 142.566C53.1509 143.924 53.6705 145.298 54.9781 145.298H55.3805C55.5649 146.421 55.6655 147.226 55.9169 148.986C55.9438 149.346 55.8438 149.703 55.6345 149.997C55.4252 150.29 55.1196 150.501 54.771 150.593C54.4224 150.684 54.0526 150.651 53.726 150.499C53.3994 150.346 53.1366 150.084 52.9832 149.757H52.9497ZM57.0569 149.154C56.7202 147.853 56.4682 146.531 56.3025 145.198C57.1407 145.198 58.18 145.08 59.2194 144.946C59.4038 145.801 59.89 148.165 59.89 148.165C59.9464 148.514 59.8785 148.872 59.6982 149.176C59.5178 149.48 59.2365 149.711 58.9032 149.828C58.5699 149.946 58.2058 149.943 57.8745 149.82C57.5432 149.697 57.2657 149.461 57.0904 149.154H57.0569ZM59.605 133.781C60.7006 134.765 61.7205 135.83 62.656 136.967C63.3964 138.957 63.6213 141.102 63.3098 143.203C62.4884 143.907 56.4869 144.376 54.9278 144.376C54.6596 144.376 54.5255 144.376 54.5087 144.142C54.5087 143.588 55.4811 142.096 59.035 141.208C59.1506 141.19 59.2544 141.127 59.3236 141.033C59.3927 140.938 59.4216 140.821 59.4038 140.705C59.386 140.589 59.323 140.486 59.2287 140.416C59.1344 140.347 59.0165 140.318 58.9009 140.336C54.3579 140.604 51.9606 139.196 51.3236 135.894C51.3185 135.833 51.3009 135.775 51.2719 135.722C51.2429 135.668 51.2031 135.622 51.1551 135.585C51.1071 135.548 51.052 135.522 50.9931 135.507C50.9343 135.493 50.8732 135.491 50.8135 135.501C50.7539 135.512 50.6971 135.535 50.6468 135.568C50.5965 135.602 50.5537 135.646 50.5213 135.697C50.4888 135.748 50.4674 135.805 50.4583 135.865C50.4493 135.925 50.4528 135.986 50.4686 136.045C50.6774 137.498 51.4122 138.825 52.5337 139.774C53.6552 140.722 55.0856 141.227 56.5539 141.191C56.082 141.402 55.6326 141.661 55.2128 141.962C54.9565 141.714 54.6427 141.533 54.2995 141.436C53.9563 141.338 53.5943 141.327 53.2457 141.403C52.8972 141.48 52.5729 141.641 52.3019 141.873C52.0309 142.105 51.8215 142.401 51.6924 142.733C51.4818 142.429 51.196 142.184 50.8627 142.022C50.5294 141.861 50.1599 141.788 49.7904 141.812C49.4208 141.836 49.0636 141.955 48.7535 142.157C48.4435 142.36 48.1912 142.639 48.0211 142.968C47.8123 142.625 47.5098 142.348 47.1491 142.17C46.7884 141.993 46.3845 141.922 45.9849 141.966C45.5853 142.01 45.2066 142.167 44.8932 142.419C44.5798 142.67 44.3447 143.006 44.2157 143.387C43.8858 139.092 43.8243 134.781 44.0313 130.479C48.3122 129.465 52.711 129.036 57.1072 129.205C57.1386 130.113 57.3843 131.001 57.8242 131.797C58.2641 132.592 58.8858 133.272 59.6385 133.781H59.605ZM40.36 130.999C40.1756 128.417 40.0079 125.969 39.8571 123.69C42.6902 120.085 57.8615 118.66 60.6946 121.091C60.7952 124.142 60.8958 126.925 60.9964 129.071C57.543 127.378 43.8301 128.568 40.3935 130.999H40.36ZM71.5241 242.16C66.8302 235.723 45.255 220.367 39.5553 219.428C42.0364 216.646 46.11 211.818 49.094 208.666C54.1407 211.057 58.8616 214.082 63.1422 217.668C59.0182 225.933 70.6021 233.477 71.5577 242.16H71.5241ZM125.169 207.157C125.42 195.657 124.263 169.824 123.761 165.247C123.753 165.18 123.731 165.116 123.697 165.058C123.662 165 123.615 164.95 123.559 164.912C93.0826 145.382 81.0125 141.493 79.1685 133.027C79.144 132.914 79.0756 132.815 78.9781 132.752C78.8806 132.689 78.7622 132.667 78.6488 132.692C78.5354 132.716 78.4364 132.785 78.3735 132.882C78.3107 132.98 78.2891 133.098 78.3135 133.211C79.3361 137.838 83.0745 141.107 90.5847 145.818C95.6342 156.233 100.111 166.917 103.996 177.82C103.728 185.532 102.068 187.594 69.1604 223.385C68.1714 219.848 60.9629 214.667 57.9118 212.606C54.559 210.326 47.8535 206.185 43.6792 206.52C47.032 203.033 73.0329 176.764 76.9221 172.791C76.9767 172.734 77.0161 172.664 77.0366 172.588C77.0571 172.512 77.0581 172.432 77.0395 172.355C74.7261 164.661 70.1495 147.763 67.6014 134.871C66.8112 130.906 66.307 126.889 66.0926 122.851C71.6918 118.962 82.7225 116.515 97.525 115.861C97.8938 124.712 100.392 125.701 106.477 129.272C128.371 142.214 133.567 145.282 137.792 151.551C140.86 156.111 140.424 163.068 141.715 205.833C138.01 205.548 128.069 204.894 125.118 207.157H125.169ZM164.648 226.117C158.831 222.463 132.796 217.735 127.667 219.495C128.454 215.606 129.611 214.03 130.03 206.638C135.303 206.227 140.606 206.464 145.822 207.342C145.755 217.048 161.479 218.138 164.598 226.117H164.648ZM145.688 147.746C149.56 153.529 150.197 159.33 152.075 208.817C150.013 206.939 145.369 206.252 142.519 205.967C141.212 163.051 141.681 155.91 138.429 151.082C133.819 144.259 127.901 141.023 103.577 126.606C99.7881 124.36 98.5476 121.913 98.3129 115.827L102.638 115.71C104.314 121.728 106.443 124.092 110.232 126.456C112.462 127.864 115.949 128.635 121.598 129.088C138.714 139.515 141.866 142.013 145.688 147.746ZM136.686 128.702C121.598 128.568 114.289 127.981 110.701 125.718C103.778 121.343 102.554 116.816 99.4529 88.1332C99.4348 88.0275 99.3822 87.9307 99.3034 87.8579C99.2246 87.7851 99.1239 87.7405 99.017 87.7309C98.9081 87.7343 98.8041 87.7768 98.724 87.8507C98.6439 87.9246 98.5932 88.0249 98.5811 88.1332C97.9609 95.7944 97.6759 103.372 97.4244 110.446C82.823 110.832 71.5409 113.078 65.8412 116.783C66.0602 104.824 67.0964 92.8935 68.9425 81.0756C68.9581 80.96 68.9271 80.843 68.8563 80.7502C68.7856 80.6575 68.6809 80.5967 68.5653 80.5811C68.4497 80.5655 68.3327 80.5965 68.2399 80.6673C68.1472 80.738 68.0863 80.8427 68.0708 80.9583C67.4002 85.9875 66.7967 90.6981 66.3944 95.0735C62.7597 97.9643 58.9711 100.656 55.0452 103.137C54.9564 103.193 54.8908 103.279 54.8603 103.379C54.8299 103.48 54.8367 103.588 54.8795 103.684C54.9223 103.779 54.9982 103.857 55.0933 103.901C55.1884 103.945 55.2963 103.954 55.3972 103.925C56.7048 103.573 58.5153 103.036 60.4264 102.483C60.4264 107.026 60.6108 113.933 60.812 120.035C56.8892 118.023 43.8636 119.23 39.9409 122.533C38.868 105.065 39.3206 96.2302 42.8746 90.9831C48.5073 82.5173 65.2041 73.1798 83.3427 68.3686C103.141 63.1382 114.054 62.6688 118.715 66.8598C121.967 69.7767 122.922 74.6383 123.911 105.249C123.375 105.249 122.922 105.115 122.57 105.098C122.513 105.092 122.455 105.096 122.4 105.112C122.344 105.128 122.293 105.155 122.247 105.19C122.202 105.226 122.165 105.271 122.137 105.321C122.109 105.371 122.091 105.427 122.084 105.484C122.078 105.541 122.082 105.599 122.098 105.655C122.114 105.71 122.14 105.762 122.176 105.807C122.212 105.852 122.256 105.89 122.307 105.918C122.357 105.946 122.413 105.963 122.47 105.97C124.146 106.154 131.64 107.043 138.094 107.848C141.732 111.418 141.447 124.612 136.686 128.702ZM147.565 128.702H138.01C142.167 124.092 142.654 112.558 139.452 107.982C143.106 108.451 146.291 108.87 147.632 109.105C151.421 112.692 151.974 124.427 147.565 128.736V128.702ZM155.511 129.222C155.326 129.5 155.045 129.7 154.721 129.783C154.397 129.867 154.054 129.828 153.758 129.674C153.461 129.521 153.231 129.263 153.112 128.951C152.994 128.638 152.994 128.293 153.114 127.981C153.55 126.858 154.019 125.735 154.338 125.098C155.226 123.27 157.288 124.025 156.651 126.053C156.45 126.959 155.796 128.585 155.511 129.255V129.222ZM160.071 126.824C159.803 127.964 159.518 129.138 159.183 130.177C158.68 131.854 156.165 130.982 156.702 129.021C156.903 128.3 157.339 126.925 157.674 125.936C158.328 124.025 160.574 124.762 160.071 126.858V126.824ZM163.424 127.696C163.277 128.824 163.07 129.943 162.804 131.049C162.704 131.391 162.472 131.68 162.159 131.851C161.846 132.023 161.478 132.063 161.136 131.963C160.793 131.863 160.505 131.631 160.333 131.318C160.162 131.005 160.122 130.637 160.222 130.295C160.44 129.339 160.759 128.048 161.044 126.942C161.597 124.997 163.726 125.651 163.441 127.78L163.424 127.696ZM166.777 128.216C166.746 129.278 166.64 130.337 166.458 131.384C166.157 132.843 163.81 132.373 163.927 131.116C163.927 130.546 164.279 128.551 164.463 127.579C164.832 125.668 166.844 126.238 166.777 128.249V128.216ZM178.059 123.472C176.656 122.052 174.995 120.914 173.164 120.119C173.063 120.074 172.948 120.07 172.844 120.107C172.74 120.143 172.653 120.218 172.602 120.316C172.551 120.414 172.539 120.528 172.569 120.635C172.598 120.741 172.667 120.832 172.762 120.89C173.717 121.393 177.422 123.203 177.791 124.628C177.836 124.89 177.819 125.159 177.74 125.412C177.661 125.666 177.524 125.897 177.338 126.087C176.751 126.891 175.947 127.244 171.42 124.092C171.325 124.025 171.207 123.999 171.092 124.02C170.977 124.04 170.875 124.105 170.809 124.201C170.742 124.296 170.716 124.415 170.736 124.529C170.757 124.644 170.822 124.746 170.918 124.813C172.252 125.818 173.705 126.657 175.243 127.311C175.139 127.683 174.952 128.027 174.697 128.318C174.442 128.608 174.124 128.837 173.767 128.987C172.359 129.423 170.415 127.73 169.426 127.042C169.328 126.978 169.208 126.955 169.094 126.978C168.979 127.002 168.878 127.07 168.814 127.168C168.749 127.266 168.726 127.385 168.75 127.5C168.773 127.615 168.842 127.715 168.939 127.78C169.718 128.383 170.529 128.943 171.37 129.456C170.649 130.932 169.208 130.697 167.565 130.278C167.565 129.607 167.665 128.937 167.682 128.266C167.783 125.701 165.352 124.779 164.162 126.238C164.056 125.924 163.872 125.642 163.627 125.419C163.382 125.197 163.085 125.04 162.762 124.965C162.44 124.889 162.104 124.897 161.785 124.988C161.467 125.079 161.177 125.249 160.943 125.483C160.851 125.144 160.672 124.836 160.423 124.587C160.174 124.339 159.865 124.161 159.526 124.069C159.187 123.978 158.83 123.976 158.49 124.066C158.151 124.155 157.84 124.332 157.59 124.578C157.02 122.902 154.673 122.583 153.617 124.746C153.332 125.316 152.93 126.238 152.561 127.21L149.996 126.891C152.005 122.082 152.112 116.69 150.298 111.804C151.497 112.004 152.705 112.139 153.919 112.206C154.572 112.234 155.218 112.071 155.78 111.737C158.395 110.262 159.619 108.384 160.809 108.719L162.15 109.122C160.792 110.798 159.451 112.709 157.724 115.224C155.998 117.738 160.172 119.717 165.218 114.05C166.973 114.852 168.889 115.236 170.817 115.173C175.98 117.856 178.612 119.985 178.83 121.711C178.841 122.049 178.778 122.384 178.645 122.694C178.511 123.004 178.311 123.281 178.059 123.505V123.472ZM179.367 120.488C178.579 118.811 176.332 117.135 172.342 114.888C172.961 114.778 173.563 114.592 174.136 114.335C174.225 114.279 174.291 114.193 174.321 114.093C174.352 113.992 174.345 113.884 174.302 113.789C174.259 113.693 174.183 113.616 174.088 113.571C173.993 113.527 173.885 113.519 173.784 113.547C172.404 114.051 170.934 114.261 169.468 114.166C168.002 114.071 166.572 113.672 165.268 112.994C165.179 112.949 165.077 112.936 164.979 112.958C164.881 112.979 164.794 113.033 164.732 113.112C160.809 117.671 157.339 117.168 158.412 115.593C160.116 112.979 161.992 110.481 164.028 108.116C164.564 107.512 165.821 107.63 167.38 107.781C172.275 108.25 171.538 107.999 175.276 104.847C179.061 107.819 182.281 111.447 184.781 115.559C183.423 116.816 180.859 119.096 179.367 120.521V120.488ZM192.509 113.782C190.414 115.458 188.436 117.135 186.793 118.409C186.458 114.486 177.355 103.757 173.197 102.886C174.723 101.595 176.869 99.8345 179.316 97.8563C184.949 98.4934 192.862 108.887 192.509 113.765V113.782ZM209.408 91.989C206.055 82.8694 201.411 69.3912 201.21 67.7148C200.875 64.2023 200.875 60.6659 201.21 57.1535C201.19 57.0504 201.135 56.9576 201.053 56.8908C200.972 56.8241 200.871 56.7876 200.766 56.7876C200.661 56.7876 200.559 56.8241 200.478 56.8908C200.397 56.9576 200.342 57.0504 200.321 57.1535C199.978 60.7271 199.978 64.3255 200.321 67.8992C200.472 69.1397 202.819 76.1638 205.351 83.4058C206.197 89.6152 206.528 95.8839 206.34 102.148C202.668 105.333 197.79 109.491 193.364 113.145C192.996 107.848 185.921 98.6275 180.188 97.2025C183.993 94.118 188.251 90.6646 192.074 87.3453C192.12 87.3064 192.158 87.2577 192.184 87.2027C192.21 87.1477 192.224 87.0877 192.224 87.0268C192.912 62.3335 192.761 58.7628 196.55 53.3816C199.617 49.023 206.088 46.676 207.58 45.2343C207.44 47.5576 207.592 49.8893 208.033 52.1746C208.06 52.2697 208.117 52.3535 208.195 52.4132C208.274 52.4729 208.37 52.5052 208.469 52.5052C208.568 52.5052 208.664 52.4729 208.742 52.4132C208.821 52.3535 208.878 52.2697 208.905 52.1746C209.047 51.4294 209.243 50.6955 209.491 49.9785C209.728 50.7916 210.049 51.5781 210.447 52.3255C210.061 56.0638 208.083 81.4277 208.083 83.2717C209.151 85.6309 210.514 87.8447 212.14 89.8599C212.181 89.9036 212.23 89.9384 212.285 89.9622C212.34 89.986 212.399 89.9983 212.459 89.9983C212.518 89.9983 212.577 89.986 212.632 89.9622C212.687 89.9384 212.736 89.9036 212.777 89.8599C213.531 89.0385 217.555 84.1099 217.471 83.389C216.918 79.2651 213.179 55.3262 212.442 52.3422C213.005 51.4455 213.503 50.5099 213.934 49.5427C214.596 50.465 215.336 51.3287 216.147 52.1243C216.188 52.1707 216.238 52.2078 216.294 52.2333C216.351 52.2587 216.412 52.2719 216.474 52.2719C216.535 52.2719 216.596 52.2587 216.653 52.2333C216.709 52.2078 216.76 52.1707 216.8 52.1243C219.645 48.4153 222.005 44.3594 223.825 40.0543C227.01 41.9151 227.529 41.7307 231.201 42.1498C249.557 44.3626 260.638 45.687 270.361 54.6892C275.759 59.7184 278.911 65.6193 283.202 85.1493C278.827 83.3723 266.438 85.9036 263.086 90.0779C259.733 75.8118 259.079 73.8671 257.134 72.4422C254.083 70.2126 252.105 69.3409 234.436 67.6645C234.336 67.6566 234.236 67.6837 234.153 67.7411C234.071 67.7985 234.011 67.8826 233.983 67.9793C233.955 68.076 233.962 68.1792 234.002 68.2715C234.042 68.3639 234.112 68.4396 234.201 68.4859C238.565 70.7456 242.756 73.323 246.741 76.1973C247.093 77.572 247.462 79.064 247.847 80.6062C240.018 89.072 218.209 94.688 209.408 91.9722V91.989Z" fill="#023551"/>
<path d="M273.262 110.815C273.16 110.807 273.063 110.765 272.988 110.696C272.913 110.626 272.864 110.533 272.848 110.432C272.832 110.331 272.852 110.228 272.902 110.139C272.953 110.05 273.033 109.981 273.128 109.943C275.223 109.289 282.113 107.546 284.259 107.177C284.317 107.161 284.378 107.158 284.438 107.167C284.498 107.176 284.555 107.197 284.607 107.23C284.658 107.262 284.701 107.305 284.735 107.355C284.769 107.406 284.792 107.462 284.802 107.522C284.813 107.582 284.811 107.643 284.796 107.702C284.782 107.76 284.755 107.816 284.718 107.864C284.681 107.912 284.635 107.951 284.582 107.98C284.529 108.009 284.47 108.027 284.41 108.032C280.621 108.703 273.429 110.815 273.262 110.815Z" fill="#023551"/>
<path d="M252.676 125.835L261.644 146.857L268.937 145.298L268.115 141.426L272.004 140.604L272.826 144.477L298.156 139.096L297.335 135.223L301.241 134.385L302.062 138.257L309.338 136.715L309.002 113.682C248.133 126.607 252.575 125.601 252.676 125.835Z" fill="#023551"/>
<path d="M318.072 151.752L310.209 114.872L310.561 137.252C310.564 137.393 310.517 137.531 310.428 137.642C310.339 137.752 310.214 137.828 310.075 137.855L302.297 139.515L303.135 143.505L299.246 144.343L298.391 140.336L273.06 145.717L273.915 149.724L270.009 150.562L269.171 146.556L261.393 148.232C261.257 148.262 261.116 148.243 260.993 148.179C260.87 148.114 260.774 148.008 260.722 147.88L252.005 127.193L259.867 164.074C259.879 164.13 259.902 164.183 259.935 164.231C259.967 164.278 260.009 164.319 260.057 164.35C260.106 164.381 260.16 164.402 260.216 164.412C260.273 164.423 260.331 164.422 260.387 164.409L317.787 152.205C317.876 152.17 317.952 152.107 318.003 152.025C318.054 151.944 318.078 151.848 318.072 151.752Z" fill="#023551"/>
<path d="M44.9031 149.858C44.769 148.567 44.9031 147.176 44.9031 144.594C44.9031 142.365 47.4177 142.163 47.5686 144.326C47.7027 146.17 47.7362 147.494 47.7865 149.355C47.8532 149.738 47.7653 150.131 47.5421 150.448C47.3188 150.766 46.9786 150.982 46.5963 151.048C46.2139 151.115 45.8207 151.027 45.5032 150.804C45.1857 150.581 44.9698 150.24 44.9031 149.858Z" fill="#4FBEFB"/>
<path d="M48.9099 150.026C48.6752 148.701 48.7088 147.293 48.5411 144.577C48.407 142.247 51.0222 141.946 51.3072 144.175C51.5586 146.136 51.676 147.528 51.8436 149.355C51.901 149.732 51.8137 150.116 51.5994 150.431C51.3851 150.746 51.0596 150.968 50.6882 151.053C50.3169 151.138 49.9271 151.079 49.5973 150.889C49.2674 150.698 49.0219 150.39 48.9099 150.026Z" fill="#4FBEFB"/>
<path d="M52.9836 149.757C52.6818 148.433 52.6315 146.874 52.3466 144.242C52.1454 142.432 53.6374 141.778 54.5426 142.566C53.1848 143.924 53.7044 145.298 55.012 145.298H55.4144C55.5988 146.421 55.6993 147.226 55.9508 148.986C56.0052 149.362 55.9192 149.745 55.7091 150.061C55.4991 150.377 55.1798 150.605 54.8124 150.7C54.445 150.796 54.0553 150.752 53.7178 150.578C53.3804 150.404 53.119 150.112 52.9836 149.757Z" fill="#4FBEFB"/>
<path d="M57.0906 149.154C56.7539 147.853 56.5019 146.531 56.3362 145.198C57.1744 145.198 58.2137 145.08 59.2531 144.946C59.4375 145.801 59.9237 148.165 59.9237 148.165C60.0088 148.528 59.9567 148.909 59.7773 149.236C59.5979 149.563 59.304 149.811 58.9521 149.934C58.6003 150.057 58.2154 150.045 57.8717 149.901C57.5279 149.757 57.2497 149.491 57.0906 149.154Z" fill="#4FBEFB"/>
<path d="M59.6385 133.781C60.7342 134.765 61.7541 135.83 62.6896 136.967C63.43 138.957 63.6549 141.102 63.3434 143.203C62.5219 143.907 56.5204 144.376 54.9614 144.376C54.6932 144.376 54.5591 144.376 54.5423 144.142C54.5423 143.588 55.5146 142.096 59.0686 141.208C59.1842 141.19 59.288 141.127 59.3571 141.033C59.4263 140.939 59.4552 140.821 59.4374 140.705C59.4196 140.589 59.3566 140.486 59.2623 140.416C59.168 140.347 59.05 140.318 58.9345 140.336C54.3914 140.604 51.9942 139.196 51.3571 135.894C51.352 135.833 51.3344 135.775 51.3054 135.722C51.2764 135.668 51.2366 135.622 51.1886 135.585C51.1407 135.548 51.0855 135.522 51.0267 135.507C50.9679 135.493 50.9067 135.491 50.8471 135.501C50.7875 135.512 50.7307 135.535 50.6804 135.568C50.63 135.602 50.5873 135.646 50.5548 135.697C50.5224 135.748 50.5009 135.805 50.4919 135.865C50.4828 135.925 50.4863 135.986 50.5022 136.045C50.7103 137.493 51.4402 138.815 52.5547 139.763C53.6691 140.71 55.0913 141.218 56.554 141.191C56.082 141.402 55.6327 141.661 55.2129 141.962C54.9565 141.714 54.6428 141.533 54.2995 141.436C53.9563 141.338 53.5943 141.327 53.2458 141.403C52.8972 141.48 52.573 141.641 52.3019 141.873C52.0309 142.105 51.8215 142.401 51.6924 142.733C51.4818 142.429 51.196 142.184 50.8627 142.022C50.5294 141.861 50.16 141.788 49.7904 141.812C49.4208 141.836 49.0636 141.955 48.7536 142.157C48.4435 142.36 48.1912 142.639 48.0211 142.968C47.8123 142.625 47.5098 142.348 47.1491 142.17C46.7884 141.993 46.3845 141.922 45.9849 141.966C45.5853 142.01 45.2066 142.167 44.8932 142.419C44.5798 142.67 44.3448 143.006 44.2157 143.387C43.8859 139.092 43.8243 134.781 44.0313 130.479C48.3122 129.465 52.711 129.036 57.1072 129.205C57.1386 130.113 57.3843 131.001 57.8242 131.797C58.2641 132.592 58.8858 133.272 59.6385 133.781Z" fill="#4FBEFB"/>
<path d="M83.108 67.5304C73.8376 69.9779 84.5162 68.8715 103.543 51.1521C103.609 51.0714 103.644 50.9708 103.644 50.8671C103.644 50.7633 103.609 50.6627 103.543 50.5821C101.414 47.2293 103.409 45.5529 104.465 47.7322C105.287 49.4086 107.248 49.4086 107.148 45.2511C107.881 45.0536 108.598 44.8014 109.293 44.4968C110.215 54.5551 109.847 57.6732 108.874 59.0311C107.734 60.1375 104.13 56.6003 103.024 55.4771C102.962 55.4102 102.881 55.3643 102.791 55.3459C102.702 55.3274 102.609 55.3374 102.526 55.3744C102.443 55.4114 102.373 55.4736 102.327 55.5521C102.281 55.6307 102.261 55.7217 102.269 55.8124C102.454 59.0479 103.091 61.4619 105.622 63.2891C98.0002 63.9886 90.4619 65.4087 83.108 67.5304Z" fill="#4FBEFB"/>
</svg>
