<svg width="19" height="19" viewBox="0 0 19 19" fill="none" xmlns="http://www.w3.org/2000/svg">
<path d="M9 18.8009C6.54 18.8009 6.25 18.7879 5.29 18.7459C4.54137 18.7213 3.80243 18.5691 3.105 18.2959C1.89831 17.8263 0.94414 16.8718 0.475 15.6649C0.212306 14.9649 0.0706179 14.2254 0.056 13.4779C0 12.5199 0 12.2059 0 9.76489C0 7.29789 0.013 7.00989 0.056 6.05489C0.0709376 5.30841 0.212621 4.5699 0.475 3.87089C0.943631 2.66242 1.89935 1.70706 3.108 1.23889C3.80664 0.975095 4.54535 0.833037 5.292 0.818893C6.247 0.764893 6.561 0.764893 9 0.764893C11.48 0.764893 11.765 0.777893 12.71 0.818893C13.4586 0.833159 14.1992 0.975202 14.9 1.23889C16.1083 1.7076 17.0638 2.66277 17.533 3.87089C17.8001 4.58009 17.9426 5.33014 17.954 6.08789C18.01 7.04589 18.01 7.35889 18.01 9.79889C18.01 12.2389 17.996 12.5589 17.954 13.5059C17.9391 14.2541 17.7971 14.9943 17.534 15.6949C17.0637 16.9026 16.1081 17.8575 14.9 18.3269C14.2002 18.5891 13.4611 18.7308 12.714 18.7459C11.759 18.8009 11.446 18.8009 9 18.8009ZM8.966 2.34789C6.52 2.34789 6.266 2.35989 5.311 2.40289C4.74098 2.41044 4.17648 2.51563 3.642 2.71389C2.85275 3.0159 2.22823 3.63788 1.923 4.42589C1.72321 4.96619 1.61801 5.53687 1.612 6.11289C1.559 7.08189 1.559 7.33589 1.559 9.76489C1.559 12.1649 1.568 12.4559 1.612 13.4189C1.62095 13.9891 1.7261 14.5537 1.923 15.0889C2.22868 15.8764 2.85309 16.4979 3.642 16.7999C4.17611 16.9995 4.74085 17.1047 5.311 17.1109C6.279 17.1669 6.534 17.1669 8.966 17.1669C11.419 17.1669 11.673 17.1549 12.62 17.1109C13.1904 17.104 13.7553 16.9987 14.29 16.7999C15.0745 16.4953 15.6949 15.8752 16 15.0909C16.1994 14.5501 16.3046 13.9792 16.311 13.4029H16.322C16.365 12.4469 16.365 12.1919 16.365 9.74889C16.365 7.30589 16.354 7.04889 16.311 6.09389C16.302 5.52434 16.1969 4.9604 16 4.42589C15.6956 3.64047 15.0751 3.01918 14.29 2.71389C13.7555 2.51463 13.1904 2.40941 12.62 2.40289C11.653 2.34789 11.4 2.34789 8.966 2.34789ZM9 14.3839C7.12999 14.3851 5.44342 13.2596 4.72686 11.5323C4.01031 9.80507 4.40491 7.81622 5.72663 6.49335C7.04836 5.17048 9.03686 4.77416 10.7648 5.48922C12.4927 6.20429 13.6196 7.88988 13.62 9.75989C13.6172 12.311 11.5511 14.3789 9 14.3839ZM9 6.75789C7.34315 6.75789 6 8.10104 6 9.75789C6 11.4147 7.34315 12.7579 9 12.7579C10.6569 12.7579 12 11.4147 12 9.75789C11.9962 8.10264 10.6553 6.76174 9 6.75789ZM13.8 6.0449C13.2054 6.04269 12.7249 5.55948 12.726 4.9649C12.7271 4.37032 13.2094 3.8889 13.804 3.8889C14.3986 3.8889 14.8809 4.37031 14.882 4.96489C14.8823 5.25175 14.7683 5.52692 14.5653 5.72957C14.3622 5.93223 14.0869 6.04569 13.8 6.0449Z" fill="#090809"/>
</svg>
