<svg width="280" height="260" viewBox="0 0 280 260" fill="none" xmlns="http://www.w3.org/2000/svg">
<path d="M86.0015 221.236L61.6302 225.324C55.5346 226.356 49.278 224.931 44.2336 221.363C39.1893 217.795 35.7693 212.376 34.7244 206.294L12.5043 69.5245L134.022 49.1708C134.086 49.1494 134.141 49.1055 134.175 49.0472C134.209 48.9889 134.221 48.9202 134.209 48.8538C134.196 48.7873 134.16 48.7277 134.107 48.6859C134.053 48.6442 133.987 48.6231 133.919 48.6267L12.4159 68.995L11.4139 62.8183C10.3719 56.73 11.795 50.4779 15.3705 45.4366C18.946 40.3953 24.3811 36.9777 30.4808 35.935L204.631 6.77226C207.654 6.24687 210.75 6.32243 213.743 6.99459C216.736 7.66674 219.566 8.92227 222.072 10.6891C224.577 12.4559 226.708 14.6992 228.343 17.2902C229.977 19.8813 231.083 22.769 231.596 25.7876L232.628 32.0967L149.332 46.053C149.257 46.053 149.186 46.0825 149.134 46.1349C149.081 46.1873 149.052 46.2584 149.052 46.3325C149.052 46.4066 149.081 46.4776 149.134 46.53C149.186 46.5825 149.257 46.6119 149.332 46.6119C149.479 46.6119 149.685 46.6119 232.672 32.6408L242.736 94.643L243.074 93.1723L232.068 25.6406C230.995 19.4215 227.491 13.8825 222.326 10.242C217.161 6.60147 210.759 5.15765 204.528 6.22813L30.3924 35.4203C24.1551 36.4885 18.5969 39.9821 14.9369 45.1348C11.2769 50.2875 9.8139 56.6787 10.8688 62.9066L34.1497 206.397C35.22 212.622 38.7203 218.17 43.883 221.823C49.0457 225.475 55.4492 226.936 61.6891 225.883L86.0604 221.794C86.1347 221.787 86.2028 221.75 86.2498 221.692C86.2968 221.634 86.3188 221.56 86.3109 221.486C86.3031 221.412 86.2661 221.344 86.2081 221.297C86.1501 221.25 86.0758 221.228 86.0015 221.236Z" fill="#053225"/>
<path d="M255.393 169.204L243.472 95.8196L243.133 97.2902L254.848 169.352C255.877 175.435 254.445 181.678 250.868 186.71C247.291 191.741 241.859 195.151 235.766 196.191L94.6951 219.765C94.6323 219.786 94.5791 219.829 94.5449 219.886C94.5107 219.942 94.4978 220.009 94.5084 220.075C94.519 220.14 94.5525 220.199 94.6028 220.242C94.6532 220.285 94.7172 220.309 94.7835 220.309L235.869 196.661C242.099 195.589 247.649 192.099 251.308 186.954C254.966 181.809 256.435 175.427 255.393 169.204Z" fill="#053225"/>
<path d="M235.177 127.762L242.544 95.29L221.518 96.0548L213.973 102.937C216.615 103.498 219.182 104.367 221.621 105.526C222.654 105.964 223.602 106.582 224.42 107.349C225.57 108.658 219.425 106.776 216.39 106.452C216.99 106.786 217.541 107.202 218.025 107.688C218.806 108.57 215.491 107.379 212.47 106.879C211.898 106.731 211.306 106.682 210.717 106.732C213.664 108.04 218.158 110.526 219.234 112.438C220.53 114.761 213.9 110.158 209.612 110.026C212.338 111.291 215.3 112.967 216.375 114.982C217.849 117.629 212.574 112.791 206.297 112.585C212.294 116.203 215.137 119.188 206.591 115.526C205.031 114.822 203.362 114.389 201.655 114.247L184.563 129.865C238.964 127.732 235.133 127.953 235.177 127.762Z" fill="#053225"/>
<path d="M248.777 72.51L236.326 127.232L267.564 94.2607L280 39.6118L248.777 72.51Z" fill="#053225"/>
<path d="M98.9829 157.998C96.1114 161.174 92.0962 163.086 87.816 163.315C83.5357 163.544 79.3389 162.071 76.144 159.219L48.5604 134.468C51.9302 125.609 58.4863 118.321 66.9495 114.026L85.2943 130.483C97.7452 99.0992 111.021 96.6579 115.294 93.0107C123.796 99.7021 127.907 102.202 139.047 104.276C136.277 131.541 137.735 163.204 133.433 181.161C132.412 185.386 130.356 189.292 127.451 192.529L107.824 214.353C99.1323 210.62 91.8922 204.168 87.1951 195.97L105.805 175.381L110.329 145.336C146.223 105.452 134.45 118.526 98.9829 157.998Z" fill="#FFDE59"/>
<path d="M224.877 107.07C224.013 106.272 223.015 105.63 221.93 105.173C218.011 103.246 217.156 103.202 177.446 93.5695L166.262 84.3045C166.601 82.9368 166.513 82.0544 165.982 81.7014C165.835 81.5985 166.601 82.2603 140.933 59.1565C140.432 55.5869 140.755 51.9502 141.876 48.5238C149.759 51.2886 151.822 44.3619 150.186 36.2146C150.587 35.9562 150.925 35.6119 151.175 35.2069C151.426 34.802 151.583 34.3463 151.635 33.8732C151.688 33.4001 151.634 32.9212 151.477 32.4715C151.321 32.0218 151.066 31.6125 150.732 31.2733C151.21 30.9709 151.599 30.548 151.861 30.0471C152.122 29.5463 152.246 28.9855 152.221 28.4213C152.196 27.8571 152.021 27.3096 151.716 26.8342C151.41 26.3589 150.984 25.9725 150.481 25.7142C150.832 25.2847 151.066 24.7719 151.16 24.2257C151.255 23.6794 151.206 23.1181 151.02 22.5961C150.833 22.074 150.514 21.6089 150.095 21.2457C149.675 20.8825 149.169 20.6335 148.625 20.5229C148.801 20.0162 148.846 19.4733 148.756 18.9445C148.667 18.4157 148.445 17.918 148.112 17.4973C147.778 17.0766 147.344 16.7466 146.849 16.5377C146.354 16.3288 145.814 16.2478 145.28 16.3022C145.281 15.768 145.149 15.2421 144.895 14.772C144.641 14.3019 144.273 13.9026 143.825 13.6104C143.377 13.3182 142.863 13.1423 142.33 13.0987C141.796 13.0552 141.261 13.1453 140.771 13.3609C140.613 12.8309 140.32 12.3506 139.922 11.9661C139.524 11.5815 139.033 11.3058 138.497 11.1655C137.962 11.0251 137.399 11.0248 136.862 11.1646C136.326 11.3045 135.835 11.5797 135.437 11.9638C135.111 11.4813 134.666 11.0909 134.145 10.8301C133.624 10.5694 133.045 10.4471 132.463 10.4752C131.881 10.5033 131.315 10.6808 130.822 10.9905C130.329 11.3002 129.924 11.7317 129.646 12.2432C128.991 11.7394 128.167 11.5058 127.345 11.5907C126.522 11.6755 125.764 12.0723 125.226 12.6991C125.102 12.08 124.833 11.4992 124.439 11.0049C124.046 10.5106 123.54 10.117 122.964 9.85672C122.388 9.59649 121.758 9.47712 121.126 9.50851C120.494 9.5399 119.879 9.72116 119.332 10.0372C118.96 9.35279 118.402 8.78718 117.722 8.40556C117.041 8.02394 116.267 7.84185 115.488 7.88028C114.709 7.9187 113.956 8.17608 113.317 8.62274C112.678 9.0694 112.179 9.68718 111.876 10.4049C111.208 10.0765 110.46 9.94426 109.719 10.0234C108.979 10.1026 108.276 10.3899 107.693 10.852C107.109 11.3141 106.669 11.9321 106.424 12.6339C106.178 13.3358 106.138 14.0927 106.306 14.8168C105.567 14.9637 104.885 15.3188 104.341 15.8401C103.797 16.3615 103.415 17.0273 103.238 17.7588C103.061 18.4904 103.098 19.2572 103.344 19.9685C103.59 20.6798 104.035 21.3059 104.626 21.7729C104.065 22.2829 103.664 22.9439 103.47 23.6765C103.277 24.409 103.3 25.1817 103.537 25.9014C103.774 26.6211 104.214 27.2571 104.805 27.7327C105.395 28.2084 106.111 28.5033 106.866 28.582C106.772 29.322 106.89 30.0736 107.207 30.7493C107.524 31.425 108.026 31.9971 108.656 32.3991C109.285 32.8012 110.016 33.0165 110.764 33.0203C111.511 33.0241 112.244 32.816 112.878 32.4203C113.142 32.9432 113.522 33.399 113.99 33.7533C114.457 34.1075 114.999 34.3507 115.574 34.4645C115.453 35.281 115.652 36.1128 116.129 36.7867C116.607 37.4606 117.326 37.9247 118.138 38.0823C117.968 38.5906 117.928 39.1334 118.022 39.6611C118.116 40.1888 118.342 40.6845 118.677 41.1029C119.013 41.5213 119.448 41.849 119.944 42.0561C120.439 42.2632 120.978 42.343 121.513 42.2883C121.513 42.8249 121.647 43.3529 121.904 43.8243C122.161 44.2958 122.531 44.6958 122.982 44.988C123.433 45.2802 123.95 45.4554 124.486 45.4976C125.022 45.5398 125.56 45.4477 126.051 45.2296C126.211 45.7605 126.507 46.2407 126.909 46.6234C127.311 47.006 127.806 47.2781 128.345 47.4129C128.884 47.5477 129.449 47.5408 129.984 47.3927C130.519 47.2445 131.007 46.9604 131.4 46.5679C132.111 47.3611 133.054 47.9114 134.096 48.1415C130.958 53.7299 125.167 58.7448 122.618 64.1126C115.987 78.069 118.566 82.7015 115.073 92.7753C109.504 96.7608 97.3917 99.8638 85.206 129.953L67.1853 113.879C67.1286 113.828 67.0551 113.8 66.979 113.8C66.9029 113.8 66.8295 113.828 66.7728 113.879C64.8527 114.852 63.0233 115.994 61.3061 117.291C52.0085 109.938 51.2717 109.732 43.7275 101.511C43.6972 101.476 43.6581 101.449 43.6141 101.433C43.5702 101.418 43.5229 101.414 43.477 101.423C28.1234 103.467 10.3679 108.732 2.73531 112.408C2.68329 112.426 2.63821 112.46 2.6063 112.505C2.57439 112.55 2.55725 112.603 2.55725 112.658C2.55725 112.713 2.57439 112.767 2.6063 112.812C2.63821 112.857 2.68329 112.89 2.73531 112.908C14.0005 117.194 26.0818 118.917 38.0988 117.953L50.756 129.306C49.8902 130.814 49.1224 132.376 48.4574 133.983C48.3855 134.147 48.3682 134.33 48.4079 134.504C48.4477 134.679 48.5425 134.836 48.6784 134.953L75.9378 159.395C79.1856 162.302 83.4559 163.804 87.8121 163.573C92.1683 163.341 96.2546 161.395 99.1746 158.16L109.96 146.174L105.54 175.234L87.2689 195.558C87.167 195.668 87.1033 195.807 87.0874 195.955C87.0714 196.104 87.1041 196.253 87.1805 196.382C88.1329 197.971 89.1707 199.508 90.2895 200.985C80.6529 212.75 73.4329 219.427 73.3592 219.838C71.7973 229.03 72.5488 249.957 75.4958 259.546C75.5112 259.596 75.5407 259.642 75.5809 259.676C75.6212 259.711 75.6704 259.733 75.7229 259.741C75.7754 259.749 75.829 259.741 75.8775 259.72C75.926 259.698 75.9673 259.663 75.9967 259.619C83.6588 246.913 86.429 239.03 90.5105 225.147L102.446 211.912C104.039 212.874 105.693 213.734 107.397 214.485C107.524 214.538 107.663 214.55 107.798 214.521C107.932 214.492 108.054 214.423 108.148 214.324L127.657 192.646C130.594 189.377 132.67 185.43 133.698 181.161C137.971 163.307 136.645 131.277 139.312 104.305L142.112 99.2608L145.825 102.393C146.4 102.908 147.888 102.232 148.698 101.423L159.396 109.541C161.867 111.343 164.778 112.45 167.824 112.747C168.163 112.747 201.906 113.791 206.473 115.776C208.09 116.617 209.831 117.193 211.631 117.482C212.058 117.482 212.132 117.32 212.205 117.203C212.618 116.394 209.671 114.261 207.402 112.908C212.618 113.526 216.243 116.688 216.935 115.85C217.171 115.6 216.935 115.158 216.758 114.776C215.365 112.861 213.496 111.34 211.336 110.364C214.578 111.114 218.202 113.305 219.322 113.305C219.779 113.305 220.059 112.952 219.646 112.232C218.541 110.261 215.226 108.408 212.353 107.085C214.636 107.467 217.082 108.173 217.981 108.173C218.615 108.173 218.747 107.776 218.394 107.364C218.195 107.145 217.978 106.943 217.746 106.761C220.015 107.158 223.08 107.952 224.288 107.952C225.142 107.996 225.26 107.511 224.877 107.07ZM165.039 81.5985C163.345 82.0103 160.884 84.7898 159.764 86.1428L159.219 85.6574C159.219 85.4957 159.867 83.5103 158.939 82.9221L143.187 68.7304C142.187 65.9073 141.476 62.9904 141.066 60.0242L165.039 81.5985ZM134.494 48.568C136.616 44.8619 137.736 40.2588 135.584 36.6852C135.569 36.6565 135.548 36.6313 135.523 36.611C135.498 36.5908 135.468 36.576 135.437 36.5675C131.694 35.3322 133.227 31.0085 135.717 32.6998C136.601 33.3174 137.765 33.891 138.03 32.8321C138.072 32.4051 138.259 32.0052 138.561 31.6997C138.865 32.1761 139.29 32.5639 139.792 32.8237C140.295 33.0835 140.857 33.2062 141.422 33.1793C141.988 33.1524 142.536 32.977 143.012 32.6707C143.487 32.3644 143.873 31.9381 144.13 31.435C144.701 31.8921 145.41 32.1413 146.142 32.1413C146.873 32.1413 147.583 31.8921 148.153 31.435C149.936 35.7587 151.468 44.3325 148.153 47.465C146.385 49.0974 143.556 48.9356 139.725 46.9503C139.548 46.8473 139.194 46.9502 139.43 47.4797C139.666 48.0091 139.946 48.5974 140.727 50.3033C140.257 52.4115 140.074 54.5731 140.182 56.73C137.971 59.833 133.669 56.4506 130.869 53.7887C132.207 52.1416 133.418 50.3964 134.494 48.568ZM39.1892 118.129C41.7524 114.073 44.8665 110.391 48.4427 107.188C52.3665 110.866 56.5097 114.303 60.8494 117.482C56.8887 120.563 53.5615 124.378 51.0507 128.718L39.1892 118.129ZM90.2895 224.589C86.2178 221.617 82.621 218.047 79.6215 214C83.6441 209.676 87.372 205.412 90.5989 201.485C93.7854 205.488 97.6142 208.937 101.93 211.691L90.2895 224.589ZM133.168 181.043C132.166 185.222 130.141 189.088 127.274 192.293L114.204 206.823C105.894 202.955 98.8347 196.842 93.8258 189.176C106.792 174.763 106.144 175.543 106.159 175.396L108.443 160.219L132.357 121.232C132.384 121.174 132.39 121.108 132.373 121.046C132.357 120.984 132.32 120.929 132.268 120.891C132.216 120.853 132.153 120.834 132.089 120.837C132.024 120.84 131.963 120.866 131.915 120.909L98.7767 157.675C95.9533 160.798 92.0045 162.678 87.7954 162.901C83.5863 163.124 79.4602 161.673 76.3209 158.866L54.9849 139.748C57.2381 135.611 59.941 131.734 63.0448 128.188C88.8602 148.586 87.1215 147.307 87.2689 147.307C87.4162 147.307 87.0184 147.895 112.569 110.438C116.064 109.488 119.342 107.869 122.22 105.673C122.27 105.625 122.301 105.561 122.307 105.492C122.312 105.423 122.292 105.354 122.25 105.3C122.208 105.245 122.147 105.207 122.078 105.195C122.01 105.182 121.94 105.195 121.881 105.232C116.508 109.218 109.931 111.252 103.241 110.997C103.167 110.997 103.096 111.026 103.043 111.078C102.991 111.131 102.961 111.202 102.961 111.276C102.961 111.35 102.991 111.421 103.043 111.474C103.096 111.526 103.167 111.555 103.241 111.555C106.103 111.617 108.96 111.31 111.743 110.644L87.1952 146.645L63.4132 127.835C66.2116 124.727 69.4185 122.011 72.9466 119.762L85.1323 130.674C85.1653 130.699 85.2039 130.717 85.2449 130.725C85.286 130.733 85.3284 130.731 85.3686 130.72C85.4089 130.708 85.4458 130.687 85.4764 130.659C85.5071 130.631 85.5305 130.595 85.5449 130.556C97.5095 100.79 109.297 97.5549 115.28 93.2901C123.428 99.6873 127.657 102.349 138.738 104.452C136.012 131.527 137.426 163.219 133.168 181.043ZM145.412 101.334L129.101 87.5399C129.049 87.4977 128.984 87.4753 128.918 87.4768C128.851 87.4782 128.787 87.5034 128.737 87.5477C128.688 87.592 128.655 87.6526 128.646 87.7186C128.637 87.7846 128.652 87.8516 128.688 87.9075C138.178 102.614 138.9 103.923 138.9 103.923C127.893 101.849 123.708 99.2167 115.619 92.8636C119.111 82.6721 116.517 78.2307 123.104 64.3626C124.739 60.9213 127.701 57.6565 130.471 54.2446C133.212 56.8476 137.544 60.2889 140.182 57.583C140.442 61.1236 141.15 64.6172 142.289 67.9804L132.637 59.333C132.372 59.083 132.004 59.4948 132.269 59.7448L158.025 82.8338C154.18 83.7897 145.162 96.9225 145.412 101.334ZM217.878 107.673C216.891 107.673 212.824 106.467 210.511 106.349C209.361 105.867 208.186 105.449 206.989 105.099C206.92 105.091 206.849 105.108 206.792 105.148C206.735 105.189 206.695 105.249 206.68 105.317C206.666 105.386 206.677 105.457 206.712 105.517C206.748 105.578 206.804 105.623 206.871 105.643C209.538 106.202 218.335 110.055 219.263 112.805C218.389 112.571 217.54 112.251 216.729 111.85C214.532 110.747 212.167 110.016 209.73 109.688C208.094 108.923 206.665 108.379 206.105 108.217C206.041 108.206 205.975 108.218 205.918 108.25C205.862 108.283 205.818 108.334 205.796 108.395C205.773 108.456 205.772 108.523 205.794 108.585C205.815 108.646 205.858 108.698 205.913 108.732C208.86 109.776 215.314 112.614 216.434 115.511C215.241 115.188 211.085 112.482 206.37 112.305L205.412 111.732C205.348 111.695 205.271 111.685 205.2 111.704C205.128 111.723 205.067 111.77 205.029 111.835C204.992 111.899 204.982 111.976 205.002 112.047C205.021 112.119 205.068 112.18 205.133 112.217C209.317 114.658 211.439 116.438 211.66 116.953C211.424 116.953 210.422 116.953 206.68 115.291C202.023 113.276 169.224 112.261 167.853 112.232C164.91 111.938 162.097 110.867 159.705 109.129L146.444 99.0255C148.065 94.3048 153.207 86.8487 156.758 84.2015L170.241 96.2313C170.388 96.3637 169.062 96.0402 208.227 103.732C210.968 104.452 216.169 105.893 217.878 107.673ZM216.611 106.085C213.975 104.822 211.214 103.837 208.374 103.143L170.55 95.7901L160.236 86.5986C161.263 85.2727 162.434 84.0644 163.728 82.9956L177.151 94.1136C177.151 94.1136 211.144 102.408 212.913 102.849C215.959 103.503 218.924 104.489 221.753 105.79C222.764 106.214 223.691 106.811 224.494 107.555C223.492 107.57 218.91 106.335 216.611 106.085Z" fill="#053225"/>
<path d="M175.265 33.4791C174.085 33.4771 172.93 33.1384 171.937 32.503C170.943 31.8675 170.152 30.9618 169.657 29.8925C169.162 28.8233 168.984 27.6351 169.144 26.4681C169.303 25.3011 169.794 24.2039 170.557 23.3059C171.321 22.4079 172.326 21.7466 173.453 21.3998C174.581 21.053 175.785 21.0353 176.922 21.3487C178.06 21.6621 179.084 22.2936 179.874 23.1687C180.664 24.0438 181.186 25.126 181.38 26.2878C181.528 27.1735 181.48 28.0806 181.241 28.9461C181.002 29.8116 180.576 30.6146 179.994 31.2992C179.412 31.9837 178.687 32.5334 177.871 32.9099C177.054 33.2864 176.165 33.4806 175.265 33.4791ZM170.845 24.126C170.323 24.856 169.989 25.7032 169.873 26.5926C169.757 27.482 169.863 28.3861 170.181 29.2251C170.499 30.064 171.019 30.8118 171.695 31.4023C172.371 31.9928 173.183 32.4077 174.059 32.6104C174.934 32.8132 175.846 32.7974 176.714 32.5645C177.581 32.3316 178.378 31.8888 179.034 31.2753C179.689 30.6617 180.183 29.8964 180.471 29.047C180.76 28.1976 180.834 27.2903 180.687 26.4055C180.507 25.3397 180.014 24.3515 179.27 23.5662C178.525 22.7808 177.565 22.2337 176.508 21.9942C175.452 21.7547 174.349 21.8337 173.338 22.2211C172.327 22.6085 171.454 23.2869 170.83 24.1701L170.845 24.126Z" fill="#053225"/>
<path d="M191.12 30.8614C189.94 30.8594 188.785 30.5207 187.791 29.8852C186.798 29.2498 186.007 28.344 185.512 27.2747C185.017 26.2055 184.839 25.0173 184.998 23.8503C185.158 22.6833 185.648 21.5861 186.412 20.6881C187.175 19.79 188.18 19.1287 189.308 18.7819C190.436 18.4351 191.639 18.4173 192.777 18.7308C193.914 19.0442 194.938 19.6757 195.728 20.5508C196.518 21.4259 197.041 22.5082 197.235 23.67C197.385 24.556 197.34 25.4642 197.101 26.3308C196.863 27.1974 196.437 28.0015 195.855 28.6866C195.272 29.3718 194.546 29.9215 193.728 30.2972C192.91 30.6729 192.02 30.8654 191.12 30.8614ZM186.699 21.5081C186.177 22.2382 185.844 23.0854 185.728 23.9748C185.612 24.8642 185.718 25.7683 186.035 26.6073C186.353 27.4462 186.873 28.194 187.55 28.7845C188.226 29.375 189.038 29.79 189.913 29.9927C190.789 30.1954 191.7 30.1796 192.568 29.9468C193.436 29.7139 194.233 29.2711 194.888 28.6575C195.544 28.044 196.038 27.2786 196.326 26.4292C196.615 25.5798 196.689 24.6725 196.542 23.7876C196.368 22.7185 195.88 21.7252 195.139 20.9342C194.397 20.1432 193.437 19.5902 192.38 19.3458C191.323 19.1013 190.217 19.1764 189.202 19.5615C188.188 19.9466 187.312 20.6242 186.685 21.5081H186.699Z" fill="#053225"/>
<path d="M213.355 21.0082C213.155 19.8031 212.601 18.6842 211.764 17.793C210.927 16.9018 209.845 16.2783 208.653 16.0013C207.461 15.7243 206.213 15.8062 205.068 16.2367C203.923 16.6672 202.931 17.427 202.218 18.42C201.505 19.413 201.104 20.5946 201.064 21.8154C201.024 23.0363 201.347 24.2415 201.994 25.2788C202.64 26.3161 203.58 27.1388 204.695 27.643C205.809 28.1472 207.049 28.3102 208.256 28.1114C209.059 27.9811 209.829 27.6938 210.52 27.2658C211.211 26.8378 211.811 26.2777 212.285 25.6176C212.759 24.9575 213.097 24.2105 213.281 23.4194C213.464 22.6284 213.489 21.8089 213.355 21.0082Z" fill="#053225"/>
<path d="M48.7225 13.2286L41.3551 8.05191L46.5417 0.772216C46.5684 0.713777 46.5741 0.647951 46.5579 0.585815C46.5416 0.523678 46.5044 0.469024 46.4525 0.431048C46.4006 0.393073 46.3372 0.374093 46.273 0.377303C46.2087 0.380513 46.1475 0.405717 46.0997 0.448674L40.913 7.8019L33.5456 2.62523C33.2509 2.40463 32.9268 2.86053 33.2214 3.08113L40.5889 8.24309L35.4022 15.5963C35.3728 15.6376 35.3552 15.6861 35.3513 15.7367C35.3474 15.7872 35.3573 15.8378 35.38 15.8831C35.4027 15.9285 35.4373 15.9668 35.4802 15.994C35.523 16.0212 35.5725 16.0362 35.6232 16.0375C35.8442 16.0375 35.5053 16.4052 41.0456 8.68428C48.7962 14.1845 48.4131 13.9198 48.5015 13.9198C48.5933 13.949 48.693 13.9407 48.7787 13.8965C48.8644 13.8524 48.9289 13.7761 48.9583 13.6845C48.9876 13.5928 48.9792 13.4933 48.935 13.4078C48.8908 13.3223 48.8143 13.2578 48.7225 13.2286Z" fill="#053225"/>
<path d="M221.405 185.383L214.038 180.207L219.224 172.927C219.251 172.868 219.257 172.803 219.24 172.74C219.224 172.678 219.187 172.624 219.135 172.586C219.083 172.548 219.02 172.529 218.956 172.532C218.891 172.535 218.83 172.56 218.782 172.603L213.596 179.957L206.228 174.78C205.934 174.559 205.609 175.015 205.904 175.236L213.271 180.398L208.085 187.751C208.055 187.792 208.038 187.841 208.034 187.891C208.03 187.942 208.04 187.992 208.063 188.038C208.085 188.083 208.12 188.121 208.163 188.149C208.206 188.176 208.255 188.191 208.306 188.192C208.527 188.192 208.188 188.56 213.728 180.839C221.479 186.339 221.096 186.074 221.184 186.074C221.276 186.104 221.376 186.095 221.461 186.051C221.547 186.007 221.612 185.931 221.641 185.839C221.67 185.747 221.662 185.648 221.618 185.562C221.573 185.477 221.497 185.412 221.405 185.383Z" fill="#053225"/>
<path d="M39.3807 151.101C39.1892 150.939 41.591 150.13 3.4867 162.469C3.44146 162.486 3.40134 162.514 3.37024 162.551C3.33915 162.588 3.31813 162.632 3.30923 162.679C3.30033 162.727 3.30386 162.775 3.31947 162.821C3.33507 162.867 3.36223 162.907 3.3983 162.939L13.5211 171.896L0.0829608 186.602C0.0566759 186.628 0.0358105 186.659 0.0215709 186.693C0.00733127 186.727 0 186.764 0 186.801C0 186.837 0.00733127 186.874 0.0215709 186.908C0.0358105 186.942 0.0566759 186.973 0.0829608 186.999C7.92189 193.882 7.45037 193.543 7.56825 193.543C7.68613 193.543 6.84624 194.47 21.2127 178.69L31.306 187.646C31.3424 187.678 31.3864 187.7 31.4338 187.709C31.4811 187.719 31.5301 187.716 31.5761 187.702C31.6221 187.687 31.6635 187.66 31.6962 187.625C31.7289 187.589 31.7519 187.546 31.7628 187.499C40.0438 148.983 39.5575 151.277 39.3807 151.101ZM20.9917 178.175L7.55351 192.882L0.657619 186.823C15.1272 170.925 14.1694 172.116 14.1547 171.852C14.14 171.587 14.7441 172.263 4.1203 162.851L25.8247 155.895L30.7756 186.499L21.3748 178.146C21.3192 178.101 21.2486 178.079 21.1774 178.085C21.1061 178.09 21.0397 178.122 20.9917 178.175Z" fill="#053225"/>
</svg>
