<svg width="152" height="80" viewBox="0 0 152 80" fill="none" xmlns="http://www.w3.org/2000/svg">
<g filter="url(#filter0_d_47_769)">
<rect x="16" y="8" width="112" height="32" rx="16" fill="#FF9A60"/>
<rect x="16" y="8" width="34" height="32" rx="16" fill="url(#paint0_linear_47_769)"/>
<path d="M34.7801 24.6667L32.3934 27.06L33.3334 28L37.3334 24L33.3334 20L32.3934 20.94L34.7801 23.3333H26.6667V24.6667H34.7801Z" fill="white"/>
<path d="M60.924 28V19.6H64.332C64.876 19.6 65.344 19.688 65.736 19.864C66.136 20.04 66.444 20.292 66.66 20.62C66.876 20.94 66.984 21.32 66.984 21.76C66.984 22.192 66.868 22.568 66.636 22.888C66.412 23.208 66.1 23.452 65.7 23.62C66.204 23.772 66.6 24.024 66.888 24.376C67.184 24.728 67.332 25.148 67.332 25.636C67.332 26.116 67.212 26.536 66.972 26.896C66.74 27.248 66.408 27.52 65.976 27.712C65.552 27.904 65.052 28 64.476 28H60.924ZM61.848 23.26H64.284C64.828 23.26 65.26 23.132 65.58 22.876C65.908 22.62 66.072 22.272 66.072 21.832C66.072 21.392 65.908 21.044 65.58 20.788C65.26 20.532 64.828 20.404 64.284 20.404H61.848V23.26ZM61.848 27.196H64.404C65.012 27.196 65.496 27.052 65.856 26.764C66.216 26.476 66.396 26.092 66.396 25.612C66.396 25.132 66.216 24.748 65.856 24.46C65.496 24.172 65.012 24.028 64.404 24.028H61.848V27.196ZM70.8295 28.12C70.3735 28.12 69.9695 28.024 69.6175 27.832C69.2655 27.632 68.9895 27.36 68.7895 27.016C68.5975 26.664 68.5015 26.256 68.5015 25.792V21.988H69.3775V25.612C69.3775 26.148 69.5295 26.572 69.8335 26.884C70.1375 27.188 70.5455 27.34 71.0575 27.34C71.4175 27.34 71.7375 27.26 72.0175 27.1C72.3055 26.932 72.5375 26.7 72.7135 26.404V21.988H73.6015V28H72.7135V27.304C72.2415 27.848 71.6135 28.12 70.8295 28.12ZM77.4755 28.12C76.9555 28.12 76.5555 27.996 76.2755 27.748C75.9955 27.5 75.8555 27.14 75.8555 26.668V22.744H74.5595V21.988H75.8555V20.464L76.7315 20.236V21.988H78.5435V22.744H76.7315V26.44C76.7315 26.76 76.8035 26.992 76.9475 27.136C77.0915 27.272 77.3275 27.34 77.6555 27.34C77.8235 27.34 77.9715 27.328 78.0995 27.304C78.2355 27.28 78.3795 27.24 78.5315 27.184V27.964C78.3795 28.02 78.2075 28.06 78.0155 28.084C77.8315 28.108 77.6515 28.12 77.4755 28.12ZM81.9755 28.12C81.4555 28.12 81.0555 27.996 80.7755 27.748C80.4955 27.5 80.3555 27.14 80.3555 26.668V22.744H79.0595V21.988H80.3555V20.464L81.2315 20.236V21.988H83.0435V22.744H81.2315V26.44C81.2315 26.76 81.3035 26.992 81.4475 27.136C81.5915 27.272 81.8275 27.34 82.1555 27.34C82.3235 27.34 82.4715 27.328 82.5995 27.304C82.7355 27.28 82.8795 27.24 83.0315 27.184V27.964C82.8795 28.02 82.7075 28.06 82.5155 28.084C82.3315 28.108 82.1515 28.12 81.9755 28.12ZM86.6731 28.12C86.1051 28.12 85.5851 27.984 85.1131 27.712C84.6491 27.432 84.2811 27.056 84.0091 26.584C83.7371 26.112 83.6011 25.584 83.6011 25C83.6011 24.416 83.7371 23.888 84.0091 23.416C84.2811 22.944 84.6491 22.572 85.1131 22.3C85.5851 22.02 86.1051 21.88 86.6731 21.88C87.2491 21.88 87.7691 22.02 88.2331 22.3C88.6971 22.572 89.0651 22.944 89.3371 23.416C89.6091 23.888 89.7451 24.416 89.7451 25C89.7451 25.584 89.6091 26.112 89.3371 26.584C89.0651 27.056 88.6971 27.432 88.2331 27.712C87.7691 27.984 87.2491 28.12 86.6731 28.12ZM86.6731 27.328C87.0811 27.328 87.4491 27.224 87.7771 27.016C88.1131 26.808 88.3771 26.528 88.5691 26.176C88.7691 25.824 88.8691 25.432 88.8691 25C88.8691 24.56 88.7691 24.168 88.5691 23.824C88.3771 23.472 88.1131 23.192 87.7771 22.984C87.4491 22.776 87.0811 22.672 86.6731 22.672C86.2651 22.672 85.8931 22.776 85.5571 22.984C85.2291 23.192 84.9651 23.472 84.7651 23.824C84.5731 24.168 84.4771 24.56 84.4771 25C84.4771 25.432 84.5731 25.824 84.7651 26.176C84.9651 26.528 85.2291 26.808 85.5571 27.016C85.8931 27.224 86.2651 27.328 86.6731 27.328ZM90.9787 28V21.988H91.8667V22.696C92.3387 22.144 92.9707 21.868 93.7627 21.868C94.2187 21.868 94.6187 21.968 94.9627 22.168C95.3147 22.36 95.5867 22.632 95.7787 22.984C95.9787 23.328 96.0787 23.732 96.0787 24.196V28H95.2027V24.376C95.2027 23.84 95.0507 23.42 94.7467 23.116C94.4507 22.804 94.0427 22.648 93.5227 22.648C93.1627 22.648 92.8427 22.728 92.5627 22.888C92.2827 23.048 92.0507 23.276 91.8667 23.572V28H90.9787Z" fill="white"/>
</g>
<defs>
<filter id="filter0_d_47_769" x="-8" y="0" width="160" height="80" filterUnits="userSpaceOnUse" color-interpolation-filters="sRGB">
<feFlood flood-opacity="0" result="BackgroundImageFix"/>
<feColorMatrix in="SourceAlpha" type="matrix" values="0 0 0 0 0 0 0 0 0 0 0 0 0 0 0 0 0 0 127 0" result="hardAlpha"/>
<feOffset dy="16"/>
<feGaussianBlur stdDeviation="12"/>
<feComposite in2="hardAlpha" operator="out"/>
<feColorMatrix type="matrix" values="0 0 0 0 0.954167 0 0 0 0 0.954167 0 0 0 0 0.954167 0 0 0 1 0"/>
<feBlend mode="normal" in2="BackgroundImageFix" result="effect1_dropShadow_47_769"/>
<feBlend mode="normal" in="SourceGraphic" in2="effect1_dropShadow_47_769" result="shape"/>
</filter>
<linearGradient id="paint0_linear_47_769" x1="16" y1="24" x2="45.5437" y2="11.8286" gradientUnits="userSpaceOnUse">
<stop stop-color="#8A3CFC"/>
<stop offset="1" stop-color="#FF9A60"/>
</linearGradient>
</defs>
</svg>
