<svg width="32" height="34" viewBox="0 0 32 34" fill="none" xmlns="http://www.w3.org/2000/svg">
<path d="M2.72996 33.9997C2.39752 34.0048 2.06702 33.9497 1.75546 33.8371L17.4527 18.6066L22.6487 23.6519L4.61074 33.4817C4.03936 33.8065 3.39208 33.9848 2.72996 33.9997ZM0.46133 32.7426C0.142237 32.1821 -0.0165657 31.549 0.0013668 30.909V3.1115C-0.00126736 2.68954 0.0645019 2.2698 0.196266 1.86766L16.2424 17.4346L0.455483 32.7464L0.46133 32.7426ZM24.1982 22.8032L18.6611 17.4365L24.7673 11.516L30.1913 14.4706C31.2325 14.9225 31.9292 15.8975 32 17.0017C31.9295 18.1071 31.2319 19.0831 30.1894 19.5348L24.1982 22.8032ZM17.4527 16.2569L1.19805 0.493379C1.64434 0.173301 2.18466 0.000383681 2.73971 0C3.39524 0.0225757 4.03476 0.202488 4.601 0.523624L23.2159 10.671L17.4546 16.2569H17.4527Z" fill="#090809"/>
</svg>
