<svg width="22" height="22" viewBox="0 0 22 22" fill="none" xmlns="http://www.w3.org/2000/svg">
<path d="M2.22467 21.4717C2.00859 21.4749 1.79376 21.4406 1.59125 21.3706L11.7944 11.8991L15.1719 15.0367L3.44718 21.1496C3.07578 21.3516 2.65505 21.4624 2.22467 21.4717ZM0.75006 20.6899C0.542649 20.3414 0.439428 19.9477 0.451084 19.5496V2.26309C0.449372 2.00068 0.492122 1.73966 0.577769 1.48957L11.0077 11.1703L0.746259 20.6923L0.75006 20.6899ZM16.179 14.5089L12.5799 11.1714L16.5489 7.48961L20.0746 9.327C20.7513 9.60806 21.2042 10.2144 21.2502 10.9011C21.2044 11.5885 20.751 12.1954 20.0733 12.4763L16.179 14.5089ZM11.7944 10.4379L1.22893 0.634945C1.51902 0.435897 1.87022 0.328364 2.23101 0.328125C2.6571 0.342164 3.07279 0.454047 3.44085 0.653754L15.5405 6.96414L11.7957 10.4379H11.7944Z" fill="#053225"/>
</svg>
