<svg width="215" height="276" viewBox="0 0 215 276" fill="none" xmlns="http://www.w3.org/2000/svg">
<path d="M192.442 254.779H177.062V249.711C177.062 249.639 177.034 249.569 176.982 249.518C176.931 249.467 176.862 249.438 176.79 249.438H169.188V217.01C172.23 216.399 175.014 214.875 177.168 212.641C180.036 212.73 182.874 212.042 185.383 210.652C187.892 209.261 189.98 207.219 191.425 204.741L191.444 204.678C191.458 204.61 191.445 204.538 191.408 204.478C191.251 204.282 191.862 204.353 181.292 204.353C181.414 203.57 181.476 202.777 181.476 201.984C181.476 201.911 181.448 201.841 181.397 201.789C181.346 201.737 181.276 201.708 181.203 201.707H151.089C151.017 201.707 150.947 201.736 150.896 201.787C150.844 201.838 150.815 201.907 150.815 201.98C150.815 202.775 150.876 203.568 150.999 204.353C140.956 204.353 141.317 204.336 141.166 204.353C141.105 204.366 141.05 204.4 141.011 204.449C140.973 204.498 140.952 204.559 140.954 204.622V204.655C140.957 204.672 140.961 204.688 140.966 204.703L140.976 204.732C142.411 207.194 144.48 209.225 146.968 210.615C149.455 212.004 152.27 212.701 155.118 212.632C157.272 214.867 160.056 216.391 163.099 217.003V249.431H155.451C155.378 249.431 155.309 249.46 155.258 249.511C155.207 249.562 155.178 249.631 155.178 249.704V254.77H136.795V247.723C136.795 247.651 136.766 247.582 136.715 247.531C136.664 247.48 136.595 247.451 136.523 247.45H80.6001C80.528 247.451 80.459 247.48 80.4082 247.531C80.3573 247.582 80.3288 247.651 80.3288 247.723V261.291H58.3051C57.8785 258.566 57.7567 257.584 57.6696 257.204C57.6145 256.963 57.5753 256.966 57.4795 256.913C53.3095 255.449 52.7364 254.122 52.6915 249.636C52.8271 247.959 53.3754 246.342 54.2875 244.929C55.1334 243.659 56.0373 242.43 56.9514 240.779C61.0372 240.702 68.8708 235.685 68.8693 224.205C68.8693 224.133 68.8406 224.063 68.7894 224.012C68.7383 223.961 68.6689 223.932 68.5966 223.932H60.8805C60.9197 222.957 60.9371 222.046 60.9371 221.015C60.924 220.89 61.0401 220.811 60.6222 220.761C59.6661 220.643 55.9125 220.669 41.4337 220.629C41.3613 220.629 41.292 220.657 41.2408 220.708C41.1896 220.76 41.1609 220.829 41.1609 220.901C41.1609 221.905 41.1827 222.933 41.2218 223.937H33.5072C33.4349 223.937 33.3655 223.965 33.3144 224.017C33.2632 224.068 33.2345 224.137 33.2345 224.209C33.2345 235.633 41.0884 240.654 45.2395 240.778C46.0912 242.316 46.9182 243.491 47.6582 244.668C48.6556 246.147 49.2621 247.854 49.4211 249.631C49.3195 253.895 48.9263 255.403 44.6475 256.908C44.5977 256.922 44.5531 256.951 44.5189 256.99C44.4847 257.029 44.4624 257.077 44.4545 257.128L43.8089 261.284H24.6827C24.6103 261.284 24.541 261.312 24.4898 261.364C24.4387 261.415 24.4099 261.484 24.4099 261.556V275.398C24.4099 275.471 24.4387 275.54 24.4898 275.591C24.541 275.642 24.6103 275.671 24.6827 275.671C24.755 275.671 24.8244 275.642 24.8756 275.591C24.9267 275.54 24.9555 275.471 24.9555 275.398V261.829H80.3302C80.3302 274.783 80.2896 275.355 80.3505 275.503C80.3745 275.561 80.4181 275.61 80.4739 275.64C80.5297 275.67 80.5941 275.679 80.6562 275.667C80.7183 275.655 80.7742 275.621 80.8142 275.572C80.8543 275.523 80.8761 275.462 80.8758 275.398V247.996H136.249C136.249 275.747 136.208 275.363 136.269 275.51L136.296 275.556C136.328 275.604 136.374 275.641 136.429 275.661C136.483 275.68 136.543 275.682 136.598 275.666C136.654 275.65 136.703 275.617 136.738 275.571C136.773 275.525 136.793 275.469 136.795 275.411V255.33H192.177V275.411C192.177 275.484 192.205 275.553 192.257 275.604C192.308 275.655 192.377 275.684 192.449 275.684C192.522 275.684 192.591 275.655 192.642 275.604C192.693 275.553 192.722 275.484 192.722 275.411V255.052C192.722 255.015 192.715 254.979 192.701 254.946C192.687 254.912 192.666 254.882 192.64 254.856C192.614 254.831 192.583 254.811 192.549 254.798C192.515 254.784 192.479 254.778 192.442 254.779ZM181.2 204.9H190.716C189.325 207.101 187.401 208.914 185.122 210.171C182.843 211.428 180.283 212.088 177.68 212.09C179.47 210.047 180.685 207.566 181.2 204.9ZM141.693 204.9H151.094C151.61 207.564 152.824 210.043 154.611 212.085C152.029 212.063 149.493 211.393 147.237 210.138C144.98 208.883 143.074 207.082 141.693 204.9ZM166.147 206.833C166.707 206.833 167.254 206.999 167.719 207.309C168.185 207.62 168.548 208.062 168.762 208.579C168.976 209.096 169.033 209.665 168.923 210.214C168.814 210.763 168.545 211.267 168.149 211.663C167.753 212.059 167.249 212.328 166.7 212.437C166.151 212.547 165.582 212.49 165.065 212.276C164.548 212.062 164.106 211.699 163.795 211.233C163.485 210.768 163.319 210.221 163.319 209.661C163.319 208.911 163.618 208.192 164.148 207.662C164.678 207.132 165.397 206.833 166.147 206.833ZM60.8558 224.485H68.318C68.2005 235.113 61.1867 239.917 57.2488 240.226C58.9348 236.995 60.496 232.343 60.8558 224.485ZM33.7829 224.485H41.2451C41.6238 232.364 43.2415 236.986 44.9362 240.216C40.9375 239.871 33.9033 235.064 33.7829 224.489V224.485ZM47.6016 235.341L48.8189 231.322L45.4731 228.783L49.6721 228.697L51.0504 224.73L52.4288 228.697L56.6365 228.783L53.2892 231.322L54.5051 235.341L51.0563 232.941L47.6016 235.341ZM44.3776 261.173L44.958 257.444H57.1458L57.7262 261.173H44.3776ZM155.732 249.979H176.518V254.768H155.732V249.979Z" fill="#2C1000"/>
<path d="M214.032 275.133C79.2841 275.133 2.45299 275.057 0.46957 275.179C-0.15433 275.217 -0.167389 275.598 0.495686 275.636C1.83635 275.713 171.62 275.677 214.032 275.677C214.104 275.677 214.173 275.648 214.224 275.597C214.275 275.546 214.304 275.477 214.304 275.405C214.304 275.333 214.275 275.263 214.224 275.212C214.173 275.161 214.104 275.133 214.032 275.133Z" fill="#2C1000"/>
<path d="M185.103 0.272806C185.103 0.200461 185.075 0.13108 185.024 0.0799249C184.972 0.0287696 184.903 3.05176e-05 184.831 3.05176e-05C184.758 3.05176e-05 184.689 0.0287696 184.638 0.0799249C184.587 0.13108 184.558 0.200461 184.558 0.272806V5.34236C162.595 -2.36934 140.419 13.3776 118.644 5.47149C118.471 5.41055 118.317 5.49035 118.303 5.73556C118.24 6.71784 118.278 11.9122 118.278 39.1563C118.278 39.2124 118.295 39.2672 118.327 39.3131C118.359 39.3591 118.405 39.394 118.458 39.4131C140.467 47.4063 162.729 31.552 184.558 39.3493V51.392C184.558 51.4643 184.587 51.5337 184.638 51.5849C184.689 51.636 184.758 51.6648 184.831 51.6648C184.903 51.6648 184.972 51.636 185.024 51.5849C185.075 51.5337 185.103 51.4643 185.103 51.392C185.103 47.1524 185.105 40.3417 185.103 0.272806ZM118.823 38.9648V6.1157C140.822 13.8376 162.752 -1.86441 184.551 5.91983V38.7689C162.644 31.0775 140.551 46.7258 118.823 38.9648Z" fill="#2C1000"/>
<path d="M184.558 89.1568V67.1592C184.558 67.0869 184.587 67.0175 184.638 66.9664C184.689 66.9152 184.758 66.8865 184.831 66.8865C184.903 66.8865 184.972 66.9152 185.024 66.9664C185.075 67.0175 185.103 67.0869 185.103 67.1592V89.1568C185.103 89.2292 185.075 89.2985 185.024 89.3497C184.972 89.4008 184.903 89.4296 184.831 89.4296C184.758 89.4296 184.689 89.4008 184.638 89.3497C184.587 89.2985 184.558 89.2292 184.558 89.1568Z" fill="#2C1000"/>
<path d="M121.785 123.133L115.753 217.162C108.805 220.019 101.03 220.131 94.0024 217.476L98.5714 155.956L112.267 142.918L85.7582 159.792C82.8438 161.647 79.3627 162.399 75.9427 161.913C72.5227 161.427 69.3889 159.735 67.1065 157.142L46.1101 133.306C49.8403 127.051 55.7322 122.379 62.6725 120.173L78.3222 138.676C78.3222 138.676 91.1601 121.5 100.231 116.894C105.089 121.917 117.071 125.947 121.785 123.133Z" fill="#B685FD"/>
<path d="M117.018 105.248L120.615 86.3188C120.629 86.2476 120.614 86.1739 120.573 86.1139C120.532 86.0539 120.47 86.0125 120.398 85.9989C120.327 85.9852 120.254 86.0004 120.194 86.0411C120.134 86.0817 120.092 86.1446 120.078 86.2158L116.543 104.821L103.786 86.593C103.742 86.5392 103.68 86.504 103.611 86.4944C103.543 86.4848 103.473 86.5015 103.416 86.5412C103.359 86.5809 103.32 86.6406 103.305 86.7084C103.291 86.7761 103.302 86.8469 103.338 86.9064L116.186 105.262C115.021 105.39 113.95 105.961 113.196 106.858C112.441 107.755 112.062 108.908 112.136 110.077C112.21 111.247 112.732 112.343 113.593 113.137C114.454 113.932 115.589 114.364 116.76 114.343C117.932 114.323 119.051 113.852 119.884 113.028C120.717 112.204 121.2 111.09 121.234 109.919C121.267 108.747 120.847 107.608 120.062 106.738C119.277 105.868 118.187 105.334 117.018 105.248Z" fill="#2C1000"/>
<path d="M160.207 137.093C159.197 137.093 158.209 136.794 157.369 136.233C156.529 135.672 155.874 134.874 155.487 133.941C155.101 133.008 154.999 131.981 155.196 130.99C155.393 129.999 155.879 129.089 156.594 128.375C157.308 127.66 158.218 127.174 159.209 126.976C160.199 126.779 161.226 126.88 162.16 127.267C163.093 127.653 163.891 128.308 164.452 129.148C165.013 129.988 165.313 130.975 165.313 131.985C165.311 133.339 164.773 134.637 163.816 135.595C162.858 136.552 161.561 137.091 160.207 137.093ZM160.207 127.425C159.305 127.425 158.422 127.692 157.672 128.193C156.922 128.694 156.337 129.407 155.991 130.24C155.646 131.074 155.555 131.991 155.731 132.876C155.907 133.761 156.342 134.574 156.98 135.212C157.618 135.851 158.431 136.285 159.316 136.461C160.201 136.637 161.118 136.546 161.952 136.201C162.785 135.856 163.498 135.271 163.999 134.52C164.5 133.77 164.767 132.888 164.767 131.985C164.766 130.776 164.285 129.617 163.43 128.762C162.575 127.908 161.416 127.427 160.207 127.425Z" fill="#2C1000"/>
<path d="M78.4905 39.4973H73.8156V34.818C73.8156 34.7461 73.787 34.677 73.7361 34.6262C73.6853 34.5753 73.6162 34.5467 73.5443 34.5467C73.4723 34.5467 73.4033 34.5753 73.3524 34.6262C73.3016 34.677 73.273 34.7461 73.273 34.818V39.4944H68.5937C68.5218 39.4944 68.4527 39.523 68.4019 39.5738C68.351 39.6247 68.3224 39.6937 68.3224 39.7657C68.3224 39.8376 68.351 39.9067 68.4019 39.9575C68.4527 40.0084 68.5218 40.037 68.5937 40.037H73.2701V44.7163C73.2701 44.7882 73.2987 44.8572 73.3495 44.9081C73.4004 44.959 73.4694 44.9876 73.5414 44.9876C73.6133 44.9876 73.6824 44.959 73.7332 44.9081C73.7841 44.8572 73.8127 44.7882 73.8127 44.7163V40.0399H78.492C78.5639 40.0397 78.6329 40.011 78.6836 39.9599C78.7344 39.9089 78.7628 39.8398 78.7626 39.7679C78.7624 39.6959 78.7336 39.627 78.6826 39.5762C78.6316 39.5255 78.5625 39.4971 78.4905 39.4973Z" fill="#2C1000"/>
<path d="M50.489 195.281L53.7361 188.054H47.944C47.8983 188.05 47.854 188.036 47.8147 188.013C47.7755 187.989 47.7424 187.956 47.7182 187.917C47.694 187.879 47.6793 187.834 47.6755 187.789C47.6716 187.743 47.6786 187.697 47.6959 187.655L51.1143 180.059C51.1443 179.994 51.199 179.943 51.2663 179.918C51.3337 179.892 51.4083 179.895 51.4739 179.924C51.5395 179.954 51.5908 180.008 51.6167 180.075C51.6425 180.142 51.6409 180.217 51.612 180.283L48.3662 187.51C54.6589 187.51 54.2585 187.45 54.3862 187.655C54.5138 187.859 54.6952 187.266 50.9866 195.511C50.956 195.577 50.9005 195.629 50.8322 195.654C50.7639 195.679 50.6884 195.676 50.6224 195.645C50.5564 195.614 50.5053 195.559 50.4803 195.491C50.4552 195.422 50.4584 195.347 50.489 195.281Z" fill="#2C1000"/>
<path d="M13.6238 107.736C20.5853 113.154 28.2591 117.589 36.4295 120.915C38.931 121.601 41.221 122.902 43.0907 124.7L47.9687 130.196C47.1751 131.212 46.0114 132.895 45.8591 133.198C45.8344 133.264 45.7445 133.222 45.92 133.461C46.4873 134.231 49.8056 137.905 66.9005 157.323C69.2176 159.979 72.4126 161.712 75.9021 162.208C79.3915 162.703 82.9428 161.927 85.9077 160.022L98.599 151.943C93.5076 220.452 93.6817 217.464 93.7761 217.627C95.09 218.165 96.4497 218.583 97.8387 218.877C98.0568 221.686 97.8118 224.512 97.1132 227.242C96.9318 227.808 96.7809 228.321 96.6504 228.78C95.5622 232.596 96.0366 233.263 97.1857 234.399C99.4536 236.871 100.774 240.065 100.913 243.417C101.03 244.653 101.602 245.803 102.518 246.641C103.434 247.48 104.629 247.948 105.871 247.955H124.752C124.769 247.955 124.79 247.993 124.807 247.99L124.856 247.974L124.906 247.95C124.943 247.924 124.973 247.889 124.994 247.85C125.015 247.81 125.026 247.765 125.026 247.72C124.595 246.585 123.964 245.535 123.163 244.621C122.035 243.3 120.645 242.226 119.082 241.466C117.519 240.707 115.817 240.278 114.08 240.207C112.469 233.104 112.049 225.782 112.838 218.541C113.89 218.231 114.918 217.846 115.914 217.387C116.106 217.242 115.755 221.506 122.062 123.183C124.843 114.042 128.343 110.858 128.829 104.28C133.275 102.035 139.522 98.7025 143.096 95.4538C143.433 95.0838 142.844 91.8265 142.758 91.4406C153.296 85.4713 163.47 78.8821 173.228 71.7079C178.477 67.86 182.209 67.7048 186.701 67.2739C186.858 67.2739 187.011 67.284 187.164 67.284C187.614 67.2538 188.041 67.0741 188.377 66.7733C188.713 66.4726 188.939 66.0681 189.019 65.6242C189.099 65.1802 189.028 64.7223 188.818 64.3232C188.608 63.9242 188.27 63.6068 187.859 63.4216C188.324 63.4115 188.772 63.2454 189.132 62.95C189.492 62.6545 189.742 62.2469 189.842 61.7924C189.943 61.338 189.887 60.863 189.686 60.4436C189.484 60.0242 189.147 59.6846 188.729 59.4795C189.12 59.3028 189.45 59.014 189.677 58.6498C189.903 58.2856 190.017 57.8623 190.003 57.4335C189.989 57.0047 189.848 56.5897 189.598 56.2411C189.348 55.8924 189 55.6258 188.599 55.4749C189.013 55.2317 189.334 54.8585 189.514 54.4134C189.694 53.9683 189.721 53.4763 189.592 53.014C189.463 52.5516 189.185 52.1449 188.801 51.8571C188.417 51.5692 187.948 51.4164 187.468 51.4225C187.468 51.4225 185.697 51.4225 185.125 51.4326C184.896 49.9236 184.034 49.6915 181.602 49.5188C178.164 49.3186 154.18 68.1125 133.806 78.7087C133.371 78.9988 124.476 84.2048 120.245 86.0344C118.593 86.7468 117.965 86.9224 117.255 86.6627C116.803 86.4789 116.413 86.1704 116.131 85.7732C115.848 85.3759 115.685 84.9064 115.659 84.4195C115.716 83.9714 115.831 83.5325 116 83.1137C121.521 83.7738 121.444 75.6646 119.513 70.5834C118.207 67.1288 115.478 62.7745 111.874 62.0229C111.063 61.8764 110.232 61.8915 109.428 62.0673C108.624 62.2431 107.862 62.5761 107.187 63.0473C107.732 61.8007 107.885 60.4182 107.627 59.0825C107.37 57.7468 106.713 56.5207 105.743 55.5663C105.224 54.8823 104.565 54.3159 103.811 53.9042C103.058 53.4925 102.225 53.2449 101.369 53.1775C100.512 53.1102 99.6515 53.2246 98.8425 53.5134C98.0334 53.8021 97.2946 54.2586 96.6744 54.853C96.0543 55.4473 95.5667 56.166 95.2439 56.962C94.921 57.758 94.77 58.6133 94.8009 59.4717C94.8318 60.3302 95.0438 61.1724 95.423 61.9431C95.8023 62.7139 96.3402 63.3957 97.0015 63.944C97.8737 64.9091 99.0069 65.6009 100.264 65.9357C101.521 66.2704 102.848 66.2338 104.085 65.8302C103.357 66.6253 102.811 67.5691 102.483 68.5962C102.156 69.6234 102.056 70.7094 102.19 71.779C102.904 76.5671 108.628 80.1465 109.79 80.8299C109.758 83.3937 109.355 85.8501 106.853 86.5843C106.346 86.7326 105.814 86.7751 105.289 86.7091C100.071 86.042 94.9406 84.8111 89.9877 83.0382C78.1046 78.9335 63.4052 72.3826 53.0905 67.6584C51.7484 67.0432 50.3062 65.3209 50.547 64.0615C50.9635 61.8996 52.22 57.9981 50.6355 57.6876C48.4766 57.2624 47.4856 62.5279 45.7488 63.7118C45.4122 63.9411 43.9946 63.117 43.1371 62.3131C43.1371 62.3131 38.6059 58.0503 38.3404 57.7906C36.7792 56.2671 35.6184 55.6954 35.07 56.1815C34.5433 56.6502 34.9249 57.8414 36.0987 59.3735C36.9999 60.5271 37.7976 61.7579 38.4825 63.0517C36.3062 61.5006 33.1272 59.2328 32.837 59.0123C31.8039 58.2259 29.9714 57.0143 29.3011 57.7398C28.6612 58.4319 29.8713 60.0004 30.6504 60.8738C32.2218 62.6352 34.1776 64.5795 35.3166 65.6895C34.1867 65.2319 33.0824 64.7137 32.0085 64.137C30.5431 63.3549 28.696 62.5787 28.2187 63.323C27.6804 64.1645 29.584 65.7431 30.427 66.3844C32.6034 68.0414 33.9092 69.0121 34.6956 69.5765C33.4528 69.3227 32.2321 68.9705 31.0451 68.5231C27.7544 67.2753 27.4366 67.9181 27.3321 68.1299C26.6067 69.5983 32.8849 72.4537 38.1779 75.5384C38.3911 75.6617 62.1052 88.8463 81.4533 96.1227C81.24 98.7779 81.8712 100.673 83.119 101.091C83.8183 101.33 89.3478 103.412 96.9492 105.667C98.3611 109.231 99.3577 112.946 99.9193 116.738C91.5445 121.13 79.9937 136.031 78.3106 138.239C61.8309 118.754 62.8988 119.896 62.6449 119.902C62.2401 119.986 60.7979 120.523 60.2973 120.725C48.0732 106.284 48.7102 106.979 48.5651 106.922L48.5288 106.912C38.4202 105.074 20.1878 104.145 13.676 107.277C13.6342 107.297 13.5981 107.327 13.5712 107.365C13.5442 107.402 13.5274 107.446 13.5221 107.492C13.5169 107.538 13.5235 107.585 13.5413 107.627C13.5591 107.67 13.5875 107.707 13.6238 107.736ZM57.1705 122.839L73.6691 142.332C76.7378 146.08 79.2537 145.98 82.0337 142.332C90.8365 130.809 97.7835 123.392 103.265 119.664C103.712 119.954 104.281 120.294 104.716 120.535C96.8274 125.999 87.5545 137.888 82.6837 144.555C82.1682 145.261 81.5002 145.841 80.7295 146.253C79.9587 146.665 79.1049 146.898 78.2317 146.935C77.3585 146.971 76.4883 146.81 75.6858 146.464C74.8833 146.118 74.1691 145.595 73.5965 144.935L55.3873 123.944C55.9696 123.553 56.564 123.184 57.1705 122.839ZM94.2897 217.287L98.8354 156.082L105.559 149.681L100.601 218.822C98.4513 218.523 96.3368 218.009 94.2897 217.287ZM124.331 247.41H105.867C105.843 247.41 105.823 247.366 105.803 247.369C104.711 247.355 103.664 246.938 102.86 246.199C102.057 245.459 101.555 244.45 101.45 243.363C101.262 240.28 100.182 237.318 98.3407 234.837C96.9202 233.131 95.9655 233.427 97.0435 229.392C97.8082 230.158 99.7582 231.653 100.282 232.278C102.056 234.674 103.093 237.536 103.264 240.512C103.372 241.622 103.85 242.663 104.621 243.469C105.391 244.275 106.41 244.799 107.513 244.958C108.329 245.077 106.312 245.042 122.822 245.042C123.43 245.759 123.938 246.556 124.331 247.41ZM115.491 216.979C110.966 218.889 106.011 219.55 101.144 218.893L106.147 149.122C111.244 144.269 112.386 143.223 112.49 143.076C112.521 143.035 112.539 142.987 112.543 142.936C112.547 142.885 112.537 142.834 112.513 142.789C112.49 142.743 112.454 142.705 112.41 142.679C112.367 142.653 112.316 142.64 112.265 142.641C112.12 142.641 113.269 141.953 85.6117 159.557C82.7564 161.392 79.337 162.138 75.9772 161.661C72.6173 161.183 69.5411 159.514 67.3096 156.957L46.4511 133.28C48.6663 129.75 51.5478 126.685 54.9347 124.256L73.1844 145.295C73.8106 146.017 74.5916 146.589 75.4693 146.968C76.347 147.347 77.2988 147.523 78.2539 147.483C79.209 147.443 80.1429 147.188 80.9859 146.737C81.829 146.287 82.5596 145.652 83.1233 144.88C88.0217 138.175 97.3845 126.173 105.254 120.831C109.058 122.919 113.288 124.113 117.622 124.322C118.944 124.36 120.258 124.112 121.476 123.596L115.491 216.979ZM187.184 66.7385C185.955 66.7385 184.514 66.4802 182.223 66.2248C179.932 65.9695 179.945 63.2678 182.113 63.3883C183.906 63.4623 185.112 63.5696 186.842 63.7104C189.006 63.8845 188.919 66.7327 187.184 66.7385ZM187.998 62.8732C186.711 62.9138 185.331 62.6962 182.857 62.4901C180.508 62.2972 180.391 59.539 182.647 59.539C184.131 59.539 186.501 59.6753 187.58 59.7305C189.845 59.8495 189.794 62.8166 187.998 62.8732ZM185.166 51.9782C185.716 51.9709 187.457 51.968 187.457 51.968C189.593 51.968 189.633 54.9293 187.939 55.0846C186.987 55.1483 186.033 55.1483 185.082 55.0846C185.163 54.0513 185.191 53.0144 185.166 51.9782ZM185.047 55.7114C185.43 55.7274 187.127 55.8289 187.645 55.842C189.955 55.9044 189.967 58.9339 188.134 59.034C186.878 59.1051 185.257 58.9107 182.902 58.7772C182.582 58.7949 182.265 58.706 182.001 58.5243C181.736 58.3426 181.54 58.0785 181.441 57.7732C181.375 57.5203 181.369 57.2554 181.423 56.9997C181.478 56.7441 181.593 56.505 181.758 56.3019C182.852 58.738 184.906 58.3332 184.989 56.7807L185.047 55.7114ZM181.553 50.0629C185.035 50.3067 184.793 50.2544 184.443 56.7561C184.385 57.8385 182.91 57.8994 182.112 55.723C181.858 54.9777 181.694 54.2046 181.624 53.4204C181.615 53.3495 181.579 53.2848 181.524 53.2403C181.468 53.1957 181.397 53.1748 181.326 53.182C181.255 53.1892 181.189 53.224 181.144 53.2789C181.098 53.3337 181.076 53.4044 181.081 53.4755C181.48 57.393 179.697 59.832 177.247 60.6112C177.178 60.6333 177.12 60.682 177.087 60.7465C177.054 60.811 177.048 60.886 177.07 60.9551C177.092 61.0241 177.14 61.0816 177.205 61.1148C177.269 61.148 177.344 61.1542 177.414 61.1321C178.186 60.8924 178.901 60.4938 179.51 59.9618C180.12 59.4299 180.612 58.7763 180.954 58.043C181.033 58.272 181.157 58.4828 181.319 58.6628C181.481 58.8428 181.677 58.9883 181.897 59.0906C181.485 59.2061 181.123 59.4542 180.866 59.7964C180.61 60.1387 180.473 60.556 180.478 60.9837C180.482 61.4114 180.628 61.8257 180.892 62.1623C181.156 62.4989 181.523 62.7391 181.938 62.8456C179.236 62.9022 179.255 66.4483 182.164 66.7718C182.812 66.8444 183.383 66.9169 183.895 66.9808C179.895 67.3385 176.08 68.8271 172.895 71.2726C163.198 78.4012 153.089 84.9524 142.622 90.8921C141.485 86.0433 138.581 81.7927 134.478 78.9713C154.522 68.4578 178.557 49.8061 181.553 50.0629ZM110.322 80.6776C110.3 78.4186 110.09 76.1653 109.696 73.9409C109.688 73.8916 109.667 73.8455 109.634 73.8074C109.602 73.7693 109.56 73.7407 109.513 73.7247C106.885 72.8454 107.968 69.8406 109.67 71.0202C110.54 71.6557 111.386 71.898 111.531 70.8301C112.361 65.9085 115.946 64.5911 118.29 69.1296L118.99 70.7822C120.283 74.4182 120.702 79.4312 118.934 81.5612C117.222 83.6244 114.12 81.9965 113.33 81.76C113.12 81.7251 112.809 81.8804 113.198 82.3708C113.477 82.7234 114.069 83.3357 115.099 84.5124C115.139 84.9929 115.286 85.4582 115.53 85.8739C115.774 86.2897 116.109 86.645 116.509 86.9137C113.653 87.8234 110.581 87.7893 107.746 86.8165C109.968 85.7036 110.301 83.1151 110.322 80.6776ZM31.0436 60.5096C29.7305 59.0369 29.5637 58.2462 29.6885 58.1112C29.7799 58.0111 30.5242 57.9473 32.4931 59.4461C32.8254 59.6986 39.8058 64.6811 39.9552 64.7855C39.471 65.3865 39.0403 66.0289 38.6683 66.7051C37.9554 66.5902 37.2549 66.4085 36.576 66.1625C36.1756 65.778 33.2345 62.9646 31.0436 60.5096ZM30.7534 65.9521C28.9427 64.5766 28.593 63.751 28.6757 63.6204C28.7366 63.5247 29.4737 63.4071 31.7488 64.6216C33.8217 65.8251 36.0681 66.7012 38.4085 67.2187C37.9889 68.0981 37.6631 69.0192 37.4364 69.9668C36.7704 69.9247 36.4527 69.871 35.9971 69.8115C35.5023 69.5562 31.9432 66.8531 30.7563 65.9521H30.7534ZM38.4434 75.0712C34.2067 72.6046 32.4467 71.8153 30.0425 70.3208C28.1302 69.1282 27.7993 68.4796 27.808 68.3853C27.808 68.3853 28.2433 68.053 30.8434 69.0396C32.9218 69.8184 35.0963 70.3114 37.3073 70.5051C37.2493 70.774 37.1956 71.0458 37.1462 71.3205C37.1333 71.3917 37.1493 71.4651 37.1905 71.5246C37.2317 71.584 37.2949 71.6246 37.3661 71.6375C37.4372 71.6504 37.5106 71.6345 37.5701 71.5933C37.6295 71.5521 37.6702 71.4889 37.6831 71.4177C38.0961 68.3926 39.5611 65.6094 41.8211 63.5566C41.8731 63.5062 41.9029 63.4372 41.904 63.3648C41.9051 63.2924 41.8774 63.2226 41.8269 63.1706C41.7765 63.1187 41.7076 63.0889 41.6352 63.0878C41.5628 63.0867 41.4929 63.1144 41.441 63.1648C41.0231 63.5682 40.6473 63.9657 40.3078 64.3618L39.3705 63.6886C38.6271 62.0231 37.6685 60.4621 36.5194 59.0456C35.3268 57.4917 35.2963 56.7067 35.4196 56.5965C35.5197 56.5094 36.238 56.5225 37.9457 58.1925C38.2141 58.4566 42.7497 62.7223 42.7497 62.7223C42.7729 62.7441 45.0915 64.8261 46.0433 64.1732C47.8004 62.9719 48.9844 57.9342 50.5166 58.2331C51.4002 58.4029 50.3018 62.3915 49.9971 63.9686C49.7069 65.4892 51.303 67.4509 52.854 68.1676C56.3537 69.7637 65.9719 74.1165 76.3692 78.372C80.8758 80.2191 85.7219 81.9994 89.9601 83.6186C90.7857 83.9334 91.266 85.1522 91.2921 86.9079C91.1292 90.7853 89.8632 94.5358 87.643 97.7187C72.8682 93.0105 47.9818 80.5804 38.4521 75.0712H38.4434ZM98.6149 108.649C99.5406 107.353 99.9672 106.799 100.146 106.52C100.324 106.242 100.247 106.085 100.072 106.011C94.9267 104.56 89.7396 102.894 84.6642 101.07C89.033 99.6195 93.5831 87.9627 91.1847 84.0162C95.7419 85.5489 100.438 86.6316 105.206 87.2488C105.778 87.3199 106.357 87.279 106.913 87.1284C110.906 88.4052 114.63 88.4342 117.169 87.2125C118.054 87.5027 118.871 87.2126 120.451 86.5364C125.063 84.3466 129.559 81.9208 133.922 79.2687C138.784 82.1169 142.58 89.0277 142.627 95.1332C139.164 98.244 133.217 101.44 128.86 103.649C128.915 102.185 128.847 100.719 128.658 99.2669C128.653 99.2313 128.642 99.1968 128.624 99.1656C128.607 99.1343 128.583 99.1069 128.555 99.0848C128.527 99.0627 128.494 99.0464 128.46 99.0368C128.425 99.0272 128.389 99.0246 128.353 99.0289C128.318 99.0333 128.283 99.0447 128.252 99.0624C128.221 99.08 128.193 99.1037 128.171 99.132C128.149 99.1603 128.133 99.1927 128.123 99.2273C128.114 99.2619 128.111 99.298 128.115 99.3336C129.36 109.49 124.933 111.899 121.554 122.949C116.457 125.861 104.686 121.063 100.476 116.761C100.037 114.018 99.4153 111.308 98.6149 108.649ZM62.5811 120.488C78.6864 139.532 78.0596 138.861 78.2395 138.935L78.2874 138.945H78.3149C78.3577 138.947 78.4001 138.938 78.4387 138.919C78.4773 138.901 78.511 138.874 78.5369 138.84C78.6661 138.671 91.2747 121.881 100.172 117.221C100.97 118.008 101.841 118.717 102.775 119.338C97.2728 123.138 90.3403 130.558 81.5999 142C78.9882 145.408 76.8814 145.388 74.0869 141.974L57.6566 122.569C59.2278 121.719 60.8768 121.023 62.5811 120.488ZM48.33 107.43L50.3004 109.759C38.8903 107.945 23.3769 107.473 17.3541 109.847C16.2819 109.087 15.2619 108.329 14.3158 107.587C20.8146 104.844 38.2751 105.616 48.33 107.43Z" fill="#2C1000"/>
<path d="M45.7255 73.5245C43.1138 71.9444 42.2911 69.3415 43.2676 65.7867C43.2771 65.7521 43.2798 65.716 43.2753 65.6804C43.2709 65.6448 43.2595 65.6104 43.2418 65.5792C43.2241 65.548 43.2004 65.5206 43.1721 65.4986C43.1438 65.4766 43.1114 65.4603 43.0768 65.4508C43.0422 65.4413 43.0061 65.4386 42.9705 65.4431C42.9349 65.4475 42.9005 65.4589 42.8694 65.4766C42.8382 65.4943 42.8108 65.518 42.7887 65.5463C42.7667 65.5746 42.7504 65.607 42.7409 65.6416C41.6919 69.4604 42.5958 72.2694 45.4426 73.9917C45.5045 74.0292 45.5788 74.0406 45.6492 74.0233C45.7195 74.006 45.7801 73.9615 45.8176 73.8996C45.8551 73.8376 45.8665 73.7633 45.8492 73.6929C45.832 73.6226 45.7874 73.562 45.7255 73.5245Z" fill="#2C1000"/>
</svg>
