<svg width="250" height="250" viewBox="0 0 250 250" fill="none" xmlns="http://www.w3.org/2000/svg">
<path d="M249.472 36.592C248.854 36.3782 248.092 37.3539 247.199 39.4791C246.808 40.3931 246.369 41.2855 245.885 42.1523C246.371 40.241 246.91 37.5678 247.094 36.592C247.278 35.6163 247.685 32.9698 246.713 32.7025C246.082 32.5287 245.399 33.5312 244.571 35.7099C243.744 37.8885 243.192 39.4524 242.548 40.789C242.811 39.038 243.231 36.298 243.625 33.9054C243.901 32.1812 243.915 30.2699 243.087 30.0694C242.259 29.8689 241.497 31.6599 241.037 33.2104C240.932 33.5713 239.723 37.2202 238.975 39.8935C238.975 38.7573 238.975 37.0732 238.975 35.0282C238.975 33.2639 238.699 31.3792 237.845 31.3124C236.991 31.2456 236.452 33.7317 236.321 34.7475C236.321 35.1485 235.23 41.9385 235.23 41.9385C235.104 42.7706 234.851 43.5778 234.481 44.331C234.192 44.8657 234.061 44.7988 233.864 44.7454C231.749 44.2508 227.991 39.7331 226.572 41.3103C226.31 41.6177 225.482 42.5266 229.975 47.9933C230.451 48.5746 230.745 49.2872 230.82 50.0398C230.895 50.7924 230.747 51.5505 230.395 52.217L228.504 55.7858C227.978 55.3046 227.453 54.8234 226.94 54.3155C226.917 54.2873 226.888 54.2647 226.855 54.2492C226.822 54.2337 226.786 54.2257 226.75 54.2257C226.713 54.2257 226.678 54.2337 226.645 54.2492C226.612 54.2647 226.583 54.2873 226.559 54.3155C225.942 55.2912 225.35 56.2269 224.786 57.1491L222.618 31.6599C222.462 29.287 221.39 27.0731 219.634 25.5026C217.879 23.9321 215.584 23.1328 213.25 23.2794L183.493 25.9526C183.74 24.2567 183.704 22.5306 183.388 20.8467C184.509 20.7796 185.606 20.4843 186.614 19.9785C187.621 19.4727 188.519 18.7666 189.254 17.9019C189.989 17.0372 190.546 16.0314 190.892 14.944C191.239 13.8565 191.367 12.7095 191.27 11.5707C190.482 2.21438 177.423 0.744111 174.822 9.94C172.582 8.94777 170.135 8.53722 167.701 8.74528C165.267 8.95332 162.922 9.77345 160.877 11.1319C158.832 12.4904 157.15 14.3446 155.984 16.528C154.818 18.7113 154.203 21.1553 154.195 23.6403C154.195 23.7873 154.195 26.7813 154.313 28.5189L136.839 30.0961C136.156 21.3547 128.431 14.7117 119.037 14.7117C114.152 14.6623 109.439 16.5512 105.899 19.978C104.236 21.5489 102.932 23.4736 102.083 25.615C101.233 27.7565 100.857 30.0622 100.983 32.368C101.108 34.6739 101.731 36.9234 102.808 38.9564C103.885 40.9893 105.389 42.756 107.213 44.1305C109.402 45.832 111.926 47.0349 114.612 47.6575C117.298 48.2802 120.084 48.3081 122.782 47.7394L127.091 98.3702C127.082 98.4075 127.082 98.4462 127.091 98.4836C127.099 98.5209 127.115 98.5559 127.139 98.5859C127.162 98.6159 127.192 98.6401 127.225 98.6568C127.259 98.6734 127.296 98.6821 127.334 98.6821C127.372 98.6821 127.409 98.6734 127.443 98.6568C127.477 98.6401 127.506 98.6159 127.53 98.5859C127.553 98.5559 127.569 98.5209 127.578 98.4836C127.586 98.4462 127.586 98.4075 127.577 98.3702L123.215 47.5924C125.511 47.082 127.691 46.1341 129.64 44.7988L137.023 47.6057C137.068 47.6272 137.117 47.6342 137.165 47.6257C137.214 47.6173 137.258 47.5939 137.293 47.5587C137.327 47.5236 137.35 47.4783 137.358 47.4293C137.367 47.3803 137.36 47.3298 137.339 47.2849L134.356 39.9068C136.147 37.162 137.03 33.908 136.879 30.6174L154.339 29.0803C154.747 35.5896 156.087 39.3989 158.281 40.4281C160.225 41.3236 162.432 39.9336 164.062 38.5435C164.512 39.6832 164.813 40.8788 164.955 42.0989C165.507 47.1245 162.682 49.9181 159.476 53.0324C155.338 57.0422 149.084 63.1238 146.338 74.1508C146.323 74.2164 146.333 74.2856 146.368 74.3433C146.402 74.4009 146.458 74.4423 146.522 74.4582C146.587 74.4742 146.655 74.4634 146.711 74.4283C146.768 74.3933 146.809 74.3367 146.824 74.2711C149.531 63.3777 155.719 57.3763 159.818 53.3932L160.803 52.4443C161.027 53.0324 161.276 53.6606 161.552 54.3021C161.953 55.263 162.592 56.1017 163.406 56.7366C164.221 57.3716 165.183 57.781 166.199 57.925C167.215 58.0691 168.251 57.9428 169.205 57.5585C170.159 57.1742 170.998 56.5451 171.642 55.7323C175.547 50.5991 180.036 45.9554 185.017 41.8984C195.672 41.9652 198.339 37.5277 215.431 74.4716L212.501 81.1547C212.49 81.2116 212.498 81.2709 212.524 81.3226C212.55 81.3743 212.593 81.4153 212.645 81.4387C212.697 81.4622 212.756 81.4667 212.811 81.4515C212.866 81.4363 212.915 81.4023 212.948 81.3552C216.724 72.1198 221.356 63.2716 226.782 54.9304C231.197 59.3469 236.611 62.592 242.548 64.3802C238.909 70.542 236.846 76.5835 232.681 85.3784C227.715 95.844 221.803 98.1697 217.73 98.29C211.424 98.5173 206.064 93.5317 202.937 87.9046C202.609 87.3031 199.534 82.0368 193.951 72.4266C195.264 69.5796 196.578 67.1871 197.432 65.7435C197.458 65.6873 197.463 65.6233 197.446 65.5636C197.429 65.504 197.39 65.4528 197.339 65.4199C197.287 65.3869 197.225 65.3744 197.165 65.3848C197.104 65.3952 197.05 65.4277 197.012 65.4762C194.515 69.486 189.129 81.2616 185.897 89.3481C178.789 94.5341 165.901 97.0871 160.856 92.7164C153.893 69.994 156.704 64.8346 159.424 59.8223L159.687 59.3412C159.707 59.284 159.707 59.2212 159.686 59.1642C159.665 59.1072 159.624 59.0598 159.572 59.0306C159.519 59.0014 159.458 58.9925 159.4 59.0053C159.341 59.0181 159.289 59.052 159.253 59.1006L158.99 59.5818C156.218 64.6742 153.354 69.9539 160.383 92.8768C158.925 98.4371 158.596 102.059 157.873 105.414L145.038 106.55C144.983 106.563 144.934 106.595 144.899 106.64C144.864 106.685 144.845 106.74 144.845 106.798C144.845 106.855 144.864 106.91 144.899 106.955C144.934 107 144.983 107.032 145.038 107.045L219.767 100.469C221.455 100.313 223.059 99.648 224.374 98.56C225.689 97.472 226.656 96.0099 227.15 94.3604C233.916 87.6773 236.859 74.7924 243.113 64.3267C243.133 64.2934 243.145 64.256 243.148 64.2172C243.151 64.1785 243.145 64.1396 243.131 64.1035C243.117 64.0673 243.095 64.0349 243.067 64.0087C243.039 63.9826 243.005 63.9633 242.969 63.9525C242.443 63.8099 241.918 63.6495 241.392 63.4713C247.212 50.2789 246.227 51.7626 248.762 43.5424C249.235 42.1256 250.812 37.0465 249.472 36.592ZM133.857 39.7331C133.857 39.9336 133.673 39.4658 136.669 46.8839C130.1 44.3577 129.771 44.2107 129.6 44.2107C127.659 45.5811 125.479 46.561 123.176 47.0978L122.611 40.5217C122.375 38.2878 123.018 36.0496 124.399 34.2964C125.78 32.5431 127.787 31.4175 129.981 31.1654L136.38 30.604C136.506 33.8416 135.624 37.037 133.857 39.7331ZM171.301 55.3714C170.708 56.1165 169.935 56.6925 169.058 57.0434C168.181 57.3942 167.23 57.5079 166.297 57.3732C165.364 57.2386 164.482 56.8603 163.735 56.2752C162.989 55.6901 162.404 54.9182 162.038 54.0348C161.736 53.313 161.473 52.6982 161.224 51.9764C161.592 51.6155 161.933 51.268 162.235 50.9205C163.535 49.6552 164.5 48.0772 165.042 46.3321C165.584 44.5871 165.685 42.7313 165.336 40.936C166.075 39.3245 166.52 37.59 166.65 35.8168C166.65 35.7655 166.635 35.7152 166.607 35.6727C166.579 35.6301 166.539 35.5973 166.492 35.5784C166.445 35.5596 166.393 35.5557 166.344 35.5673C166.295 35.5788 166.25 35.6052 166.216 35.643C157.532 45.5607 154.747 37.7415 154.733 24.4556C157.59 23.6683 160.526 23.2198 163.483 23.119C163.864 24.87 163.97 26.5407 164.797 26.6209C165.178 26.6209 165.559 26.3269 166.111 25.565C167.569 23.413 170.473 26.8214 166.86 29.4946C166.816 29.5417 166.792 29.6038 166.792 29.6684C166.792 29.7329 166.816 29.7951 166.86 29.8421C171.484 37.2336 175.478 41.5509 184.399 41.8717C179.55 45.8591 175.157 50.3873 171.301 55.3714ZM215.733 73.8167C197.813 35.1351 195.54 41.9385 183.427 41.2969C179.961 41.193 176.613 39.9923 173.849 37.8618C176.294 36.9923 178.468 35.479 180.151 33.4762C181.833 31.4734 182.964 29.0526 183.427 26.4605L213.303 23.7873C214.4 23.7149 215.5 23.8638 216.541 24.2254C217.581 24.5871 218.541 25.1544 219.365 25.8947C220.189 26.635 220.861 27.5337 221.343 28.5391C221.824 29.5446 222.106 30.637 222.171 31.7535L224.405 57.911C221.213 63.0373 218.318 68.3481 215.733 73.8167ZM186.16 89.856C191.96 92.1931 196.869 96.363 200.165 101.752L191.875 102.474C189.893 98.2354 186.991 94.5105 183.388 91.5802C184.351 91.0539 185.277 90.4599 186.16 89.8025V89.856ZM160.816 93.3045C163.113 94.8412 165.837 95.5819 168.581 95.4163C173.566 95.3082 178.463 94.0659 182.915 91.7807C186.478 94.6569 189.361 98.3113 191.349 102.474L158.412 105.374C159.016 102.514 159.555 98.2633 160.816 93.3045ZM219.832 99.9875L200.769 101.658C197.437 96.111 192.433 91.8073 186.501 89.3882C188.538 84.3759 191.336 78.0003 193.767 72.9479C199.784 83.32 202.346 87.6506 202.543 88.0783C208.074 98.0628 218.111 102.5 226.493 95.0955C225.929 96.4501 225.009 97.6205 223.834 98.4786C222.659 99.3368 221.275 99.8495 219.832 99.9608V99.9875ZM245.044 35.9371C245.898 33.5713 246.476 33.2639 246.595 33.2639C246.713 33.2639 247.068 34.1728 246.595 36.5787C246.166 39.052 245.596 41.4978 244.887 43.9033C244.768 44.0236 244.401 44.8256 243.573 45.9349C242.949 45.2898 242.272 44.6996 241.55 44.1706C242.86 41.4834 244.027 38.7259 245.044 35.9104V35.9371ZM241.51 33.4109C242.233 30.9783 242.824 30.5906 242.969 30.6307C243.113 30.6708 243.52 31.5263 243.139 33.8921C242.535 37.5544 241.826 42.032 241.826 42.5132C241.76 42.687 241.76 42.6469 241.182 43.8498C240.402 43.3252 239.575 42.8776 238.712 42.5132L241.51 33.4109ZM249.13 40.535C248.408 43.5023 247.816 45.0127 246.253 50.4794C245.622 52.7517 241.642 61.8273 240.998 63.3376C236.567 61.7342 232.472 59.2996 228.924 56.16L230.868 52.4977C231.267 51.7428 231.434 50.8842 231.35 50.0317C231.266 49.1792 230.933 48.3718 230.395 47.7126C227.282 43.9167 226.585 42.1122 226.98 41.6845C227.952 40.6152 231.749 44.8122 233.824 45.28C234.14 45.28 234.429 45.3602 234.797 44.8389C235.279 43.9741 235.604 43.0277 235.756 42.0454C235.756 42.0454 236.794 35.2554 236.846 34.8411C237.188 32.3416 237.713 31.8471 237.858 31.8471C238.002 31.8471 238.541 32.6357 238.528 35.0416C238.528 38.6905 238.528 41.1632 238.528 41.5108C238.528 41.8583 238.344 42.0855 238.265 42.3261C237.91 42.1791 237.543 42.0454 237.148 41.9251C237.118 41.9155 237.086 41.912 237.055 41.9148C237.023 41.9176 236.993 41.9268 236.965 41.9416C236.937 41.9565 236.912 41.9769 236.891 42.0016C236.871 42.0263 236.856 42.0548 236.846 42.0855C236.837 42.1162 236.833 42.1485 236.836 42.1806C236.839 42.2127 236.848 42.2439 236.862 42.2724C236.877 42.301 236.897 42.3263 236.921 42.347C236.946 42.3677 236.974 42.3833 237.004 42.3929C240.945 43.7295 243.113 45.7612 245.544 48.929C245.562 48.9592 245.586 48.9852 245.615 49.0053C245.644 49.0254 245.677 49.0391 245.711 49.0455C245.745 49.052 245.781 49.051 245.814 49.0427C245.848 49.0344 245.88 49.019 245.908 48.9973C245.936 48.9757 245.959 48.9484 245.975 48.9172C245.992 48.886 246.002 48.8516 246.005 48.8162C246.008 48.7807 246.003 48.7451 245.992 48.7116C245.98 48.6781 245.962 48.6474 245.938 48.6215C245.281 47.7661 244.624 46.9775 243.98 46.2691C245.465 44.2351 246.712 42.0328 247.698 39.7063C248.67 37.394 249.262 37.0331 249.38 37.0331C249.498 37.0331 249.761 38.1158 249.13 40.5083V40.535Z" fill="#0B0610"/>
<path d="M115.753 61.8005C115.616 60.0995 114.82 58.5235 113.542 57.4184C112.264 56.3132 110.606 55.7693 108.934 55.9061L102.234 56.4808C102.179 56.4939 102.13 56.5254 102.095 56.5703C102.06 56.6152 102.041 56.6708 102.041 56.7281C102.041 56.7854 102.06 56.841 102.095 56.8859C102.13 56.9308 102.179 56.9623 102.234 56.9754C102.365 56.9754 108.803 56.4407 108.908 56.414C109.674 56.3462 110.445 56.433 111.177 56.6693C111.91 56.9057 112.589 57.2869 113.176 57.7912C113.763 58.2955 114.247 58.9128 114.599 59.6077C114.951 60.3026 115.165 61.0615 115.227 61.8406L117.067 84.0818C117.08 84.1376 117.111 84.1874 117.155 84.223C117.199 84.2586 117.253 84.2779 117.31 84.2779C117.366 84.2779 117.421 84.2586 117.465 84.223C117.509 84.1874 117.54 84.1376 117.553 84.0818L115.753 61.8005Z" fill="#0B0610"/>
<path d="M115.635 108.555C115.004 109.183 113.138 109.264 112.245 109.33C112.179 109.33 112.115 109.357 112.068 109.405C112.022 109.452 111.995 109.517 111.995 109.584C111.995 109.652 112.022 109.716 112.068 109.764C112.115 109.812 112.179 109.838 112.245 109.838C113.335 109.745 115.188 109.691 115.963 108.916C115.993 108.869 116.007 108.813 116.002 108.756C115.997 108.7 115.974 108.648 115.936 108.606C115.899 108.565 115.849 108.537 115.794 108.528C115.739 108.519 115.683 108.528 115.635 108.555Z" fill="#0B0610"/>
<path d="M87.112 57.7774C77.6657 58.5793 48.2759 61.0788 48.1445 61.1055C47.3137 61.1763 46.5047 61.4129 45.7637 61.8019C45.0228 62.1909 44.3645 62.7246 43.8264 63.3726C43.2884 64.0205 42.8811 64.77 42.6279 65.5782C42.3746 66.3864 42.2804 67.2374 42.3507 68.0826L45.7403 109.063C45.8841 110.769 46.6867 112.347 47.9722 113.452C49.2577 114.557 50.9212 115.098 52.5983 114.958L66.0254 113.795C66.0577 113.793 66.0893 113.785 66.1183 113.77C66.1473 113.756 66.173 113.735 66.194 113.71C66.2149 113.685 66.2306 113.656 66.24 113.625C66.2494 113.593 66.2524 113.56 66.2488 113.527C66.2488 113.394 66.1174 113.26 65.986 113.3L52.5589 114.45C51.0121 114.583 49.4765 114.086 48.2893 113.069C47.102 112.052 46.3601 110.596 46.2264 109.023L42.8368 68.0425C42.772 67.263 42.859 66.4781 43.0928 65.7329C43.3266 64.9876 43.7026 64.2966 44.1993 63.6994C44.696 63.1022 45.3037 62.6105 45.9874 62.2526C46.6712 61.8947 47.4176 61.6775 48.184 61.6134L87.1514 58.2719C87.5061 58.2452 87.4141 57.7105 87.112 57.7774Z" fill="#0B0610"/>
<path d="M196.815 176.99L192.164 121.574C192.069 120.441 191.757 119.339 191.243 118.33C190.73 117.32 190.026 116.424 189.172 115.692C188.318 114.959 187.33 114.405 186.266 114.061C185.201 113.718 184.08 113.591 182.967 113.688L140.321 117.363C140.266 117.377 140.217 117.408 140.182 117.453C140.147 117.498 140.128 117.553 140.128 117.611C140.128 117.668 140.147 117.724 140.182 117.769C140.217 117.813 140.266 117.845 140.321 117.858L183.007 114.196C184.054 114.104 185.109 114.223 186.111 114.547C187.113 114.87 188.042 115.391 188.846 116.08C189.65 116.769 190.313 117.612 190.797 118.561C191.28 119.511 191.575 120.548 191.664 121.614L196.302 177.03C196.485 179.173 195.826 181.303 194.469 182.954C193.113 184.604 191.169 185.641 189.063 185.838C188.919 185.838 112.442 192.401 109.131 192.695C109.076 192.708 109.028 192.74 108.993 192.784C108.958 192.829 108.939 192.885 108.939 192.942C108.939 193 108.958 193.055 108.993 193.1C109.028 193.145 109.076 193.176 109.131 193.189L189.024 186.346C190.14 186.253 191.227 185.938 192.222 185.417C193.218 184.896 194.103 184.181 194.827 183.312C195.55 182.443 196.099 181.437 196.44 180.352C196.781 179.267 196.908 178.125 196.815 176.99Z" fill="#0B0610"/>
<path d="M111.536 120.344C111.469 120.344 111.406 120.317 111.359 120.27C111.312 120.222 111.286 120.158 111.286 120.09C111.286 120.023 111.312 119.958 111.359 119.911C111.406 119.863 111.469 119.836 111.536 119.836L124.805 118.687C124.871 118.687 124.935 118.713 124.981 118.761C125.028 118.809 125.055 118.873 125.055 118.941C125.055 119.008 125.028 119.073 124.981 119.12C124.935 119.168 124.871 119.195 124.805 119.195L111.536 120.344Z" fill="#0B0610"/>
<path d="M151.331 84.0284C156.468 78.3077 158.99 77.7998 162.918 75.0731C163.365 74.7657 163.299 73.7365 160.12 74.7924L158.806 75.1934C160.225 73.7766 162.813 71.7316 164.285 70.288C164.679 69.9004 164.469 68.9514 161.486 70.4751C160.83 70.8093 158.596 71.9588 157.545 72.587C158.464 71.4053 159.446 70.2764 160.488 69.2054C163.864 65.7168 163.51 64.3668 158.99 67.0801C155.16 69.6898 151.633 72.7346 148.48 76.1557C146.194 77.626 147.061 71.3974 146.824 69.887C146.496 67.8153 146.062 65.5297 144.433 71.0766C143.987 72.587 142.16 77.3052 138.731 85.7794C142.47 85.7951 146.14 86.8091 149.373 88.7199C150.083 86.7952 150.687 85.2714 151.147 83.9616L151.331 84.0284Z" fill="#B685FD"/>
<path d="M73.593 79.7111C73.593 74.4716 72.6602 76.3295 71.8325 78.027C71.2282 79.27 70.3348 84.8972 68.7582 82.9992C68.6268 82.7853 65.0139 75.5543 62.1104 72.3063C58.9178 68.7376 58.2609 69.8068 60.2579 73.7365C60.8661 74.949 61.4099 76.1938 61.887 77.4656C61.1644 76.6503 59.5353 75.0464 59.0623 74.5785C56.8814 72.4667 56.4347 73.2419 56.6843 73.6563C56.934 74.0706 60.1396 79.27 60.1265 79.3903L59.2594 78.7087C56.7632 76.9711 56.461 77.7998 56.7632 78.1874C59.3908 81.6091 61.4535 82.6918 64.3832 88.9872C64.5015 89.2813 64.6854 92.8768 64.738 93.6654C66.6913 92.9839 68.7717 92.7645 70.8209 93.0238C71.4349 90.4181 72.5221 87.952 74.0266 85.7526C73.7112 83.467 73.5799 81.1413 73.593 79.7111Z" fill="#B685FD"/>
<path d="M100.657 61.854C102.786 70.1811 103.048 73.3355 102.405 74.8726C101.761 76.4097 99.0677 74.8726 96.4401 72.8677C96.7291 74.2043 97.0313 75.4607 97.3466 76.4765C97.4273 76.9249 97.6467 77.3354 97.9729 77.648C98.2991 77.9605 98.7149 78.1589 99.1596 78.2141C96.4691 79.9616 93.2882 80.7601 90.1075 80.4864C88.5885 80.3917 87.1489 79.7633 86.0347 78.7087C87.585 77.8533 88.8463 78.174 92.4987 73.282C93.8125 71.5845 95.1263 70.1143 96.151 68.7108C93.5234 65.6767 95.6912 63.6718 97.1101 65.6901C97.8721 66.7727 98.9626 66.4653 98.3057 63.2173C99.1313 62.8418 99.9189 62.3852 100.657 61.854Z" fill="#B685FD"/>
<path d="M84.0377 87.4768C84.0542 87.7565 83.9896 88.0349 83.8519 88.2775C83.7143 88.5201 83.5096 88.7163 83.2634 88.8416C83.0171 88.9669 82.7401 89.0159 82.4667 88.9825C82.1933 88.9491 81.9356 88.8347 81.7255 88.6536C81.5155 88.4725 81.3623 88.2326 81.2851 87.9638C81.2078 87.6949 81.2099 87.4088 81.2911 87.1411C81.3722 86.8734 81.5288 86.6359 81.7415 86.4579C81.9542 86.28 82.2135 86.1695 82.4874 86.1402C82.6762 86.12 82.8672 86.139 83.0487 86.1959C83.2301 86.2528 83.3984 86.3466 83.5433 86.4715C83.6882 86.5964 83.8066 86.7499 83.8916 86.9227C83.9766 87.0955 84.0263 87.284 84.0377 87.4768Z" fill="#0B0610"/>
<path d="M74.0659 99.2925C74.0824 99.5721 74.0178 99.8506 73.8802 100.093C73.7425 100.336 73.5379 100.532 73.2916 100.657C73.0454 100.783 72.7684 100.832 72.495 100.798C72.2216 100.765 71.9639 100.65 71.7538 100.469C71.5437 100.288 71.3906 100.048 71.3133 99.7794C71.2361 99.5105 71.2382 99.2245 71.3193 98.9568C71.4005 98.6891 71.5571 98.4515 71.7698 98.2736C71.9824 98.0957 72.2418 97.9852 72.5156 97.9559C72.7042 97.9376 72.8944 97.9579 73.0751 98.0155C73.2558 98.0732 73.4233 98.1671 73.5678 98.2916C73.7123 98.4162 73.8308 98.5689 73.9163 98.7408C74.0019 98.9127 74.0527 99.1003 74.0659 99.2925Z" fill="#0B0610"/>
<path d="M79.978 114.864C80.0164 115.242 79.9057 115.619 79.6704 115.914C79.4351 116.208 79.0944 116.396 78.7234 116.435C78.3523 116.474 77.9811 116.361 77.6916 116.122C77.4021 115.882 77.218 115.536 77.1796 115.158C77.1413 114.781 77.252 114.403 77.4873 114.108C77.7226 113.814 78.0632 113.627 78.4343 113.588C78.8054 113.549 79.1765 113.661 79.466 113.901C79.7555 114.14 79.9397 114.486 79.978 114.864Z" fill="#0B0610"/>
<path d="M67.0107 96.6059C67.0491 96.9835 66.9384 97.361 66.7031 97.6556C66.4678 97.9501 66.1272 98.1375 65.7561 98.1765C65.385 98.2155 65.0139 98.1029 64.7243 97.8635C64.4348 97.6241 64.2507 97.2775 64.2123 96.9C64.174 96.5225 64.2847 96.1449 64.52 95.8504C64.7553 95.5558 65.0959 95.3685 65.467 95.3295C65.8381 95.2905 66.2092 95.4031 66.4987 95.6424C66.7882 95.8818 66.9724 96.2284 67.0107 96.6059Z" fill="#0B0610"/>
<path d="M95.9013 93.0772C95.9207 93.3605 95.8576 93.6433 95.7199 93.8902C95.5821 94.1371 95.3758 94.3372 95.1268 94.4655C94.8778 94.5938 94.5972 94.6445 94.32 94.6113C94.0428 94.5781 93.7814 94.4625 93.5685 94.2789C93.3556 94.0953 93.2006 93.852 93.123 93.5792C93.0453 93.3065 93.0485 93.0166 93.132 92.7456C93.2155 92.4747 93.3757 92.2349 93.5925 92.0561C93.8094 91.8773 94.0732 91.7676 94.351 91.7406C94.5396 91.7223 94.7298 91.7426 94.9105 91.8003C95.0912 91.8579 95.2587 91.9518 95.4032 92.0764C95.5477 92.2009 95.6662 92.3537 95.7518 92.5256C95.8373 92.6975 95.8882 92.885 95.9013 93.0772Z" fill="#0B0610"/>
<path d="M87.782 104.639C87.7985 104.919 87.7339 105.197 87.5963 105.44C87.4586 105.682 87.254 105.878 87.0077 106.004C86.7614 106.129 86.4844 106.178 86.211 106.145C85.9377 106.111 85.6799 105.997 85.4699 105.816C85.2598 105.635 85.1066 105.395 85.0294 105.126C84.9522 104.857 84.9542 104.571 85.0354 104.303C85.1165 104.036 85.2731 103.798 85.4858 103.62C85.6985 103.442 85.9578 103.332 86.2317 103.302C86.4206 103.282 86.6115 103.301 86.793 103.358C86.9745 103.415 87.1427 103.509 87.2876 103.634C87.4325 103.759 87.551 103.912 87.636 104.085C87.7209 104.258 87.7706 104.446 87.782 104.639Z" fill="#0B0610"/>
<path d="M102.378 110.012C102.398 110.295 102.335 110.578 102.197 110.825C102.059 111.072 101.853 111.272 101.604 111.4C101.355 111.529 101.074 111.579 100.797 111.546C100.52 111.513 100.258 111.397 100.045 111.214C99.8326 111.03 99.6776 110.787 99.6 110.514C99.5223 110.241 99.5255 109.951 99.609 109.681C99.6925 109.41 99.8527 109.17 100.07 108.991C100.286 108.812 100.55 108.703 100.828 108.676C101.017 108.657 101.207 108.678 101.387 108.735C101.568 108.793 101.736 108.887 101.88 109.011C102.025 109.136 102.143 109.289 102.229 109.46C102.314 109.632 102.365 109.82 102.378 110.012Z" fill="#0B0610"/>
<path d="M108.422 85.4051C108.454 85.6897 108.403 85.9777 108.274 86.2324C108.145 86.4872 107.945 86.6971 107.698 86.8356C107.452 86.974 107.17 87.0347 106.889 87.0099C106.609 86.985 106.342 86.8758 106.123 86.6962C105.903 86.5165 105.741 86.2745 105.658 86.0009C105.574 85.7274 105.572 85.4347 105.652 85.1601C105.733 84.8855 105.892 84.6414 106.109 84.4589C106.326 84.2764 106.591 84.1638 106.872 84.1353C107.242 84.0977 107.612 84.2098 107.902 84.4473C108.192 84.6849 108.379 85.0289 108.422 85.4051Z" fill="#0B0610"/>
<path d="M121.481 109.411C121.501 109.694 121.437 109.977 121.3 110.224C121.162 110.471 120.956 110.671 120.707 110.799C120.458 110.927 120.177 110.978 119.9 110.945C119.623 110.912 119.361 110.796 119.148 110.612C118.935 110.429 118.78 110.185 118.703 109.913C118.625 109.64 118.628 109.35 118.712 109.079C118.795 108.808 118.955 108.568 119.172 108.39C119.389 108.211 119.653 108.101 119.931 108.074C120.119 108.056 120.31 108.076 120.49 108.134C120.671 108.191 120.839 108.285 120.983 108.41C121.127 108.534 121.246 108.687 121.332 108.859C121.417 109.031 121.468 109.218 121.481 109.411Z" fill="#0B0610"/>
<path d="M121.218 93.251C121.235 93.5306 121.17 93.809 121.033 94.0516C120.895 94.2942 120.69 94.4904 120.444 94.6157C120.198 94.7411 119.921 94.7901 119.647 94.7567C119.374 94.7232 119.116 94.6089 118.906 94.4278C118.696 94.2467 118.543 94.0068 118.466 93.7379C118.389 93.469 118.391 93.183 118.472 92.9153C118.553 92.6476 118.709 92.41 118.922 92.2321C119.135 92.0541 119.394 91.9437 119.668 91.9144C119.857 91.8961 120.047 91.9163 120.227 91.974C120.408 92.0317 120.576 92.1255 120.72 92.2501C120.865 92.3747 120.983 92.5274 121.069 92.6993C121.154 92.8712 121.205 93.0588 121.218 93.251Z" fill="#0B0610"/>
<path d="M136.774 112.418C136.796 112.611 136.778 112.806 136.723 112.991C136.668 113.176 136.576 113.348 136.453 113.496C136.33 113.644 136.178 113.765 136.007 113.85C135.836 113.936 135.65 113.986 135.46 113.995C135.089 114.034 134.718 113.922 134.428 113.682C134.139 113.443 133.955 113.096 133.916 112.719C133.878 112.341 133.989 111.964 134.224 111.669C134.459 111.375 134.8 111.187 135.171 111.148C135.359 111.118 135.551 111.128 135.735 111.176C135.92 111.225 136.092 111.311 136.243 111.43C136.393 111.549 136.517 111.698 136.609 111.868C136.7 112.038 136.756 112.225 136.774 112.418Z" fill="#0B0610"/>
<path d="M138.508 97.3143C138.526 97.5061 138.506 97.6997 138.449 97.8835C138.393 98.0673 138.3 98.2378 138.178 98.3848C138.055 98.5318 137.905 98.6523 137.736 98.7394C137.567 98.8264 137.383 98.8781 137.194 98.8915C136.919 98.9083 136.646 98.8426 136.407 98.7026C136.169 98.5625 135.976 98.3543 135.853 98.1038C135.729 97.8533 135.681 97.5715 135.714 97.2933C135.747 97.0152 135.859 96.753 136.037 96.5393C136.215 96.3256 136.451 96.1698 136.716 96.0912C136.98 96.0126 137.261 96.0147 137.524 96.0973C137.787 96.1798 138.021 96.3391 138.196 96.5555C138.371 96.7719 138.479 97.0357 138.508 97.3143Z" fill="#0B0610"/>
<path d="M149.439 90.9787C149.477 91.3563 149.367 91.7338 149.131 92.0284C148.896 92.3229 148.555 92.5103 148.184 92.5493C147.813 92.5883 147.442 92.4757 147.152 92.2363C146.863 91.9969 146.679 91.6503 146.64 91.2728C146.619 91.0855 146.634 90.8957 146.685 90.7144C146.736 90.5332 146.822 90.3642 146.939 90.2173C147.055 90.0704 147.199 89.9486 147.362 89.859C147.525 89.7694 147.704 89.7138 147.889 89.6956C148.261 89.6582 148.633 89.772 148.923 90.0124C149.214 90.2527 149.399 90.6001 149.439 90.9787Z" fill="#0B0610"/>
<path d="M94.9817 141.128C92.571 139.684 90.4781 137.75 88.8331 135.448C88.2272 132.405 88.2272 129.269 88.8331 126.225C88.8591 126.175 88.8994 126.135 88.9487 126.108C88.9979 126.082 89.0538 126.072 89.109 126.078C92.4487 126.533 95.833 126.533 99.1727 126.078C99.2038 126.074 99.2353 126.077 99.2654 126.086C99.2955 126.095 99.3235 126.109 99.348 126.129C99.3724 126.149 99.3927 126.174 99.4078 126.202C99.4228 126.23 99.4322 126.26 99.4355 126.292C99.7902 129.674 100.092 131.465 100.342 134.619C100.342 135.074 98.6603 135.795 95.4021 141.128C95.3865 141.172 95.358 141.211 95.3204 141.238C95.2827 141.264 95.2379 141.279 95.1919 141.279C95.1459 141.279 95.101 141.264 95.0634 141.238C95.0257 141.211 94.9972 141.172 94.9817 141.128ZM89.2535 135.194C90.8117 137.345 92.7717 139.161 95.0211 140.54C96.3433 138.321 97.9272 136.274 99.7376 134.445C99.5011 131.385 99.2121 129.62 98.8837 126.426C95.6438 126.86 92.3619 126.86 89.1221 126.426C88.6432 129.332 88.6877 132.303 89.2535 135.194Z" fill="#0B0610"/>
<path d="M240.104 55.1041C240.038 55.1041 239.975 55.0773 239.928 55.0297C239.881 54.9821 239.855 54.9175 239.855 54.8501C239.966 52.8868 239.673 50.9214 238.994 49.0801C238.316 47.2387 237.266 45.5619 235.913 44.1573C235.868 44.1112 235.843 44.0487 235.843 43.9835C235.843 43.9183 235.868 43.8558 235.913 43.8097C235.959 43.7636 236.02 43.7378 236.084 43.7378C236.148 43.7378 236.21 43.7636 236.255 43.8097C237.662 45.2495 238.756 46.9737 239.467 48.871C240.178 50.7682 240.489 52.7961 240.38 54.8234C240.382 54.8608 240.376 54.8981 240.363 54.9331C240.35 54.968 240.33 54.9997 240.304 55.0262C240.278 55.0526 240.246 55.0732 240.212 55.0866C240.178 55.1001 240.141 55.106 240.104 55.1041Z" fill="#0B0610"/>
<path d="M204.934 122.803C205.032 123.761 205.408 124.667 206.013 125.407C206.618 126.147 207.425 126.688 208.332 126.961C209.239 127.235 210.206 127.228 211.109 126.942C212.013 126.657 212.813 126.105 213.408 125.356C213.809 124.863 214.108 124.293 214.289 123.68C214.469 123.067 214.527 122.424 214.459 121.788L213.736 114.851C213.671 114.214 213.483 113.597 213.183 113.035C212.883 112.473 212.477 111.976 211.988 111.573C211.5 111.171 210.938 110.87 210.335 110.688C209.732 110.506 209.1 110.447 208.474 110.513C207.849 110.58 207.243 110.771 206.69 111.077C206.137 111.382 205.649 111.795 205.253 112.292C204.454 113.296 204.079 114.581 204.211 115.866L204.934 122.803ZM208.52 111.015C209.082 110.952 209.651 111.002 210.194 111.164C210.736 111.326 211.242 111.595 211.682 111.957C212.121 112.319 212.486 112.765 212.756 113.271C213.025 113.777 213.193 114.332 213.25 114.904L213.96 121.841C214.041 122.423 214.006 123.015 213.857 123.583C213.709 124.151 213.449 124.683 213.094 125.146C212.738 125.609 212.295 125.995 211.79 126.28C211.284 126.565 210.728 126.743 210.153 126.804C209.579 126.865 208.998 126.808 208.446 126.636C207.894 126.463 207.381 126.179 206.939 125.801C206.498 125.422 206.135 124.957 205.874 124.433C205.613 123.909 205.459 123.336 205.42 122.75L204.697 115.813C204.583 114.662 204.921 113.511 205.637 112.612C206.353 111.714 207.39 111.139 208.52 111.015Z" fill="#0B0610"/>
<path d="M217.849 121.734L217.494 118.312C217.479 118.249 217.444 118.192 217.394 118.151C217.344 118.11 217.282 118.087 217.218 118.085C217.185 118.089 217.153 118.099 217.124 118.114C217.095 118.13 217.07 118.152 217.049 118.178C217.028 118.204 217.013 118.234 217.003 118.267C216.994 118.299 216.991 118.333 216.995 118.366L217.349 121.801C217.49 122.838 217.424 123.892 217.156 124.902C216.888 125.912 216.423 126.857 215.788 127.681C215.154 128.504 214.364 129.19 213.464 129.696C212.564 130.203 211.573 130.52 210.55 130.63C209.528 130.739 208.494 130.638 207.51 130.333C206.526 130.028 205.613 129.524 204.824 128.853C204.036 128.181 203.388 127.355 202.919 126.424C202.45 125.493 202.171 124.475 202.096 123.432L201.741 119.997C201.741 119.929 201.715 119.865 201.668 119.817C201.621 119.769 201.558 119.743 201.492 119.743C201.426 119.743 201.362 119.769 201.315 119.817C201.268 119.865 201.242 119.929 201.242 119.997L201.597 123.432C201.823 125.58 202.861 127.554 204.491 128.938C206.121 130.322 208.216 131.008 210.334 130.85L210.938 136.744L207.824 137.065C207.758 137.065 207.695 137.092 207.648 137.14C207.601 137.187 207.575 137.252 207.575 137.319C207.575 137.386 207.601 137.451 207.648 137.499C207.695 137.546 207.758 137.573 207.824 137.573L214.564 136.851C214.601 136.86 214.639 136.86 214.676 136.852C214.712 136.843 214.747 136.827 214.776 136.803C214.806 136.779 214.829 136.749 214.846 136.715C214.862 136.68 214.871 136.642 214.871 136.604C214.871 136.566 214.862 136.528 214.846 136.494C214.829 136.459 214.806 136.429 214.776 136.405C214.747 136.381 214.712 136.365 214.676 136.356C214.639 136.348 214.601 136.348 214.564 136.357L211.464 136.691L210.846 130.796C212.937 130.496 214.833 129.386 216.138 127.697C217.443 126.009 218.056 123.872 217.849 121.734Z" fill="#0B0610"/>
<path d="M163.996 160.696L162.537 143.321C162.534 143.276 162.519 143.232 162.494 143.195C162.469 143.158 162.434 143.129 162.394 143.11C162.354 143.091 162.31 143.083 162.266 143.087C162.222 143.091 162.179 143.107 162.143 143.133L155.167 148.065C154.811 146.452 153.896 145.022 152.587 144.04C151.279 143.058 149.667 142.589 148.046 142.719C147.823 142.719 132.648 144.056 132.478 144.056C130.704 144.209 129.063 145.072 127.915 146.455C126.767 147.839 126.206 149.63 126.355 151.434L126.973 158.825C127.127 160.63 127.978 162.3 129.34 163.468C130.702 164.635 132.463 165.206 134.238 165.054L149.807 163.717C151.426 163.571 152.939 162.834 154.066 161.643C155.194 160.452 155.86 158.886 155.942 157.235L163.654 160.91C163.69 160.928 163.73 160.937 163.77 160.935C163.81 160.933 163.849 160.921 163.883 160.9C163.917 160.878 163.946 160.848 163.965 160.813C163.985 160.777 163.996 160.737 163.996 160.696ZM149.754 163.236C149.623 163.236 134.343 164.573 134.186 164.573C133.372 164.644 132.553 164.552 131.774 164.301C130.996 164.05 130.273 163.646 129.649 163.111C129.024 162.576 128.509 161.921 128.133 161.183C127.758 160.445 127.528 159.64 127.459 158.812L126.841 151.42C126.771 150.593 126.862 149.759 127.108 148.967C127.355 148.175 127.753 147.44 128.279 146.805C128.804 146.169 129.448 145.645 130.173 145.263C130.898 144.881 131.69 144.648 132.504 144.577L148.072 143.24C149.715 143.107 151.344 143.638 152.603 144.72C153.863 145.801 154.652 147.344 154.799 149.014L155.417 156.393C155.552 158.063 155.032 159.719 153.971 161.001C152.911 162.283 151.395 163.086 149.754 163.236ZM155.929 156.713C155.929 156.566 155.272 148.694 155.246 148.613L162.078 143.762L163.47 160.309L155.929 156.713Z" fill="#0B0610"/>
<path d="M16.4293 108.288C16.3631 108.288 16.2996 108.261 16.2528 108.214C16.206 108.166 16.1797 108.101 16.1797 108.034C16.1797 107.967 16.206 107.902 16.2528 107.854C16.2996 107.807 16.3631 107.78 16.4293 107.78L21.6188 107.245C21.685 107.245 21.7485 107.272 21.7953 107.32C21.8422 107.367 21.8685 107.432 21.8685 107.499C21.8685 107.567 21.8422 107.631 21.7953 107.679C21.7485 107.727 21.685 107.753 21.6188 107.753L16.4293 108.288Z" fill="#0B0610"/>
<path d="M30.8549 106.791C30.7887 106.791 30.7252 106.764 30.6784 106.716C30.6316 106.669 30.6053 106.604 30.6053 106.537C30.6053 106.47 30.6316 106.405 30.6784 106.357C30.7252 106.31 30.7887 106.283 30.8549 106.283L36.1101 105.748C36.1763 105.748 36.2398 105.775 36.2866 105.823C36.3334 105.87 36.3597 105.935 36.3597 106.002C36.3597 106.07 36.3334 106.134 36.2866 106.182C36.2398 106.229 36.1763 106.256 36.1101 106.256L30.8549 106.791Z" fill="#0B0610"/>
<path d="M25.5209 102.353L24.9953 97.0069C24.9868 96.9696 24.9866 96.9309 24.9948 96.8935C25.003 96.8562 25.0194 96.8212 25.0428 96.7912C25.0662 96.7612 25.0959 96.737 25.1298 96.7204C25.1636 96.7037 25.2008 96.6951 25.2384 96.6951C25.276 96.6951 25.3131 96.7037 25.347 96.7204C25.3809 96.737 25.4106 96.7612 25.434 96.7912C25.4574 96.8212 25.4738 96.8562 25.482 96.8935C25.4902 96.9309 25.49 96.9696 25.4814 97.0069L26.0201 102.353C26.0201 102.421 25.9938 102.485 25.947 102.533C25.9002 102.581 25.8367 102.607 25.7705 102.607C25.7043 102.607 25.6408 102.581 25.594 102.533C25.5472 102.485 25.5209 102.421 25.5209 102.353Z" fill="#0B0610"/>
<path d="M26.9923 116.976L26.4668 111.629C26.4796 111.574 26.5106 111.524 26.5548 111.488C26.5989 111.453 26.6535 111.433 26.7098 111.433C26.7662 111.433 26.8208 111.453 26.8649 111.488C26.9091 111.524 26.9401 111.574 26.9529 111.629L27.4916 116.976C27.4916 117.043 27.4653 117.108 27.4185 117.155C27.3716 117.203 27.3081 117.23 27.2419 117.23C27.1757 117.23 27.1122 117.203 27.0654 117.155C27.0186 117.108 26.9923 117.043 26.9923 116.976Z" fill="#0B0610"/>
<path d="M22.6436 104.291C22.5123 104.291 22.7882 104.492 18.4395 100.87C18.1767 100.656 18.5052 100.268 18.7416 100.482L22.8013 103.837C22.8427 103.87 22.8729 103.915 22.8877 103.966C22.9024 104.017 22.901 104.072 22.8835 104.122C22.8661 104.172 22.8335 104.216 22.7905 104.246C22.7474 104.277 22.696 104.292 22.6436 104.291Z" fill="#0B0610"/>
<path d="M33.8898 113.608C33.7584 113.608 34.0211 113.795 29.6856 110.199C29.6516 110.183 29.6217 110.159 29.5981 110.129C29.5745 110.099 29.5578 110.065 29.5493 110.027C29.5408 109.99 29.5406 109.951 29.5488 109.914C29.5571 109.877 29.5735 109.842 29.5968 109.812C29.6202 109.782 29.6499 109.758 29.6837 109.741C29.7176 109.724 29.7546 109.716 29.7922 109.716C29.8298 109.716 29.8669 109.724 29.9008 109.741C29.9346 109.758 29.9644 109.782 29.9878 109.812L34.0474 113.167C34.0839 113.2 34.1096 113.245 34.1214 113.293C34.1331 113.342 34.1304 113.393 34.1135 113.441C34.0966 113.488 34.0664 113.529 34.0265 113.559C33.9867 113.588 33.9391 113.605 33.8898 113.608Z" fill="#0B0610"/>
<path d="M29.1732 103.61C29.1257 103.61 29.079 103.597 29.0386 103.572C28.9981 103.547 28.9657 103.51 28.945 103.466C28.9243 103.423 28.9162 103.374 28.9217 103.326C28.9273 103.278 28.9461 103.233 28.9762 103.195L32.2869 99.0786C32.484 98.8113 32.865 99.0786 32.6679 99.3994C29.0418 103.864 29.3309 103.61 29.1732 103.61Z" fill="#0B0610"/>
<path d="M20.0029 115.051C19.9565 115.049 19.9115 115.034 19.873 115.008C19.8345 114.982 19.8039 114.945 19.7848 114.902C19.7657 114.859 19.7588 114.811 19.7648 114.764C19.7708 114.718 19.7896 114.673 19.8189 114.637L23.1166 110.52C23.1353 110.489 23.1604 110.463 23.19 110.443C23.2197 110.422 23.2532 110.409 23.2884 110.403C23.3236 110.397 23.3596 110.399 23.3941 110.409C23.4285 110.418 23.4605 110.435 23.488 110.458C23.5155 110.481 23.5378 110.51 23.5533 110.543C23.5689 110.575 23.5775 110.611 23.5784 110.647C23.5793 110.683 23.5726 110.72 23.5586 110.753C23.5447 110.786 23.5239 110.816 23.4976 110.841C19.9109 115.305 20.1737 115.051 20.0029 115.051Z" fill="#0B0610"/>
<path d="M74.9462 43.5558C74.3505 42.8719 74.0387 41.9796 74.0766 41.0666C74.1145 40.1536 74.4991 39.2912 75.1493 38.6609C75.7996 38.0305 76.6648 37.6813 77.563 37.6869C78.4612 37.6924 79.3222 38.0522 79.9649 38.6905C80.2984 39.0217 80.5628 39.4179 80.7424 39.8554C80.9221 40.2929 81.0132 40.7627 81.0104 41.2368C81.0075 41.7109 80.9108 42.1796 80.726 42.6148C80.5412 43.0501 80.2721 43.443 79.9347 43.7701C79.5973 44.0971 79.1986 44.3517 78.7623 44.5185C78.3261 44.6853 77.8613 44.761 77.3957 44.741C76.9301 44.721 76.4732 44.6057 76.0523 44.4021C75.6315 44.1984 75.2553 43.9106 74.9462 43.5558ZM75.406 38.9445C75.1183 39.2169 74.8867 39.5447 74.7245 39.9089C74.5623 40.2731 74.4728 40.6664 74.4612 41.066C74.4495 41.4657 74.516 41.8637 74.6567 42.237C74.7974 42.6103 75.0095 42.9515 75.2808 43.2408C75.5521 43.5301 75.8772 43.7617 76.2371 43.9222C76.5971 44.0827 76.9847 44.1689 77.3777 44.1758C77.7706 44.1827 78.161 44.1102 78.5262 43.9625C78.8914 43.8148 79.2241 43.5947 79.5051 43.3152C79.7927 43.0428 80.0244 42.715 80.1866 42.3508C80.3487 41.9866 80.4382 41.5933 80.4499 41.1936C80.4615 40.794 80.3951 40.396 80.2544 40.0226C80.1137 39.6493 79.9015 39.3081 79.6302 39.0189C79.3589 38.7296 79.0339 38.498 78.674 38.3375C78.314 38.177 77.9263 38.0908 77.5334 38.0839C77.1405 38.0769 76.7501 38.1494 76.3849 38.2972C76.0197 38.4449 75.687 38.6649 75.406 38.9445Z" fill="#0B0610"/>
<path d="M220.332 6.33116L213.763 6.87917L213.211 0.19611C213.198 0.140326 213.167 0.0905965 213.123 0.0549997C213.079 0.0194029 213.024 3.05176e-05 212.968 3.05176e-05C212.911 3.05176e-05 212.857 0.0194029 212.813 0.0549997C212.769 0.0905965 212.738 0.140326 212.725 0.19611L213.277 6.87917L206.708 7.42718C206.641 7.42718 206.578 7.45393 206.531 7.50156C206.484 7.54919 206.458 7.61378 206.458 7.68113C206.458 7.74849 206.484 7.81308 206.531 7.86071C206.578 7.90834 206.641 7.93509 206.708 7.93509L213.277 7.37371L213.815 14.0568C213.815 14.1241 213.841 14.1887 213.888 14.2363C213.935 14.284 213.999 14.3107 214.065 14.3107C214.131 14.3107 214.195 14.284 214.241 14.2363C214.288 14.1887 214.314 14.1241 214.314 14.0568L213.763 7.37371L220.332 6.81234C220.369 6.82525 220.409 6.82887 220.448 6.82292C220.488 6.81696 220.525 6.80159 220.557 6.77807C220.589 6.75456 220.616 6.72358 220.634 6.6877C220.652 6.65182 220.661 6.61208 220.661 6.57175C220.661 6.53142 220.652 6.49167 220.634 6.45579C220.616 6.41991 220.589 6.38893 220.557 6.36542C220.525 6.34191 220.488 6.32654 220.448 6.32058C220.409 6.31462 220.369 6.31825 220.332 6.33116Z" fill="#0B0610"/>
<path d="M164.653 69.6731C164.298 69.1519 163.194 69.3524 161.434 70.2479C161.105 70.4216 159.805 71.0899 158.688 71.7048C159.384 70.8761 160.081 70.0741 160.751 69.3791C162.643 67.441 163.378 66.1712 162.958 65.6232C162.8 65.4227 162.34 64.8346 158.951 66.8529C155.282 69.3915 151.899 72.3318 148.861 75.6211C146.627 78.0136 147.468 71.3573 147.232 69.8335C146.995 68.3098 146.798 67.4009 146.233 67.3608C145.668 67.3207 145.248 67.9355 144.354 70.9964C143.921 72.4533 142.187 76.9443 138.731 85.5788C138.077 85.5901 137.424 85.6347 136.774 85.7125C136.275 85.7125 136.958 86.5412 131.019 100.228L130.034 102.54C117.632 81.021 115.201 78.869 99.1727 77.9067C98.8167 77.8594 98.4819 77.7078 98.2091 77.4706C97.9362 77.2333 97.7369 76.9204 97.6356 76.5701C98.3976 76.677 101.682 76.4765 102.392 75.4339C103.101 74.3914 103.298 72.5469 102.194 67.2806C102.544 67.1459 102.852 66.9199 103.089 66.6254C103.325 66.3309 103.481 65.9783 103.541 65.6031C103.601 65.2278 103.563 64.8431 103.43 64.4877C103.297 64.1322 103.075 63.8185 102.786 63.5782C103.166 63.3933 103.483 63.0987 103.699 62.7311C103.916 62.3634 104.02 61.9391 104.001 61.5112C103.981 61.0833 103.838 60.6708 103.589 60.3252C103.34 59.9797 102.997 59.7164 102.602 59.5684C102.852 59.2613 103.014 58.8898 103.07 58.4951C103.125 58.1003 103.073 57.6976 102.918 57.3312C102.763 56.9648 102.512 56.6491 102.192 56.4189C101.872 56.1886 101.495 56.0528 101.104 56.0263C101.226 55.6508 101.244 55.2485 101.157 54.8631C101.07 54.4777 100.88 54.124 100.61 53.8402C100.339 53.5565 99.9969 53.3536 99.6209 53.2536C99.2448 53.1536 98.849 53.1603 98.4764 53.2729C98.4714 52.8647 98.353 52.4663 98.135 52.1236C97.917 51.7809 97.6082 51.5078 97.2443 51.336C96.8803 51.1641 96.476 51.1004 96.078 51.1523C95.68 51.2041 95.3045 51.3693 94.9948 51.6289C94.8481 51.2388 94.598 50.8977 94.2722 50.6435C93.9464 50.3894 93.5577 50.2321 93.1493 50.1892C92.7409 50.1462 92.3288 50.2193 91.9588 50.4003C91.5888 50.5814 91.2754 50.8632 91.0534 51.2145C90.8013 50.8982 90.4665 50.6606 90.0877 50.529C89.7088 50.3975 89.3011 50.3773 88.9115 50.4708C88.5219 50.5643 88.1661 50.7678 87.8849 51.0577C87.6038 51.3477 87.4088 51.7124 87.3222 52.1101C86.9748 51.9174 86.5814 51.8278 86.1864 51.8513C85.7915 51.8748 85.411 52.0104 85.088 52.2429C84.7651 52.4754 84.5127 52.7954 84.3596 53.1664C84.2064 53.5375 84.1586 53.9449 84.2216 54.3422C83.8333 54.2862 83.4374 54.3405 83.0776 54.499C82.7177 54.6575 82.4078 54.914 82.1822 55.2404C81.9566 55.5667 81.824 55.9501 81.799 56.3482C81.7741 56.7463 81.8577 57.1438 82.0407 57.4966C81.641 57.5742 81.2713 57.766 80.9749 58.0496C80.6785 58.3332 80.4676 58.6968 80.367 59.0979C80.2664 59.499 80.2802 59.9209 80.4067 60.3143C80.5333 60.7078 80.7674 61.0564 81.0816 61.3193C80.7209 61.5113 80.4218 61.8044 80.2199 62.1641C80.018 62.5237 79.9217 62.9347 79.9424 63.3484C79.9632 63.762 80.1001 64.1609 80.3369 64.4978C80.5738 64.8347 80.9006 65.0954 81.2787 65.249C81.0314 65.558 80.8727 65.9305 80.8201 66.3254C80.7675 66.7203 80.823 67.1223 80.9806 67.4872C81.1382 67.852 81.3917 68.1656 81.7132 68.3932C82.0347 68.6209 82.4117 68.7539 82.8027 68.7776C82.6842 69.1524 82.6684 69.553 82.757 69.9362C82.8456 70.3195 83.0351 70.6709 83.3054 70.9527C83.5756 71.2345 83.9163 71.436 84.2907 71.5356C84.6651 71.6351 85.0591 71.6289 85.4303 71.5177C85.4378 71.9247 85.5579 72.3214 85.7768 72.6621C85.9958 73.0029 86.3047 73.274 86.6682 73.4442C87.0317 73.6145 87.4351 73.677 87.8319 73.6247C88.2288 73.5723 88.6031 73.4072 88.9119 73.1483C89.0586 73.6218 89.3636 74.028 89.774 74.2965C90.1844 74.5651 90.6742 74.679 91.1585 74.6186C87.9528 78.4948 85.4435 78.321 79.1766 81.1546C77.2122 82.0569 75.4939 83.4334 74.171 85.1645C73.9608 82.8388 73.8557 80.9274 73.8688 79.818C73.8688 76.9042 73.6061 76.2359 73.1725 76.1423C72.739 76.0488 72.2134 76.8374 71.6354 78.027C71.0573 79.2165 69.9931 85.1511 68.7844 82.6383C67.0145 78.9436 64.8466 75.4604 62.3205 72.2528C60.1659 69.8469 59.4827 69.8603 59.1542 70.1009C58.2083 70.7825 60.0608 73.7498 61.1906 76.423C60.3761 75.581 59.4301 74.6587 59.2856 74.5117C57.9718 73.1751 57.0784 72.7741 56.658 73.1751C56.5565 73.2676 56.4913 73.3943 56.4744 73.5318C56.4575 73.6694 56.4901 73.8085 56.566 73.9236C57.2886 75.2602 58.5762 77.1849 59.4564 78.6953C58.7601 78.2007 57.1178 77.0913 56.5529 77.7195C56.464 77.8259 56.4152 77.9609 56.4152 78.1005C56.4152 78.2401 56.464 78.3751 56.5529 78.4814C59.3119 82.0101 61.2169 82.9591 64.1467 89.1743C64.2649 89.9228 64.37 91.8475 64.462 93.6119C63.4635 93.8658 62.7541 94.0797 62.6752 94.1064C62.6223 94.1264 62.5771 94.1632 62.5464 94.2113C62.5156 94.2595 62.5009 94.3164 62.5044 94.3737C63.4372 105.895 65.3422 113.768 68.5085 119.128C69.372 120.701 70.7787 121.891 72.456 122.469C74.1333 123.047 75.9617 122.971 77.5869 122.255C73.8522 125.189 70.9951 129.123 69.3362 133.617C66.3801 141.743 56.4741 151.674 55.3048 152.824C40.8529 139.003 39.907 138.041 39.7625 137.947C39.4227 137.65 39.0137 137.446 38.5745 137.355C38.1352 137.263 37.6804 137.288 37.2531 137.426L30.6841 129.273C25.7967 122.202 -4.06602 147.41 0.466605 153.773C0.92056 154.283 1.48008 154.684 2.10485 154.947C2.72961 155.211 3.40406 155.33 4.07957 155.296C7.4429 155.296 12.0544 152.998 16.3111 151.781C18.7942 151.086 21.251 150.244 23.5501 151.006C23.4358 151.402 23.4228 151.821 23.5125 152.223C23.6022 152.626 23.7915 152.998 24.0625 153.305C24.1808 153.439 24.0625 153.305 50.089 176.201C51.9437 177.827 54.3264 178.693 56.7739 178.631C59.2214 178.57 61.5589 177.584 63.3321 175.867C69.4676 170.36 83.6173 157.622 89.1352 152.65C89.3586 152.944 89.5819 153.238 89.8184 153.505C93.3724 157.79 95.2441 163.26 95.0736 168.863L83.6698 202.105C83.6698 202.278 83.6698 202.372 83.8275 202.452C84.4581 202.853 85.1413 203.241 85.7193 203.615C83.3019 209.416 80.5824 215.645 79.8598 217.315C79.1372 218.986 79.6496 221.646 80.0831 223.37C82.0221 230.118 85.1371 236.456 89.2798 242.083C92.2358 246.346 97.6224 253.03 100.092 248.472C101.919 245.103 100.447 237.779 98.5158 232.994C94.0751 221.873 99.6982 213.332 100.907 209.108C101.695 209.242 102.497 209.349 103.311 209.443C103.394 209.454 103.478 209.436 103.55 209.393C103.621 209.349 103.676 209.282 103.705 209.202C104.375 207.304 115.293 176.054 115.332 175.934C116.625 171.703 117.172 167.273 116.948 162.848C116.673 146.381 116.134 135.154 111.286 118.312C112.6 115.639 112.284 107.058 112.166 104.305C116.099 109.827 120.494 114.993 125.304 119.743C126.433 120.846 127.803 121.66 129.301 122.119C130.8 122.578 132.384 122.669 133.923 122.383C135.463 122.097 136.913 121.443 138.156 120.475C139.398 119.507 140.397 118.253 141.07 116.815C144.63 109.17 149.36 97.4747 150.976 89.6956C150.985 89.6455 150.98 89.5937 150.962 89.5463C150.943 89.4989 150.912 89.458 150.871 89.4283L149.846 88.7733C150.674 86.4743 151.278 84.8437 151.633 84.1219C156.665 78.5349 159.2 78.0002 163.102 75.2869C163.225 75.2095 163.317 75.091 163.363 74.9519C163.408 74.8127 163.404 74.6617 163.352 74.525C162.945 73.683 160.724 74.3513 159.884 74.632C161.197 73.4023 163.365 71.638 164.561 70.4751C164.671 70.3768 164.742 70.2404 164.759 70.0922C164.776 69.944 164.738 69.7946 164.653 69.6731ZM90.5804 75.9819C91.3818 75.1666 95.6517 69.7132 96.348 68.8043C96.3821 68.7581 96.4006 68.7018 96.4006 68.6439C96.4006 68.5861 96.3821 68.5298 96.348 68.4836C93.9569 65.8103 95.6911 64.0326 96.9261 65.8103C97.7669 67.0133 99.2515 66.8128 98.5946 63.3376C99.2655 63.0396 99.9114 62.6865 100.526 62.2817C102.589 70.4885 102.799 73.429 102.208 74.779C101.616 76.129 97.9114 73.7231 96.5976 72.7473C96.5588 72.7128 96.5099 72.6921 96.4584 72.6885C96.4069 72.6849 96.3556 72.6985 96.3124 72.7273C96.2693 72.7561 96.2365 72.7984 96.2192 72.8479C96.2019 72.8974 96.201 72.9512 96.2166 73.0013C96.6371 75.0329 96.9918 77.8666 98.7129 78.3477C91.2636 81.9833 87.4404 79.5373 86.4945 78.7621C88.0268 78.1252 89.4167 77.1796 90.5804 75.9819ZM61.322 83.2531C60.087 81.5823 56.8814 78.2274 56.8419 77.9067C56.9076 77.9067 57.4857 77.8131 59.0491 78.8958C59.638 79.341 60.1301 79.9052 60.4943 80.5532C61.2957 82.2239 62.4519 84.3625 63.2007 86.3006C62.6337 85.2482 62.0064 84.2306 61.322 83.2531ZM60.9279 80.3393C60.2233 78.9276 59.4335 77.5616 58.563 76.2493C57.9592 75.3418 57.4065 74.4002 56.9076 73.429C56.9076 73.429 57.5514 73.429 58.9177 74.7656C59.1148 74.9661 60.8885 76.6903 61.6899 77.5859C62.8573 80.4852 63.6009 83.5428 63.8971 86.6615C63.0232 84.4998 62.0319 82.3891 60.9279 80.3393ZM60.4812 73.6562C59.1674 71.2236 59.325 70.4885 59.417 70.435C59.509 70.3815 59.9031 70.1944 61.8869 72.4934C65.0189 76.4814 67.5962 80.889 69.5464 85.5922C69.554 85.6292 69.5696 85.6641 69.5921 85.6942C69.6147 85.7244 69.6435 85.749 69.6766 85.7663C69.7097 85.7836 69.7462 85.7932 69.7834 85.7943C69.8206 85.7954 69.8575 85.7881 69.8916 85.7728C69.9256 85.7575 69.9559 85.7347 69.9801 85.706C70.0044 85.6773 70.022 85.6434 70.0317 85.6069C70.0415 85.5704 70.0431 85.5321 70.0364 85.4949C70.0297 85.4576 70.0149 85.4224 69.9931 85.3917C69.7566 84.8036 69.4939 84.2155 69.2311 83.6274C70.7683 83.8546 71.4514 79.3101 72.0164 78.1339C72.2003 77.7596 72.7784 76.5701 72.9886 76.5166C73.1988 76.4631 73.3302 76.8908 73.3039 79.7111C73.3039 81.0477 73.4221 83.1195 73.6586 85.7125C72.1984 87.8605 71.1467 90.2678 70.5581 92.8099C68.6385 92.6806 66.7112 92.8794 64.8561 93.398C64.5145 85.8862 64.1336 80.8873 60.4812 73.6295V73.6562ZM74.933 125.276C76.013 125.285 77.0771 125.541 78.0467 126.025C75.9709 127.495 74.0396 132.039 73.7506 132.708L69.2574 134.873C70.4592 131.29 72.3986 128.009 74.9462 125.249L74.933 125.276ZM23.9574 150.672C21.4481 149.75 18.965 150.578 16.206 151.367C11.6865 152.703 6.82542 155.136 3.51463 154.815C11.5814 153.853 31.1045 136.985 30.9994 130.542C31.7614 131.505 37.8969 139.043 39.618 141.235C38.1596 145.66 31.9585 152.022 27.5178 153.265C26.5648 152.099 25.3474 151.186 23.9706 150.605L23.9574 150.672ZM25.5603 154C31.1177 154.601 41.0631 143.548 40.3931 139.297L45.8191 144.497C43.0733 152.369 38.4881 157.288 31.8008 159.52L25.5603 154ZM63.03 175.573C61.7653 176.779 60.2037 177.615 58.5105 177.992C57.0898 178.283 55.6221 178.236 54.2225 177.853C52.8229 177.471 51.5295 176.763 50.4437 175.787L32.2475 159.747C35.2802 158.72 38.0371 156.99 40.3011 154.695L51.3371 164.519C53.1374 166.127 55.4513 167.014 57.847 167.014C60.2427 167.014 62.5566 166.127 64.3569 164.519L85.1544 145.807L85.4172 155.377L63.03 175.573ZM95.5729 168.622C95.6634 163.005 93.7602 157.543 90.2126 153.238C86.6662 148.873 84.4514 143.549 83.8406 137.921C83.8492 137.883 83.8494 137.845 83.8411 137.807C83.8329 137.77 83.8165 137.735 83.7931 137.705C83.7698 137.675 83.74 137.651 83.7062 137.634C83.6723 137.617 83.6352 137.609 83.5976 137.609C83.5599 137.609 83.5228 137.617 83.4889 137.634C83.4551 137.651 83.4253 137.675 83.402 137.705C83.3786 137.735 83.3622 137.77 83.354 137.807C83.3457 137.845 83.3459 137.883 83.3545 137.921C83.5558 140.429 84.1363 142.89 85.0756 145.218L64.0547 164.212C62.3433 165.74 60.1439 166.583 57.8667 166.583C55.5895 166.583 53.3901 165.74 51.6787 164.212L40.6427 154.401C43.1436 151.625 45.0456 148.346 46.2264 144.777L59.0229 157.074C59.2462 157.301 59.5878 156.927 59.3513 156.7L55.607 153.064C56.7762 151.915 65.2897 143.347 68.9421 135.608C74.2761 133.042 74.1973 133.149 74.1973 133.015C74.1973 132.882 76.5096 127.281 78.6905 126.185C78.7287 126.163 78.7605 126.131 78.7826 126.092C78.8047 126.053 78.8164 126.009 78.8164 125.965C78.8164 125.92 78.8047 125.876 78.7826 125.837C78.7605 125.798 78.7287 125.766 78.6905 125.744C77.6812 125.189 76.5737 124.844 75.4323 124.728C77.1448 122.995 79.0597 121.483 81.1342 120.224C81.3181 120.104 81.305 120.05 81.305 119.85C88.2287 121.961 98.4632 121.186 105.558 119.85C108.645 132.173 109.92 145.619 110.971 163.276C111.206 167.058 110.729 170.851 109.565 174.45C108.593 177.498 105.623 186.988 101.774 199.498C96.5463 198.454 91.6109 196.245 87.3222 193.029C96.0459 167.687 95.5597 169.104 95.586 168.556L95.5729 168.622ZM98.0823 233.248C100.119 238.313 101.13 244.489 99.9478 247.683C100.487 239.971 85.6011 214.161 80.7926 216.46C81.883 213.96 84.1165 208.788 86.1398 203.936C90.5829 206.467 95.4164 208.211 100.434 209.095C99.2647 213.065 93.6284 222.02 98.0954 233.181L98.0823 233.248ZM103.337 209.002C96.5289 208.22 89.9883 205.856 84.2216 202.091L87.1645 193.524C92.7116 197.741 99.3756 200.167 106.294 200.487L103.337 209.002ZM116.476 162.929C116.689 167.275 116.155 171.627 114.899 175.787C114.623 176.602 109.788 190.489 106.425 200.046C105.025 200.007 103.629 199.873 102.247 199.645C104.191 193.403 109.236 177.11 109.998 174.704C111.193 171.028 111.683 167.153 111.444 163.289C110.379 145.606 109.105 132.146 106.018 119.783C107.634 119.462 109.25 119.088 110.826 118.66C115.648 135.301 116.186 146.488 116.502 162.862L116.476 162.929ZM150.385 89.8159C148.743 97.5549 144.079 109.09 140.558 116.655C139.921 118.027 138.972 119.225 137.789 120.149C136.606 121.073 135.223 121.697 133.756 121.967C132.288 122.238 130.778 122.148 129.352 121.705C127.925 121.263 126.623 120.48 125.554 119.422C119.102 112.996 113.374 105.859 108.474 98.143C108.441 98.0959 108.393 98.0618 108.337 98.0466C108.282 98.0314 108.224 98.0359 108.171 98.0594C108.119 98.0829 108.076 98.1239 108.05 98.1756C108.024 98.2273 108.016 98.2865 108.028 98.3435L111.812 109.972C111.812 113.14 111.575 116.588 110.905 118.072C100.263 120.986 88.163 121.494 81.3181 119.328C81.3181 111.015 77.2716 94.2133 77.2322 94.0396C77.2311 94.0016 77.2217 93.9643 77.2047 93.9305C77.1876 93.8967 77.1633 93.8673 77.1335 93.8443C77.1038 93.8214 77.0693 93.8055 77.0327 93.7979C76.9961 93.7902 76.9583 93.7911 76.9221 93.8003C76.8859 93.8095 76.8521 93.8269 76.8234 93.8511C76.7946 93.8754 76.7716 93.9058 76.756 93.9404C76.7403 93.9749 76.7325 94.0125 76.7331 94.0505C76.7336 94.0885 76.7426 94.1259 76.7592 94.1599C76.7592 94.3203 80.7006 110.373 80.8189 118.78C77.7446 123.285 71.6222 123.498 68.8895 118.78C65.7758 113.514 63.8971 105.775 62.9774 94.4406C63.9102 94.1465 68.2326 92.9569 70.4792 93.3178C69.3008 99.41 69.2251 105.67 70.2559 111.79C70.2619 111.821 70.274 111.851 70.2915 111.878C70.3089 111.905 70.3314 111.928 70.3577 111.946C70.3839 111.964 70.4133 111.977 70.4443 111.983C70.4753 111.99 70.5073 111.99 70.5383 111.984C70.5694 111.977 70.599 111.965 70.6253 111.947C70.6517 111.93 70.6744 111.907 70.6921 111.88C70.7098 111.853 70.7221 111.823 70.7284 111.792C70.7347 111.76 70.7349 111.728 70.7288 111.696C70.7288 111.456 66.3407 87.5169 79.3737 81.6225C82.4086 80.2858 83.972 79.7913 85.9427 78.9492C87.4453 80.2426 89.3771 80.9024 91.3424 80.7937C94.2342 80.6833 97.0583 79.8722 99.58 78.4279C115.766 79.4438 117.645 81.9299 131.624 106.336C131.657 106.395 131.711 106.438 131.775 106.455C131.839 106.473 131.908 106.464 131.965 106.43C132.023 106.396 132.065 106.341 132.082 106.276C132.099 106.21 132.09 106.141 132.057 106.082C131.453 105.053 130.888 104.051 130.323 103.088C131.085 101.057 134.751 93.3579 136.892 86.1803C141.674 85.6732 146.475 86.9405 150.411 89.749L150.385 89.8159ZM149.347 88.5595C146.285 86.7 142.796 85.6949 139.231 85.6456C142.699 77.0111 144.368 72.6805 144.801 71.2102C145.695 68.1761 146.115 67.9355 146.115 67.9222C146.115 67.9088 146.588 69.4994 146.667 69.9806C146.89 71.4375 146.128 76.53 147.862 76.6636C147.389 77.1983 146.916 77.7596 146.457 78.321C146.425 78.3732 146.413 78.4353 146.422 78.4958C146.432 78.5563 146.463 78.6112 146.51 78.6503C146.556 78.6894 146.615 78.7101 146.675 78.7085C146.735 78.707 146.793 78.6833 146.838 78.6418C150.403 74.3174 154.537 70.5125 159.122 67.3341C162.064 65.5697 162.485 65.9975 162.485 65.9975C162.485 65.9975 162.393 66.9598 160.33 69.0984C154.208 75.4339 152.198 80.7537 149.373 88.4926L149.347 88.5595ZM160.173 75.0998C162.511 74.3646 162.8 74.7924 162.8 74.7924C162.8 74.7924 162.8 74.8726 162.708 74.926C158.833 77.5992 157.23 77.773 153.078 81.8497C154.923 79.6244 156.879 77.4964 158.938 75.474L160.173 75.0998ZM161.486 72.4934C158.186 75.3277 155.143 78.4592 152.395 81.8497C153.736 78.5616 155.557 75.4977 157.795 72.7607C158.872 72.1191 161.184 70.9296 161.631 70.7023C163.825 69.5796 164.259 69.9538 164.259 69.9538C163.423 70.841 162.528 71.6673 161.578 72.4266L161.486 72.4934Z" fill="#0B0610"/>
</svg>
