<svg width="16" height="14" viewBox="0 0 16 14" fill="none" xmlns="http://www.w3.org/2000/svg">
<path d="M7.99865 14H7.95786C7.8387 13.9913 7.72536 13.9464 7.6339 13.8717C7.60884 13.851 7.58581 13.8281 7.5651 13.8032L0.133968 5.19011C0.076023 5.12573 0.0351109 5.04857 0.0147819 4.96533C0.0147819 4.95522 0.00998245 4.94511 0.00758273 4.935C-0.0150782 4.8047 0.0134746 4.67089 0.0875734 4.56011L0.102772 4.53833L3.00643 0.544444C3.01683 0.528889 3.02723 0.514889 3.03923 0.502444C3.12417 0.404302 3.24201 0.33847 3.37199 0.316556C3.39424 0.313258 3.41669 0.311439 3.43918 0.311111L7.95866 0H7.99865H8.03785L12.5581 0.311111C12.5831 0.312487 12.608 0.315607 12.6325 0.320444C12.7751 0.34626 12.9019 0.424892 12.9861 0.539778L15.8953 4.54067C15.9014 4.54842 15.907 4.55647 15.9121 4.56478C15.9787 4.66393 16.0089 4.78207 15.9977 4.9C15.9943 4.93023 15.9885 4.96014 15.9801 4.98944C15.9582 5.06401 15.9194 5.13285 15.8665 5.19089L8.433 13.8024C8.42063 13.8175 8.40727 13.8318 8.39301 13.8452C8.34631 13.8893 8.2922 13.9254 8.23303 13.9518C8.18447 13.9731 8.13302 13.9875 8.08024 13.9946C8.05321 13.9982 8.02595 14 7.99865 14ZM4.75583 5.37522L7.99865 12.1823L11.2415 5.37522H4.75583ZM12.4669 5.37522L10.2576 10.0131L14.2571 5.37522H12.4669ZM1.73778 5.37522L5.73732 10.0131L3.53037 5.37522H1.73778ZM12.9325 2.32867L12.7245 4.31278H14.3739L12.9325 2.32867ZM7.99865 1.45367L5.49654 4.31278H10.5008L7.99865 1.45367ZM3.06483 2.32867L1.62339 4.31278H3.2728L3.06483 2.32867ZM9.18012 1.14411L11.639 3.95422L11.9182 1.33078L9.18012 1.14411ZM6.81559 1.14411L4.07911 1.33078L4.35508 3.95422L6.81559 1.14411Z" fill="#090809"/>
</svg>
