<svg width="84" height="71" viewBox="0 0 84 71" fill="none" xmlns="http://www.w3.org/2000/svg">
<path d="M35.2413 37.0394C36.431 36.2702 37.3541 35.4585 38.3605 34.7688C41.7 32.4803 44.3762 29.2839 48.1678 27.6154C48.2576 27.5759 48.3009 27.4074 48.3868 27.387C49.195 27.1959 50.1526 26.6767 50.7798 26.9394C51.4654 27.2267 50.7355 29.0549 49.6418 29.7763C47.6306 31.1031 45.6154 32.4238 43.5963 33.7384C42.2518 34.6141 40.8477 35.4076 39.5596 36.3585C37.5929 37.8101 35.9127 39.9183 33.7297 40.7438C30.7257 41.8796 29.0195 44.5095 26.2839 45.9446C23.0915 47.6198 20.443 50.3 17.4448 52.38C13.7339 54.9546 9.90139 57.3536 6.13355 59.8471C5.54016 60.2398 4.98307 60.7003 4.46256 61.1865C3.99215 61.626 3.67106 62.4201 3.14785 62.5636C2.30073 62.7964 1.34207 62.6247 0.430438 62.6235C0.566485 61.8703 0.558642 61.0473 0.879805 60.3836C1.19492 59.7325 1.75665 58.8893 2.3613 58.7403C6.30316 57.7687 8.67432 54.055 12.5572 53.0389C16.6405 49.2029 21.7895 46.8972 26.2135 43.547C29.1195 41.3466 32.0777 39.2151 35.2413 37.0394ZM61.7603 58.4436C64.0053 57.7443 65.8678 56.6457 68.1288 56.623C68.9019 56.6152 69.6274 55.6687 70.4399 55.2922C72.5217 54.3277 74.6778 53.5173 76.7323 52.5012C78.3422 51.705 79.8151 50.6354 81.4152 49.8162C81.8354 49.601 82.7324 49.6551 83.0065 49.9549C83.5401 50.5381 83.95 51.3621 82.8907 52.0283C82.4543 52.3024 82.1457 53.0932 81.7699 53.0986C79.3441 53.1341 77.8669 55.132 75.7623 55.8601C73.7095 56.5702 71.8794 57.8949 69.881 58.7934C66.8767 60.1441 63.8207 61.3827 60.7659 62.6179C59.649 63.0698 58.4534 63.3252 57.328 63.7594C54.8103 64.7304 52.3363 65.817 49.8044 66.748C46.0373 68.1334 42.2407 69.4398 38.4395 70.7289C38.1437 70.8292 37.7158 70.5154 37.3423 70.4215C37.0779 70.3553 36.8022 70.3358 36.5315 70.2953C36.6804 70.0368 36.7664 69.6411 36.9873 69.5402C42.432 67.0559 47.8908 64.6029 53.3472 62.1446C56.0753 60.9153 58.8035 59.686 61.7603 58.4436ZM20.171 15.1999C20.9854 12.4292 22.1494 10.1149 22.362 7.39419C22.5678 4.76325 24.2808 2.462 26.2766 0.598291C26.394 0.488956 27.1753 0.78878 27.3311 1.07189C28.191 2.63362 28.0014 4.15525 26.9774 5.60881C26.5706 6.18609 26.0986 6.79047 25.9337 7.45208C25.1312 10.6721 23.9139 13.727 22.343 16.6306C21.2316 18.6847 20.1782 20.837 18.6938 22.6055C16.8097 24.8503 15.815 27.525 14.4123 29.9964C12.5369 33.3002 10.5555 36.4656 6.83052 37.9836C6.53794 38.1029 6.13518 37.9534 5.78357 37.929C5.82389 37.6529 5.76928 37.2986 5.92083 37.114C6.67262 36.1998 7.4529 35.3057 8.27101 34.4504C9.93145 32.7147 10.9293 30.5847 12.0507 28.5011C13.0223 26.6952 14.4255 25.127 15.4857 23.3625C17.0468 20.7648 18.4726 18.0859 20.171 15.1999Z" fill="#090809"/>
</svg>
