<svg width="84" height="71" viewBox="0 0 84 71" fill="none" xmlns="http://www.w3.org/2000/svg">
<path d="M48.3207 34.2196C47.1311 34.9888 46.2079 35.8005 45.2015 36.4903C41.862 38.7787 39.1858 41.9751 35.3942 43.6436C35.3044 43.6831 35.2612 43.8516 35.1753 43.872C34.367 44.0631 33.4094 44.5823 32.7822 44.3196C32.0966 44.0323 32.8265 42.204 33.9202 41.4827C35.9314 40.1559 37.9466 38.8352 39.9657 37.5206C41.3102 36.6449 42.7143 35.8514 44.0024 34.9005C45.9691 33.4489 47.6493 31.3407 49.8323 30.5152C52.8363 29.3794 54.5425 26.7496 57.2781 25.3145C60.4705 23.6393 63.119 20.9591 66.1172 18.8791C69.8281 16.3045 73.6606 13.9054 77.4285 11.412C78.0219 11.0192 78.5789 10.5588 79.0994 10.0726C79.5699 9.63309 79.891 8.83902 80.4142 8.69549C81.2613 8.46263 82.2199 8.6344 83.1316 8.63558C82.9955 9.38872 83.0034 10.2118 82.6822 10.8755C82.3671 11.5265 81.8054 12.3698 81.2007 12.5188C77.2589 13.4903 74.8877 17.2041 71.0049 18.2201C66.9215 22.0562 61.7725 24.3618 57.3485 27.712C54.4425 29.9125 51.4843 32.0439 48.3207 34.2196ZM21.8017 12.8155C19.5568 13.5147 17.6942 14.6133 15.4332 14.6361C14.6601 14.6439 13.9346 15.5903 13.1221 15.9669C11.0403 16.9314 8.88425 17.7417 6.8297 18.7579C5.21985 19.5541 3.74695 20.6236 2.14686 21.4428C1.7266 21.658 0.829641 21.6039 0.555558 21.3042C0.0219285 20.721 -0.388017 19.897 0.671328 19.2308C1.10767 18.9566 1.41635 18.1659 1.79207 18.1604C4.21795 18.1249 5.69507 16.1271 7.79969 15.3989C9.85253 14.6889 11.6826 13.3642 13.681 12.4657C16.6853 11.115 19.7413 9.87639 22.7961 8.64112C23.913 8.18932 25.1087 7.93388 26.234 7.49967C28.7518 6.52863 31.2257 5.44206 33.7576 4.51107C37.5247 3.12568 41.3213 1.81933 45.1225 0.530171C45.4183 0.429898 45.8462 0.743704 46.2197 0.837591C46.4841 0.9038 46.7598 0.923301 47.0306 0.963769C46.8816 1.22231 46.7956 1.61803 46.5747 1.71891C41.1301 4.20318 35.6712 6.65614 30.2149 9.11445C27.4867 10.3438 24.7586 11.5731 21.8017 12.8155ZM63.391 56.0591C62.5766 58.8297 61.4126 61.1441 61.2 63.8648C60.9942 66.4957 59.2812 68.7969 57.2854 70.6606C57.1681 70.77 56.3867 70.4701 56.2309 70.187C55.371 68.6253 55.5606 67.1037 56.5847 65.6501C56.9914 65.0728 57.4634 64.4685 57.6283 63.8069C58.4308 60.5868 59.6481 57.5319 61.219 54.6283C62.3304 52.5743 63.3838 50.422 64.8682 48.6535C66.7523 46.4087 67.747 43.734 69.1497 41.2626C71.0251 37.9588 73.0065 34.7934 76.7315 33.2754C77.0241 33.1561 77.4268 33.3056 77.7784 33.33C77.7381 33.6061 77.7927 33.9604 77.6412 34.145C76.8894 35.0592 76.1091 35.9533 75.291 36.8086C73.6306 38.5443 72.6327 40.6743 71.5113 42.7579C70.5397 44.5638 69.1365 46.132 68.0763 47.8965C66.5152 50.4941 65.0894 53.173 63.391 56.0591Z" fill="#090809"/>
</svg>
