<svg width="139" height="151" viewBox="0 0 139 151" fill="none" xmlns="http://www.w3.org/2000/svg">
<path d="M114.436 93.8493C114.436 91.8835 114.201 89.9247 113.736 88.0146C113.726 87.9756 113.701 87.9419 113.667 87.921C113.633 87.9001 113.591 87.8937 113.552 87.9032C113.513 87.9127 113.48 87.9373 113.459 87.9716C113.438 88.006 113.431 88.0472 113.441 88.0863C113.904 89.9723 114.137 91.9074 114.134 93.8493C114.134 102.972 108.128 113.829 99.1599 115.572C98.8565 114.076 98.2113 112.669 97.2746 111.462C96.3379 110.255 95.135 109.281 93.7597 108.615L65.9304 95.0832C65.748 92.1781 66.1488 89.266 67.1092 86.5181C67.1223 86.4811 67.1204 86.4405 67.104 86.4049C67.0877 86.3693 67.0582 86.3414 67.0216 86.3271C67.0028 86.3194 66.9827 86.3156 66.9624 86.3159C66.9421 86.3161 66.9221 86.3205 66.9035 86.3287C66.8849 86.3368 66.8682 86.3487 66.8542 86.3634C66.8403 86.3782 66.8295 86.3956 66.8225 86.4146C65.8662 89.1554 65.4629 92.0583 65.6357 94.9558L31.2673 78.2954C28.8922 77.1479 26.1588 76.9878 23.6658 77.8501C21.1728 78.7125 19.1232 80.527 17.966 82.8963L15.7199 87.529L13.0676 86.2554C12.2014 85.8359 11.204 85.7771 10.2945 86.092C9.38502 86.407 8.63779 87.0698 8.217 87.935L0.363644 104.094C-0.0561645 104.96 -0.11497 105.956 0.200147 106.865C0.515263 107.774 1.17853 108.521 2.04423 108.942L87.7462 150.549C88.1743 150.758 88.6395 150.88 89.1149 150.908C89.5904 150.937 90.0668 150.871 90.5168 150.715C90.9667 150.559 91.3814 150.315 91.737 149.999C92.0926 149.682 92.3821 149.298 92.5889 148.869L100.45 132.71C100.867 131.846 100.925 130.851 100.61 129.944C100.295 129.037 99.6332 128.291 98.7696 127.871L96.1093 126.573L98.3634 121.94C99.2783 120.067 99.5766 117.952 99.2156 115.899C108.327 114.116 114.436 103.091 114.436 93.8493ZM2.17167 108.639C1.37865 108.251 0.771639 107.566 0.483529 106.732C0.195419 105.898 0.249686 104.984 0.634449 104.189L8.48781 88.0305C8.67906 87.6364 8.94631 87.2838 9.27424 86.9931C9.60216 86.7024 9.98429 86.4793 10.3987 86.3366C10.8131 86.1938 11.2517 86.1343 11.6892 86.1613C12.1266 86.1884 12.5545 86.3015 12.9481 86.4942L18.5235 89.2086C18.9167 89.399 19.2683 89.665 19.5585 89.9914C19.8486 90.3178 20.0714 90.6982 20.2142 91.1108C20.357 91.5234 20.4169 91.96 20.3906 92.3958C20.3643 92.8316 20.2522 93.2579 20.0608 93.6503L12.2074 109.809C11.8225 110.603 11.1383 111.211 10.3049 111.501C9.47161 111.79 8.55736 111.737 7.76301 111.354L2.17167 108.639ZM9.06924 111.982C9.77427 112.011 10.4724 111.834 11.078 111.472C11.6835 111.11 12.1702 110.579 12.4782 109.945L18.0536 98.4264L86.0497 131.437L80.4743 142.955C80.1594 143.595 80.0398 144.314 80.1304 145.022C80.2211 145.729 80.5179 146.395 80.984 146.935L9.06924 111.982ZM98.6342 128.11C99.028 128.299 99.3805 128.565 99.6714 128.891C99.9623 129.217 100.186 129.597 100.33 130.01C100.473 130.422 100.534 130.859 100.508 131.295C100.482 131.732 100.371 132.158 100.179 132.551L92.318 148.71C92.1276 149.103 91.8614 149.455 91.5348 149.744C91.2082 150.034 90.8276 150.257 90.4147 150.4C90.0019 150.543 89.565 150.602 89.1289 150.576C88.6929 150.55 88.2663 150.438 87.8736 150.246L82.2982 147.532C81.5058 147.146 80.8989 146.462 80.6107 145.629C80.3225 144.796 80.3766 143.883 80.761 143.09L88.6144 126.931C88.8056 126.538 89.0726 126.187 89.3999 125.897C89.7272 125.607 90.1085 125.384 90.522 125.241C90.9355 125.099 91.3731 125.039 91.8097 125.065C92.2463 125.092 92.6735 125.204 93.0667 125.395L98.6342 128.11ZM98.0926 121.741L95.8385 126.374L93.1782 125.085C92.75 124.876 92.2847 124.753 91.809 124.724C91.3333 124.695 90.8565 124.76 90.406 124.915C89.9554 125.07 89.5399 125.313 89.1833 125.629C88.8267 125.945 88.5359 126.328 88.3276 126.756L86.2249 131.166L18.2129 98.1956L20.3316 93.8255C20.7519 92.9608 20.8119 91.9648 20.4983 91.0559C20.1848 90.1471 19.5232 89.3997 18.6589 88.9778L15.9987 87.6882L18.2448 83.0555C19.3661 80.7559 21.354 78.9945 23.7728 78.1574C26.1915 77.3203 28.8437 77.4758 31.1479 78.5899L93.6243 108.926C95.918 110.043 97.6756 112.023 98.5129 114.432C99.3502 116.841 99.1991 119.483 98.0926 121.781V121.741Z" fill="#090809"/>
<path d="M75.0739 48.6919C79.0563 46.3038 79.1997 45.2053 78.4112 45.5078C77.2005 45.9138 76.3244 46.1446 75.504 46.3516C78.9687 43.0641 78.5386 41.9656 77.8935 42.491C76.7465 43.3825 75.504 44.3457 74.4765 45.1257C77.9811 41.0024 77.7103 39.2114 77.1129 39.8801C76.1651 40.9387 74.6757 42.682 73.5207 43.9079C76.0456 39.8641 75.1137 39.9995 74.1022 41.2253C72.9154 42.6661 70.3906 45.6193 70.2551 45.9218C70.1361 46.2587 70.0585 46.6089 70.0242 46.9645C67.6984 44.4093 67.1568 45.1576 67.6984 45.9138C68.6107 47.2288 69.3096 48.6794 69.7693 50.2122C69.7647 51.1951 69.6714 52.1755 69.4905 53.1415C69.371 53.3883 68.8533 54.3515 68.1763 55.5296C69.6787 56.8854 71.5775 57.7226 73.5924 57.9176C73.9031 57.0738 74.1818 56.2778 74.3889 55.5853C75.2491 52.9823 75.4403 52.4013 75.0102 50.865C74.6597 49.6948 74.3252 49.1297 75.0739 48.6919Z" fill="#BF0808"/>
<path d="M65.516 45.46C65.516 45.46 64.178 40.0312 64.3293 37.3646C64.4965 34.3955 63.6921 35.3905 63.3177 36.4014C62.9434 37.4123 62.2743 40.2541 61.5336 39.2033C61.2389 38.5267 60.984 38.0332 60.777 37.6113C60.1287 35.7273 59.5967 33.8053 59.184 31.8562C58.8415 30.1448 58.4432 30.4154 58.3875 30.6861C58.2123 31.6873 58.1775 32.708 58.2839 33.7188C56.3326 31.2512 55.2812 31.1239 56.691 33.894C58.5388 37.5636 60.076 41.9177 59.8769 46.0092C61.7683 46.4118 63.738 46.2199 65.516 45.46Z" fill="#BF0808"/>
<path d="M38.627 59.5732L41.3271 61.5791L38.1411 62.1443C37.026 57.1056 36.7632 57.1852 36.2853 55.2111C34.3737 54.8051 34.9711 52.5524 36.2853 53.2688C36.9225 53.6031 37.1535 53.5633 37.1455 53.1574C37.3287 49.8062 39.8456 48.7555 41.7094 52.0589C43.5731 55.3623 44.6245 61.8896 38.627 59.5732Z" fill="#BF0808"/>
<path d="M138.912 129.136C138.968 129.009 138.997 128.872 139 128.733C139.002 128.594 138.977 128.455 138.926 128.326C138.875 128.197 138.799 128.079 138.702 127.979C138.606 127.879 138.49 127.799 138.363 127.743L130.127 124.114C128.393 123.357 127.016 121.963 126.28 120.221C126.28 120.134 123.022 112.532 123.221 113.009C123.139 112.821 122.987 112.672 122.797 112.593C122.607 112.515 122.393 112.513 122.202 112.587L116.021 115.047C115.924 115.087 115.836 115.146 115.762 115.22C115.688 115.294 115.629 115.382 115.589 115.479C115.549 115.576 115.529 115.68 115.529 115.785C115.53 115.889 115.551 115.993 115.591 116.09C116.021 117.133 113.998 112.325 119.836 126.231C120.313 127.366 121.024 128.389 121.923 129.231C122.822 130.073 123.889 130.716 125.053 131.118L130.238 132.901C131.888 133.479 133.695 133.415 135.3 132.724C136.905 132.032 138.191 130.763 138.904 129.168C138.904 129.168 138.912 129.152 138.912 129.136ZM116.133 115.326L122.313 112.858C122.433 112.811 122.566 112.813 122.684 112.864C122.802 112.914 122.895 113.01 122.943 113.129L125.244 118.549L118.14 121.407L115.862 115.97C115.837 115.91 115.825 115.846 115.825 115.781C115.825 115.716 115.838 115.652 115.863 115.592C115.888 115.532 115.925 115.478 115.971 115.432C116.018 115.386 116.072 115.35 116.133 115.326ZM130.342 132.623L125.149 130.832C124.025 130.445 122.996 129.825 122.128 129.013C121.26 128.201 120.575 127.215 120.115 126.119L118.259 121.686L125.364 118.828L126.001 120.333C126.761 122.144 128.186 123.597 129.984 124.392L138.227 128.022C138.406 128.11 138.545 128.262 138.618 128.448C138.69 128.633 138.69 128.839 138.617 129.025C137.939 130.551 136.713 131.767 135.18 132.433C133.648 133.1 131.922 133.167 130.342 132.623Z" fill="#090809"/>
<path d="M68.7416 81.6227C68.7226 81.8047 68.6368 81.9733 68.5007 82.0959C68.3647 82.2185 68.188 82.2863 68.0048 82.2863C67.8216 82.2863 67.645 82.2185 67.5089 82.0959C67.3728 81.9733 67.287 81.8047 67.2681 81.6227C67.287 81.4406 67.3728 81.272 67.5089 81.1494C67.645 81.0269 67.8216 80.959 68.0048 80.959C68.188 80.959 68.3647 81.0269 68.5007 81.1494C68.6368 81.272 68.7226 81.4406 68.7416 81.6227Z" fill="#090809"/>
<path d="M79.805 73.4475C79.7861 73.6296 79.7003 73.7981 79.5642 73.9207C79.4281 74.0433 79.2515 74.1111 79.0683 74.1111C78.8851 74.1111 78.7084 74.0433 78.5724 73.9207C78.4363 73.7981 78.3505 73.6296 78.3315 73.4475C78.3505 73.2654 78.4363 73.0968 78.5724 72.9742C78.7084 72.8517 78.8851 72.7838 79.0683 72.7838C79.2515 72.7838 79.4281 72.8517 79.5642 72.9742C79.7003 73.0968 79.7861 73.2654 79.805 73.4475Z" fill="#090809"/>
<path d="M93.0187 78.1121C92.9997 78.2942 92.9139 78.4628 92.7778 78.5854C92.6418 78.7079 92.4651 78.7757 92.2819 78.7757C92.0987 78.7757 91.9221 78.7079 91.786 78.5854C91.6499 78.4628 91.5641 78.2942 91.5452 78.1121C91.5641 77.93 91.6499 77.7614 91.786 77.6389C91.9221 77.5163 92.0987 77.4485 92.2819 77.4485C92.4651 77.4485 92.6418 77.5163 92.7778 77.6389C92.9139 77.7614 92.9997 77.93 93.0187 78.1121Z" fill="#090809"/>
<path d="M107.036 74.1879C107.017 74.37 106.931 74.5386 106.795 74.6612C106.659 74.7837 106.483 74.8516 106.299 74.8516C106.116 74.8516 105.94 74.7837 105.804 74.6612C105.668 74.5386 105.582 74.37 105.563 74.1879C105.582 74.0059 105.668 73.8373 105.804 73.7147C105.94 73.5921 106.116 73.5243 106.299 73.5243C106.483 73.5243 106.659 73.5921 106.795 73.7147C106.931 73.8373 107.017 74.0059 107.036 74.1879Z" fill="#090809"/>
<path d="M114.85 85.0535C114.85 85.2498 114.772 85.4381 114.633 85.577C114.494 85.7158 114.306 85.7938 114.11 85.7938C113.913 85.7938 113.725 85.7158 113.586 85.577C113.447 85.4381 113.369 85.2498 113.369 85.0535C113.369 84.8572 113.447 84.6689 113.586 84.5301C113.725 84.3912 113.913 84.3132 114.11 84.3132C114.306 84.3132 114.494 84.3912 114.633 84.5301C114.772 84.6689 114.85 84.8572 114.85 85.0535Z" fill="#090809"/>
<path d="M76.7464 66.1323C76.7464 66.3287 76.6683 66.5169 76.5294 66.6558C76.3905 66.7946 76.2021 66.8726 76.0056 66.8726C75.8092 66.8726 75.6208 66.7946 75.4818 66.6558C75.3429 66.5169 75.2649 66.3287 75.2649 66.1323C75.2649 65.936 75.3429 65.7477 75.4818 65.6089C75.6208 65.47 75.8092 65.392 76.0056 65.392C76.2021 65.392 76.3905 65.47 76.5294 65.6089C76.6683 65.7477 76.7464 65.936 76.7464 66.1323Z" fill="#090809"/>
<path d="M90.2074 62.9801C90.1884 63.1621 90.1026 63.3307 89.9666 63.4533C89.8305 63.5759 89.6538 63.6437 89.4706 63.6437C89.2875 63.6437 89.1108 63.5759 88.9747 63.4533C88.8387 63.3307 88.7529 63.1621 88.7339 62.9801C88.7529 62.798 88.8387 62.6294 88.9747 62.5068C89.1108 62.3843 89.2875 62.3164 89.4706 62.3164C89.6538 62.3164 89.8305 62.3843 89.9666 62.5068C90.1026 62.6294 90.1884 62.798 90.2074 62.9801Z" fill="#090809"/>
<path d="M93.0187 50.7772C92.9997 50.9592 92.9139 51.1278 92.7778 51.2504C92.6418 51.3729 92.4651 51.4408 92.2819 51.4408C92.0987 51.4408 91.9221 51.3729 91.786 51.2504C91.6499 51.1278 91.5641 50.9592 91.5452 50.7772C91.5641 50.5951 91.6499 50.4265 91.786 50.3039C91.9221 50.1814 92.0987 50.1135 92.2819 50.1135C92.4651 50.1135 92.6418 50.1814 92.7778 50.3039C92.9139 50.4265 92.9997 50.5951 93.0187 50.7772Z" fill="#090809"/>
<path d="M107.036 46.9725C107.017 47.1546 106.931 47.3232 106.795 47.4458C106.659 47.5683 106.483 47.6362 106.299 47.6362C106.116 47.6362 105.94 47.5683 105.804 47.4458C105.668 47.3232 105.582 47.1546 105.563 46.9725C105.582 46.7904 105.668 46.6218 105.804 46.4993C105.94 46.3767 106.116 46.3089 106.299 46.3089C106.483 46.3089 106.659 46.3767 106.795 46.4993C106.931 46.6218 107.017 46.7904 107.036 46.9725Z" fill="#090809"/>
<path d="M110.518 34.0294C110.518 34.2257 110.44 34.414 110.301 34.5529C110.162 34.6917 109.974 34.7697 109.777 34.7697C109.581 34.7697 109.392 34.6917 109.253 34.5529C109.114 34.414 109.036 34.2257 109.036 34.0294C109.036 33.8331 109.114 33.6448 109.253 33.5059C109.392 33.3671 109.581 33.2891 109.777 33.2891C109.974 33.2891 110.162 33.3671 110.301 33.5059C110.44 33.6448 110.518 33.8331 110.518 34.0294Z" fill="#090809"/>
<path d="M128.908 52.2182L125.196 52.7993L124.607 49.0819C124.607 49.06 124.602 49.0382 124.593 49.0183C124.584 48.9983 124.571 48.9806 124.554 48.9663C124.537 48.952 124.518 48.9416 124.497 48.9356C124.475 48.9297 124.453 48.9285 124.432 48.932C124.41 48.9355 124.389 48.9437 124.371 48.956C124.353 48.9683 124.337 48.9844 124.326 49.0032C124.315 49.022 124.308 49.0431 124.305 49.0649C124.303 49.0868 124.305 49.1089 124.312 49.1297L124.894 52.847L121.174 53.4281C121.152 53.428 121.13 53.4327 121.111 53.4419C121.091 53.451 121.073 53.4644 121.059 53.4811C121.044 53.4978 121.034 53.5174 121.028 53.5386C121.022 53.5597 121.021 53.5819 121.024 53.6036C121.028 53.6253 121.036 53.6459 121.048 53.6641C121.061 53.6823 121.077 53.6976 121.095 53.7089C121.114 53.7203 121.135 53.7273 121.157 53.7297C121.179 53.7321 121.201 53.7297 121.222 53.7226L124.942 53.1416L125.523 56.8589C125.526 56.8788 125.533 56.8978 125.544 56.915C125.554 56.9321 125.568 56.947 125.584 56.9589C125.601 56.9707 125.619 56.9792 125.639 56.9839C125.658 56.9886 125.678 56.9894 125.698 56.9863C125.718 56.9831 125.737 56.9761 125.754 56.9656C125.772 56.9551 125.786 56.9414 125.798 56.9251C125.81 56.9088 125.819 56.8904 125.823 56.8709C125.828 56.8513 125.829 56.831 125.826 56.8112L125.252 53.0938L128.972 52.5127C128.993 52.5101 129.013 52.5032 129.031 52.4924C129.049 52.4816 129.064 52.4672 129.076 52.4501C129.088 52.4329 129.097 52.4135 129.101 52.3929C129.105 52.3724 129.105 52.3512 129.101 52.3307C129.096 52.3102 129.088 52.2908 129.075 52.2739C129.063 52.2569 129.047 52.2427 129.029 52.2321C129.011 52.2215 128.991 52.2148 128.97 52.2124C128.949 52.21 128.928 52.212 128.908 52.2182Z" fill="#090809"/>
<path d="M29.2199 16.2067C29.2317 14.988 28.9065 13.7897 28.28 12.7441C27.5725 11.6872 26.5738 10.8578 25.4047 10.356C25.3828 10.3473 25.3591 10.3437 25.3355 10.3457C25.312 10.3477 25.2892 10.3552 25.2691 10.3676C25.2489 10.38 25.232 10.3969 25.2196 10.417C25.2072 10.4371 25.1996 10.4599 25.1976 10.4834C25.1681 11.7505 25.4966 13.0003 26.1454 14.0893C26.7503 14.9915 27.5718 15.7277 28.5349 16.2306C27.2126 16.3224 25.9777 16.9238 25.0904 17.9079C24.2032 18.892 23.733 20.182 23.779 21.5059C23.8249 22.8298 24.3835 24.0841 25.3368 25.0044C26.2902 25.9247 27.5639 26.439 28.8893 26.439C30.2148 26.439 31.4885 25.9247 32.4418 25.0044C33.3952 24.0841 33.9537 22.8298 33.9997 21.5059C34.0457 20.182 33.5755 18.892 32.6882 17.9079C31.801 16.9238 30.566 16.3224 29.2438 16.2306L29.2199 16.2067ZM25.5003 10.7302C26.5356 11.1927 27.4117 11.9496 28.0194 12.9065C28.627 13.8635 28.9393 14.978 28.9172 16.1112C27.8832 15.6492 27.0079 14.8935 26.4003 13.9381C25.7928 12.9828 25.4798 11.8699 25.5003 10.7381V10.7302ZM29.0765 26.1568C28.1219 26.1568 27.1887 25.8739 26.3949 25.3438C25.6012 24.8138 24.9825 24.0604 24.6172 23.179C24.2519 22.2975 24.1563 21.3276 24.3425 20.3919C24.5288 19.4562 24.9885 18.5967 25.6635 17.922C26.3385 17.2474 27.1986 16.788 28.1349 16.6019C29.0711 16.4157 30.0416 16.5113 30.9236 16.8764C31.8056 17.2415 32.5594 17.8598 33.0898 18.653C33.6201 19.4463 33.9032 20.3789 33.9032 21.333C33.9032 22.6131 33.3949 23.8409 32.49 24.7468C31.585 25.6527 30.3574 26.1626 29.0765 26.1648V26.1568Z" fill="#090809"/>
<path d="M137.304 87.8473C137.304 87.4652 136.579 86.8205 131.728 84.9658C128.917 83.8991 124.01 81.535 121.469 80.2693C121.616 79.516 121.702 78.7519 121.724 77.9848C121.723 77.9574 121.715 77.9308 121.701 77.9072C121.687 77.8836 121.668 77.8638 121.645 77.8495C113.472 73.492 104.845 70.0458 95.9181 67.573C94.0768 67.0542 92.1454 66.9375 90.2551 67.2307C100.255 58.2107 109.748 48.644 118.69 38.5744C118.707 38.5484 118.716 38.518 118.716 38.4869C118.716 38.4557 118.707 38.4253 118.69 38.3993C118.22 37.6033 117.734 36.8073 117.224 36.1227C118.929 33.7904 121.724 31.673 122.194 30.1129C122.431 29.275 122.499 28.3982 122.393 27.5338C122.051 23.904 125.277 16.6603 123.07 16.3897C122.688 16.3897 121.907 16.8912 119.088 21.2215C117.646 23.4423 114.309 27.7885 111.792 30.877C110.91 30.3234 109.973 29.8619 108.996 29.4999C108.972 29.4835 108.943 29.4747 108.913 29.4747C108.883 29.4747 108.854 29.4835 108.829 29.4999C97.3804 42.4533 84.9762 54.5307 71.7208 65.6307C72.7403 63.5372 73.8952 60.8547 75.3448 57.4239C75.3448 57.3443 76.0617 56.6279 74.5483 55.2508C75.4324 52.5603 75.5041 52.1702 74.9147 50.2439C74.6439 49.3444 74.5802 49.0499 75.074 48.7474C79.7972 45.9295 79.0565 44.9982 78.26 45.2609C77.3042 45.5793 76.5555 45.7942 75.8705 45.9693C79.4149 42.5147 78.3794 41.7027 77.6467 42.2679L75.2572 44.1624C78.3715 40.1824 77.5113 38.9724 76.8502 39.6729L74.2616 42.6102C74.6282 42.03 74.9225 41.4071 75.1377 40.7555C75.2731 40.2222 74.9227 40.0948 74.5563 40.3336C73.8383 40.9621 73.1967 41.6728 72.6447 42.451C71.0518 44.3057 70.0641 45.5395 69.9606 45.7624C69.8697 46.0204 69.8056 46.2872 69.7694 46.5584C68.5667 45.2768 67.7065 44.7435 67.3322 45.046C67.133 45.2131 67.1649 45.5634 67.4277 45.9216C68.3254 47.2176 69.0135 48.6466 69.4668 50.1563C69.4461 51.0839 69.3663 52.0091 69.2278 52.9265C68.872 52.847 68.502 52.8562 68.1506 52.9534C67.7992 53.0506 67.4771 53.2327 67.2127 53.4837L66.695 44.2102C66.6472 44.1306 66.8543 43.255 65.0463 42.7137C64.6374 40.9379 64.4238 39.1229 64.4091 37.3008C64.5126 35.5098 64.2498 35.2232 64.0188 35.1755C63.5966 35.0879 63.2223 35.9715 63.1108 36.274C62.8241 37.07 62.2665 39.1476 61.8046 39.2192C61.7169 39.2192 61.6373 39.1476 61.5815 39.068C60.4903 36.5924 61.016 38.4789 59.8452 34.2282C59.2478 32.0392 59.1443 30.2959 58.5071 30.288C58.423 30.2925 58.343 30.3259 58.2807 30.3824C58.2183 30.4389 58.1773 30.5152 58.1646 30.5984C58.0072 31.4566 57.959 32.3312 58.0212 33.2014C57.615 32.7238 56.4283 31.3546 55.9583 31.681C54.9946 32.3337 58.5151 36.1784 59.4071 42.9366C57.4876 43.653 57.6788 44.5286 57.6788 44.6161L58.6266 59.191L47.651 62.5104C47.6911 62.107 47.6224 61.7002 47.4519 61.3323C48.0346 61.3215 48.5947 61.1044 49.0323 60.7196C49.4698 60.3347 49.7565 59.8072 49.8413 59.2308C49.9048 58.7866 49.8439 58.3335 49.6654 57.9218C49.4868 57.5101 49.1976 57.1559 48.8298 56.8985C49.3253 56.7509 49.761 56.4497 50.0739 56.0383C50.3868 55.627 50.5607 55.1268 50.5705 54.6102C50.5802 54.0935 50.4253 53.5872 50.1282 53.1643C49.831 52.7414 49.407 52.424 48.9174 52.2578C49.2949 51.9333 49.564 51.501 49.6883 51.0191C49.8126 50.5372 49.7862 50.0288 49.6127 49.5623C49.4392 49.0958 49.1268 48.6937 48.7177 48.41C48.3086 48.1262 47.8224 47.9745 47.3244 47.9753C47.5499 47.5419 47.6402 47.051 47.5837 46.5658C47.5273 46.0807 47.3267 45.6236 47.0078 45.2535C46.6889 44.8834 46.2663 44.6172 45.7946 44.4894C45.323 44.3617 44.8238 44.3781 44.3615 44.5365C44.4306 44.0388 44.3445 43.5318 44.1149 43.0848C43.8854 42.6377 43.5235 42.2722 43.0785 42.0381C42.6336 41.8041 42.1273 41.7128 41.6285 41.7767C41.1298 41.8406 40.6629 42.0566 40.2914 42.3953C40.2091 41.8638 39.9601 41.3722 39.5803 40.9913C39.2004 40.6103 38.7094 40.3597 38.1779 40.2756C37.6464 40.1915 37.1019 40.2783 36.6229 40.5233C36.1439 40.7683 35.7551 41.159 35.5125 41.6391C35.2652 41.1964 34.8862 40.8416 34.4281 40.6237C33.97 40.4059 33.4555 40.3359 32.9558 40.4233C32.4561 40.5108 31.9959 40.7514 31.6392 41.1119C31.2824 41.4723 31.0467 41.9347 30.9646 42.4351C30.5764 42.1406 30.1088 41.9693 29.6222 41.9431C29.1356 41.9169 28.6523 42.0371 28.2347 42.2882C27.8171 42.5393 27.4844 42.9097 27.2796 43.3516C27.0748 43.7936 27.0073 44.2867 27.0857 44.7674C26.614 44.6231 26.1097 44.6248 25.639 44.7721C25.1683 44.9195 24.7532 45.2057 24.4482 45.5932C24.1432 45.9806 23.9626 46.4512 23.9301 46.9431C23.8976 47.435 24.0148 47.9252 24.2661 48.3494C23.6829 48.3586 23.122 48.5752 22.6841 48.9603C22.2462 49.3454 21.9599 49.8739 21.8767 50.4509C21.8093 50.8961 21.8692 51.3514 22.0496 51.7641C22.23 52.1768 22.5235 52.53 22.8962 52.7832C22.4029 52.9366 21.9709 53.2421 21.6622 53.6561C21.3535 54.07 21.1839 54.571 21.1777 55.0873C21.1715 55.6035 21.329 56.1084 21.6277 56.5296C21.9265 56.9508 22.351 57.2667 22.8404 57.4319C22.4688 57.7577 22.2052 58.1888 22.0845 58.6679C21.9637 59.1469 21.9916 59.6514 22.1645 60.1142C22.3373 60.5771 22.6468 60.9765 23.0521 61.2595C23.4573 61.5424 23.9391 61.6955 24.4334 61.6985C24.212 62.1333 24.1259 62.6244 24.1862 63.1085C24.2465 63.5927 24.4504 64.0477 24.7717 64.415C25.093 64.7823 25.5169 65.0451 25.9889 65.1696C26.4609 65.294 26.9594 65.2745 27.4202 65.1133C27.3482 65.6137 27.4338 66.124 27.6651 66.5735C27.8963 67.0231 28.2617 67.3896 28.7108 67.6223C29.1598 67.855 29.6701 67.9423 30.171 67.8721C30.6719 67.802 31.1385 67.5778 31.5062 67.2307C31.5808 67.7448 31.8178 68.2215 32.1827 68.5914C32.5476 68.9613 33.0212 69.2049 33.5345 69.2867C34.0477 69.3684 34.5737 69.2841 35.0356 69.046C35.4975 68.8079 35.8711 68.4284 36.1019 67.963C36.2685 68.267 36.4981 68.532 36.7754 68.7402C37.0526 68.9484 37.3712 69.0951 37.7097 69.1704C38.0482 69.2458 38.3989 69.248 38.7383 69.1771C39.0778 69.1062 39.3982 68.9636 39.6781 68.759C40.1318 70.0802 40.7386 71.3439 41.4862 72.5242C45.9863 79.4335 52.0157 82.8723 60.8089 82.5459C61.2629 83.2384 63.748 86.5259 69.3552 87.0752C75.1855 87.6324 91.3224 81.0812 92.5091 80.5877C100.744 82.7537 108.733 85.7654 116.348 89.5747C116.372 89.5954 116.403 89.6068 116.436 89.6068C116.468 89.6068 116.499 89.5954 116.523 89.5747C117.057 88.9299 117.59 88.2533 118.116 87.5369C122.226 89.5269 123.222 90.5299 126.24 89.5747C129.785 88.4204 137.527 90.0761 137.304 87.8473ZM67.7702 45.8181C67.603 45.5793 67.587 45.3883 67.6269 45.3485C67.6667 45.3087 68.3278 45.3485 69.8172 47.0042C69.7216 47.6887 69.6659 48.5484 69.6181 49.3922C69.166 48.1231 68.5444 46.9209 67.7702 45.8181ZM69.634 52.9822C69.9048 51.8598 69.873 46.9962 70.3429 45.9375C70.4624 45.6669 73.1625 42.4988 74.174 41.2729C74.3815 40.9808 74.6542 40.741 74.9705 40.5724C74.9705 40.6998 74.9068 41.3684 73.3775 43.7564C72.9872 44.1783 72.6288 44.5525 72.358 44.7833C72.2146 44.9186 72.4138 45.1415 72.5571 45.0062C73.6483 44.0271 75.9342 41.3286 77.2006 39.9197C77.2484 39.864 77.2803 39.8401 77.2803 39.8242C77.4157 40.055 77.0652 41.7585 74.3492 44.9505C74.0545 45.1733 73.7678 45.3723 73.497 45.5554C73.4713 45.5801 73.4552 45.6131 73.4515 45.6486C73.4478 45.684 73.4567 45.7197 73.4767 45.7492C73.4967 45.7787 73.5265 45.8002 73.5608 45.8099C73.5951 45.8196 73.6317 45.8168 73.6642 45.8022C75.6714 44.4649 78.0927 42.3077 78.1963 42.451C78.2998 42.5943 78.1246 43.6052 75.4006 46.1604L74.5165 46.4549C74.4774 46.4644 74.4437 46.489 74.4228 46.5234C74.4019 46.5577 74.3955 46.5989 74.405 46.638C74.4145 46.677 74.4391 46.7107 74.4735 46.7316C74.5078 46.7525 74.5491 46.7589 74.5882 46.7494C78.3396 45.8101 78.4272 45.6111 78.6264 45.6271C78.6741 45.7624 78.1564 46.7176 74.9864 48.6121C74.2616 49.0419 74.4289 49.5991 74.6917 50.4509C75.4404 52.8946 75.0103 53.1016 73.4412 57.806C71.5345 57.5928 69.7389 56.8011 68.2959 55.5374C69.6579 53.1175 69.5942 53.1971 69.634 53.022V52.9822ZM74.8988 57.8537C74.4607 58.8965 74.0466 59.8597 73.6563 60.7592C72.2007 60.7899 70.7558 60.5039 69.4218 59.9211C68.0877 59.3383 66.8964 58.4727 65.9304 57.3841C66.4799 56.2219 66.9339 55.1712 67.2207 54.4787C67.9056 56.5563 72.9155 58.7851 74.8988 57.8935V57.8537ZM58.5549 30.7338C58.5549 30.5746 58.6903 30.7338 58.7699 30.8372C59.0328 31.3308 59.2956 33.281 60.1956 36.4093C59.672 35.4695 59.0866 34.5653 58.4434 33.7029C58.3521 32.7125 58.3896 31.7145 58.5549 30.7338ZM56.8265 33.8302C56.1575 32.5089 56.1734 32.0551 56.2291 31.9994C56.2849 31.9437 56.5159 31.9118 57.6628 33.2014C58.5488 34.2546 59.3278 35.3932 59.9886 36.6003C60.7972 37.8896 61.4723 39.2579 62.0037 40.6839C62.0216 40.716 62.0506 40.7406 62.0853 40.7529C62.12 40.7652 62.158 40.7645 62.1922 40.7508C62.2264 40.7372 62.2544 40.7115 62.271 40.6787C62.2876 40.6458 62.2917 40.608 62.2824 40.5724C62.1391 40.2062 62.0037 39.8878 61.8762 39.5933C62.6727 39.5933 63.1825 37.3088 63.4692 36.4093C63.6922 35.8123 63.9551 35.5018 64.0347 35.5018C64.1144 35.5018 64.2816 35.6212 64.1861 37.3167C64.0745 39.4023 64.9109 43.3186 65.3728 45.3246C63.6606 46.0555 61.768 46.2552 59.9408 45.8977C60.0841 41.8062 58.6664 37.5078 56.8265 33.8302ZM58.1248 45.3644C59.662 46.9166 65.1737 46.6061 66.5277 44.9027L66.6791 47.6012C65.3788 48.2405 63.9581 48.5979 62.5099 48.65C61.0618 48.7022 59.619 48.4478 58.2761 47.9036L58.1248 45.3644ZM58.6425 59.4856L58.754 61.3243C58.754 61.3644 58.77 61.4029 58.7983 61.4313C58.8267 61.4596 58.8652 61.4756 58.9053 61.4756C58.9455 61.4756 58.984 61.4596 59.0123 61.4313C59.0407 61.4029 59.0567 61.3644 59.0567 61.3243C58.7779 56.5483 58.5788 53.2369 58.2602 48.2459C59.6083 48.773 61.0503 49.0181 62.497 48.966C63.9437 48.914 65.3643 48.566 66.6711 47.9434L67.0215 54.1682C66.2569 56.0866 63.5568 62.3751 61.239 63.9671C58.9213 65.5591 48.6466 63.9671 45.843 63.4019L58.6425 59.4856ZM36.4285 55.1473C36.4213 55.1193 36.4063 55.0938 36.3851 55.0741C36.3639 55.0543 36.3375 55.0411 36.309 55.0359C34.6444 54.6777 35.0904 52.7593 36.2294 53.3643C36.6913 53.611 36.9542 53.6667 37.1294 53.5633C37.1948 53.5138 37.2461 53.4481 37.2783 53.3727C37.3104 53.2973 37.3222 53.2148 37.3126 53.1334C37.4878 49.8857 39.8295 48.9703 41.5897 52.1066C42.7446 54.1603 43.6685 57.798 42.3862 59.2706C41.6933 60.0666 40.4507 60.1224 38.6746 59.4378C38.6417 59.4264 38.6058 59.4268 38.5731 59.4388C38.5404 59.4507 38.5129 59.4736 38.4951 59.5036C38.4773 59.5335 38.4704 59.5686 38.4755 59.603C38.4807 59.6375 38.4975 59.6691 38.5232 59.6925L40.9525 61.5154L38.2206 61.993C37.0338 56.6597 36.8427 57.002 36.4285 55.1473ZM41.8048 72.349C39.9569 69.5073 39.0569 65.6705 38.2923 62.2875L41.2472 61.7701C41.5409 62.282 41.8682 62.774 42.2269 63.2427C41.6222 63.3883 41.055 63.6595 40.5622 64.0387C40.535 64.0644 40.5182 64.0993 40.5152 64.1366C40.5122 64.1739 40.5232 64.211 40.546 64.2408C40.5688 64.2705 40.6018 64.2907 40.6386 64.2975C40.6755 64.3043 40.7135 64.2972 40.7454 64.2775C42.3384 63.0437 44.1066 63.2984 46.066 63.7124C49.0209 64.2696 58.9213 65.8695 61.4063 64.1661C62.9196 63.1313 64.5923 60.186 65.787 57.7025C66.7669 58.7787 67.9629 59.6362 69.2969 60.2192C70.6309 60.8021 72.0729 61.0973 73.5288 61.0855C68.9729 71.561 67.5631 72.6754 62.378 73.1451C56.9592 73.6551 51.4988 73.5135 46.1138 72.7232C46.0916 72.718 46.0685 72.7179 46.0462 72.7228C46.024 72.7278 46.0031 72.7378 45.9852 72.7519C45.9674 72.7661 45.9529 72.7841 45.943 72.8046C45.9331 72.8251 45.9279 72.8476 45.9279 72.8704C45.9279 72.8932 45.9331 72.9157 45.943 72.9362C45.9529 72.9568 45.9674 72.9748 45.9852 72.9889C46.0031 73.0031 46.024 73.013 46.0462 73.018C46.0685 73.023 46.0916 73.0229 46.1138 73.0177C48.4861 73.4192 50.8795 73.685 53.2821 73.8137L61.8922 75.6366C61.6453 78.2475 61.0001 81.5907 60.8727 82.2593C52.5255 82.4902 46.5598 79.6564 41.8048 72.349ZM116.436 89.2403C108.818 85.4436 100.83 82.4401 92.5967 80.2773C92.5653 80.2695 92.5325 80.2695 92.5012 80.2773C92.3259 80.3489 75.2811 87.306 69.4429 86.7568C63.8675 86.2235 61.478 82.8723 61.0877 82.331C61.7183 79.413 62.0967 76.4462 62.2187 73.4635C66.7348 73.0734 68.5906 71.9988 71.4261 66.379C84.8638 55.1761 97.4313 42.9701 109.02 29.8661C112.748 31.3308 115.91 34.1884 118.411 38.4948C109.401 48.6445 99.828 58.2807 89.7374 67.3581C89.2595 67.4536 85.1814 68.5123 71.4182 71.8794C71.3791 71.8889 71.3454 71.9135 71.3245 71.9479C71.3035 71.9822 71.2971 72.0234 71.3066 72.0625C71.3161 72.1015 71.3408 72.1352 71.3751 72.1561C71.4095 72.177 71.4508 72.1834 71.4898 72.1739L89.1878 67.78C91.3837 67.2328 93.6845 67.2685 95.8623 67.8834C104.739 70.3462 113.321 73.7708 121.453 78.0962C121.27 82.4106 119.152 85.913 116.436 89.2403Z" fill="#090809"/>
<path d="M11.3946 68.3055L9.45116 68.6478C9.00565 68.7242 8.54798 68.6215 8.17796 68.362C7.80793 68.1026 7.55555 67.7074 7.47587 67.2627L7.13338 65.3205C7.12181 65.2858 7.09803 65.2564 7.06645 65.2379C7.03488 65.2193 6.99765 65.2129 6.96167 65.2197C6.92569 65.2265 6.8934 65.2461 6.87079 65.2749C6.84817 65.3037 6.83676 65.3397 6.83868 65.3762L7.18117 67.3185C7.21995 67.5402 7.21438 67.7674 7.16477 67.987C7.11517 68.2065 7.02251 68.4141 6.89216 68.5977C6.76181 68.7812 6.59636 68.9371 6.40535 69.0564C6.21435 69.1757 6.00158 69.256 5.77935 69.2926L3.83592 69.6348C3.80118 69.6464 3.77182 69.6702 3.75327 69.7017C3.73472 69.7333 3.72825 69.7705 3.73506 69.8064C3.74187 69.8424 3.76149 69.8747 3.79029 69.8973C3.81909 69.9199 3.85511 69.9313 3.89168 69.9294L5.83511 69.5871C6.28061 69.5107 6.73828 69.6134 7.10831 69.8729C7.47833 70.1323 7.73071 70.5275 7.81039 70.9721L8.16881 72.9144C8.18039 72.9491 8.20416 72.9785 8.23574 72.997C8.26731 73.0155 8.30454 73.022 8.34052 73.0152C8.3765 73.0084 8.40879 72.9888 8.43141 72.96C8.45402 72.9312 8.46543 72.8952 8.46351 72.8587L8.12102 70.9164C8.04671 70.4715 8.15036 70.0151 8.40961 69.6458C8.66887 69.2765 9.06296 69.0239 9.50691 68.9423L11.4503 68.6C11.4851 68.5885 11.5144 68.5647 11.533 68.5332C11.5515 68.5016 11.558 68.4644 11.5512 68.4284C11.5444 68.3925 11.5248 68.3602 11.496 68.3376C11.4672 68.315 11.4312 68.3036 11.3946 68.3055ZM7.84225 70.192C7.55365 69.7417 7.09828 69.424 6.57584 69.3085C6.79982 69.1667 6.99334 68.9817 7.14513 68.7644C7.29691 68.5471 7.40392 68.3018 7.45994 68.0428C7.74855 68.4931 8.20391 68.8108 8.72635 68.9264C8.27577 69.2148 7.95788 69.6699 7.84225 70.192Z" fill="#090809"/>
<path d="M86.344 0L86.1768 14.8933L95.424 30.8931L95.5912 15.9998L86.344 0Z" fill="#090809"/>
<path d="M84.7275 26.881L83.3496 43.5574L95.2013 31.6969L89.61 22.0174L84.7275 26.881Z" fill="#090809"/>
</svg>
