<svg width="441" height="148" viewBox="0 0 441 148" fill="none" xmlns="http://www.w3.org/2000/svg">
<path d="M27.4002 8.45612C40.5749 10.7427 52.7389 13.5756 65.0488 14.5484C70.6918 14.9944 76.1993 15.7431 81.7583 16.6049C96.0305 18.8185 110.175 22.0397 124.71 22.2922C125.345 22.3032 125.973 22.5781 126.61 22.6973C144.955 26.1449 163.69 28.2339 181.555 33.354C207.663 40.8376 234.462 45.4438 260.383 53.1695C273.57 57.0995 287.262 59.0417 300.058 63.7952C311.507 68.047 323.512 69.8185 334.928 73.6295C342.6 76.1901 349.594 80.5338 358.132 78.5393C368.709 86.3159 382.215 84.7509 393.97 89.847C404.669 94.4853 416.986 97.8731 429.473 96.8483C430.08 96.7976 430.743 96.7607 431.305 96.946C434.218 97.9048 437.107 98.9371 440.005 99.9448C437.016 100.246 433.979 100.308 431.047 100.895C423.176 102.473 415.945 99.4845 408.631 97.7298C382.392 91.4309 355.911 85.82 330.187 77.8126C316.086 73.4228 301.379 71.5494 287.694 66.4442C275.613 61.9369 262.905 60.3708 250.862 56.362C215.458 44.5766 178.515 39.3741 142.501 30.2468C130.362 32.116 119.299 24.3085 107.136 26.2851C106.542 26.3815 105.88 26.0058 105.242 25.8937C91.4357 23.4616 77.7082 20.1976 63.7977 18.8673C52.3088 17.77 41.2106 15.2895 29.9827 13.109C27.0464 12.5385 23.7523 13.5931 20.8983 12.8473C15.1764 11.3537 9.66124 9.08353 4.0267 7.23648C1.97143 6.562 -0.567362 6.85217 0.556039 3.16761C1.97183 -1.4793 5.58226 1.17387 6.62669 2.01957C12.5078 6.78302 19.9205 6.0165 27.4002 8.45612ZM100.833 72.7518C80.8741 68.2818 61.8614 64.0453 42.8637 59.7373C40.7396 59.2554 38.4618 58.7237 36.729 57.5292C35.7561 56.8583 35.7541 54.7807 35.3142 53.3356C36.4621 53.1797 37.7369 52.6167 38.7355 52.9305C48.4562 55.9837 58.729 56.4163 68.3262 60.7484C74.908 63.7197 83.0819 62.9812 90.4209 64.4978C135.626 73.839 180.823 83.2256 225.956 92.9134C234.571 94.7629 243.543 95.4174 251.515 100.263C254.38 102.004 258.861 100.907 262.502 101.625C265.154 102.148 267.618 103.583 270.207 104.498C271.71 105.029 273.322 105.77 274.836 105.672C287.815 104.834 298.863 112.187 311.254 114.09C323.74 116.007 335.994 119.437 348.349 122.204C361.022 125.042 373.61 129.602 386.39 130.232C399.069 130.856 410.844 136.765 423.671 135.19C424.953 135.032 426.523 136.221 427.757 137.077C428.429 137.543 428.675 138.623 429.114 139.426C428.532 139.584 427.956 139.861 427.369 139.881C424.641 139.98 421.84 140.424 419.191 139.984C410.779 138.587 402.489 136.898 393.916 136.031C378.07 134.426 362.366 131.023 346.755 127.664C339.67 126.14 332.31 124.923 325.59 122.744C290.483 111.359 253.735 106.922 218.48 96.6345C205.91 92.9666 193.024 92.4806 180.574 88.8265C167.208 84.9035 153.512 81.579 139.728 79.7534C126.935 78.0596 114.346 75.7064 100.833 72.7518ZM268.458 162.129C233.322 154.26 199.187 146.375 164.936 139.029C142.677 134.255 120.373 129.341 97.8452 126.302C86.0805 124.716 74.0987 121.779 61.9382 123.79C60.7518 123.986 59.1539 123.626 58.2254 122.908C57.3064 122.198 56.3633 120.552 56.594 119.599C56.8215 118.661 58.5705 117.363 59.5479 117.447C70.4 118.372 81.2151 120.222 92.0716 120.478C110.628 120.914 127.83 127.767 145.837 130.644C151.689 131.578 157.287 134.764 163.532 132.709C164.325 132.448 165.604 132.801 166.329 133.324C173.327 138.361 181.902 135.919 189.522 138.308C197.54 140.823 205.933 142.144 214.163 143.988C222.392 145.831 230.716 147.335 238.834 149.581C263.085 156.291 287.545 162.142 311.928 168.305C321.027 170.604 329.96 174.76 339.33 175.776C352.956 177.252 366.679 181.246 380.496 176.743C381.19 176.517 381.953 176.503 382.683 176.39C382.493 177.247 382.545 178.671 382.077 178.87C378.433 180.412 374.772 182.535 370.957 182.919C363.644 183.658 356.311 184.145 348.879 182.26C334.422 178.592 319.73 175.861 305.248 172.283C293.217 169.311 281.348 165.68 268.458 162.129ZM244.521 206.612C253.24 209.445 262.046 208.624 269.025 214C269.788 214.588 271.431 213.897 272.61 214.11C276.482 214.807 280.35 215.554 284.179 216.454C291.024 218.064 297.811 219.923 304.68 221.414C307.035 221.926 309.663 221.23 311.994 221.795C325.115 224.974 338.31 226.452 351.796 224.759C353.018 224.607 354.43 225.956 355.753 226.608C354.657 227.302 353.637 228.403 352.452 228.624C344.969 230.024 337.564 230.811 329.799 229.832C289.661 224.77 251.055 212.381 211.343 205.539C198.478 203.323 185.704 199.84 172.784 198.879C158.878 197.846 145.259 194.276 131.128 194.952C124.026 195.291 116.822 193.204 109.643 192.389C105.351 191.903 100.988 191.964 96.7276 191.317C95.5099 191.13 94.5398 189.321 93.4553 188.257C94.8518 187.631 96.2176 186.556 97.6499 186.462C101.588 186.202 105.597 185.969 109.499 186.412C123.214 187.97 136.861 190.648 150.604 191.232C158.344 191.562 165.563 194.138 173.039 194.403C187.611 194.92 201.239 200.445 215.462 201.715C225.057 202.573 234.23 204.702 244.521 206.612Z" fill="#9EEFA1"/>
</svg>
