<svg width="144" height="136" viewBox="0 0 144 136" fill="none" xmlns="http://www.w3.org/2000/svg">
<path d="M120.927 95.0621C122.153 95.0621 123.147 94.068 123.147 92.8416C123.147 91.6153 122.153 90.6212 120.927 90.6212C119.7 90.6212 118.706 91.6153 118.706 92.8416C118.706 94.068 119.7 95.0621 120.927 95.0621Z" fill="#BF0808"/>
<path d="M114.242 96.2363C115.469 96.2363 116.463 95.2422 116.463 94.0158C116.463 92.7895 115.469 91.7953 114.242 91.7953C113.016 91.7953 112.022 92.7895 112.022 94.0158C112.022 95.2422 113.016 96.2363 114.242 96.2363Z" fill="#BF0808"/>
<path d="M64.7072 39.4144C64.9765 40.3724 64.8938 41.3951 64.4739 42.2973C64.2828 42.6955 63.981 43.0302 63.6045 43.2612C63.228 43.4922 62.7928 43.6096 62.3512 43.5995C59.7243 43.5995 59.3028 39.437 60.9286 37.894C62.0201 36.8402 64.0749 37.1337 64.7072 39.4144Z" fill="#BF0808"/>
<path d="M124.675 73.9109C124.171 73.67 122.937 74.1819 121.394 75.9432C119.802 77.8306 118.516 79.9567 117.585 82.2434C116.742 84.3811 116.9 85.5854 117.367 85.9316C114.273 84.0649 96.8253 72.7141 93.8069 70.742L91.5488 72.2474C92.3015 69.9065 93.393 63.3805 93.8747 60.9568C94.3865 59.7977 94.8758 58.6987 95.3274 57.7503L99.9791 56.3427C103.156 58.2245 119.918 70.1474 124.675 73.9109Z" fill="#BF0808"/>
<path d="M73.266 61.4839C82.8329 49.4406 85.0835 46.4674 87.2965 45.1652C89.6374 43.7727 91.1579 43.291 120.182 35.1918C119.648 35.3875 119.249 36.5768 119.354 38.9554C119.483 41.5055 119.91 44.0317 120.626 46.4824C121.319 48.7406 122.132 49.6438 122.711 49.5986C117.134 51.104 107.943 53.9719 95.3128 57.773C91.0751 66.8055 84.0222 85.8791 74.237 86.9479C72.6789 86.7447 70.9703 86.4813 69.5477 86.1952C75.9457 85.8791 75.4112 84.5393 74.2822 84.5318C71.866 84.5318 66.6723 84.3737 66.2508 84.4565C65.4003 84.7316 64.5903 85.1189 63.8421 85.6081C64.8357 81.25 63.669 81.1446 63.2626 82.2812C62.9422 83.1554 62.5494 84.0013 62.0883 84.8103C60.2468 83.2785 58.6657 81.4585 57.4065 79.4209C60.613 76.1617 61.3733 69.8389 60.3195 66.8507C62.5851 65.8646 72.8897 61.6118 73.266 61.4839Z" fill="#BF0808"/>
<path d="M129.395 112.856C127.009 99.2697 128.108 105.54 125.684 91.7803C125.471 90.5852 124.793 89.5233 123.798 88.8276C122.803 88.1319 121.573 87.8593 120.377 88.0694L48.2981 100.76C48.2629 100.766 48.2294 100.78 48.1994 100.799C48.1694 100.818 48.1435 100.843 48.1232 100.873C48.1029 100.902 48.0887 100.935 48.0812 100.97C48.0738 101.005 48.0733 101.041 48.0798 101.076L47.2066 101.234L47.7411 102.085H44.2937C44.2956 102.036 44.2842 101.987 44.2605 101.944C44.2368 101.9 44.2018 101.865 44.1592 101.84C44.1166 101.815 44.0681 101.802 44.0188 101.803C43.9696 101.804 43.9215 101.818 43.8797 101.844C43.0898 102.323 42.4621 103.028 42.0782 103.869C41.6943 104.709 41.5719 105.645 41.7269 106.556C43.0743 114.226 44.6098 122.957 45.4378 127.632C45.6508 128.827 46.3287 129.89 47.3233 130.587C48.3178 131.284 49.5479 131.558 50.7444 131.35L125.684 118.14C126.873 117.925 127.93 117.25 128.625 116.261C129.32 115.271 129.596 114.048 129.395 112.856ZM120.964 90.8394C121.365 90.8394 121.756 90.9581 122.089 91.1806C122.422 91.4031 122.682 91.7193 122.835 92.0893C122.988 92.4593 123.028 92.8664 122.95 93.2592C122.872 93.652 122.679 94.0127 122.396 94.2959C122.113 94.5791 121.752 94.7719 121.359 94.85C120.967 94.9282 120.56 94.8881 120.19 94.7348C119.82 94.5816 119.503 94.3221 119.281 93.9891C119.058 93.6561 118.94 93.2646 118.94 92.8642C118.94 92.3272 119.153 91.8122 119.533 91.4324C119.912 91.0527 120.427 90.8394 120.964 90.8394ZM114.265 92.0211C114.666 92.0211 115.057 92.1399 115.39 92.3624C115.723 92.5849 115.983 92.9011 116.136 93.2711C116.289 93.6411 116.329 94.0482 116.251 94.4409C116.173 94.8337 115.98 95.1945 115.697 95.4777C115.414 95.7608 115.053 95.9537 114.66 96.0318C114.268 96.1099 113.86 96.0698 113.49 95.9166C113.12 95.7633 112.804 95.5038 112.582 95.1708C112.359 94.8379 112.241 94.4464 112.241 94.0459C112.24 93.7797 112.291 93.516 112.393 93.2699C112.494 93.0238 112.643 92.8002 112.831 92.612C113.02 92.4238 113.243 92.2746 113.489 92.1732C113.735 92.0718 113.999 92.0201 114.265 92.0211ZM125.556 117.613L50.6465 130.831C50.1256 130.923 49.5916 130.911 49.0751 130.797C48.5586 130.683 48.0697 130.468 47.6363 130.164C47.2029 129.861 46.8336 129.475 46.5493 129.029C46.2651 128.583 46.0715 128.085 45.9797 127.564L43.1496 111.501L126.03 96.8836L128.853 112.954C129.037 114.006 128.796 115.088 128.184 115.962C127.571 116.837 126.637 117.433 125.586 117.621L125.556 117.613Z" fill="#090809"/>
<path d="M50.7218 124.44C50.6565 124.439 50.5935 124.415 50.544 124.373C50.4944 124.33 50.4615 124.271 50.4509 124.207L49.0283 116.153C49.0218 116.117 49.0226 116.081 49.0305 116.045C49.0384 116.01 49.0533 115.977 49.0744 115.947C49.0954 115.918 49.1222 115.893 49.1531 115.874C49.1839 115.855 49.2183 115.842 49.2541 115.837C127.242 102.04 121.838 102.996 121.973 103.093C122.109 103.191 121.973 102.521 123.478 111.328C123.486 111.363 123.486 111.4 123.479 111.435C123.472 111.47 123.458 111.504 123.438 111.533C123.417 111.563 123.391 111.588 123.36 111.607C123.33 111.626 123.296 111.639 123.26 111.644C48.1024 124.937 50.7971 124.44 50.7218 124.44ZM49.6154 116.326L50.9401 123.853L122.921 111.162L121.597 103.635L49.6154 116.326Z" fill="#090809"/>
<path d="M53.9965 116.913C53.9929 116.887 53.9841 116.863 53.9706 116.841C53.9571 116.819 53.9392 116.8 53.918 116.785C53.8968 116.77 53.8728 116.76 53.8475 116.755C53.8221 116.749 53.796 116.75 53.7707 116.755C50.8728 117.297 51.0308 117.214 50.9706 117.304C50.9104 117.395 50.8878 117.071 51.7911 122.333C51.802 122.384 51.8324 122.429 51.8759 122.459C51.9194 122.488 51.9726 122.5 52.0244 122.491C54.9223 121.949 54.7567 122.031 54.8245 121.941C54.8922 121.851 54.9148 122.174 53.9965 116.913Z" fill="#090809"/>
<path d="M58.5955 121.136L57.7374 116.258C57.7282 116.205 57.6985 116.158 57.6548 116.127C57.6111 116.096 57.5569 116.084 57.504 116.093C54.6061 116.65 54.7717 116.552 54.704 116.65C54.6362 116.748 54.6137 116.416 55.532 121.678C55.5405 121.722 55.5639 121.761 55.5981 121.79C55.6324 121.819 55.6754 121.835 55.7201 121.836C55.7954 121.836 56.2169 121.753 58.4374 121.362C58.4873 121.351 58.5313 121.321 58.5606 121.28C58.5899 121.238 58.6023 121.186 58.5955 121.136Z" fill="#090809"/>
<path d="M61.4631 115.596C61.454 115.545 61.4251 115.5 61.3828 115.47C61.3405 115.441 61.2882 115.429 61.2373 115.438C58.3394 115.972 58.4975 115.897 58.4297 115.995C58.362 116.093 58.3545 115.754 59.2577 121.015C59.2686 121.067 59.299 121.112 59.3425 121.141C59.386 121.171 59.4393 121.182 59.4911 121.173C62.389 120.631 62.2234 120.722 62.2911 120.624C62.3589 120.526 62.3815 120.857 61.4631 115.596Z" fill="#090809"/>
<path d="M65.1964 114.941C65.1929 114.915 65.1841 114.891 65.1706 114.869C65.1571 114.847 65.1392 114.828 65.118 114.813C65.0968 114.798 65.0728 114.788 65.0474 114.783C65.0221 114.777 64.9959 114.778 64.9706 114.783C62.0727 115.317 62.2308 115.242 62.163 115.332C62.0953 115.423 62.0802 115.099 62.991 120.361C63.0002 120.411 63.0291 120.456 63.0714 120.486C63.1137 120.516 63.1659 120.527 63.2168 120.519C66.1223 119.977 65.9567 120.059 66.0244 119.969C66.0922 119.879 66.1147 120.202 65.1964 114.941Z" fill="#090809"/>
<path d="M68.9303 114.279C68.9211 114.228 68.8923 114.183 68.85 114.153C68.8077 114.124 68.7554 114.112 68.7045 114.121C65.7991 114.64 65.9647 114.58 65.8969 114.678C65.8292 114.775 65.8141 114.437 66.7249 119.698C66.7341 119.749 66.763 119.794 66.8053 119.824C66.8475 119.853 66.8998 119.865 66.9507 119.856C69.8486 119.314 69.6906 119.397 69.7583 119.307C69.826 119.216 69.8486 119.54 68.9303 114.279Z" fill="#090809"/>
<path d="M73.5213 118.501L72.6632 113.624C72.6596 113.598 72.6508 113.574 72.6373 113.552C72.6238 113.529 72.6059 113.51 72.5847 113.496C72.5636 113.481 72.5395 113.47 72.5142 113.465C72.4888 113.46 72.4627 113.46 72.4374 113.466L69.7578 113.932C69.7318 113.937 69.7071 113.947 69.685 113.961C69.6629 113.975 69.6439 113.994 69.6291 114.016C69.6144 114.037 69.6042 114.062 69.5991 114.088C69.5941 114.113 69.5943 114.14 69.5997 114.166C70.5406 119.435 70.4427 119.104 70.5406 119.171C70.6384 119.239 70.5406 119.232 73.3632 118.727C73.3888 118.724 73.4135 118.715 73.4355 118.701C73.4576 118.688 73.4766 118.67 73.4915 118.649C73.5063 118.628 73.5166 118.604 73.5217 118.578C73.5269 118.553 73.5267 118.527 73.5213 118.501Z" fill="#090809"/>
<path d="M76.3971 112.969C76.3935 112.943 76.3847 112.918 76.3713 112.896C76.3579 112.873 76.3401 112.854 76.3191 112.839C76.2981 112.823 76.2741 112.812 76.2488 112.806C76.2234 112.8 76.1971 112.799 76.1713 112.803C73.2734 113.36 73.4315 113.262 73.3637 113.36C73.296 113.458 73.2809 113.119 74.1917 118.381C74.2009 118.432 74.2295 118.478 74.2715 118.509C74.3136 118.54 74.3658 118.553 74.4175 118.546C77.3154 117.997 77.1574 118.087 77.2251 117.989C77.2928 117.892 77.3154 118.223 76.3971 112.969Z" fill="#090809"/>
<path d="M80.13 112.299C80.1192 112.249 80.0899 112.205 80.048 112.176C80.0062 112.147 79.9548 112.134 79.9042 112.141C76.9988 112.66 77.1644 112.6 77.0966 112.69C77.0289 112.781 77.0138 112.457 77.9246 117.718C77.9282 117.744 77.937 117.769 77.9505 117.791C77.964 117.813 77.9819 117.832 78.0031 117.847C78.0243 117.862 78.0483 117.872 78.0736 117.877C78.099 117.882 78.1251 117.882 78.1504 117.877C81.0483 117.335 80.8903 117.417 80.958 117.327C81.0258 117.237 81.0258 117.568 80.13 112.299Z" fill="#090809"/>
<path d="M83.8637 111.652C83.8592 111.626 83.8495 111.601 83.8352 111.579C83.821 111.557 83.8024 111.538 83.7806 111.523C83.7588 111.508 83.7343 111.498 83.7085 111.493C83.6827 111.488 83.6561 111.488 83.6303 111.493C80.7324 112.028 80.898 111.953 80.8303 112.043C80.7625 112.133 80.7475 111.81 81.6583 117.071C81.6674 117.122 81.6963 117.167 81.7386 117.197C81.7809 117.226 81.8332 117.238 81.8841 117.229C84.782 116.68 84.6239 116.77 84.6917 116.672C84.7594 116.574 84.7594 116.913 83.8637 111.652Z" fill="#090809"/>
<path d="M88.4556 115.867L87.5975 110.989C87.5883 110.939 87.5594 110.893 87.5171 110.864C87.4748 110.834 87.4226 110.823 87.3717 110.831C84.4738 111.396 84.6318 111.29 84.5641 111.381C84.4963 111.471 84.4738 111.147 85.3921 116.409C85.3991 116.454 85.4218 116.496 85.4561 116.526C85.4905 116.556 85.5344 116.573 85.5802 116.574C85.663 116.574 86.077 116.484 88.2975 116.093C88.3231 116.089 88.3477 116.08 88.3698 116.067C88.3919 116.053 88.4109 116.035 88.4257 116.014C88.4406 115.993 88.4509 115.969 88.456 115.944C88.4611 115.918 88.461 115.892 88.4556 115.867Z" fill="#090809"/>
<path d="M91.3305 110.334C91.326 110.309 91.3163 110.284 91.302 110.262C91.2878 110.24 91.2692 110.221 91.2474 110.206C91.2256 110.191 91.2011 110.181 91.1753 110.176C91.1494 110.171 91.1229 110.171 91.0971 110.176C88.1992 110.696 88.3648 110.628 88.2971 110.726C88.2293 110.824 88.2143 110.493 89.125 115.754C89.1342 115.805 89.1631 115.85 89.2054 115.879C89.2477 115.909 89.3 115.921 89.3509 115.912C92.2488 115.363 92.0907 115.453 92.1584 115.355C92.2262 115.257 92.2262 115.596 91.3305 110.334Z" fill="#090809"/>
<path d="M101.402 87.3468C102.628 87.3468 103.622 86.3527 103.622 85.1263C103.622 83.9 102.628 82.9059 101.402 82.9059C100.175 82.9059 99.1812 83.9 99.1812 85.1263C99.1812 86.3527 100.175 87.3468 101.402 87.3468Z" fill="#BF0808"/>
<path d="M101.402 87.55C100.922 87.5515 100.453 87.4106 100.053 87.1452C99.6535 86.8798 99.3417 86.5018 99.1571 86.059C98.9725 85.6163 98.9234 85.1287 99.0161 84.6581C99.1088 84.1874 99.339 83.7549 99.6777 83.4151C100.016 83.0754 100.448 82.8438 100.919 82.7497C101.389 82.6556 101.877 82.7031 102.32 82.8863C102.763 83.0696 103.142 83.3802 103.409 83.779C103.676 84.1777 103.818 84.6466 103.818 85.1263C103.818 85.7678 103.564 86.3831 103.111 86.8375C102.658 87.2918 102.043 87.548 101.402 87.55ZM101.402 83.1015C101.001 83.1015 100.61 83.2202 100.277 83.4427C99.9438 83.6652 99.6843 83.9815 99.5311 84.3514C99.3778 84.7214 99.3377 85.1285 99.4158 85.5213C99.494 85.9141 99.6868 86.2748 99.97 86.558C100.253 86.8412 100.614 87.034 101.007 87.1122C101.399 87.1903 101.807 87.1502 102.177 86.9969C102.547 86.8437 102.863 86.5842 103.085 86.2512C103.308 85.9182 103.426 85.5267 103.426 85.1263C103.425 84.5899 103.211 84.076 102.831 83.6967C102.452 83.3174 101.938 83.1035 101.402 83.1015Z" fill="#090809"/>
<path d="M53.8308 106.646C25.7624 107.113 0.516602 83.6962 0.516602 53.3019C0.530555 40.3848 5.22962 27.9114 13.7419 18.1959C22.2542 8.48036 34.0018 2.18247 46.8049 0.470727C59.608 -1.24101 72.5974 1.74962 83.363 8.88773C94.1285 16.0258 101.939 26.8268 105.346 39.2865C105.356 39.3211 105.359 39.3573 105.355 39.393C105.351 39.4288 105.34 39.4633 105.322 39.4948C105.305 39.5263 105.281 39.554 105.253 39.5763C105.225 39.5987 105.192 39.6153 105.158 39.6252C105.123 39.6351 105.087 39.638 105.051 39.6339C105.016 39.6298 104.981 39.6187 104.95 39.6012C104.918 39.5838 104.89 39.5603 104.868 39.5321C104.846 39.5039 104.829 39.4716 104.819 39.437C102.231 29.9372 97.0394 21.35 89.8293 14.6449C82.6192 7.93988 73.6783 3.38398 64.0159 1.49161C54.3535 -0.400766 44.3545 0.445761 35.1477 3.93561C25.941 7.42546 17.8932 13.4197 11.913 21.2414C5.9328 29.0632 2.25832 38.401 1.30444 48.2007C0.350553 58.0003 2.15525 67.8715 6.51477 76.6997C10.8743 85.5279 17.615 92.9616 25.9759 98.1615C34.3368 103.361 43.9849 106.12 53.8308 106.127C63.8543 106.106 73.6666 103.244 82.1302 97.8743C90.5938 92.5041 97.362 84.8451 101.65 75.7852C101.681 75.7185 101.738 75.6667 101.807 75.6413C101.876 75.616 101.952 75.619 102.019 75.6497C102.085 75.6822 102.135 75.739 102.159 75.808C102.182 75.877 102.178 75.9526 102.147 76.0186C97.8143 85.1609 90.9811 92.8894 82.4385 98.3096C73.8959 103.73 63.993 106.62 53.876 106.646H53.8308Z" fill="#090809"/>
<path d="M106.445 60.8892C106.405 60.8895 106.366 60.8813 106.329 60.865C106.293 60.8487 106.26 60.8248 106.234 60.7948C106.207 60.7648 106.188 60.7295 106.176 60.6912C106.164 60.6529 106.161 60.6126 106.167 60.573C106.461 58.4474 106.625 56.3057 106.656 54.16C106.658 54.0874 106.688 54.0185 106.74 53.9679C106.792 53.9173 106.862 53.889 106.934 53.889C107.007 53.891 107.076 53.9212 107.126 53.9732C107.177 54.0252 107.205 54.0949 107.205 54.1675C107.174 56.3357 107.011 58.5 106.716 60.6483C106.707 60.7142 106.675 60.7747 106.625 60.8189C106.575 60.8631 106.512 60.888 106.445 60.8892Z" fill="#090809"/>
<path d="M97.209 10.4352C95.0891 10.4352 93.0168 11.0638 91.2541 12.2416C89.4915 13.4194 88.1176 15.0934 87.3064 17.0519C86.4951 19.0105 86.2829 21.1656 86.6964 23.2448C87.11 25.324 88.1309 27.2339 89.6299 28.7329C91.1289 30.2319 93.0387 31.2528 95.1179 31.6663C97.1971 32.0799 99.3523 31.8677 101.311 31.0564C103.269 30.2451 104.943 28.8713 106.121 27.1087C107.299 25.346 107.928 23.2737 107.928 21.1538C107.924 18.3122 106.793 15.5883 104.784 13.579C102.775 11.5697 100.051 10.4392 97.209 10.4352ZM101.725 30.2766C98.7958 24.2168 94.7422 18.7685 89.7798 14.2213C90.7936 13.1253 92.0365 12.2662 93.42 11.705C94.8035 11.1439 96.2936 10.8945 97.7844 10.9745C99.2753 11.0546 100.73 11.4622 102.046 12.1684C103.361 12.8745 104.505 13.8618 105.395 15.0601C106.286 16.2584 106.901 17.6382 107.198 19.1014C107.495 20.5646 107.466 22.0752 107.112 23.5257C106.759 24.9763 106.091 26.3313 105.154 27.4941C104.218 28.657 103.037 29.5993 101.695 30.254L101.725 30.2766Z" fill="#090809"/>
<path d="M43.5034 42.493C43.497 42.4579 43.4838 42.4243 43.4645 42.3943C43.4451 42.3643 43.4201 42.3384 43.3907 42.3182C43.3613 42.2979 43.3282 42.2836 43.2933 42.2761C43.2584 42.2687 43.2224 42.2682 43.1873 42.2747L42.1862 42.4478C41.9572 41.1963 41.477 40.0041 40.7745 38.9432C40.0721 37.8824 39.1619 36.975 38.099 36.2756C38.8495 35.2651 39.3895 34.1141 39.6869 32.891C39.9843 31.6678 40.033 30.3974 39.8302 29.155L40.8388 28.9819C40.9108 28.9673 40.9744 28.9255 41.0165 28.8653C41.0585 28.805 41.0758 28.7309 41.0646 28.6583C41.0501 28.5867 41.008 28.5237 40.9474 28.4829C40.8869 28.4421 40.8127 28.4267 40.741 28.44L32.1375 29.9454C32.0657 29.9514 31.9991 29.9857 31.9525 30.0407C31.9059 30.0958 31.8831 30.1671 31.8891 30.2389C31.8951 30.3108 31.9294 30.3773 31.9845 30.4239C32.0395 30.4705 32.1108 30.4933 32.1827 30.4873L33.2515 30.2992C33.4851 31.5353 33.9645 32.7119 34.6615 33.7593C35.3584 34.8066 36.2586 35.7033 37.3086 36.3961C36.549 37.4164 36.0039 38.58 35.7064 39.8168C35.4088 41.0536 35.365 42.3378 35.5774 43.592L34.5763 43.8027C34.5043 43.8173 34.4407 43.8591 34.3986 43.9194C34.3566 43.9796 34.3393 44.0537 34.3505 44.1264C34.365 44.1979 34.4071 44.2609 34.4677 44.3017C34.5282 44.3426 34.6023 44.358 34.6741 44.3447L43.2851 42.8392C43.3235 42.8334 43.3601 42.8193 43.3926 42.798C43.425 42.7768 43.4525 42.7487 43.4732 42.7159C43.4939 42.6831 43.5073 42.6462 43.5125 42.6077C43.5177 42.5693 43.5146 42.5302 43.5034 42.493ZM33.7935 30.254L39.2958 29.283C39.4836 30.4516 39.4366 31.646 39.1574 32.7963C38.8782 33.9465 38.3726 35.0296 37.6699 35.9821C36.6715 35.3374 35.8136 34.4977 35.1475 33.5134C34.4814 32.5291 34.0208 31.4205 33.7935 30.254ZM37.7678 36.7423C38.7745 37.3997 39.6368 38.2554 40.302 39.257C40.9672 40.2587 41.4213 41.3853 41.6367 42.5683L36.1193 43.5393C35.9144 42.3502 35.9549 41.1318 36.2384 39.9591C36.5219 38.7863 37.0424 37.6839 37.7678 36.7197V36.7423Z" fill="#090809"/>
<path d="M124.781 61.672C124.709 61.678 124.638 61.6552 124.583 61.6086C124.528 61.562 124.494 61.4955 124.488 61.4236C124.482 61.3518 124.504 61.2805 124.551 61.2254C124.597 61.1703 124.664 61.1361 124.736 61.1301L128.552 60.4526C128.588 60.4462 128.624 60.4469 128.66 60.4549C128.695 60.4628 128.728 60.4777 128.758 60.4988C128.787 60.5198 128.812 60.5466 128.831 60.5774C128.85 60.6083 128.863 60.6426 128.868 60.6784C128.876 60.7136 128.876 60.75 128.869 60.7853C128.862 60.8206 128.848 60.8541 128.828 60.8838C128.807 60.9134 128.781 60.9385 128.75 60.9576C128.72 60.9766 128.686 60.9892 128.65 60.9946C124.984 61.6419 124.856 61.672 124.781 61.672Z" fill="#090809"/>
<path d="M135.371 59.8052C135.299 59.8122 135.228 59.7904 135.172 59.7445C135.116 59.6986 135.081 59.6325 135.074 59.5606C135.067 59.4887 135.089 59.417 135.135 59.3613C135.181 59.3055 135.247 59.2703 135.319 59.2633L139.135 58.5858C139.171 58.5794 139.207 58.5802 139.242 58.5881C139.278 58.596 139.311 58.6109 139.341 58.632C139.37 58.653 139.395 58.6798 139.414 58.7106C139.433 58.7415 139.446 58.7759 139.451 58.8117C139.458 58.8468 139.457 58.8828 139.45 58.9177C139.442 58.9526 139.428 58.9857 139.408 59.0151C139.387 59.0445 139.361 59.0696 139.331 59.0889C139.301 59.1082 139.268 59.1215 139.233 59.1278C135.522 59.7902 135.447 59.8052 135.371 59.8052Z" fill="#090809"/>
<path d="M131.389 57.0127C131.325 57.0136 131.262 56.9914 131.212 56.95C131.163 56.9085 131.129 56.8507 131.118 56.7869L130.441 52.9782C130.43 52.9056 130.447 52.8315 130.489 52.7712C130.531 52.7109 130.595 52.6692 130.667 52.6546C130.739 52.6436 130.812 52.6611 130.871 52.7032C130.93 52.7454 130.97 52.809 130.983 52.8804L131.653 56.6966C131.659 56.7351 131.658 56.7746 131.647 56.8124C131.637 56.8501 131.619 56.8852 131.594 56.9153C131.569 56.9453 131.538 56.9696 131.502 56.9864C131.467 57.0032 131.429 57.0122 131.389 57.0127Z" fill="#090809"/>
<path d="M133.264 67.6033C133.199 67.6042 133.136 67.582 133.087 67.5405C133.037 67.4991 133.004 67.4413 132.993 67.3775L132.315 63.5613C132.309 63.5257 132.31 63.4891 132.318 63.4537C132.326 63.4184 132.34 63.385 132.362 63.3555C132.383 63.3261 132.409 63.3011 132.44 63.2821C132.471 63.2632 132.505 63.2506 132.541 63.2452C132.576 63.2386 132.612 63.2391 132.647 63.2466C132.682 63.254 132.715 63.2683 132.745 63.2886C132.774 63.3089 132.799 63.3348 132.818 63.3648C132.838 63.3948 132.851 63.4283 132.857 63.4634L133.527 67.2797C133.535 67.3188 133.534 67.3591 133.524 67.3978C133.515 67.4364 133.497 67.4725 133.472 67.5034C133.446 67.5343 133.415 67.5593 133.379 67.5766C133.343 67.5938 133.304 67.603 133.264 67.6033Z" fill="#090809"/>
<path d="M129.169 58.4279C129.041 58.4279 129.29 58.5784 125.835 56.1698C125.776 56.1287 125.736 56.0661 125.723 55.9956C125.71 55.925 125.726 55.8523 125.767 55.7934C125.787 55.7632 125.813 55.7375 125.844 55.7177C125.874 55.6979 125.909 55.6844 125.944 55.6781C125.98 55.6718 126.017 55.6727 126.052 55.6809C126.088 55.6891 126.121 55.7043 126.151 55.7257L129.327 57.9838C129.359 58.02 129.38 58.0639 129.389 58.111C129.397 58.1581 129.394 58.2067 129.377 58.2519C129.361 58.297 129.334 58.3371 129.297 58.368C129.26 58.3989 129.216 58.4196 129.169 58.4279Z" fill="#090809"/>
<path d="M137.976 64.5926C137.848 64.5926 138.097 64.7431 134.642 62.3345C134.583 62.2934 134.543 62.2308 134.53 62.1603C134.517 62.0897 134.533 62.0171 134.574 61.9581C134.594 61.928 134.621 61.9022 134.651 61.8824C134.682 61.8626 134.716 61.8491 134.752 61.8428C134.787 61.8365 134.824 61.8374 134.86 61.8456C134.895 61.8538 134.928 61.869 134.958 61.8904L138.134 64.1259C138.172 64.1615 138.199 64.2072 138.211 64.2576C138.224 64.3079 138.222 64.3608 138.205 64.41C138.188 64.4591 138.158 64.5025 138.117 64.5348C138.077 64.5672 138.028 64.5873 137.976 64.5926Z" fill="#090809"/>
<path d="M133.956 57.5847C133.906 57.5858 133.856 57.5728 133.813 57.5473C133.77 57.5217 133.734 57.4846 133.711 57.44C133.687 57.3955 133.677 57.3453 133.68 57.2951C133.684 57.2448 133.701 57.1966 133.731 57.1557L135.951 53.9793C135.995 53.9215 136.058 53.8825 136.13 53.8699C136.201 53.8573 136.274 53.8722 136.335 53.9115C136.365 53.9319 136.391 53.9581 136.411 53.9886C136.431 54.0191 136.444 54.0533 136.45 54.0891C136.457 54.1249 136.456 54.1617 136.448 54.1971C136.439 54.2325 136.424 54.266 136.403 54.2954L134.182 57.4718C134.157 57.5076 134.123 57.5365 134.083 57.5562C134.044 57.5759 134 57.5857 133.956 57.5847Z" fill="#090809"/>
<path d="M127.791 66.384C127.741 66.3851 127.691 66.3721 127.648 66.3465C127.605 66.321 127.569 66.2838 127.546 66.2393C127.522 66.1947 127.512 66.1445 127.515 66.0943C127.519 66.0441 127.536 65.9958 127.566 65.9549L129.786 62.7785C129.828 62.7192 129.892 62.679 129.964 62.6663C130.036 62.6536 130.11 62.6696 130.17 62.7108C130.228 62.7543 130.267 62.8182 130.279 62.8894C130.292 62.9606 130.277 63.034 130.238 63.0947L127.995 66.2786C127.97 66.3096 127.939 66.335 127.904 66.3531C127.869 66.3713 127.831 66.3818 127.791 66.384Z" fill="#090809"/>
<path d="M33.8461 116.439L28.517 112.713L32.2805 107.384C32.3019 107.354 32.3171 107.321 32.3253 107.286C32.3335 107.25 32.3344 107.213 32.3281 107.178C32.3218 107.142 32.3083 107.108 32.2885 107.077C32.2687 107.047 32.2429 107.02 32.2128 107C32.1521 106.961 32.0787 106.946 32.0075 106.958C31.9363 106.971 31.8724 107.01 31.8289 107.068L28.0653 112.397L22.7362 108.633C22.6772 108.593 22.6045 108.577 22.534 108.59C22.4635 108.602 22.4008 108.642 22.3598 108.701C22.3384 108.731 22.3232 108.764 22.315 108.799C22.3069 108.835 22.3059 108.872 22.3122 108.907C22.3186 108.943 22.332 108.977 22.3518 109.008C22.3717 109.038 22.3974 109.065 22.4276 109.085L27.7567 112.849L23.9932 118.17C23.963 118.23 23.9554 118.299 23.9718 118.364C23.9881 118.428 24.0273 118.485 24.0821 118.524C24.137 118.562 24.2039 118.58 24.2705 118.573C24.3371 118.566 24.399 118.535 24.4448 118.486L28.2084 113.157L33.5375 116.921C33.6014 116.962 33.6789 116.975 33.753 116.959C33.8271 116.943 33.8918 116.898 33.9327 116.834C33.9736 116.77 33.9875 116.693 33.9712 116.619C33.955 116.545 33.91 116.48 33.8461 116.439Z" fill="#090809"/>
<path d="M108.892 128.189L109.644 126.819C109.663 126.788 109.675 126.754 109.679 126.718C109.684 126.682 109.681 126.646 109.671 126.612C109.661 126.577 109.645 126.545 109.622 126.517C109.599 126.489 109.571 126.466 109.539 126.45C109.477 126.414 109.403 126.405 109.334 126.423C109.265 126.441 109.206 126.486 109.17 126.548C108.417 127.918 108.101 128.399 108.011 128.603C107.993 128.628 107.979 128.657 107.973 128.688C107.966 128.718 107.965 128.75 107.97 128.781C107.976 128.812 107.988 128.842 108.005 128.868C108.023 128.894 108.045 128.917 108.071 128.934C108.222 129.047 108.673 129.288 110.156 130.131C110.22 130.166 110.296 130.175 110.366 130.155C110.436 130.135 110.496 130.089 110.533 130.025C110.566 129.961 110.574 129.886 110.554 129.816C110.535 129.746 110.489 129.687 110.427 129.649L108.854 128.761C109.523 128.531 110.249 128.52 110.925 128.729C111.601 128.938 112.193 129.356 112.617 129.924C113.04 130.491 113.272 131.178 113.28 131.886C113.287 132.593 113.07 133.285 112.66 133.862C112.249 134.438 111.666 134.869 110.994 135.093C110.323 135.317 109.598 135.321 108.923 135.106C108.249 134.892 107.66 134.468 107.242 133.897C106.824 133.326 106.597 132.637 106.596 131.93C106.594 131.856 106.564 131.787 106.512 131.735C106.46 131.683 106.391 131.653 106.317 131.651C106.245 131.653 106.176 131.683 106.125 131.735C106.075 131.787 106.046 131.857 106.046 131.93C106.05 132.744 106.309 133.537 106.787 134.196C107.265 134.856 107.938 135.348 108.711 135.605C109.484 135.862 110.318 135.87 111.095 135.628C111.873 135.385 112.555 134.905 113.045 134.255C113.535 133.605 113.809 132.817 113.828 132.003C113.847 131.189 113.61 130.389 113.151 129.717C112.691 129.044 112.032 128.533 111.267 128.255C110.502 127.977 109.668 127.946 108.884 128.166L108.892 128.189Z" fill="#090809"/>
<path d="M143.922 81.1143C138.518 78.5702 131.074 79.4509 124.796 77.1852C125.383 76.026 125.715 74.0238 124.796 73.5647C120.122 69.8539 104.827 58.9923 100.619 56.3654C102.064 55.9288 118.601 50.9082 122.749 49.7792C123.968 49.6362 123.991 47.363 123.855 46.1361C125.739 45.9192 127.637 45.8563 129.531 45.9479C129.593 45.9569 129.657 45.9416 129.709 45.9052C129.761 45.8689 129.796 45.8141 129.809 45.7522C132.188 37.3143 132.865 27.5743 133.046 23.7807C133.05 23.7291 133.039 23.6774 133.015 23.6317C132.99 23.5861 132.954 23.5483 132.908 23.523C132.863 23.4977 132.812 23.4858 132.76 23.4888C132.708 23.4917 132.659 23.5095 132.617 23.5398C126.542 27.6421 125.842 33.9573 122.124 37.0885C121.605 35.5003 120.852 34.6347 120.152 34.8304C90.5179 42.922 89.5018 43.464 87.1458 44.8565C84.6694 46.3167 81.7263 50.2684 73.0928 61.1751C72.7616 61.2881 72.2573 61.4838 71.5874 61.7397C71.8508 60.3622 72.3401 57.1482 72.5358 55.2212C72.5389 55.0183 72.4926 54.8177 72.4008 54.6367C72.309 54.4557 72.1745 54.2998 72.0089 54.1825C71.3917 53.7698 70.6843 53.5117 69.9465 53.4298C69.6529 49.5985 68.8927 40.2424 68.8927 38.3004C68.8927 35.7412 70.9175 32.3465 71.0003 32.211C71.5573 31.3002 71.5422 30.3217 71.4594 27.9883C71.4594 27.4614 71.2261 27.1227 70.8949 27.0851C70.3605 27.0173 69.826 27.755 69.3895 29.1776C69.0282 30.3518 68.0948 31.2626 67.5679 31.1723C67.041 31.0819 66.9055 30.3217 66.9356 29.0797C66.9883 26.8216 67.3647 23.5925 67.44 22.7269C67.5152 21.8613 67.2969 21.1236 66.8303 21.0408C66.3636 20.958 65.8517 21.5451 65.5582 22.629C65.3625 23.3065 65.0162 24.5785 64.7227 25.8205C64.6625 24.4054 64.6549 23.1559 64.6399 21.9064C64.6399 20.943 64.3313 20.3559 63.8872 20.3182C63.4431 20.2806 62.9613 20.9204 62.7732 22.0269C62.6226 22.9602 62.457 24.142 62.3291 25.271C62.171 24.1194 62.1033 23.3592 62.028 22.6516C61.8699 21.2967 61.3506 21.1462 61.1097 21.1462C60.5903 21.1462 60.2441 21.8387 60.1613 22.9753C60.1086 23.9764 60.0785 24.9925 60.0709 25.9861C59.9505 25.399 59.8752 24.9925 59.7548 24.3452C59.5817 23.4194 59.2129 22.9151 58.7838 22.9602C58.3548 23.0054 58.0311 23.7129 58.0311 24.8119C58.009 26.8072 58.15 28.801 58.4526 30.7733C58.8064 32.3841 60.2742 36.5842 60.5978 37.7058C59.2204 39.2112 59.3935 42.3274 61.0344 43.3887C61.0344 43.3887 61.0344 51.0287 61.0344 52.662C59.6193 53.0083 59.4688 53.6707 59.529 54.0621C59.4763 55.0707 59.4311 57.5697 59.401 59.1729C54.2074 60.3773 44.0232 63.072 39.2435 62.1838C40.0285 60.9856 40.5541 59.6363 40.7865 58.2229C41.0188 56.8094 40.9528 55.3629 40.5927 53.9765C40.2326 52.59 39.5864 51.2943 38.6956 50.1725C37.8047 49.0507 36.689 48.1278 35.4202 47.4631C34.1513 46.7983 32.7574 46.4064 31.328 46.3126C29.8986 46.2187 28.4654 46.4251 27.1206 46.9183C25.7757 47.4115 24.5489 48.1806 23.5191 49.1763C22.4893 50.172 21.6792 51.3722 21.141 52.6997C20.3761 51.9044 19.3909 51.356 18.312 51.125C17.233 50.8939 16.1097 50.9908 15.0862 51.4031C14.0628 51.8154 13.186 52.5243 12.5685 53.4387C11.951 54.3531 11.6211 55.4313 11.6211 56.5347C11.6211 57.6381 11.951 58.7163 12.5685 59.6307C13.186 60.5452 14.0628 61.2541 15.0862 61.6664C16.1097 62.0787 17.233 62.1755 18.312 61.9445C19.3909 61.7134 20.3761 61.165 21.141 60.3698C22.0936 62.7088 23.8739 64.6155 26.1422 65.7261C28.4106 66.8366 31.0084 67.0735 33.4402 66.3914C34.1929 70.3055 33.538 72.9776 32.8681 76.7938C31.3627 85.2015 29.5412 95.6642 32.1154 99.1191C34.8929 102.883 38.4382 102.235 48.2309 102.235C49.6911 102.318 50.1954 100.098 50.2331 98.5621C52.9278 98.0578 56.2547 97.3954 58.5806 96.9212C61.5914 96.304 62.442 95.1975 63.413 93.9104C63.9323 93.2179 63.8119 93.3985 64.3388 92.7286C65.2044 91.6522 65.7689 91.0124 66.4012 91.3436C68.3357 92.3673 71.6702 93.948 72.2196 93.0749C72.3476 92.8716 72.3175 92.5329 71.8583 92.1942C70.925 91.5017 70.2099 90.9296 69.6002 90.3952C70.8045 90.6135 74.8692 91.2608 75.1853 90.0791C75.2455 89.8382 75.1251 89.4995 74.5907 89.3264L71.3917 88.3479C72.5358 88.3855 76.0885 88.4156 76.209 87.279C76.2153 87.1528 76.1786 87.0281 76.1047 86.9255C76.0309 86.8229 75.9243 86.7485 75.8025 86.7145C80.1155 85.4274 83.849 80.8434 87.0103 75.469C89.3362 73.8884 91.5266 72.3905 93.8449 70.8625C97.4579 73.2185 114.236 84.1327 117.262 85.9166C118.353 86.5639 119.776 85.1639 120.513 84.1402C121.467 85.123 122.472 86.0551 123.524 86.9328C124.277 87.4822 137.073 84.622 143.945 81.4681C143.984 81.4163 144.004 81.352 144 81.287C143.995 81.2221 143.968 81.1608 143.922 81.1143ZM123.246 36.7799C126.369 33.4906 127.363 28.041 132.481 24.3076C132.263 28.3872 131.556 37.4498 129.35 45.3834C126.488 45.2621 123.622 45.4896 120.814 46.0608C120.171 43.7714 119.775 41.4195 119.633 39.0456C121.014 38.6188 122.26 37.8377 123.246 36.7799ZM69.6153 55.8836C66.9184 56.0373 64.2139 55.7706 61.5989 55.0933C61.5989 53.7008 61.5989 43.6822 61.5989 43.6822C62.1605 43.8535 62.7635 43.8299 63.31 43.6154C63.8566 43.4009 64.3146 43.008 64.6098 42.5005C65.9429 42.5428 67.2724 42.3386 68.5314 41.8983C68.84 46.0608 69.4723 53.7384 69.6153 55.8836ZM59.0096 30.683C58.7156 28.7478 58.5796 26.7918 58.6032 24.8345C58.55 24.3836 58.6339 23.9272 58.844 23.5248C58.8967 23.5248 59.1 23.7506 59.2354 24.4732C60.0709 28.9066 60.1011 27.8829 60.1613 29.1475C60.1721 29.2125 60.2056 29.2717 60.2559 29.3143C60.3062 29.3569 60.3701 29.3803 60.436 29.3803C60.502 29.3803 60.5658 29.3569 60.6161 29.3143C60.6664 29.2717 60.6999 29.2125 60.7108 29.1475C60.6054 27.114 60.6054 25.0765 60.7108 23.043C60.7785 22.0946 61.0344 21.7484 61.1172 21.7333C61.2 21.7183 61.3882 21.9441 61.4785 22.7419C61.6516 24.2474 61.7645 25.5345 62.1108 27.4238C62.1108 27.8227 62.0506 28.1765 62.043 28.4324C62.0538 28.4975 62.0874 28.5566 62.1377 28.5992C62.188 28.6419 62.2518 28.6653 62.3178 28.6653C62.3837 28.6653 62.4475 28.6419 62.4979 28.5992C62.5482 28.5566 62.5817 28.4975 62.5925 28.4324C62.6452 27.0173 63.0216 23.871 63.3452 22.1247C63.5033 21.1914 63.7968 20.8752 63.8721 20.8752C63.9474 20.8752 64.1356 21.1086 64.1431 21.9215C64.2259 28.2819 64.3915 27.499 64.3012 28.1614C64.2902 28.2333 64.3082 28.3066 64.3513 28.3652C64.3943 28.4237 64.4589 28.4628 64.5307 28.4738C64.6026 28.4848 64.6759 28.4668 64.7345 28.4237C64.793 28.3807 64.8321 28.3161 64.8431 28.2442C65.1694 26.3993 65.6016 24.5748 66.1378 22.7796C66.4087 21.7935 66.7324 21.5903 66.7851 21.5903C66.8378 21.5903 67.0184 21.8613 66.9432 22.6893C66.8679 23.5172 66.4915 26.7238 66.4389 29.0722C66.3862 31.112 67.0109 31.6389 67.5378 31.7217C68.4937 31.8723 69.5852 30.5927 69.9615 29.3432C70.3906 27.9507 70.7895 27.6421 70.8572 27.627C70.9312 27.7435 70.9655 27.8808 70.9551 28.0184C71.0379 30.2314 71.0529 31.1572 70.5787 31.9325C69.5551 33.6336 68.3658 36.3584 68.3884 38.4283C67.2738 38.8276 66.102 39.0437 64.9184 39.0681C64.2184 36.9305 62.299 36.5541 61.0871 37.352C60.6731 36.0347 59.3258 32.1131 59.0096 30.683ZM62.3291 37.5025C65.1668 37.4498 65.5055 43.2381 62.3291 43.2381C59.4989 43.2306 59.5591 37.5627 62.3291 37.5025ZM31.7466 60.8364C31.4982 60.5655 31.2799 60.4375 31.1068 60.4526C29.2401 60.573 28.7734 58.9471 30.61 59.2783C31.0616 59.3686 31.2649 59.2031 31.3627 59.0525C31.6563 58.5633 31.0089 57.5471 30.3315 56.6664C31.6531 55.9089 32.8575 54.9631 33.9069 53.8588C37.151 56.5385 38.8521 58.9471 38.3629 60.174C38.0467 60.9794 36.7747 61.3257 34.6821 61.1751C34.6189 61.1682 34.5553 61.1837 34.5023 61.219C34.4494 61.2542 34.4105 61.307 34.3926 61.368C34.3746 61.4291 34.3787 61.4945 34.4041 61.5528C34.4296 61.6111 34.4747 61.6586 34.5316 61.687C36.4736 62.7107 40.0414 62.9666 41.607 62.9666C42.2845 62.9666 42.9996 62.9666 43.7523 62.8687C42.8189 67.0162 39.3489 70.599 34.1553 72.7894C34.4347 70.5626 34.3508 68.3053 33.9069 66.1054C33.9069 66.1054 33.9069 66.1054 33.9069 66.0527C33.6041 64.1621 32.8644 62.3683 31.7466 60.8138V60.8364ZM32.5445 98.9083C29.5863 94.919 33.109 79.2627 34.0499 73.4367C39.6575 71.1786 43.3834 67.3097 44.3168 62.8311C48.4717 62.387 54.3203 60.9644 59.4086 59.8203C59.4086 60.1966 59.4086 60.4827 59.4086 60.573C59.4076 60.6092 59.4138 60.6452 59.427 60.679C59.4402 60.7127 59.46 60.7435 59.4852 60.7695C59.5105 60.7954 59.5407 60.8161 59.5741 60.8302C59.6075 60.8442 59.6433 60.8515 59.6795 60.8515C59.7521 60.8515 59.8218 60.8232 59.8739 60.7726C59.9259 60.722 59.9561 60.6531 59.958 60.5805C59.958 60.0085 60.0107 56.7492 60.0634 54.9277C60.9215 55.6277 62.8108 56.1245 65.5657 56.3654C67.1765 56.5008 70.5261 56.7041 71.9562 55.9438C71.7003 58.0815 71.2035 61.0698 71.0379 61.9655C67.869 63.2376 62.5398 65.4806 60.3193 66.4817C51.3922 62.2967 49.4954 62.9666 45.4609 63.7344C45.4258 63.7407 45.3922 63.7539 45.3622 63.7733C45.3322 63.7926 45.3063 63.8177 45.2861 63.847C45.2658 63.8764 45.2515 63.9095 45.244 63.9444C45.2366 63.9793 45.2361 64.0154 45.2426 64.0505C45.2489 64.0864 45.2624 64.1207 45.2822 64.1512C45.302 64.1818 45.3278 64.2081 45.358 64.2285C45.3883 64.2488 45.4223 64.2629 45.4581 64.2698C45.4938 64.2768 45.5306 64.2764 45.5663 64.2688C49.4653 63.5161 51.3019 62.8537 60.0935 66.986C61.0043 69.7861 60.3495 75.9282 57.2483 79.1197C55.5773 79.5863 53.7708 80.0229 51.9794 80.4219C50.1346 79.9997 48.333 79.4075 46.5975 78.653C46.6803 78.4799 46.7706 78.3068 46.8534 78.1412C46.8702 78.1095 46.8806 78.0749 46.8841 78.0392C46.8875 78.0036 46.8838 77.9676 46.8733 77.9334C46.8629 77.8991 46.8457 77.8673 46.8229 77.8396C46.8002 77.812 46.7721 77.7891 46.7405 77.7723C46.7089 77.7555 46.6743 77.7451 46.6386 77.7417C46.6029 77.7383 46.567 77.7419 46.5327 77.7524C46.4985 77.7629 46.4666 77.78 46.439 77.8028C46.4114 77.8256 46.3885 77.8536 46.3717 77.8852C44.6523 81.3436 43.2661 84.9579 42.2318 88.6791C41.0199 88.8973 39.8984 89.093 39.1306 89.2135C39.0813 89.2375 39.0404 89.276 39.0135 89.3238C38.9865 89.3716 38.9747 89.4265 38.9796 89.4812C38.9845 89.5359 39.0058 89.5878 39.0409 89.63C39.0759 89.6723 39.123 89.7029 39.1758 89.7178C39.3339 89.7178 45.0018 88.7016 46.59 88.4457C45.9803 89.3113 45.4308 91.2006 45.634 95.2728C45.7244 97.0793 46.0405 100.399 47.2373 101.746C38.3478 101.814 35.0811 102.296 32.5445 98.8857V98.9083ZM59.8226 87.6704C59.2448 88.053 58.6324 88.3806 57.9935 88.6489C57.3236 88.7543 52.988 89.236 49.4051 89.5371C49.2094 88.521 48.5621 87.6403 47.5459 87.7758C46.5298 87.9113 44.6254 88.25 42.8415 88.5285C43.4306 86.4206 44.1444 84.3495 44.9792 82.3262C48.8857 81.6187 53.4321 80.7154 57.2784 79.6315C58.495 81.5608 59.9975 83.2942 61.7344 84.7725C61.1776 85.7821 60.5381 86.7438 59.8226 87.6478V87.6704ZM63.7592 81.9047C63.7592 81.9047 64.2485 82.3714 63.5861 85.3747C62.7807 85.8413 61.9 86.3833 61.072 86.8801C63.0291 84.0424 63.413 82.1907 63.7592 81.8821V81.9047ZM69.2088 87.7833C68.7647 87.6253 68.3432 87.4747 67.9593 87.3242C67.9257 87.3109 67.8899 87.3045 67.8538 87.3053C67.8177 87.3061 67.7821 87.3141 67.7492 87.3288C67.7162 87.3435 67.6865 87.3647 67.6619 87.391C67.6372 87.4174 67.6181 87.4484 67.6055 87.4822C67.5921 87.5153 67.5853 87.5508 67.5856 87.5865C67.5859 87.6222 67.5932 87.6576 67.6072 87.6905C67.6212 87.7233 67.6416 87.7531 67.6671 87.7781C67.6927 87.8031 67.7229 87.8228 67.7561 87.836C69.5551 88.5436 72.167 89.2812 74.395 89.9737C74.538 90.0189 74.6057 90.0716 74.6208 90.0565C74.4853 90.2447 73.1154 90.7114 68.7271 89.7931L67.8765 89.0404C67.8216 88.9934 67.7503 88.9703 67.6783 88.9759C67.6063 88.9815 67.5396 89.0156 67.4926 89.0705C67.4457 89.1254 67.4225 89.1966 67.4282 89.2686C67.4338 89.3406 67.4678 89.4074 67.5228 89.4543C69.0282 90.7339 69.8712 91.5168 71.5271 92.7361C71.5849 92.7807 71.6379 92.8311 71.6852 92.8867C71.3992 92.9243 70.24 92.8867 66.6496 90.9597C65.4227 90.3199 64.5119 91.7727 63.5485 92.9394C62.1635 94.6179 61.8022 95.7997 58.4602 96.4846C54.9074 97.2373 48.7277 98.4116 46.5824 98.7427C46.0503 95.9563 46.007 93.0986 46.4545 90.2974C49.6008 90.1393 56.7515 89.4092 58.0612 89.1984C59.0021 89.0479 64.7829 84.9456 66.2808 84.6822C66.6797 84.6144 72.1368 84.7424 74.2595 84.7725C74.4044 84.7685 74.5483 84.7968 74.681 84.8553C74.681 84.8553 74.3122 85.6456 69.5099 85.8865C68.9228 85.7736 68.3808 85.6682 67.9217 85.5628C67.8509 85.5469 67.7766 85.5592 67.7148 85.5972C67.6529 85.6351 67.6083 85.6957 67.5905 85.7661C67.5764 85.8367 67.5896 85.9101 67.6272 85.9715C67.6649 86.0329 67.7244 86.0778 67.7937 86.0973C69.8336 86.5639 73.281 87.0683 75.3885 87.3242C75.5391 87.3242 75.6068 87.3769 75.6294 87.3693C75.5014 87.5575 74.1089 88.2124 69.2088 87.7607V87.7833ZM74.2218 86.6091C73.424 86.4962 72.5659 86.3758 71.7153 86.2403C73.4992 86.037 75.253 85.6306 75.2305 84.8402C75.2305 84.4639 74.824 84.208 74.267 84.208C71.5271 84.1703 66.6346 84.0424 66.1754 84.1327C65.4876 84.3401 64.8297 84.6362 64.2184 85.0134C64.6549 82.8456 64.5496 81.566 63.9173 81.3778C63.5485 81.2724 63.1646 81.5735 62.9839 82.1305C62.6893 82.8815 62.3526 83.6153 61.9753 84.3284C60.3263 82.899 58.8959 81.2354 57.73 79.3906C60.8839 76.0336 61.5463 69.9442 60.6355 66.9334C63.4431 65.6914 69.7884 63.0343 72.4379 62.0107C70.6465 64.2688 68.6066 66.843 66.2733 69.7635C66.251 69.7917 66.2345 69.824 66.2248 69.8585C66.215 69.8931 66.2121 69.9292 66.2163 69.9648C66.2205 70.0005 66.2317 70.0349 66.2492 70.0663C66.2667 70.0976 66.2902 70.1252 66.3184 70.1474C66.3466 70.1697 66.3789 70.1861 66.4134 70.1959C66.4479 70.2057 66.4841 70.2085 66.5197 70.2043C66.5554 70.2001 66.5898 70.189 66.6212 70.1714C66.6525 70.1539 66.6801 70.1304 66.7023 70.1022C81.9145 51.0136 84.8199 46.8662 87.4318 45.3081C89.69 43.9909 90.9018 43.5618 119.422 35.5906C118.925 36.7649 118.933 39.1735 119.422 42.4629C119.715 44.2844 120.491 48.1985 121.861 49.4329C117.683 50.5921 96.9159 56.8922 95.1922 57.4041C95.1546 57.4159 95.1197 57.4353 95.0899 57.4612C95.0601 57.4871 95.036 57.5189 95.0191 57.5546C90.9319 66.3839 83.864 85.4876 74.2218 86.5865V86.6091ZM116.75 85.1037C112.286 82.3262 97.0138 72.3829 93.9578 70.3883C93.9132 70.3585 93.8609 70.3426 93.8073 70.3426C93.7537 70.3426 93.7013 70.3585 93.6567 70.3883L91.9932 71.4948C92.7459 68.7248 93.6643 63.215 94.1159 60.9569C94.6051 59.8579 95.0718 58.8192 95.5009 57.8933L99.9192 56.5987C103.178 58.5331 118.601 69.4624 123.916 73.5873C122.071 74.1744 120.084 76.9745 119.083 78.6229C117.201 81.7015 116.577 83.9069 116.75 85.1187V85.1037ZM123.735 86.5564C121.74 85.051 121.477 83.7564 117.939 81.9875C118.833 79.9 120.016 77.9488 121.454 76.1916C128.116 80.2487 136.967 78.7734 143.132 81.3477C138.202 83.508 128.673 86.2327 123.735 86.5715V86.5564Z" fill="#090809"/>
</svg>
