<svg width="136" height="163" viewBox="0 0 136 163" fill="none" xmlns="http://www.w3.org/2000/svg">
<path d="M28.6477 52.0394C28.8602 53.7415 29.498 55.3586 31.0965 55.9458C30.2504 58.9329 28.8293 61.7258 26.9131 64.1673C25.4081 63.1886 23.6736 62.3204 22.2877 61.4268C22.3302 59.9544 23.0104 58.3799 24.1583 56.2522C23.9246 55.4263 23.8797 54.5583 24.0269 53.7126C24.1741 52.8669 24.5096 52.0652 25.0085 51.367C24.6993 51.8836 24.3218 52.356 23.8862 52.7713C22.4152 54.1586 21.3354 53.2309 21.735 52.3372C23.6396 47.835 23.5035 47.5627 26.0629 48.8138C28.4011 49.9457 28.4011 49.9457 28.6477 52.0394Z" fill="#BF0808"/>
<path d="M41.257 59.5715C41.2119 59.5705 41.1677 59.5586 41.1281 59.5368C41.0885 59.5151 41.0548 59.4841 41.0298 59.4465C41.0048 59.4089 40.9891 59.3659 40.9843 59.3209C40.9794 59.276 40.9855 59.2306 41.0019 59.1885C66.1784 -3.91933 64.4524 0.0126729 64.784 0.0637379C65.1156 0.114803 64.7074 -2.96612 69.5795 48.2436C69.5757 48.3108 69.548 48.3744 69.5013 48.4228C69.4546 48.4713 69.3921 48.5013 69.3251 48.5075C69.2582 48.5137 69.1912 48.4956 69.1365 48.4565C69.0817 48.4175 69.0428 48.36 69.0268 48.2947L64.6054 1.51058C39.8285 63.6142 41.5376 59.5715 41.257 59.5715Z" fill="#090809"/>
<path d="M105.742 125.811C105.53 126.394 105.176 126.915 104.713 127.326H99.3733C102.885 122.918 101.822 114.756 99.6964 112.364C99.6964 112.364 103.225 112.509 104.713 112.594C106.737 115.862 107.009 122.492 105.742 125.811Z" fill="#BF0808"/>
<path d="M99.6964 112.347C101.822 114.739 102.885 122.901 99.3733 127.309C80.4292 127.19 78.8902 126.765 75.3616 125.13C72.2156 123.667 69.2992 114.849 66.8164 107.258C68.7295 104.985 74.2308 99.6746 76.2119 97.8447C77.6063 97.1724 80.7523 95.5468 81.7812 94.8574C82.4699 98.5426 84.2214 106.636 85.3523 111.82C87.0528 111.973 93.77 112.143 99.6879 112.381L99.6964 112.347Z" fill="#BF0808"/>
<path d="M68.1257 128.399C66.7057 132.135 61.6976 134.356 57.7184 134.944C56.3037 135.159 54.8613 135.104 53.467 134.782L50.5591 130.007C55.9243 131.19 63.3727 128.799 65.7109 123.514C66.5102 125.114 67.3179 126.756 68.1257 128.399Z" fill="#BF0808"/>
<path d="M56.7071 105.871C58.0505 108.254 61.7407 115.496 65.7115 123.505C64.6066 125.827 62.7058 127.675 60.3547 128.714C56.8261 121.862 49.5308 106.254 47.9663 102.994C55.2616 99.3002 73.84 91.5724 77.0285 89.5808C80.2171 87.5893 81.4925 85.0446 78.0914 73.6911C79.9966 73.4686 81.9126 73.3521 83.8307 73.3421C90.1142 84.253 86.1604 91.9724 81.8156 94.8405C76.2888 98.4576 62.9056 103.607 56.7071 105.871Z" fill="#BF0808"/>
<path d="M61.0517 83.4956C60.9752 82.6445 60.8306 81.2487 60.6521 79.6487C65.9425 76.406 71.8825 74.3718 78.0486 73.6911C81.4497 85.0445 80.1743 87.5978 76.9858 89.5808C73.7973 91.5638 55.2529 99.3002 47.932 102.994C49.4965 106.254 56.7919 121.862 60.3205 128.714C57.2815 130.155 53.8663 130.601 50.5594 129.99C37.2186 107.862 35.6456 103.853 36.3174 99.8023C37.0741 95.2916 40.9428 92.6107 61.0517 83.4956Z" fill="#BF0808"/>
<path d="M23.2654 48.8478C22.8228 49.645 22.4309 50.4693 22.092 51.3159C21.3422 50.9626 20.6203 50.5529 19.9324 50.0904C19.6489 49.8772 19.4591 49.5621 19.403 49.2117C19.3469 48.8612 19.4288 48.5026 19.6316 48.2114C19.8344 47.9202 20.1421 47.7191 20.49 47.6505C20.8379 47.5819 21.1989 47.6511 21.4969 47.8435L23.2654 48.8478Z" fill="#BF0808"/>
<path d="M23.8694 52.7542C24.3371 53.7329 23.5633 55.2478 22.1689 54.5329C20.978 53.9947 19.8171 53.3924 18.6913 52.7286C18.4141 52.5104 18.2293 52.1957 18.1735 51.8472C18.1176 51.4987 18.195 51.142 18.3901 50.848C18.5852 50.554 18.8837 50.3443 19.2263 50.2606C19.5689 50.177 19.9303 50.2256 20.2388 50.3967C20.885 50.7541 21.4717 51.018 22.1349 51.3754C22.1349 51.3754 21.8798 51.9712 21.7437 52.3116C21.3611 53.2052 22.4155 54.1329 23.8864 52.7457L23.8694 52.7542Z" fill="#BF0808"/>
<path d="M17.6198 55.4439C17.3098 55.2475 17.0903 54.9359 17.0098 54.5776C16.9293 54.2192 16.9943 53.8436 17.1905 53.5332C17.3866 53.2228 17.698 53.0032 18.056 52.9226C18.4139 52.842 18.7892 52.907 19.0993 53.1034C20.3492 53.7417 21.1059 54.1247 22.3303 54.8056C24.0309 55.7758 22.917 57.9716 21.0889 57.1035C19.9013 56.6183 18.743 56.0641 17.6198 55.4439Z" fill="#BF0808"/>
<path d="M16.8797 58.2097C16.6048 58.0145 16.4138 57.7224 16.3451 57.392C16.2765 57.0616 16.3352 56.7174 16.5096 56.4286C16.684 56.1398 16.9612 55.9278 17.2853 55.8351C17.6095 55.7424 17.9567 55.7759 18.2572 55.9288C19.4221 56.482 20.2128 56.848 21.4117 57.4948C23.1122 58.397 22.0494 60.5332 20.2553 59.7417C19.1049 59.2887 17.9782 58.7774 16.8797 58.2097Z" fill="#BF0808"/>
<path d="M103.811 3.12771C103.867 3.91257 103.867 4.70035 103.811 5.48521C102.915 5.40874 102.015 5.39168 101.116 5.43415C101.116 4.72775 101.116 4.20008 101.116 3.51921C101.056 1.67236 103.718 1.59576 103.811 3.12771Z" fill="#BF0808"/>
<path d="M106.745 2.97437C106.804 3.97014 106.677 4.86377 106.575 6.88935C106.582 7.17204 106.498 7.44951 106.334 7.68033C106.171 7.91115 105.938 8.08294 105.669 8.17007C105.4 8.25719 105.11 8.25497 104.843 8.16373C104.576 8.07249 104.345 7.89714 104.185 7.66384C106.107 6.93191 105.835 5.58719 104.874 5.53613L103.879 5.48507C103.879 4.7276 103.956 4.08078 103.973 3.35736C104.015 1.38284 106.643 1.3488 106.745 2.97437Z" fill="#BF0808"/>
<path d="M109.593 3.06788C109.593 4.1062 109.483 4.87218 109.33 6.91478C109.177 8.95738 106.72 8.99142 106.728 7.03393C106.728 6.18285 106.788 4.97431 106.856 3.39129C106.941 1.45933 109.542 1.45933 109.593 3.06788Z" fill="#BF0808"/>
<path d="M112.467 3.66381C112.423 4.90964 112.304 6.15167 112.11 7.38304C111.898 9.34905 109.559 9.34905 109.559 7.44262C109.602 6.15748 109.687 5.22129 109.78 3.91913C109.959 2.03824 112.467 2.11483 112.467 3.66381Z" fill="#BF0808"/>
<path d="M104.177 7.65556C104.338 7.88616 104.569 8.05912 104.835 8.14917C105.101 8.23922 105.39 8.24164 105.657 8.15607C105.925 8.0705 106.159 7.90144 106.324 7.67358C106.489 7.44572 106.577 7.171 106.575 6.88958C106.634 5.71509 106.711 4.864 106.745 4.14909C106.915 4.14909 106.745 3.92781 106.745 7.03427C106.745 9.00027 109.185 8.94069 109.346 6.91511C109.432 5.75764 109.525 4.92358 109.585 4.22569H109.806C109.729 5.21295 109.653 6.14914 109.61 7.41725C109.542 9.31517 111.906 9.31517 112.161 7.35768C112.322 5.81722 112.484 4.87251 112.518 4.03845C112.782 4.03845 112.518 10.0982 112.518 15.3238C109.518 15.9952 106.414 16.0675 103.386 15.5366C103.718 13.6642 102.391 12.3791 100.793 11.3408C99.5429 10.5407 99.5684 10.2939 99.7214 7.87684C99.9085 5.03422 100.045 5.28103 104.883 5.51083C105.826 5.57891 106.098 6.93214 104.177 7.65556Z" fill="#BF0808"/>
<path d="M79.6047 42.4478C76.6713 50.2012 69.7501 52.1161 67.1567 49.4437C69.2299 47.8158 70.6362 45.4848 71.1105 42.8904C72.2318 42.1041 73.1027 41.0107 73.6188 39.7414C72.8826 40.1229 72.1144 40.439 71.3231 40.6861C67.7859 41.784 66.6891 39.5371 67.8455 31.7327C69.9363 31.123 72.1043 30.8192 74.282 30.8305C73.8314 32.5327 74.0184 34.8902 74.7667 33.2987C75.5149 31.7072 77.3175 32.9157 76.0506 35.0008C75.833 35.424 75.7437 35.9015 75.7935 36.3747C75.8434 36.848 76.0302 37.2963 76.3312 37.6647C76.2265 38.7203 76.4975 39.7789 77.0964 40.6539C77.6953 41.529 78.5836 42.1643 79.6047 42.4478Z" fill="#BF0808"/>
<path d="M102.944 112.39L124.839 57.4268L86.5764 64.2355C86.5099 64.2369 86.4451 64.2147 86.3935 64.1727C86.3419 64.1308 86.3069 64.0718 86.2946 64.0064C86.2824 63.941 86.2937 63.8734 86.3266 63.8156C86.3595 63.7578 86.4119 63.7135 86.4744 63.6908C128.078 56.3544 125.383 56.7459 125.536 56.9332C125.689 57.1204 127.134 53.1884 103.497 112.637C103.481 112.673 103.457 112.706 103.429 112.733C103.4 112.76 103.366 112.782 103.329 112.796C103.292 112.81 103.252 112.817 103.212 112.816C103.173 112.815 103.133 112.806 103.097 112.79C103.061 112.774 103.028 112.75 103.001 112.722C102.973 112.693 102.952 112.659 102.938 112.622C102.924 112.584 102.917 112.545 102.918 112.505C102.919 112.465 102.928 112.426 102.944 112.39Z" fill="#090809"/>
<path d="M83.4566 162.323C83.3879 162.321 83.3222 162.294 83.2721 162.247C83.2219 162.2 83.1908 162.136 83.1845 162.068L79.7834 126.628C79.7855 126.561 79.812 126.496 79.858 126.446C79.904 126.396 79.9665 126.365 80.0339 126.358C80.1012 126.35 80.1689 126.368 80.2245 126.407C80.28 126.445 80.3197 126.503 80.3361 126.569L83.6012 160.867L97.0184 127.19C97.0509 127.129 97.1045 127.083 97.169 127.059C97.2335 127.035 97.3045 127.036 97.3685 127.061C97.4325 127.086 97.485 127.134 97.5161 127.196C97.5472 127.257 97.5546 127.328 97.5371 127.394C82.7254 164.595 83.7372 162.323 83.4566 162.323Z" fill="#090809"/>
<path d="M22.9423 105.589C22.8971 105.588 22.853 105.576 22.8133 105.554C22.7737 105.532 22.7397 105.502 22.7141 105.464C22.6885 105.427 22.6719 105.384 22.6658 105.34C22.6596 105.295 22.664 105.249 22.6787 105.206L36.0875 71.512C36.1199 71.4514 36.1735 71.4047 36.238 71.381C36.3026 71.3572 36.3736 71.358 36.4376 71.3832C36.5015 71.4084 36.5541 71.4563 36.5851 71.5177C36.6162 71.5791 36.6237 71.6498 36.6061 71.7163L23.3674 104.951L36.3 102.662C36.3733 102.648 36.449 102.664 36.5104 102.707C36.5718 102.749 36.6138 102.814 36.6274 102.887C36.6409 102.961 36.6248 103.036 36.5825 103.098C36.5403 103.159 36.4753 103.201 36.4021 103.215C22.8913 105.589 23.0103 105.589 22.9423 105.589Z" fill="#090809"/>
<path d="M55.8651 38.6347C55.8651 38.473 56.4773 38.873 47.5919 34.0644C48.1871 33.0601 48.7993 31.9877 49.4115 30.8643C49.4293 30.8326 49.4406 30.7976 49.4447 30.7614C49.4488 30.7252 49.4456 30.6886 49.4353 30.6537C49.425 30.6188 49.4078 30.5863 49.3847 30.5582C49.3616 30.53 49.3332 30.5068 49.301 30.4898C30.9606 20.5832 47.4644 29.5111 29.1071 19.5534C29.0754 19.5356 29.0404 19.5243 29.0043 19.5202C28.9681 19.5161 28.9315 19.5193 28.8967 19.5296C28.8618 19.5399 28.8293 19.5572 28.8012 19.5802C28.7731 19.6033 28.7499 19.6318 28.7329 19.664C28.1207 20.7875 27.5596 21.8854 27.0324 22.9322L18.8868 18.5151C18.8551 18.4972 18.8201 18.4859 18.784 18.4819C18.7479 18.4778 18.7113 18.481 18.6764 18.4913C18.6415 18.5016 18.6091 18.5188 18.5809 18.5419C18.5528 18.565 18.5296 18.5935 18.5127 18.6257C12.0506 30.592 17.4413 40.3369 21.7097 42.7965C21.7097 44.8391 21.9223 46.5583 22.0328 48.1413L23.2572 48.8392C23.8949 47.8009 24.4391 47.9881 26.0206 48.7796C28.7159 50.1073 28.3588 50.0222 28.6819 52.3201C28.7669 52.3201 32.4656 50.286 33.8771 49.3839C35.3819 50.0765 37.0254 50.4143 38.6811 50.3711C43.9273 50.3711 51.1121 47.5796 55.8396 38.8304C55.8575 38.8015 55.8691 38.7691 55.8735 38.7353C55.8779 38.7016 55.875 38.6673 55.8651 38.6347ZM21.7097 42.1412C17.6879 39.5368 12.9264 30.3962 18.8868 19.1619L26.8028 23.4173C22.4069 32.5665 21.7522 38.4389 21.7097 42.1412ZM32.2105 37.8857L27.2365 38.4475L30.8076 34.8984L28.7329 30.3281L33.1884 32.6771L36.887 29.2728L36.0878 34.2261L40.4412 36.7027L35.4841 37.4687L34.4553 42.3965L32.2105 37.8857ZM34.4212 49.0179C37.5077 46.9583 42.0737 43.188 47.3028 34.5495L55.2189 38.8049C49.0459 49.9711 38.8001 50.9839 34.4212 49.0264V49.0179Z" fill="#090809"/>
<path d="M19.7795 118.679C19.6463 117.808 19.2903 116.987 18.746 116.294C18.2017 115.602 17.4877 115.062 16.6734 114.728C15.8591 114.393 14.9721 114.275 14.0988 114.385C13.2255 114.496 12.3955 114.83 11.6895 115.356C10.9836 115.883 10.4256 116.583 10.07 117.389C9.71434 118.195 9.57306 119.079 9.6599 119.956C9.74673 120.832 10.0587 121.672 10.5655 122.392C11.0724 123.113 11.7568 123.689 12.5522 124.067C11.5904 126.044 11.3199 128.287 11.784 130.436C12.248 132.585 13.4198 134.516 15.1114 135.919C16.803 137.322 18.9163 138.116 21.1123 138.173C23.3084 138.23 25.4599 137.547 27.2218 136.233C28.9837 134.92 30.2539 133.052 30.8286 130.93C31.4032 128.808 31.2491 126.554 30.3909 124.529C29.5328 122.505 28.0202 120.828 26.096 119.767C24.1718 118.707 21.9473 118.323 19.7795 118.679ZM21.361 137.616C19.7913 137.612 18.2484 137.208 16.8774 136.443C15.5063 135.678 14.3522 134.576 13.5233 133.242C12.6944 131.907 12.218 130.384 12.1388 128.815C12.0597 127.246 12.3804 125.682 13.0709 124.271C13.8554 124.527 14.69 124.592 15.5045 124.458C16.3189 124.324 17.0894 123.997 17.7511 123.503C18.4128 123.009 18.9462 122.364 19.3066 121.62C19.667 120.877 19.8438 120.058 19.822 119.232C21.0866 119.013 22.3829 119.059 23.6286 119.369C24.8743 119.678 26.0421 120.243 27.0578 121.028C28.0734 121.814 28.9147 122.802 29.5281 123.931C30.1415 125.059 30.5136 126.303 30.6208 127.583C30.728 128.863 30.5679 130.152 30.1506 131.366C29.7334 132.581 29.0682 133.696 28.1973 134.64C27.3264 135.583 26.2688 136.335 25.0919 136.848C23.915 137.36 22.6444 137.622 21.361 137.616Z" fill="#090809"/>
<path d="M12.5776 41.0095L9.3976 41.5712C8.67827 41.6973 7.93835 41.5324 7.34046 41.1127C6.74256 40.6929 6.33563 40.0528 6.20909 39.3328L5.64791 36.1583C5.63249 36.0878 5.59056 36.026 5.53081 35.9856C5.47106 35.9452 5.39807 35.9294 5.327 35.9415C5.25592 35.9535 5.19219 35.9925 5.14904 36.0503C5.10589 36.1081 5.08662 36.1803 5.09523 36.2519L5.65641 39.4265C5.7197 39.786 5.71101 40.1546 5.63086 40.5108C5.5507 40.867 5.40068 41.2037 5.18948 41.5014C4.97829 41.7991 4.71013 42.0519 4.40057 42.245C4.09101 42.4382 3.74622 42.5678 3.38619 42.6265L0.214681 43.1882C0.14633 43.2048 0.0866714 43.2464 0.0475182 43.3049C0.00836504 43.3633 -0.00742894 43.4344 0.00326361 43.504C0.0139562 43.5735 0.0503549 43.6365 0.105255 43.6805C0.160154 43.7245 0.229553 43.7462 0.299709 43.7415L3.48822 43.1797C3.84894 43.1102 4.21996 43.1139 4.57918 43.1909C4.9384 43.2678 5.27848 43.4163 5.57917 43.6276C5.87986 43.8388 6.135 44.1084 6.3294 44.4204C6.52381 44.7324 6.6535 45.0804 6.71075 45.4436L7.27192 48.6267C7.28433 48.6989 7.32489 48.7632 7.38469 48.8055C7.44448 48.8478 7.51861 48.8646 7.59078 48.8522C7.66294 48.8398 7.72722 48.7992 7.76947 48.7393C7.81173 48.6795 7.8285 48.6053 7.8161 48.5331L7.26342 45.35C7.13742 44.63 7.30219 43.8894 7.72152 43.2909C8.14084 42.6924 8.7804 42.2851 9.49963 42.1584L12.6711 41.5967C12.7489 41.5843 12.8186 41.5415 12.8649 41.4776C12.9111 41.4138 12.9301 41.3342 12.9177 41.2563C12.9053 41.1784 12.8625 41.1087 12.7987 41.0624C12.735 41.0161 12.6554 40.9971 12.5776 41.0095ZM6.78727 44.0564C6.32629 43.3632 5.62243 42.8682 4.81464 42.6691C5.50199 42.2024 5.99497 41.5001 6.20058 40.6946C6.66684 41.3826 7.3685 41.876 8.17321 42.0818C7.48069 42.5433 6.98617 43.2478 6.78727 44.0564Z" fill="#090809"/>
<path d="M135.663 91.1978C131.165 92.0489 131.114 91.9978 130.961 92.0489C129.915 92.1948 128.854 91.9285 128 91.3061C127.147 90.6836 126.568 89.7538 126.386 88.7126L125.587 84.1508C125.574 84.0774 125.532 84.0125 125.47 83.9702C125.409 83.9279 125.333 83.9117 125.26 83.9253C125.187 83.9388 125.122 83.9809 125.079 84.0424C125.037 84.1038 125.021 84.1796 125.035 84.2529L125.834 88.8147C125.929 89.3419 125.919 89.8828 125.805 90.4062C125.69 90.9295 125.474 91.425 125.167 91.8641C124.86 92.3032 124.47 92.6772 124.018 92.9646C123.566 93.2519 123.062 93.4469 122.535 93.5382L117.977 94.3383C117.904 94.3518 117.839 94.3939 117.797 94.4554C117.755 94.5168 117.738 94.5926 117.752 94.6659C117.766 94.7393 117.808 94.8043 117.869 94.8466C117.93 94.8889 118.006 94.905 118.079 94.8915L122.637 94.0915C123.677 93.905 124.748 94.1313 125.625 94.7223C126.501 95.3133 127.113 96.2226 127.33 97.2575C127.33 97.3766 127.534 98.4575 128.181 101.955C128.196 102.026 128.238 102.088 128.298 102.128C128.357 102.169 128.43 102.184 128.501 102.172C128.573 102.16 128.636 102.121 128.679 102.064C128.723 102.006 128.742 101.933 128.733 101.862C128.113 98.3299 127.925 97.2745 127.883 97.1468C127.746 96.1378 127.988 95.1137 128.563 94.2737C129.138 93.4336 130.005 92.8378 130.995 92.6021C131.199 92.6021 130.927 92.6021 135.773 91.751C135.847 91.7363 135.911 91.6931 135.953 91.6308C135.994 91.5686 136.009 91.4924 135.995 91.419C135.98 91.3457 135.937 91.2812 135.875 91.2397C135.812 91.1982 135.736 91.1831 135.663 91.1978ZM127.347 95.7596C127.009 95.1766 126.547 94.6745 125.995 94.2879C125.443 93.9014 124.813 93.6398 124.15 93.5212C124.733 93.1808 125.235 92.7175 125.621 92.1635C126.008 91.6094 126.269 90.9778 126.386 90.3126C126.727 90.8962 127.189 91.3987 127.743 91.7852C128.296 92.1717 128.927 92.433 129.592 92.551C129.009 92.8922 128.506 93.3556 128.119 93.9095C127.731 94.4633 127.468 95.0944 127.347 95.7596Z" fill="#090809"/>
<path d="M125.306 33.9112C124.669 33.9095 124.047 33.7189 123.518 33.3634C122.989 33.008 122.578 32.5036 122.335 31.9141C122.093 31.3245 122.03 30.6762 122.155 30.0511C122.281 29.4259 122.588 28.852 123.039 28.4017C123.49 27.9515 124.064 27.6451 124.689 27.5213C125.314 27.3975 125.962 27.4619 126.55 27.7063C127.138 27.9507 127.641 28.3641 127.995 28.8944C128.349 29.4247 128.537 30.048 128.537 30.6856C128.537 31.1099 128.454 31.53 128.291 31.9219C128.129 32.3138 127.891 32.6698 127.59 32.9694C127.29 33.2691 126.934 33.5065 126.542 33.6681C126.15 33.8297 125.73 33.9123 125.306 33.9112ZM125.306 28.0132C124.778 28.0132 124.262 28.1699 123.823 28.4635C123.384 28.7572 123.042 29.1746 122.84 29.6629C122.638 30.1512 122.585 30.6885 122.688 31.2069C122.791 31.7253 123.045 32.2015 123.418 32.5752C123.792 32.949 124.268 33.2035 124.785 33.3066C125.303 33.4097 125.84 33.3568 126.328 33.1545C126.816 32.9523 127.233 32.6097 127.526 32.1703C127.82 31.7308 127.976 31.2141 127.976 30.6856C127.976 29.9768 127.695 29.2971 127.194 28.7959C126.693 28.2947 126.014 28.0132 125.306 28.0132Z" fill="#090809"/>
<path d="M11.1231 82.8911C10.7684 82.8908 10.422 82.7842 10.1283 82.5852C9.83464 82.3861 9.6072 82.1037 9.47524 81.7742C9.34328 81.4447 9.31285 81.0832 9.38785 80.7362C9.46285 80.3892 9.63986 80.0726 9.8961 79.8272C10.1523 79.5818 10.4761 79.4187 10.8257 79.359C11.1753 79.2992 11.5348 79.3456 11.8578 79.492C12.1809 79.6385 12.4528 79.8783 12.6386 80.1807C12.8243 80.4831 12.9154 80.8343 12.9001 81.1889C12.8825 81.648 12.6872 82.0823 12.3556 82.3999C12.024 82.7175 11.582 82.8937 11.1231 82.8911ZM11.1231 79.9038C10.8859 79.9058 10.6546 79.9772 10.4575 80.1092C10.2604 80.2412 10.1061 80.428 10.0137 80.6466C9.9213 80.8652 9.89478 81.106 9.93739 81.3395C9.98001 81.573 10.0899 81.789 10.2536 81.9607C10.4172 82.1325 10.6275 82.2526 10.8585 82.3063C11.0895 82.36 11.3311 82.3449 11.5536 82.2629C11.7762 82.1809 11.9699 82.0355 12.1109 81.8447C12.252 81.6539 12.3342 81.4259 12.3475 81.1889C12.3532 81.0249 12.3257 80.8613 12.2666 80.7081C12.2076 80.555 12.1182 80.4153 12.0038 80.2976C11.8894 80.18 11.7524 80.0867 11.601 80.0234C11.4497 79.9601 11.2871 79.9281 11.1231 79.9293V79.9038Z" fill="#090809"/>
<path d="M89.2636 19.911L90.6496 14.3108L86.5258 15.0428C86.4806 15.0495 86.4345 15.045 86.3915 15.0298C86.3484 15.0146 86.3097 14.9892 86.2787 14.9556C86.2477 14.9221 86.2254 14.8815 86.2136 14.8374C86.2018 14.7932 86.201 14.7469 86.2112 14.7023L87.6991 8.68517C87.719 8.6149 87.7653 8.55513 87.8285 8.51851C87.8916 8.4819 87.9664 8.47133 88.0372 8.48904C88.108 8.50675 88.1691 8.55134 88.2075 8.61338C88.246 8.67541 88.2588 8.75 88.2433 8.82134L86.8489 14.4215C91.2958 13.63 91.1002 13.6215 91.2277 13.7746C91.3553 13.9278 91.4148 13.5023 89.7993 20.0386C89.7909 20.0738 89.7757 20.107 89.7545 20.1364C89.7333 20.1657 89.7065 20.1905 89.6758 20.2095C89.645 20.2285 89.6107 20.2412 89.575 20.2469C89.5393 20.2526 89.5029 20.2513 89.4677 20.2429C89.4325 20.2345 89.3993 20.2193 89.37 20.198C89.3408 20.1768 89.3159 20.15 89.297 20.1192C89.278 20.0884 89.2653 20.0541 89.2596 20.0184C89.2539 19.9827 89.2553 19.9462 89.2636 19.911Z" fill="#090809"/>
<path d="M24.3112 56.5589C23.987 55.7023 23.8787 54.7789 23.9958 53.8704C24.113 52.962 24.452 52.0964 24.9829 51.3503C24.6773 51.867 24.3025 52.3394 23.869 52.7545C24.3452 53.7333 23.5629 55.2482 22.1685 54.5333C21.2417 54.0652 19.5412 53.2482 19.5412 53.2482C19.4476 53.4184 19.3286 53.129 22.347 54.8312C24.0476 55.8014 22.9337 57.9972 21.1057 57.1291C20.0853 56.6355 19.3116 56.278 18.6824 56.0057C18.6144 56.1589 18.4783 55.878 21.4458 57.444C23.1463 58.2951 22.092 60.4824 20.2724 59.6994C19.6092 59.4015 19.048 59.1632 18.5718 58.9674C18.5945 58.9109 18.5982 58.8486 18.5823 58.7898C18.5665 58.731 18.532 58.6789 18.484 58.6414C18.436 58.604 18.3772 58.5832 18.3163 58.5821C18.2555 58.581 18.196 58.5998 18.1467 58.6355C16.7693 59.7504 15.0942 59.9802 11.9482 59.4866L25.2635 66.7208C21.8029 62.8824 21.9049 61.0441 24.3112 56.5589Z" fill="#090809"/>
<path d="M11.396 59.8437L8.48807 63.6906C8.4637 63.7231 8.44666 63.7605 8.43814 63.8003C8.42961 63.84 8.42981 63.8811 8.4387 63.9207C8.44759 63.9604 8.46497 63.9976 8.48964 64.0299C8.51431 64.0622 8.54569 64.0887 8.5816 64.1077L23.2658 72.0653C23.3008 72.0849 23.3398 72.0964 23.3798 72.0991C23.4199 72.1019 23.46 72.0957 23.4974 72.081C23.5348 72.0664 23.5685 72.0437 23.5961 72.0144C23.6236 71.9852 23.6444 71.9503 23.6569 71.9121L25.2809 67.3503L11.396 59.8437Z" fill="#090809"/>
<path d="M108.497 113.76C108.478 113.741 108.455 113.726 108.43 113.716C108.406 113.706 108.379 113.7 108.352 113.7C107.433 113.607 106.507 113.607 105.589 113.7C105.409 113.267 105.196 112.849 104.951 112.449C104.927 112.412 104.895 112.38 104.856 112.358C104.818 112.336 104.774 112.323 104.73 112.322C101.516 112.143 86.8743 111.658 85.5819 111.556C85.5819 111.556 82.7335 98.415 82.0873 94.9936C86.4407 92.0318 90.2839 84.1678 84.1024 73.325C85.7094 67.6398 87.8436 60.1673 88.966 56.431C108.522 45.5371 111.872 43.4945 113.445 40.5583C114.678 38.2518 114.432 37.1029 114.432 14.3109C114.576 13.5023 113.581 13.0172 112.731 12.8555C112.731 10.9576 112.952 4.48084 112.731 3.97019V3.6638C112.731 2.11483 110.69 1.74035 109.849 2.93187C109.67 1.45949 107.68 1.18715 106.881 2.37866C106.726 2.1135 106.501 1.89542 106.232 1.74758C105.963 1.59974 105.659 1.52767 105.352 1.53902C105.045 1.55036 104.747 1.6447 104.489 1.81202C104.231 1.97934 104.024 2.21339 103.888 2.48931C103.676 2.19496 103.374 1.97643 103.029 1.86569C102.683 1.75495 102.311 1.75779 101.967 1.8738C101.623 1.98982 101.325 2.21292 101.117 2.51048C100.909 2.80805 100.802 3.16447 100.81 3.52763C100.81 4.10636 100.81 4.59999 100.81 5.22979C99.7304 5.43405 99.5263 6.08088 99.3988 7.94475C99.2457 10.3703 99.2202 10.7448 100.598 11.6299C101.337 12.0747 101.988 12.6517 102.519 13.3321C102.086 13.4598 101.354 13.7747 101.346 14.447C101.278 18.3961 101.346 28.6006 101.074 33.5283C99.4158 34.5326 89.7652 39.3583 85.5734 41.3072C83.9099 42.18 82.0239 42.5356 80.1572 42.3285C76.1269 41.6306 76.603 37.6901 76.5775 37.605C76.8071 34.3113 79.3749 30.0219 80.1742 28.2431C81.288 25.775 79.7065 24.8388 78.3036 25.775C78.2088 25.5696 78.0643 25.391 77.8833 25.2555C77.7022 25.12 77.4903 25.0318 77.2667 24.9989C77.043 24.9659 76.8147 24.9893 76.6024 25.0668C76.39 25.1444 76.2003 25.2737 76.0504 25.443C75.881 25.2582 75.6729 25.1131 75.441 25.0182C75.2091 24.9232 74.9591 24.8807 74.7089 24.8937C74.4587 24.9067 74.2144 24.9749 73.9936 25.0934C73.7728 25.2119 73.5808 25.3778 73.4315 25.5792C72.8108 24.8047 71.3739 25.1452 70.6682 25.9877C70.039 25.3749 68.5765 26.0388 68.2874 27.5112C67.6582 30.7964 66.0002 39.0093 68.3639 40.8136C68.7542 41.0623 69.1961 41.2185 69.6559 41.2701C70.1157 41.3217 70.5811 41.2675 71.0168 41.1115C70.9062 43.4009 69.9794 47.3414 67.0205 49.2904C61.6553 52.7373 48.5611 58.6779 44.3098 60.4226C42.0821 59.3077 39.2082 58.2353 31.0286 53.6139C30.7583 53.4924 30.4546 53.4676 30.1683 53.5435C29.8819 53.6194 29.6303 53.7915 29.4556 54.0309C29.1195 53.2175 28.9157 52.3556 28.8519 51.4777C28.6818 49.7755 28.3502 49.6308 26.148 48.55C24.9151 47.9457 23.9628 47.418 23.1721 48.4819L21.6671 47.6308C21.3448 47.4646 20.9779 47.4059 20.6199 47.4633C20.2619 47.5206 19.9316 47.6909 19.6771 47.9494C19.4227 48.2079 19.2574 48.541 19.2055 48.9001C19.1535 49.2593 19.2176 49.6256 19.3884 49.9457C19.0783 49.9635 18.779 50.066 18.523 50.242C18.267 50.4179 18.064 50.6607 17.9361 50.944C17.8082 51.2273 17.7602 51.5402 17.7974 51.8488C17.8346 52.1575 17.9555 52.45 18.147 52.6947C17.8479 52.7514 17.5696 52.8873 17.3409 53.0884C17.1122 53.2894 16.9417 53.5482 16.847 53.8377C16.7523 54.1272 16.737 54.4369 16.8026 54.7343C16.8683 55.0318 17.0125 55.3062 17.2202 55.5288C16.915 55.6063 16.6392 55.7714 16.4265 56.0037C16.2138 56.236 16.0735 56.5254 16.0229 56.8364C15.9724 57.1474 16.0137 57.4665 16.1418 57.7543C16.2699 58.0421 16.4792 58.2862 16.744 58.4566C17.5943 58.9332 18.4446 59.2396 20.1451 59.9885C22.0922 60.763 23.2571 58.7715 22.0922 57.597C22.3803 57.5661 22.6536 57.4535 22.8799 57.2725C23.1063 57.0915 23.2763 56.8496 23.3701 56.5752C23.4639 56.3008 23.4774 56.0054 23.4092 55.7235C23.341 55.4417 23.1938 55.1852 22.985 54.9841C23.215 54.9572 23.4344 54.8723 23.6227 54.7373C23.6211 55.9553 24.0798 57.1289 24.9066 58.0225C24.9588 58.0701 25.027 58.0963 25.0976 58.0957C25.1682 58.0952 25.236 58.0681 25.2875 58.0198C25.339 57.9715 25.3704 57.9055 25.3754 57.835C25.3805 57.7645 25.3588 57.6947 25.3147 57.6395C23.9883 56.2012 23.6652 53.9458 25.1872 51.4777C25.2138 51.4163 25.2177 51.3475 25.1982 51.2835C25.1786 51.2196 25.1369 51.1647 25.0805 51.1288C25.0241 51.0928 24.9568 51.0783 24.8906 51.0876C24.8245 51.097 24.7638 51.1297 24.7196 51.1798L24.677 51.2479C22.9765 53.9373 21.5736 53.282 21.9392 52.4139C23.1551 49.5457 23.5122 48.6351 24.0138 48.4478C24.3624 48.3202 24.8641 48.5414 25.9354 49.0521C28.0696 50.1074 28.1546 50.1415 28.2907 51.5117C28.4948 53.4862 28.9964 55.282 30.7735 56.1076C29.9293 58.8726 28.6022 61.4659 26.8537 63.7673C25.3828 62.8311 23.8268 62.0652 22.6024 61.2141C22.5855 61.4322 22.5855 61.6513 22.6024 61.8694C23.2316 62.2524 23.9288 62.6439 24.643 63.0524C24.405 64.0142 24.456 65.0695 25.1277 65.3163C39.8884 74.3038 42.8218 75.708 46.8861 74.5846C51.1139 73.3279 55.2363 71.74 59.215 69.8356C59.215 69.9292 60.5499 81.1124 60.7625 83.3252C40.356 92.6021 36.8104 95.1808 36.0537 99.7597C35.2969 104.339 37.4991 109.122 53.2291 134.926C53.2466 134.956 53.2699 134.982 53.2977 135.003C53.3255 135.023 53.3571 135.038 53.3907 135.046C54.6689 135.346 55.9901 135.418 57.2934 135.258C55.4738 140.084 53.8923 148.28 54.2835 152.603C54.288 152.651 54.3046 152.696 54.3315 152.735C54.3584 152.775 54.3948 152.806 54.4372 152.827C54.4797 152.849 54.5269 152.859 54.5744 152.857C54.6218 152.855 54.668 152.841 54.7086 152.816C60.9241 148.969 68.7125 138.756 70.7362 133.097C70.7535 133.05 70.7579 132.999 70.749 132.949C70.74 132.9 70.718 132.854 70.6852 132.816C69.7967 131.715 68.8152 130.693 67.7517 129.76C68.0095 129.362 68.2234 128.937 68.3894 128.492C68.4044 128.457 68.4121 128.42 68.4121 128.382C68.4121 128.344 68.4044 128.306 68.3894 128.271C66.0257 123.462 59.6146 110.56 57.1149 106.007C59.6657 105.062 62.412 104.041 65.1244 102.968C67.8027 110.832 71.3144 123.547 75.2596 125.386C79.2049 127.224 81.1605 127.573 104.721 127.607C105.053 127.607 105.614 126.756 105.818 126.348C108.369 129.335 114.653 133.25 118.751 133.812C118.791 133.818 118.832 133.815 118.87 133.804C118.909 133.793 118.945 133.773 118.975 133.746C119.005 133.719 119.029 133.686 119.044 133.648C119.06 133.611 119.067 133.571 119.066 133.531C118.955 125.445 111.566 116.245 108.497 113.76ZM20.3917 59.4353C19.2322 58.9936 18.0969 58.4907 16.9906 57.9289C16.7538 57.7799 16.5859 57.5429 16.5237 57.27C16.4615 56.997 16.5102 56.7106 16.659 56.4735C16.8078 56.2365 17.0446 56.0684 17.3173 56.0062C17.59 55.9439 17.8762 55.9927 18.113 56.1416C19.3033 56.7033 20.1281 57.0863 21.2675 57.6906C22.6704 58.4055 21.8626 60.0821 20.3917 59.4353ZM21.2419 56.8821C19.5414 56.031 18.6146 55.7246 17.7984 55.1799C17.5548 55.0196 17.3848 54.7691 17.3258 54.4834C17.2668 54.1977 17.3236 53.9002 17.4838 53.6565C17.6439 53.4127 17.8942 53.2425 18.1796 53.1835C18.465 53.1244 18.7622 53.1813 19.0057 53.3416C20.2131 53.9543 21.0464 54.3799 22.2368 55.0437C23.6057 55.8608 22.7214 57.597 21.2419 56.8736V56.8821ZM23.7417 53.2394C23.8353 54.0139 23.2401 54.7714 22.2963 54.2863C20.8678 53.5628 19.6519 53.0352 18.8357 52.5075C18.714 52.4242 18.6098 52.3178 18.5292 52.1942C18.4486 52.0707 18.3931 51.9325 18.3659 51.7874C18.3386 51.6424 18.3402 51.4934 18.3705 51.349C18.4008 51.2046 18.4592 51.0676 18.5423 50.9458C18.6255 50.8239 18.7319 50.7197 18.8553 50.639C18.9787 50.5583 19.1168 50.5028 19.2617 50.4755C19.4066 50.4482 19.5554 50.4498 19.6997 50.4801C19.844 50.5104 19.9809 50.5689 20.1026 50.6521C20.6723 50.9585 21.1824 51.2053 21.8031 51.5032L21.5055 52.2011C20.9699 53.316 22.1943 54.3884 23.7077 53.2309L23.7417 53.2394ZM22.0412 50.933C21.4038 50.6106 20.7849 50.2525 20.1876 49.8606C20.0709 49.7774 19.9718 49.6719 19.8958 49.5503C19.8198 49.4287 19.7685 49.2933 19.7449 49.1518C19.7212 49.0103 19.7256 48.8656 19.7578 48.7258C19.79 48.586 19.8493 48.454 19.9325 48.3372C20.0157 48.2204 20.1211 48.1211 20.2426 48.0451C20.3641 47.9691 20.4994 47.9177 20.6407 47.894C20.782 47.8703 20.9266 47.8747 21.0663 47.9069C21.2059 47.9392 21.3378 47.9986 21.4545 48.0819L22.951 48.9329C22.6279 49.401 22.3473 50.0479 21.9732 50.9245L22.0412 50.933ZM109.874 7.45112C109.874 6.15748 109.993 5.2383 110.095 3.93615C110.214 2.4042 112.187 2.48079 112.195 3.6638C112.195 4.4468 112.076 5.10213 111.83 7.34899C111.651 8.93201 109.815 9.01712 109.874 7.45112ZM107.119 3.39996C107.196 1.80844 109.262 1.84248 109.304 3.07655C109.304 4.02126 109.177 5.06809 109.032 6.88941C108.905 8.59158 106.983 8.63413 106.992 7.03409C107.009 5.72342 107.068 4.78723 107.119 3.39996ZM104.228 3.39996C104.228 1.78291 106.38 1.77439 106.456 3.034C106.516 3.98721 106.38 5.05107 106.277 6.91494C106.285 7.10591 106.238 7.29505 106.142 7.46052C106.047 7.62599 105.907 7.76103 105.738 7.85004C105.569 7.93905 105.378 7.97839 105.188 7.96353C104.997 7.94866 104.815 7.88019 104.662 7.76602C106.414 6.91494 106.073 5.33192 104.866 5.27235H104.143C104.186 4.59148 104.237 4.01274 104.245 3.35741L104.228 3.39996ZM103.514 3.18719C103.557 3.8674 103.557 4.54959 103.514 5.22979C102.604 5.22979 101.899 5.1532 101.354 5.17873C101.354 4.58297 101.354 4.14041 101.354 3.56167C101.363 2.03823 103.421 1.98717 103.531 3.14464L103.514 3.18719ZM100.904 11.1704C99.7984 10.4554 99.7984 10.3703 99.96 7.95326C100.13 5.40001 100.13 5.64683 104.841 5.85109C105.691 5.89364 105.691 7.45112 102.366 7.80858C102.301 7.82502 102.243 7.86471 102.204 7.92032C102.165 7.97593 102.148 8.0437 102.155 8.11113C102.163 8.17855 102.194 8.24107 102.244 8.28714C102.293 8.33321 102.358 8.35972 102.426 8.36178C102.511 8.36178 106.567 7.749 107.663 11.1363C107.694 11.1957 107.744 11.2423 107.806 11.2678C107.867 11.2933 107.936 11.2961 107.999 11.2756C108.063 11.2552 108.117 11.2128 108.152 11.1561C108.187 11.0994 108.201 11.032 108.191 10.9661C108.013 10.4157 107.728 9.90631 107.351 9.46785C106.974 9.02939 106.514 8.6707 105.997 8.41285C106.235 8.29388 106.435 8.11121 106.575 7.88518C106.685 8.15591 106.872 8.38848 107.113 8.55424C107.353 8.72 107.637 8.81169 107.929 8.81803C108.221 8.82436 108.508 8.74505 108.756 8.58988C109.003 8.43471 109.2 8.21045 109.321 7.94475C109.602 9.64692 111.813 9.64692 112.289 7.88518C112.289 10.3193 112.144 13.1364 112.195 15.2215C109.381 15.7941 106.488 15.8604 103.65 15.4173C103.769 14.0981 103.421 12.7364 100.921 11.1278L100.904 11.1704ZM71.3314 43.0605C72.4748 42.2469 73.3603 41.1213 73.8822 39.8178C73.9007 39.7657 73.9035 39.7092 73.8901 39.6555C73.8767 39.6018 73.8477 39.5532 73.8068 39.516C73.766 39.4787 73.715 39.4543 73.6603 39.4459C73.6056 39.4376 73.5497 39.4455 73.4996 39.4689C72.1901 40.1157 69.8604 41.1711 68.7125 40.32C67.5647 39.4689 67.3776 36.9156 68.0918 31.9453C69.9968 31.4232 71.9586 31.1374 73.9332 31.0942C73.7291 32.0985 73.5846 33.8603 74.1883 34.0815C74.6304 34.2347 74.9025 33.639 75.0385 33.4092C75.6337 32.1411 76.8921 33.1539 75.8293 34.8135C75.5913 35.271 75.4859 35.786 75.525 36.3004C75.5641 36.8147 75.746 37.3079 76.0504 37.7242C75.9428 38.7909 76.2064 39.8622 76.7966 40.7569C77.3869 41.6516 78.2675 42.315 79.2899 42.6349C78.812 44.3767 77.8847 45.9621 76.6012 47.2319C75.3178 48.5016 73.7232 49.4112 71.9776 49.8691C70.2175 50.3117 68.5765 50.1585 67.6497 49.4947C69.625 47.8755 70.9356 45.5851 71.3314 43.0605ZM58.7729 60.6949C58.7614 60.6299 58.7275 60.571 58.6769 60.5285C58.6264 60.486 58.5625 60.4628 58.4965 60.4628C58.4306 60.4628 58.3667 60.486 58.3162 60.5285C58.2656 60.571 58.2316 60.6299 58.2202 60.6949C58.2967 61.546 58.4073 62.678 58.5433 63.9546C57.0298 65.7589 52.4554 70.7632 48.1275 73.6059C43.349 75.0953 42.4987 75.2314 26.012 65.2482C27.0408 64.7291 28.3502 62.9588 29.7957 60.0821C30.5099 58.6693 31.6748 56.082 31.4962 54.499C33.877 55.8948 37.8222 58.014 43.9102 60.8396C44.1567 60.9502 44.2673 61.0439 44.4288 60.9843C48.5271 59.2821 61.6043 53.3841 67.1735 49.7925C69.7244 52.0054 77.6489 50.133 79.8256 42.7541C81.8943 43.0701 84.0097 42.7152 85.8625 41.7413C90.3009 39.6817 100.266 34.6943 101.55 33.8432C101.588 33.8222 101.62 33.7914 101.642 33.7541C101.665 33.7167 101.677 33.674 101.678 33.6305C101.941 29.0857 101.984 19.7408 101.967 15.2641C103.965 16.6599 111.974 16.413 113.921 15.0428C113.921 36.9667 114.142 38.1242 112.995 40.2689C111.226 43.5881 105.631 46.5244 84.451 58.3034C84.4051 58.3299 84.3673 58.3685 84.3418 58.415C84.3163 58.4615 84.3041 58.5142 84.3065 58.5672C84.5786 62.1843 84.8932 65.9716 84.8932 68.6185L83.6348 73.0612C75.6488 72.9992 67.797 75.1178 60.9241 79.189C60.2098 73.3591 59.0875 64.3886 58.7729 60.6949ZM36.5978 99.8448C37.4481 94.9766 41.6995 92.4063 69.1037 80.1847C69.1656 80.1508 69.2124 80.0947 69.2348 80.0277C69.2572 79.9607 69.2536 79.8877 69.2246 79.8232C69.1956 79.7588 69.1435 79.7077 69.0785 79.68C69.0135 79.6524 68.9405 79.6503 68.8741 79.6741C66.1277 80.8997 63.6024 82.0231 61.2982 83.0784C61.2217 82.2273 61.1026 81.1209 60.9496 79.7932C66.1039 76.6629 71.8726 74.683 77.8614 73.9889C81.2625 85.5466 79.6895 87.6062 76.8496 89.3084C73.7291 91.2488 55.0147 99.0618 47.8129 102.704C47.7804 102.72 47.7512 102.742 47.7271 102.769C47.7031 102.795 47.6846 102.827 47.6727 102.861C47.6609 102.895 47.6559 102.931 47.658 102.967C47.6602 103.003 47.6695 103.038 47.6854 103.07C49.1733 106.185 56.3581 121.539 59.9377 128.526C57.055 129.821 53.853 130.23 50.7378 129.701C37.2951 107.479 35.9431 103.76 36.5978 99.8533V99.8448ZM69.5458 132.356L70.158 133.054C68.1258 138.544 60.805 148.161 54.8531 152.084C54.8236 151.517 54.8236 150.949 54.8531 150.382C58.2627 148.135 65.8556 140.765 69.5458 132.365V132.356ZM67.8453 128.399C66.0002 133.029 57.9481 135.607 53.6628 134.526L51.1119 130.373C56.1625 131.224 63.0923 129.182 65.7111 124.126L67.8453 128.399ZM54.1474 106.492C54.0857 106.514 54.0338 106.558 54.0008 106.615C53.9679 106.672 53.9559 106.738 53.967 106.803C53.9782 106.868 54.0117 106.927 54.0617 106.969C54.1118 107.012 54.1752 107.036 54.2409 107.036C55.0366 106.8 55.8174 106.515 56.5792 106.185C58.0076 108.739 61.5788 115.786 65.405 123.488C64.3539 125.62 62.6001 127.325 60.4394 128.314C56.9448 121.505 50.0491 106.756 48.306 103.104C55.7289 99.3852 73.9672 91.785 77.1472 89.802C80.5483 87.6743 81.6281 84.6955 78.4226 73.9123C80.1232 73.725 81.8237 73.6229 83.6433 73.5974C89.2296 83.4274 86.5852 91.6999 81.288 94.8064C73.7121 99.266 62.463 103.504 54.1474 106.492ZM75.4807 124.875C72.4622 123.479 69.5288 114.611 67.131 107.3C69.1037 105.002 74.4434 99.8278 76.3735 98.066C78.5672 96.9937 80.4463 95.9724 81.5856 95.2915C82.2488 98.7894 85.0802 111.854 85.0802 111.854C85.1738 112.262 85.0207 112.066 99.5348 112.62C101.49 114.977 102.519 122.739 99.2202 127.028C80.5143 126.918 78.9838 126.501 75.4807 124.875ZM104.611 127.054H99.9259C103.046 122.594 102.077 115.42 100.266 112.671C101.797 112.73 103.259 112.798 104.517 112.866C106.754 116.552 106.856 125.147 104.611 127.054ZM117.705 133.012C117.271 126.373 110.707 117.318 107.646 114.169C107.833 114.169 108.029 114.169 108.216 114.22C111.209 116.696 118.207 125.437 118.496 133.182C118.23 133.148 117.966 133.1 117.705 133.037V133.012Z" fill="#090809"/>
</svg>
