<svg width="140" height="135" viewBox="0 0 140 135" fill="none" xmlns="http://www.w3.org/2000/svg">
<path d="M52.4767 83.3138L38.0639 51.0118C37.9051 50.6569 37.6773 50.3369 37.3936 50.0705C37.11 49.8041 36.7762 49.5966 36.4116 49.46C36.047 49.3234 35.6588 49.2604 35.2697 49.2748C34.8805 49.2891 34.4981 49.3805 34.1445 49.5436L27.7176 52.3627C27.3611 52.5212 27.0398 52.7489 26.7723 53.0326C26.5049 53.3164 26.2966 53.6504 26.1598 54.0152C26.0229 54.3801 25.9601 54.7685 25.9751 55.1578C25.99 55.5472 26.0825 55.9296 26.2469 56.2829C43.8143 95.7648 42.601 93.1439 42.7407 93.1439C42.764 93.1436 42.7869 93.1375 42.8073 93.1261C42.8276 93.1148 42.8448 93.0985 42.8572 93.0788C42.8696 93.0591 42.8769 93.0366 42.8784 93.0133C42.8799 92.9901 42.8755 92.9668 42.8657 92.9457L26.4602 56.1655C26.1703 55.5131 26.1516 54.7726 26.408 54.1065C26.6644 53.4403 27.1751 52.9029 27.8279 52.6123L34.2548 49.7565C34.9083 49.4671 35.65 49.4483 36.3172 49.7043C36.9845 49.9603 37.5228 50.4702 37.8139 51.122C52.8517 84.7748 52.1825 83.5047 52.3516 83.5047C52.374 83.5039 52.3959 83.4978 52.4154 83.4868C52.4349 83.4758 52.4515 83.4603 52.4637 83.4416C52.476 83.4229 52.4836 83.4016 52.4858 83.3793C52.4881 83.3571 52.4849 83.3346 52.4767 83.3138Z" fill="#090809"/>
<path d="M59.3369 98.7013L57.1309 93.6724C57.1121 93.6465 57.0851 93.6279 57.0542 93.6195C57.0233 93.6112 56.9905 93.6136 56.9612 93.6265C56.932 93.6394 56.908 93.6619 56.8934 93.6903C56.8788 93.7187 56.8743 93.7513 56.8808 93.7825L59.0869 98.8187C59.3767 99.4711 59.3955 100.212 59.1391 100.878C58.8827 101.544 58.372 102.081 57.7191 102.372L51.2922 105.228C50.6397 105.518 49.8987 105.537 49.2316 105.283C48.5645 105.028 48.0257 104.52 47.7332 103.87L45.6816 99.2592C45.6738 99.2423 45.6629 99.2271 45.6492 99.2145C45.6356 99.2019 45.6197 99.192 45.6023 99.1856C45.5849 99.1791 45.5663 99.1761 45.5478 99.1768C45.5292 99.1774 45.5109 99.1817 45.494 99.1895C45.4771 99.1972 45.4619 99.2081 45.4493 99.2217C45.4366 99.2353 45.4268 99.2512 45.4203 99.2686C45.4138 99.286 45.4108 99.3045 45.4115 99.323C45.4121 99.3416 45.4165 99.3598 45.4242 99.3767L47.4831 103.98C47.6385 104.338 47.8639 104.662 48.146 104.932C48.4282 105.202 48.7615 105.413 49.1264 105.554C49.4913 105.694 49.8806 105.76 50.2714 105.748C50.6622 105.736 51.0468 105.647 51.4025 105.485L57.8368 102.622C58.1959 102.466 58.5202 102.24 58.7907 101.957C59.0612 101.675 59.2726 101.341 59.4123 100.976C59.552 100.611 59.6173 100.222 59.6044 99.8312C59.5914 99.4405 59.5005 99.0564 59.3369 98.7013Z" fill="#090809"/>
<path d="M77.2061 93.7093L71.4704 96.2714C70.8181 96.5605 70.0774 96.5791 69.4113 96.323C68.7453 96.0669 68.2084 95.5572 67.9187 94.9059L64.6906 87.6747C64.6759 87.6406 64.6484 87.6137 64.6139 87.6C64.5794 87.5862 64.5409 87.5867 64.5067 87.6013C64.4726 87.6159 64.4457 87.6434 64.4319 87.6778C64.4181 87.7122 64.4186 87.7507 64.4332 87.7848L67.6614 95.016C67.8201 95.372 68.0482 95.6928 68.3324 95.9598C68.6166 96.2268 68.9512 96.4347 69.3167 96.5714C69.6821 96.708 70.0712 96.7707 70.4611 96.7558C70.8511 96.7408 71.2342 96.6485 71.5881 96.4843L77.3458 93.9295C77.3628 93.9069 77.3725 93.8796 77.3736 93.8514C77.3747 93.8231 77.3671 93.7952 77.352 93.7713C77.3368 93.7475 77.3148 93.7287 77.2887 93.7176C77.2627 93.7066 77.2339 93.7036 77.2061 93.7093Z" fill="#090809"/>
<path d="M79.5588 89.9062L75.8821 81.6398C75.8635 81.6121 75.8355 81.5919 75.8033 81.583C75.7711 81.574 75.7367 81.5769 75.7064 81.5912C75.6762 81.6054 75.652 81.63 75.6384 81.6605C75.6247 81.6909 75.6225 81.7253 75.6321 81.7573L79.3088 90.0237C79.3274 90.0514 79.3553 90.0716 79.3876 90.0806C79.4198 90.0895 79.4542 90.0866 79.4844 90.0724C79.5147 90.0582 79.5389 90.0336 79.5525 90.0031C79.5661 89.9726 79.5684 89.9382 79.5588 89.9062Z" fill="#090809"/>
<path d="M70.4481 69.4681L65.6243 58.6396C65.4655 58.2846 65.2376 57.9647 64.954 57.6983C64.6703 57.4319 64.3365 57.2243 63.9719 57.0878C63.6073 56.9512 63.2192 56.8882 62.83 56.9026C62.4408 56.9169 62.0584 57.0083 61.7049 57.1714L55.2927 60.0125C54.9371 60.171 54.6166 60.3985 54.3498 60.6816C54.0829 60.9648 53.8751 61.2981 53.7383 61.6621C53.6015 62.0261 53.5384 62.4136 53.5528 62.8021C53.5672 63.1907 53.6587 63.5725 53.822 63.9254L59.7048 77.2133C59.7194 77.2473 59.747 77.2742 59.7814 77.288C59.8159 77.3018 59.8545 77.3013 59.8886 77.2867C59.9227 77.2721 59.9496 77.2445 59.9634 77.2101C59.9772 77.1757 59.9767 77.1372 59.9621 77.1031L54.0353 63.8153C53.8907 63.4924 53.8115 63.1442 53.802 62.7907C53.7926 62.4372 53.8531 62.0853 53.9802 61.7552C54.1073 61.4251 54.2984 61.1232 54.5425 60.867C54.7867 60.6108 55.0791 60.4052 55.403 60.2621L61.8299 57.4063C62.1533 57.262 62.5021 57.1829 62.8562 57.1734C63.2103 57.164 63.5627 57.2244 63.8934 57.3513C64.224 57.4782 64.5264 57.6689 64.783 57.9127C65.0397 58.1565 65.2456 58.4484 65.389 58.7718L70.2055 69.5783C70.2253 69.6003 70.2517 69.6155 70.2808 69.6216C70.3099 69.6277 70.3402 69.6244 70.3673 69.6121C70.3943 69.5998 70.4168 69.5792 70.4313 69.5533C70.4458 69.5274 70.4517 69.4976 70.4481 69.4681Z" fill="#090809"/>
<path d="M92.8465 65.5476L88.9786 56.8775C88.6502 56.1672 88.0546 55.6147 87.3209 55.3399C86.5872 55.065 85.7746 55.0899 85.0592 55.4092L78.625 58.2723C78.2694 58.4309 77.9489 58.6583 77.682 58.9415C77.4152 59.2247 77.2074 59.558 77.0706 59.922C76.9337 60.286 76.8707 60.6735 76.8851 61.062C76.8994 61.4505 76.9909 61.8323 77.1543 62.1853L80.6545 70.0405C80.6731 70.0683 80.7011 70.0885 80.7333 70.0974C80.7655 70.1064 80.7999 70.1034 80.8302 70.0892C80.8604 70.075 80.8846 70.0504 80.8982 70.0199C80.9119 69.9894 80.9141 69.9551 80.9045 69.9231L77.3528 62.0385C77.063 61.3861 77.0442 60.6456 77.3006 59.9794C77.557 59.3133 78.0677 58.7759 78.7206 58.4852L85.1475 55.6294C85.8009 55.3401 86.5426 55.3213 87.2099 55.5773C87.8771 55.8333 88.4154 56.3432 88.7065 56.9949L92.5671 65.6577C92.67 65.8193 92.9201 65.7091 92.8465 65.5476Z" fill="#090809"/>
<path d="M119.797 71.854L113.796 58.4046C113.792 58.3842 113.783 58.3651 113.771 58.3485C113.758 58.332 113.742 58.3185 113.724 58.309C113.705 58.2995 113.685 58.2942 113.664 58.2936C113.643 58.293 113.622 58.297 113.603 58.3054C113.584 58.3138 113.567 58.3263 113.554 58.3421C113.54 58.3578 113.53 58.3764 113.525 58.3965C113.519 58.4166 113.518 58.4376 113.522 58.4581C113.526 58.4785 113.534 58.4979 113.546 58.5147L119.547 71.9714C119.836 72.6227 119.855 73.3622 119.599 74.0272C119.342 74.6921 118.831 75.2281 118.179 75.5173L112.767 77.9253C112.75 77.9325 112.735 77.943 112.722 77.9561C112.709 77.9693 112.699 77.9848 112.692 78.0018C112.685 78.0189 112.682 78.0371 112.682 78.0555C112.682 78.0738 112.686 78.0919 112.693 78.1088C112.701 78.1257 112.711 78.141 112.724 78.1538C112.738 78.1666 112.753 78.1767 112.77 78.1835C112.787 78.1903 112.805 78.1937 112.824 78.1935C112.842 78.1933 112.86 78.1895 112.877 78.1822L118.289 75.7743C118.649 75.6192 118.974 75.3939 119.245 75.1117C119.517 74.8295 119.729 74.496 119.869 74.1308C120.01 73.7656 120.076 73.376 120.063 72.9851C120.051 72.5941 119.96 72.2095 119.797 71.854Z" fill="#090809"/>
<path d="M108.473 47.1208L105.958 41.49C105.943 41.4559 105.943 41.4174 105.957 41.383C105.97 41.3486 105.997 41.321 106.031 41.3064C106.066 41.2918 106.104 41.2914 106.139 41.3051C106.173 41.3189 106.201 41.3458 106.215 41.3798L108.73 47.0107C108.737 47.0275 108.741 47.0457 108.741 47.064C108.742 47.0824 108.738 47.1006 108.731 47.1176C108.725 47.1347 108.714 47.1502 108.702 47.1634C108.689 47.1765 108.673 47.187 108.657 47.1942C108.622 47.2088 108.584 47.2093 108.549 47.1955C108.515 47.1817 108.487 47.1549 108.473 47.1208Z" fill="#090809"/>
<path d="M103.09 34.4129L98.4945 24.135C98.3357 23.7801 98.1078 23.4601 97.8242 23.1937C97.5405 22.9273 97.2067 22.7198 96.8421 22.5832C96.4775 22.4466 96.0894 22.3836 95.7002 22.398C95.311 22.4123 94.9286 22.5037 94.5751 22.6668L88.1408 25.5299C87.7853 25.6884 87.4648 25.9159 87.1979 26.1991C86.9311 26.4823 86.7232 26.8155 86.5864 27.1795C86.4496 27.5435 86.3866 27.9311 86.4009 28.3196C86.4153 28.7081 86.5068 29.0899 86.6701 29.4428C94.4942 46.996 93.9721 45.9169 94.1045 45.9169C94.1278 45.9166 94.1507 45.9105 94.171 45.8991C94.1914 45.8877 94.2086 45.8714 94.221 45.8517C94.2334 45.832 94.2407 45.8095 94.2422 45.7863C94.2437 45.763 94.2393 45.7398 94.2295 45.7186L86.9128 29.274C86.7683 28.9511 86.689 28.6029 86.6796 28.2494C86.6701 27.8959 86.7307 27.544 86.8577 27.2139C86.9848 26.8838 87.1759 26.582 87.4201 26.3257C87.6642 26.0695 87.9566 25.8639 88.2806 25.7208L94.7075 22.865C95.36 22.5751 96.101 22.5553 96.7681 22.8099C97.4352 23.0645 97.974 23.5727 98.2665 24.2231C103.157 35.1691 102.84 34.6038 102.987 34.6038C103.008 34.6 103.027 34.5916 103.044 34.5793C103.061 34.5671 103.075 34.5512 103.084 34.5329C103.094 34.5146 103.1 34.4943 103.101 34.4736C103.102 34.4528 103.098 34.4321 103.09 34.4129Z" fill="#090809"/>
<path d="M132.842 70.3122L108.105 14.8408C106.907 12.162 104.693 10.0675 101.95 9.01719C99.2058 7.96692 96.1567 8.04684 93.4719 9.23939L48.1895 29.3621C46.8299 26.3736 44.3422 24.0428 41.2685 22.878C38.1948 21.7131 34.7845 21.8087 31.7811 23.1437C28.7776 24.4787 26.4246 26.945 25.235 30.0049C24.0455 33.0648 24.1157 36.4701 25.4306 39.4785L19.0331 42.3269C17.7035 42.9169 16.5033 43.7628 15.5013 44.8161C14.4992 45.8694 13.7149 47.1095 13.1932 48.4656C12.6715 49.8217 12.4225 51.2671 12.4606 52.7193C12.4987 54.1715 12.823 55.6019 13.4151 56.9289L38.152 112.393C38.743 113.721 39.5905 114.92 40.6461 115.921C41.7017 116.922 42.9446 117.706 44.3038 118.227C45.6629 118.748 47.1117 118.996 48.567 118.957C50.0224 118.919 51.4558 118.594 52.7854 118.002L73.853 108.634C73.8696 108.628 73.8848 108.618 73.8976 108.605C73.9104 108.593 73.9205 108.578 73.9274 108.562C73.9343 108.545 73.9377 108.528 73.9376 108.51C73.9374 108.492 73.9337 108.474 73.9265 108.458C73.9193 108.441 73.9088 108.426 73.8957 108.413C73.8825 108.4 73.8669 108.39 73.8499 108.383C73.8328 108.376 73.8145 108.373 73.7961 108.373C73.7777 108.373 73.7596 108.377 73.7427 108.384L52.6751 117.752C51.3771 118.332 49.9771 118.651 48.5555 118.69C47.1339 118.729 45.7186 118.487 44.3907 117.979C43.0627 117.471 41.8482 116.706 40.8168 115.729C39.7854 114.751 38.9573 113.58 38.38 112.283L13.6725 56.8188C13.095 55.5245 12.7787 54.1294 12.7415 52.7131C12.7043 51.2968 12.947 49.887 13.4558 48.5644C13.9645 47.2418 14.7294 46.0322 15.7065 45.0048C16.6837 43.9773 17.8541 43.1522 19.1508 42.5765L93.5822 9.489C94.8823 8.91222 96.2835 8.59714 97.7057 8.56177C99.1278 8.52641 100.543 8.77147 101.87 9.28292C103.197 9.79437 104.41 10.5622 105.44 11.5423C106.47 12.5225 107.295 13.6958 107.87 14.995L132.585 70.4223C133.747 73.0357 133.824 76.0027 132.799 78.6727C131.773 81.3426 129.729 83.4975 127.114 84.6645L87.4495 102.284C87.4216 102.298 87.3991 102.321 87.3857 102.349C87.3722 102.377 87.3686 102.409 87.3754 102.439C87.3822 102.469 87.3989 102.497 87.423 102.516C87.4471 102.536 87.4771 102.547 87.5083 102.548C87.5818 102.548 87.5671 102.548 90.8321 101.08C92.3667 104.339 94.7791 107.109 97.7996 109.078C100.82 111.047 104.33 112.139 107.936 112.231C122.04 112.598 131.872 98.2828 126.07 85.4501L127.224 84.9362C129.911 83.7401 132.012 81.5277 133.066 78.7854C134.119 76.043 134.039 72.9953 132.842 70.3122ZM25.688 39.3683C24.6667 37.0358 24.4093 34.4408 24.9526 31.9536L36.4608 34.5818L25.688 39.3683ZM37.174 34.2294L43.1892 24.135C45.276 25.3977 46.9319 27.2607 47.9395 29.4795L37.174 34.2294ZM91.0894 100.948L107.686 93.6063L93.8764 105.294C92.7526 103.99 91.8148 102.537 91.0894 100.977V100.948ZM94.0308 105.463L108.274 93.4081L110.444 111.842C107.404 112.154 104.334 111.741 101.486 110.637C98.6378 109.533 96.0928 107.769 94.0602 105.492L94.0308 105.463ZM124.915 102.526L108.671 93.1438L125.82 85.5235C127.04 88.2286 127.595 91.1855 127.439 94.148C127.283 97.1105 126.42 99.993 124.923 102.555L124.915 102.526Z" fill="#090809"/>
<path d="M135.284 35.9767L134.012 52.4508C133.912 53.8003 133.336 55.0708 132.387 56.0371C131.438 57.0033 130.177 57.6028 128.828 57.7292C123.873 58.0339 118.903 57.9676 113.959 57.531C112.488 62.5378 112.106 66.7738 111.753 72.4413C105.024 70.8996 98.7299 70.1655 93.156 70.7307C92.4993 64.9259 92.4304 59.0697 92.9501 53.251L88.8469 54.4696C80.5008 53.7355 73.8092 52.1131 65.4483 50.0648C65.0741 48.5702 65.0183 47.0139 65.2843 45.4964C65.5503 43.979 66.1322 42.5341 66.9925 41.2552C77.5668 43.9201 86.7512 45.7848 97.5975 45.8876L102.193 58.3679L110.973 47.5027C115.668 47.9001 120.381 48.0545 125.092 47.9652L126.121 35.1545C129.2 34.8381 132.311 35.1173 135.284 35.9767Z" fill="#BF0808"/>
<path d="M56.9698 93.8782C56.9327 93.8782 56.8972 93.8635 56.871 93.8373C56.8448 93.8111 56.8301 93.7757 56.8301 93.7387C56.8301 93.7017 56.8448 93.6662 56.871 93.64C56.8972 93.6139 56.9327 93.5992 56.9698 93.5992C57.0069 93.5992 57.0424 93.6139 57.0686 93.64C57.0948 93.6662 57.1095 93.7017 57.1095 93.7387C57.1095 93.7757 57.0948 93.8111 57.0686 93.8373C57.0424 93.8635 57.0069 93.8782 56.9698 93.8782Z" fill="#090809"/>
<path d="M66.8819 48.8241C66.9286 48.8797 66.9858 48.9256 67.0504 48.959C67.1149 48.9924 67.1854 49.0128 67.2578 49.019C67.3303 49.0251 67.4032 49.0169 67.4725 48.9948C67.5417 48.9727 67.6059 48.9371 67.6613 48.8902C67.7732 48.7959 67.8436 48.6616 67.8574 48.5161C67.8711 48.3705 67.8271 48.2255 67.7349 48.112C67.6392 47.9998 67.5034 47.9293 67.3564 47.9156C67.2094 47.9019 67.0629 47.946 66.948 48.0386C66.835 48.134 66.7646 48.2704 66.7522 48.4177C66.7398 48.5649 66.7864 48.7111 66.8819 48.8241Z" fill="#090809"/>
<path d="M80.1107 46.5777C80.2064 46.6899 80.3422 46.7604 80.4892 46.7741C80.6362 46.7878 80.7827 46.7437 80.8975 46.6511C81.0105 46.5556 81.081 46.4193 81.0934 46.272C81.1058 46.1247 81.0592 45.9786 80.9637 45.8656C80.8662 45.7527 80.7278 45.683 80.5788 45.672C80.4299 45.661 80.2827 45.7095 80.1696 45.8068C80.0564 45.9042 79.9867 46.0424 79.9757 46.1911C79.9646 46.3398 80.0132 46.4868 80.1107 46.5997V46.5777Z" fill="#090809"/>
<path d="M90.5889 53.0381C90.6372 53.0936 90.6959 53.139 90.7618 53.1717C90.8277 53.2045 90.8993 53.224 90.9727 53.2291C91.0462 53.2342 91.1198 53.2249 91.1896 53.2015C91.2594 53.1782 91.3239 53.1414 91.3794 53.0932C91.4349 53.045 91.4804 52.9863 91.5132 52.9206C91.5461 52.8548 91.5656 52.7833 91.5707 52.71C91.5758 52.6367 91.5664 52.5631 91.5431 52.4935C91.5197 52.4238 91.4828 52.3594 91.4346 52.304C91.3863 52.2486 91.3275 52.2032 91.2617 52.1704C91.1958 52.1376 91.1241 52.1181 91.0507 52.113C90.9773 52.1079 90.9036 52.1173 90.8339 52.1406C90.7641 52.1639 90.6996 52.2007 90.6441 52.2489C90.5885 52.2971 90.5431 52.3558 90.5103 52.4215C90.4774 52.4873 90.4579 52.5588 90.4528 52.6321C90.4477 52.7054 90.457 52.779 90.4804 52.8487C90.5038 52.9183 90.5406 52.9827 90.5889 53.0381Z" fill="#090809"/>
<path d="M115.245 55.101C115.343 55.2129 115.481 55.2816 115.629 55.2919C115.777 55.3023 115.924 55.2534 116.036 55.156C116.148 55.0587 116.217 54.9208 116.227 54.7728C116.238 54.6248 116.189 54.4788 116.091 54.3668C116.043 54.3114 115.984 54.266 115.918 54.2332C115.852 54.2005 115.781 54.181 115.707 54.1759C115.634 54.1707 115.56 54.1801 115.49 54.2034C115.421 54.2268 115.356 54.2636 115.301 54.3118C115.245 54.36 115.2 54.4186 115.167 54.4844C115.134 54.5501 115.114 54.6217 115.109 54.695C115.104 54.7683 115.114 54.8418 115.137 54.9115C115.16 54.9811 115.197 55.0455 115.245 55.101Z" fill="#090809"/>
<path d="M131.813 50.9824C131.883 51.0653 131.977 51.1256 132.082 51.1555C132.186 51.1854 132.298 51.1837 132.401 51.1506C132.505 51.1175 132.597 51.0544 132.665 50.9694C132.733 50.8843 132.774 50.7811 132.783 50.6727C132.792 50.5644 132.769 50.4557 132.716 50.3605C132.664 50.2652 132.584 50.1876 132.488 50.1375C132.391 50.0874 132.281 50.067 132.173 50.0789C132.065 50.0907 131.963 50.1344 131.879 50.2042C131.823 50.2509 131.777 50.308 131.744 50.3724C131.71 50.4369 131.69 50.5073 131.684 50.5796C131.678 50.6519 131.686 50.7247 131.708 50.7939C131.73 50.863 131.766 50.9271 131.813 50.9824Z" fill="#090809"/>
<path d="M99.8545 59.2928C99.9012 59.3485 99.9585 59.3943 100.023 59.4278C100.088 59.4612 100.158 59.4816 100.23 59.4877C100.303 59.4939 100.376 59.4856 100.445 59.4635C100.514 59.4414 100.579 59.4059 100.634 59.3589C100.747 59.2634 100.817 59.1271 100.83 58.9798C100.842 58.8325 100.796 58.6864 100.7 58.5734C100.653 58.5178 100.596 58.4719 100.532 58.4385C100.467 58.405 100.397 58.3846 100.324 58.3785C100.252 58.3724 100.179 58.3806 100.11 58.4027C100.04 58.4248 99.9761 58.4603 99.9207 58.5073C99.8077 58.6028 99.7373 58.7391 99.7249 58.8864C99.7125 59.0337 99.7591 59.1799 99.8545 59.2928Z" fill="#090809"/>
<path d="M103.694 59.6892C103.765 59.7736 103.86 59.835 103.966 59.8656C104.072 59.8962 104.185 59.8947 104.29 59.8612C104.396 59.8277 104.489 59.7637 104.558 59.6774C104.627 59.5911 104.668 59.4863 104.678 59.3763C104.687 59.2663 104.663 59.156 104.61 59.0594C104.556 58.9628 104.475 58.8843 104.377 58.8337C104.279 58.7831 104.168 58.7627 104.058 58.7752C103.948 58.7876 103.844 58.8324 103.76 58.9037C103.647 58.9992 103.576 59.1355 103.564 59.2828C103.552 59.4301 103.598 59.5762 103.694 59.6892Z" fill="#090809"/>
<path d="M108.899 69.0202C108.971 69.1046 109.065 69.166 109.172 69.1966C109.278 69.2272 109.391 69.2257 109.496 69.1922C109.602 69.1587 109.695 69.0947 109.764 69.0084C109.833 68.9221 109.874 68.8173 109.884 68.7073C109.893 68.5973 109.869 68.487 109.816 68.3904C109.762 68.2938 109.681 68.2153 109.583 68.1647C109.485 68.1141 109.373 68.0937 109.264 68.1062C109.154 68.1186 109.05 68.1634 108.966 68.2347C108.853 68.3302 108.782 68.4665 108.77 68.6138C108.757 68.7611 108.804 68.9072 108.899 69.0202Z" fill="#090809"/>
<path d="M94.6336 67.6695C94.6803 67.7251 94.7375 67.7709 94.8021 67.8044C94.8666 67.8378 94.9371 67.8582 95.0095 67.8643C95.082 67.8705 95.1549 67.8623 95.2242 67.8402C95.2934 67.818 95.3576 67.7825 95.413 67.7355C95.526 67.64 95.5964 67.5037 95.6089 67.3564C95.6213 67.2092 95.5746 67.063 95.4792 66.95C95.4325 66.8944 95.3752 66.8485 95.3107 66.8151C95.2462 66.7816 95.1757 66.7613 95.1032 66.7551C95.0308 66.749 94.9579 66.7572 94.8886 66.7793C94.8194 66.8014 94.7552 66.837 94.6997 66.8839C94.5867 66.9794 94.5163 67.1158 94.5039 67.263C94.4915 67.4103 94.5381 67.5565 94.6336 67.6695Z" fill="#090809"/>
<path d="M127.217 37.9147C127.313 38.0275 127.449 38.0978 127.597 38.1102C127.744 38.1226 127.891 38.0761 128.004 37.9808C128.061 37.9357 128.109 37.8798 128.145 37.8161C128.18 37.7525 128.203 37.6825 128.211 37.6101C128.219 37.5377 128.213 37.4644 128.192 37.3945C128.172 37.3245 128.138 37.2593 128.092 37.2026C128.044 37.1467 127.985 37.1008 127.919 37.0676C127.853 37.0344 127.781 37.0145 127.707 37.009C127.633 37.0036 127.559 37.0127 127.489 37.0358C127.419 37.059 127.354 37.0957 127.298 37.1439C127.242 37.1921 127.196 37.2508 127.163 37.3168C127.129 37.3827 127.11 37.4545 127.104 37.5282C127.099 37.6018 127.108 37.6758 127.131 37.7459C127.154 37.816 127.191 37.8808 127.239 37.9368L127.217 37.9147Z" fill="#090809"/>
<path d="M11.0177 61.899L3.23046 58.867C3.1963 58.855 3.1588 58.8568 3.12588 58.8718C3.09295 58.8869 3.06717 58.9141 3.05398 58.9478L0.00965672 66.715C-0.00399504 66.75 -0.00314271 66.789 0.0120267 66.8234C0.0271961 66.8579 0.0554397 66.8849 0.0905443 66.8985C0.125649 66.9121 0.164739 66.9113 0.199215 66.8961C0.233691 66.881 0.260728 66.8528 0.27438 66.8177L3.18634 59.3736L9.87061 74.5776C9.87786 74.5944 9.88836 74.6097 9.90151 74.6225C9.91467 74.6353 9.93023 74.6455 9.9473 74.6523C9.96437 74.6591 9.98262 74.6625 10.001 74.6623C10.0194 74.662 10.0375 74.6582 10.0544 74.651C10.0713 74.6437 10.0867 74.6332 10.0995 74.6201C10.1123 74.607 10.1225 74.5914 10.1293 74.5744C10.1361 74.5574 10.1395 74.5391 10.1393 74.5208C10.1391 74.5024 10.1352 74.4843 10.128 74.4674L3.44371 59.2488L10.9222 62.1853C10.9602 62.198 11.0017 62.195 11.0375 62.1771C11.0734 62.1592 11.1007 62.1279 11.1133 62.0899C11.126 62.0519 11.1231 62.0105 11.1051 61.9747C11.0872 61.9389 11.0558 61.9117 11.0177 61.899Z" fill="#090809"/>
<path d="M130.019 105.11C129.89 104.813 129.836 104.489 129.862 104.167C129.889 103.844 129.994 103.533 130.17 103.261C130.346 102.989 130.586 102.764 130.869 102.607C131.153 102.45 131.47 102.365 131.795 102.36C132.119 102.354 132.439 102.429 132.728 102.577C133.016 102.725 133.263 102.942 133.447 103.208C133.632 103.474 133.748 103.782 133.784 104.103C133.821 104.425 133.778 104.751 133.659 105.052C133.513 105.41 133.264 105.718 132.944 105.937C132.624 106.156 132.246 106.276 131.858 106.283C131.47 106.289 131.089 106.181 130.762 105.973C130.435 105.764 130.176 105.464 130.019 105.11ZM131.151 102.776C130.842 102.906 130.578 103.124 130.394 103.404C130.21 103.684 130.113 104.012 130.116 104.347C130.119 104.682 130.221 105.008 130.411 105.285C130.6 105.561 130.867 105.775 131.179 105.9C131.49 106.024 131.832 106.053 132.16 105.983C132.488 105.914 132.788 105.748 133.021 105.507C133.255 105.267 133.411 104.963 133.471 104.633C133.531 104.304 133.491 103.964 133.357 103.657C133.179 103.25 132.848 102.929 132.435 102.764C132.022 102.599 131.561 102.604 131.151 102.776Z" fill="#090809"/>
<path d="M138.026 108.678C137.671 108.678 137.322 108.582 137.016 108.4C136.71 108.219 136.46 107.957 136.291 107.645C136.122 107.332 136.041 106.98 136.057 106.625C136.072 106.27 136.183 105.926 136.379 105.629C136.574 105.333 136.847 105.094 137.167 104.94C137.487 104.785 137.843 104.72 138.198 104.751C138.552 104.782 138.892 104.908 139.18 105.116C139.468 105.324 139.695 105.606 139.835 105.932C139.966 106.232 140.021 106.559 139.993 106.884C139.965 107.209 139.857 107.522 139.677 107.795C139.497 108.068 139.252 108.292 138.964 108.446C138.676 108.6 138.353 108.68 138.026 108.678ZM138.026 105.007C137.663 105.009 137.309 105.127 137.018 105.344C136.727 105.562 136.514 105.867 136.411 106.216C136.307 106.564 136.319 106.936 136.444 107.276C136.569 107.617 136.801 107.909 137.105 108.108C137.409 108.307 137.769 108.403 138.132 108.381C138.495 108.36 138.841 108.222 139.12 107.989C139.398 107.755 139.594 107.439 139.678 107.085C139.762 106.732 139.729 106.361 139.585 106.028C139.451 105.726 139.231 105.47 138.953 105.292C138.674 105.113 138.35 105.019 138.019 105.022L138.026 105.007Z" fill="#090809"/>
<path d="M132.599 110.947L136.967 99.9348C136.972 99.9156 136.981 99.8977 136.993 99.8823C137.006 99.8669 137.021 99.8543 137.039 99.8453C137.057 99.8364 137.076 99.8313 137.096 99.8305C137.116 99.8296 137.136 99.8329 137.154 99.8403C137.172 99.8476 137.189 99.8588 137.203 99.8731C137.217 99.8874 137.227 99.9044 137.234 99.9231C137.24 99.9417 137.243 99.9616 137.241 99.9813C137.24 100.001 137.234 100.02 137.224 100.038L132.856 111.05C132.84 111.079 132.813 111.102 132.781 111.113C132.749 111.125 132.714 111.124 132.682 111.111C132.651 111.099 132.625 111.075 132.61 111.045C132.594 111.014 132.59 110.98 132.599 110.947Z" fill="#090809"/>
<path d="M122.452 25.9997L123.805 22.5273L120.341 21.1985C120.324 21.1921 120.309 21.1823 120.297 21.1699C120.284 21.1574 120.274 21.1425 120.267 21.1261C120.26 21.1096 120.256 21.0919 120.257 21.0741C120.257 21.0563 120.26 21.0386 120.268 21.0223L121.613 17.5425L118.106 16.1256C118.088 16.1199 118.072 16.1107 118.059 16.0986C118.045 16.0865 118.034 16.0717 118.027 16.0551C118.019 16.0386 118.015 16.0207 118.015 16.0025C118.014 15.9843 118.018 15.9662 118.025 15.9494L119.378 12.4696L115.797 11.0821C115.767 11.0656 115.744 11.0389 115.733 11.0069C115.722 10.9749 115.722 10.9399 115.735 10.9084C115.747 10.8768 115.771 10.851 115.802 10.8357C115.832 10.8204 115.867 10.8166 115.9 10.8252L119.576 12.2934C119.594 12.2999 119.61 12.3099 119.624 12.3227C119.637 12.3355 119.648 12.3509 119.656 12.3681C119.663 12.3852 119.667 12.4037 119.668 12.4224C119.668 12.4411 119.664 12.4596 119.657 12.477L118.304 15.9494L121.819 17.3663C121.852 17.3808 121.877 17.4071 121.891 17.4399C121.905 17.4726 121.905 17.5093 121.893 17.5425L120.547 21.0223L124.003 22.3217C124.021 22.3282 124.037 22.3382 124.05 22.351C124.064 22.3638 124.075 22.3792 124.083 22.3964C124.09 22.4135 124.094 22.432 124.094 22.4507C124.095 22.4694 124.091 22.4879 124.084 22.5053L122.68 26.1099C122.659 26.1266 122.634 26.1372 122.608 26.1403C122.581 26.1434 122.554 26.1389 122.53 26.1273C122.506 26.1157 122.486 26.0976 122.472 26.075C122.458 26.0524 122.451 26.0263 122.452 25.9997Z" fill="#090809"/>
<path d="M123.981 19.9359L125.334 16.4561L121.878 15.1567C121.86 15.1511 121.843 15.1417 121.829 15.1291C121.815 15.1165 121.803 15.1009 121.796 15.0835C121.788 15.066 121.784 15.0471 121.784 15.0281C121.785 15.0091 121.789 14.9903 121.797 14.9731L123.15 11.5007L119.635 10.0838C119.601 10.0691 119.574 10.042 119.559 10.008C119.544 9.97388 119.542 9.93539 119.555 9.90026L120.908 6.42779L117.327 5.04762C117.297 5.03113 117.274 5.00439 117.263 4.97241C117.251 4.94043 117.252 4.90539 117.265 4.87388C117.277 4.84236 117.301 4.81652 117.331 4.8012C117.362 4.78589 117.397 4.78214 117.429 4.79067L121.106 6.25894C121.123 6.26463 121.139 6.27382 121.153 6.28595C121.167 6.29807 121.178 6.31287 121.185 6.32941C121.193 6.34595 121.197 6.36388 121.197 6.38207C121.197 6.40026 121.194 6.41833 121.187 6.43513L119.834 9.91494L123.349 11.3318C123.383 11.345 123.41 11.3707 123.425 11.4036C123.44 11.4365 123.442 11.4739 123.43 11.508L122.077 14.9805L125.533 16.2872C125.55 16.2929 125.566 16.3021 125.58 16.3142C125.593 16.3264 125.604 16.3412 125.612 16.3577C125.62 16.3742 125.624 16.3922 125.624 16.4104C125.624 16.4286 125.621 16.4466 125.614 16.4634L124.209 20.068C124.205 20.0899 124.196 20.1105 124.182 20.1281C124.168 20.1456 124.15 20.1596 124.13 20.1689C124.11 20.1781 124.088 20.1824 124.065 20.1813C124.043 20.1802 124.021 20.1738 124.002 20.1626C123.983 20.1514 123.966 20.1358 123.954 20.117C123.942 20.0982 123.935 20.0768 123.933 20.0546C123.931 20.0324 123.934 20.01 123.943 19.9893C123.951 19.9687 123.964 19.9504 123.981 19.9359Z" fill="#090809"/>
<path d="M74.2201 2.58092L69.5801 4.7246L67.4329 0.099543C67.4272 0.0803107 67.4173 0.0625452 67.4041 0.0474606C67.3908 0.032376 67.3744 0.0203276 67.3561 0.0121378C67.3377 0.00394798 67.3178 -0.000189797 67.2977 6.68343e-06C67.2776 0.000203164 67.2578 0.00472921 67.2396 0.0132762C67.2214 0.0218232 67.2052 0.0341892 67.1923 0.0495301C67.1793 0.0648711 67.1698 0.0828252 67.1644 0.102166C67.1591 0.121508 67.1579 0.14178 67.1611 0.161599C67.1643 0.181418 67.1717 0.200317 67.1829 0.217005L69.3301 4.84206L64.6974 6.99308C64.6771 6.99731 64.6579 7.00605 64.6413 7.01863C64.6247 7.03122 64.6112 7.04735 64.6017 7.06584C64.5921 7.08433 64.5869 7.1047 64.5862 7.12549C64.5856 7.14627 64.5897 7.16692 64.5981 7.18595C64.6065 7.20497 64.619 7.22187 64.6348 7.23542C64.6506 7.24898 64.6692 7.25883 64.6893 7.26427C64.7094 7.26971 64.7305 7.2706 64.751 7.26686C64.7715 7.26313 64.7909 7.25487 64.8078 7.24269L69.4478 5.09167L71.595 9.72407C71.6136 9.75183 71.6415 9.77201 71.6737 9.78095C71.706 9.78988 71.7403 9.78698 71.7706 9.77276C71.8009 9.75854 71.825 9.73395 71.8387 9.70346C71.8523 9.67297 71.8546 9.6386 71.845 9.6066L69.6978 4.98155L74.3304 2.83053C74.3508 2.82629 74.37 2.81756 74.3866 2.80498C74.4032 2.79239 74.4167 2.77626 74.4262 2.75777C74.4358 2.73928 74.441 2.7189 74.4416 2.69812C74.4423 2.67734 74.4382 2.65668 74.4298 2.63766C74.4214 2.61864 74.4089 2.60174 74.3931 2.58818C74.3773 2.57463 74.3586 2.56478 74.3385 2.55934C74.3184 2.5539 74.2974 2.55301 74.2769 2.55675C74.2564 2.56048 74.237 2.56874 74.2201 2.58092Z" fill="#090809"/>
<path d="M25.571 108.348L23.6297 104.083C23.6192 104.06 23.6148 104.036 23.617 104.011C23.6191 103.987 23.6277 103.963 23.6419 103.943C23.6561 103.923 23.6754 103.907 23.6978 103.896C23.7202 103.886 23.7449 103.882 23.7695 103.884L28.4389 104.347C28.4628 104.348 28.4859 104.357 28.5056 104.37C28.5253 104.384 28.5409 104.403 28.5507 104.425C28.5605 104.447 28.5642 104.471 28.5614 104.494C28.5585 104.518 28.5492 104.541 28.5345 104.56L25.8064 108.37C25.7933 108.391 25.7748 108.407 25.7528 108.418C25.7309 108.429 25.7063 108.434 25.6819 108.431C25.6575 108.429 25.6342 108.42 25.6147 108.405C25.5951 108.391 25.58 108.371 25.571 108.348ZM23.9827 104.156L25.7181 107.981L28.1742 104.567L23.9827 104.156Z" fill="#090809"/>
<path d="M139.291 26.0366C139.063 25.7943 138.556 25.9558 137.71 26.4844C138.078 25.9778 138.445 25.4713 138.717 25.0161C138.773 24.9532 138.803 24.8723 138.803 24.7885C138.803 24.7048 138.773 24.6239 138.717 24.5609C138.122 24.0324 136.151 26.0879 135.607 26.6679C135.997 25.831 135.989 25.5887 135.835 25.4713C135.681 25.3538 135.357 25.4713 134.364 26.3376C133.264 27.3766 132.293 28.5451 131.474 29.8174C131.443 29.8553 131.404 29.8861 131.359 29.9076C131.315 29.9291 131.266 29.9409 131.217 29.9422C130.732 29.8394 130.357 27.7398 130.004 26.8221C129.835 26.4036 129.511 25.7135 129.114 25.7869C128.871 25.831 128.599 26.1247 128.636 27.9894C128.565 30.3 128.356 32.6044 128.011 34.8902C127.401 34.8902 126.783 34.949 126.173 35.015C126.155 35.013 126.137 35.0146 126.12 35.02C126.103 35.0253 126.088 35.0342 126.074 35.046C126.061 35.0578 126.051 35.0722 126.044 35.0884C126.036 35.1046 126.033 35.1221 126.033 35.1398L125.018 47.8257C107.568 48.112 106.884 46.306 106.554 45.4398C106.172 44.3574 106.037 43.2039 106.156 42.0627C106.598 39.7869 110.046 37.2468 110.083 37.2174C110.12 37.1881 110.142 37.1073 110.083 36.7403C109.568 34.1928 109.039 31.5646 107.032 29.8541C107.007 29.8324 106.976 29.8204 106.943 29.8204C106.911 29.8204 106.879 29.8324 106.855 29.8541C105.255 31.1917 103.875 32.7722 102.767 34.5378C101.759 36.175 100.06 39.1042 101.119 40.5871C101.393 40.8976 101.734 41.1417 102.116 41.3007C102.498 41.4598 102.912 41.5296 103.325 41.5048C103.156 42.0114 102.678 43.4723 102.384 44.7864C102.178 45.7114 101.163 45.7481 98.7074 45.7187C86.6257 45.616 78.8899 43.9715 67.1391 41.0863C67.1105 41.0785 67.0801 41.0799 67.0523 41.0905C67.0245 41.101 67.0008 41.1202 66.9847 41.1451L66.7347 41.5562C64.6415 41.0735 62.5228 40.7083 60.3887 40.4623C58.3444 40.3302 57.4473 40.4623 57.0429 41.681C56.7873 41.7723 56.5621 41.9324 56.3921 42.1436C56.2221 42.3548 56.1139 42.6089 56.0796 42.8776C55.8588 42.9807 55.6653 43.134 55.5146 43.3252C55.3639 43.5165 55.2602 43.7403 55.2119 43.9788C54.2191 43.9788 53.1529 43.9788 52.3661 43.9788C51.3366 44.0449 50.6086 44.39 50.6013 44.8084C50.6013 45.0213 50.7557 45.2049 51.0719 45.359L27.5409 43.8907C27.4957 43.8996 27.4549 43.9238 27.4257 43.9593C27.3964 43.9948 27.3804 44.0393 27.3804 44.0853C27.3804 44.1313 27.3964 44.1758 27.4257 44.2113C27.4549 44.2468 27.4957 44.271 27.5409 44.2798L56.5355 46.8934C57.3204 47.8944 58.4177 48.6049 59.6533 48.9122C61.4291 49.4077 63.2933 49.5005 65.1096 49.1839C65.1611 49.4849 65.2199 49.7785 65.3008 50.0795C65.3062 50.1035 65.3179 50.1257 65.3347 50.1438C65.3515 50.1618 65.3728 50.1751 65.3964 50.1823C76.1839 52.8325 82.7799 54.3595 92.6555 54.8734C92.2732 60.6151 92.4456 66.3802 93.1703 72.0889C86.6735 70.596 80.0815 69.5511 73.441 68.9615C71.6541 68.8147 69.8745 69.3208 68.4333 70.3857C61.3455 75.5892 54.5251 81.1464 47.9981 87.0359C47.979 87.0613 47.9687 87.0923 47.9687 87.124C47.9687 87.1558 47.979 87.1867 47.9981 87.2121C48.182 87.5131 48.3732 87.8141 48.5717 88.1224C44.8067 91.7271 34.3355 98.5839 34.9164 99.8686C35.4973 101.153 41.9242 99.4208 45.6744 99.4208C46.7383 99.4314 47.7974 99.2778 48.8144 98.9656C50.138 98.4297 51.7557 95.8089 53.675 94.0543C54.1456 94.4874 54.6383 94.9132 55.1457 95.3317C55.1718 95.3525 55.2042 95.3639 55.2376 95.3639C55.271 95.3639 55.3034 95.3525 55.3295 95.3317C61.1128 90.2722 67.295 85.6862 73.8161 81.618C78.0498 82.0249 82.2354 82.8312 86.3169 84.026C84.4246 85.3915 82.6083 86.823 80.868 88.3207C79.0181 89.9058 77.6672 91.9914 76.978 94.3259C74.8848 101.572 73.3629 108.97 72.4263 116.453C72.4225 116.484 72.4292 116.515 72.4451 116.541C72.4611 116.568 72.4855 116.588 72.5145 116.6C73.1101 116.805 73.7057 116.996 74.3087 117.172C73.5734 122.311 69.5952 134.167 70.8453 134.791C72.0953 135.415 76.1177 130.086 79.0443 127.795C79.8951 127.154 80.6396 126.384 81.2504 125.512C81.9857 124.286 81.6328 121.107 82.0298 118.596C82.7652 118.67 83.5814 118.729 84.3609 118.743C84.3944 118.744 84.427 118.732 84.4526 118.71C84.4783 118.689 84.4953 118.659 84.5006 118.626C85.307 111.602 86.8347 104.679 89.0597 97.9672C108.252 88.8639 106.708 89.6054 107.054 89.4219C116.142 84.4885 112.157 73.0506 111.922 72.3899C112.275 66.5168 112.767 61.9652 114.076 57.6485C118.98 58.0958 123.91 58.1817 128.827 57.9054C130.213 57.779 131.51 57.166 132.486 56.1753C133.462 55.1847 134.054 53.8806 134.158 52.4948L135.445 35.9841C135.446 35.9538 135.437 35.9242 135.42 35.8992C135.402 35.8743 135.378 35.8552 135.35 35.8446C135.158 35.7932 134.548 35.6097 133.497 35.3968C133.497 34.7654 133.555 34.2662 133.585 33.8331C134.092 32.4354 134.924 31.1775 136.011 30.1624C136.085 30.089 138.6 27.3947 139.306 26.4917C139.358 26.4264 139.385 26.3448 139.382 26.2614C139.379 26.1781 139.347 26.0984 139.291 26.0366ZM128.827 28.0114C128.827 26.176 129.07 26.0953 129.084 26.0953C129.099 26.0953 129.408 26.3155 129.665 26.9616C130.077 28.004 130.401 30.1624 131.136 30.2578C130.119 31.721 129.247 33.2799 128.533 34.9123H128.224C128.57 32.6269 128.772 30.322 128.827 28.0114ZM110.694 47.6275L102.355 57.9054C102.936 53.273 103.656 48.8388 104.156 46.7465C106.583 50.6595 106.406 50.4172 106.517 50.4172C106.627 50.4172 106.37 50.6815 109.164 47.3192C109.613 47.4586 110.113 47.5541 110.694 47.6275ZM106.495 46.0491C106.826 46.4896 107.473 46.9227 108.877 47.2825L106.554 50.0722L104.348 46.5483C105.091 46.5465 105.825 46.3784 106.495 46.0564V46.0491ZM103.127 42.7161L104.524 41.3873C104.54 41.3652 104.549 41.3388 104.551 41.3114C104.552 41.2841 104.545 41.257 104.531 41.2335C104.517 41.21 104.496 41.1912 104.471 41.1794C104.447 41.1676 104.419 41.1633 104.392 41.1671C104.392 41.1671 102.083 41.6002 101.266 40.433C100.45 39.2657 101.553 37.078 102.289 35.8446C103.259 34.2222 104.193 33.466 104.921 33.7156C105.803 34.0166 106.296 35.6831 106.134 36.9165C106.083 37.3423 106.355 37.6506 107.157 37.1294C108.282 36.3952 108.87 38.304 106.715 39.1189C106.355 39.2583 106.024 40.3082 105.929 40.734C105.601 42.4284 105.743 44.1801 106.34 45.7995C105.692 46.1515 104.957 46.3116 104.221 46.2609C103.485 46.2102 102.779 45.9508 102.186 45.5132C102.605 45.1535 102.443 44.9626 103.127 42.7235V42.7161ZM101.95 45.6967C102.5 46.1194 103.147 46.3971 103.833 46.5043L100.891 49.7051L99.4575 46.0344C100.303 46.111 101.154 45.9981 101.95 45.7041V45.6967ZM99.1486 46.0271L100.7 50.0134C100.71 50.0346 100.725 50.0532 100.743 50.0675C100.762 50.0819 100.783 50.0916 100.807 50.0959C100.83 50.1002 100.853 50.099 100.876 50.0923C100.898 50.0856 100.919 50.0737 100.936 50.0575L103.825 46.8934C103.333 49.0517 102.642 53.317 102.083 57.7879L97.7515 46.0418L99.1486 46.0271ZM65.0655 48.9196C63.2823 49.2482 61.4469 49.1577 59.7048 48.6553C57.9988 48.2148 56.5722 46.8713 56.6531 46.4529C56.6531 46.3207 56.9693 46.3428 57.0723 46.3574C58.1478 46.5629 59.1897 46.9162 60.1681 47.4073C60.2012 47.4238 60.2396 47.4265 60.2748 47.4148C60.3099 47.4031 60.339 47.378 60.3556 47.3449C60.3722 47.3118 60.3749 47.2734 60.3632 47.2383C60.3514 47.2032 60.3262 47.1742 60.2931 47.1576C58.0429 45.983 55.4619 45.8142 52.9396 45.5646C51.2042 45.3957 50.7336 45.0287 50.7336 44.8304C50.7336 44.6322 51.2704 44.3312 52.2043 44.2725C54.016 44.2038 55.83 44.2332 57.6385 44.3606C57.815 44.3606 57.8517 44.1036 57.6385 44.0816C57.2929 44.0816 56.3516 44.0009 55.2927 43.9788C55.5795 43.0832 56.1163 42.8263 58.2341 43.0245C58.2708 43.0267 58.307 43.0151 58.3356 42.992C58.3642 42.9689 58.3831 42.936 58.3885 42.8997C58.3906 42.8813 58.389 42.8628 58.3838 42.8451C58.3786 42.8274 58.3699 42.8109 58.3583 42.7965C58.3466 42.7822 58.3323 42.7703 58.316 42.7615C58.2998 42.7528 58.2819 42.7473 58.2635 42.7455C57.5791 42.6367 56.8817 42.6367 56.1972 42.7455C56.4252 41.9453 57.0429 41.5342 59.2415 41.7911C59.2774 41.7932 59.3127 41.7814 59.3401 41.7581C59.3675 41.7349 59.3849 41.702 59.3886 41.6663C59.3906 41.648 59.389 41.6294 59.3838 41.6117C59.3786 41.594 59.37 41.5775 59.3583 41.5632C59.3467 41.5488 59.3324 41.5369 59.3161 41.5282C59.2998 41.5194 59.282 41.514 59.2636 41.5121C58.5711 41.4119 57.8677 41.4119 57.1752 41.5121C57.4914 40.7119 58.19 40.5431 60.1681 40.6752C62.2628 40.9151 64.3422 41.2729 66.3964 41.7471C65.161 43.9217 64.6923 46.4474 65.0655 48.9196ZM93.0673 53.2583C93.0694 53.2359 93.0659 53.2133 93.0572 53.1924C93.0486 53.1716 93.035 53.1532 93.0176 53.1388C93.0003 53.1243 92.9797 53.1143 92.9576 53.1096C92.9355 53.1048 92.9126 53.1055 92.8909 53.1115L88.795 54.3375C80.9636 53.6548 74.8235 52.2158 65.5434 49.9327C65.1935 48.4857 65.1434 46.9827 65.3963 45.5157C65.6492 44.0488 66.1998 42.6489 67.0141 41.402C77.8825 44.0669 85.9639 45.8068 97.4573 46.0051L102.002 58.3752C101.442 62.4169 101.138 66.4895 101.09 70.5692C98.4774 70.3339 95.849 70.3339 93.2365 70.5692C92.6129 64.8184 92.5563 59.0203 93.0673 53.2583ZM48.6747 98.7087C47.6886 98.999 46.6657 99.1449 45.6377 99.1418C42.2404 99.1418 35.5561 100.706 35.1296 99.7512C35.1296 99.7512 35.1296 99.5456 35.5782 99.017C36.8356 99.2593 39.7696 98.8188 41.3653 98.6059C47.7996 97.747 47.6599 98.2682 49.9174 97.7396C49.566 98.1358 49.1448 98.4643 48.6747 98.7087ZM52.4837 94.8251C49.5658 94.3976 46.7429 93.4739 44.1376 92.0941C45.6745 90.9122 47.5349 89.4439 48.6894 88.35C50.046 90.3755 51.6408 92.2314 53.4397 93.8781C53.1529 94.1277 52.822 94.4654 52.4911 94.8251H52.4837ZM73.7572 81.339C73.7444 81.3336 73.7307 81.3308 73.7168 81.3308C73.7029 81.3308 73.6891 81.3336 73.6763 81.339C67.1578 85.3966 60.9781 89.9729 55.1972 95.0233C54.1668 94.1759 53.1848 93.2715 52.2558 92.3144C57.9752 87.3722 64.0023 82.7968 70.3011 78.6154C71.7684 77.6234 73.5582 77.2246 75.3088 77.4995C80.5791 78.2999 85.7952 79.4228 90.9275 80.8618C89.4568 81.8015 88.0008 82.7804 86.5595 83.7984C82.3853 82.5631 78.0998 81.7394 73.7646 81.339H73.7572ZM72.6983 116.379C73.6359 108.949 75.1504 101.603 77.228 94.4066C77.9048 92.1236 79.2275 90.0842 81.0371 88.5336C85.9656 84.3224 91.3528 80.6778 97.097 77.6683C97.1159 77.6614 97.133 77.6505 97.1473 77.6364C97.1615 77.6223 97.1725 77.6053 97.1796 77.5865C97.1867 77.5677 97.1896 77.5477 97.1882 77.5277C97.1868 77.5077 97.1811 77.4882 97.1715 77.4706C97.1618 77.453 97.1486 77.4377 97.1325 77.4257C97.1164 77.4137 97.0979 77.4053 97.0783 77.4011C97.0587 77.3969 97.0384 77.3969 97.0187 77.4012C96.9991 77.4055 96.9807 77.414 96.9647 77.4261C95.0037 78.4441 93.1066 79.5331 91.2731 80.693C86.0499 79.2191 80.7404 78.0692 75.375 77.2499C73.5553 76.9723 71.6976 77.3862 70.1687 78.4098C63.8562 82.6015 57.8166 87.1893 52.0866 92.1455C50.6328 90.6316 49.3505 88.9624 48.2629 87.1681C54.7612 81.3091 61.5495 75.779 68.6025 70.5986C69.988 69.5746 71.7019 69.0939 73.419 69.2478C80.1028 69.8396 86.737 70.8969 93.2732 72.4119C93.2952 72.4168 93.318 72.4164 93.3397 72.4106C93.3614 72.4049 93.3814 72.394 93.398 72.3788C93.4146 72.3637 93.4273 72.3448 93.4351 72.3237C93.4428 72.3026 93.4453 72.28 93.4424 72.2578C93.3835 71.8026 93.3247 71.3327 93.2659 70.8482C98.0687 70.486 102.899 70.7849 107.62 71.7365C107.546 72.522 107.304 76.6332 110.12 78.8723C102.39 82.6864 94.9741 87.105 87.942 92.0868C85.637 93.7505 83.9506 96.1313 83.1476 98.8555C81.3689 105.13 80.0419 111.524 79.1767 117.987C76.9785 117.633 74.8139 117.095 72.7057 116.379H72.6983ZM80.9636 125.402C80.3831 126.242 79.6733 126.985 78.8605 127.604C76.2059 129.682 71.8747 135.07 70.9629 134.579C70.9629 134.579 70.8158 134.476 70.8673 133.712C72.8013 132.684 76.5515 128.03 79.2797 125.894C80.0375 125.295 80.7301 124.618 81.346 123.875C81.3241 124.404 81.1966 124.923 80.9709 125.402H80.9636ZM81.5592 119.999C79.0035 121.466 76.2118 122.48 73.3087 122.994C73.7793 121.122 74.3308 118.839 74.5587 117.253C76.8979 117.918 79.2927 118.37 81.7136 118.604C81.6548 118.986 81.6107 119.448 81.5666 119.999H81.5592ZM106.833 89.2383C106.62 89.3484 100.641 92.1749 88.8612 97.769C88.8409 97.7763 88.8225 97.788 88.8072 97.8032C88.792 97.8185 88.7803 97.8368 88.7729 97.8571C86.5433 104.561 85.0106 111.476 84.1991 118.494C82.6158 118.434 81.0372 118.284 79.4708 118.046C80.3362 111.597 81.6632 105.218 83.4417 98.9583C84.2244 96.2975 85.8725 93.9727 88.1258 92.3511C95.1851 87.3464 102.63 82.9081 110.392 79.0779C110.791 79.3752 111.226 79.6218 111.686 79.812C111.703 79.819 111.721 79.8224 111.739 79.8221C111.758 79.8218 111.776 79.8177 111.792 79.8101C111.809 79.8025 111.824 79.7916 111.836 79.778C111.848 79.7645 111.857 79.7486 111.863 79.7313C111.875 79.6981 111.875 79.6614 111.861 79.6286C111.847 79.5959 111.822 79.5696 111.789 79.5551C107.561 77.8666 107.826 72.7643 107.914 71.8393C109.113 72.0595 110.355 72.3165 111.627 72.5734C111.98 73.5352 115.628 84.5031 106.84 89.2383H106.833ZM135.129 36.0722L133.864 52.4361C133.769 53.7553 133.206 54.9976 132.276 55.9395C131.346 56.8815 130.11 57.4614 128.79 57.575C123.058 57.9131 117.308 57.7781 111.598 57.1713C111.572 57.1669 111.544 57.1706 111.52 57.182C111.496 57.1933 111.476 57.2117 111.462 57.2348C111.449 57.2579 111.442 57.2845 111.444 57.3112C111.446 57.3378 111.456 57.3633 111.473 57.3842L113.15 59.9096C112.29 63.98 111.775 68.1156 111.613 72.2724C108.25 71.4839 104.838 70.9246 101.399 70.5986C101.441 66.5311 101.743 62.4704 102.303 58.4413L111.01 47.6789C114.988 48.2148 121.084 48.2001 125.084 48.1267C125.15 48.1267 125.209 48.068 125.224 47.9725L126.239 35.3087C129.226 35.0104 132.243 35.2693 135.136 36.0722H135.129ZM133.195 35.3381C131.755 35.0655 130.293 34.923 128.827 34.9123C129.913 32.5633 131.265 30.3464 132.857 28.305C133.336 27.6718 133.878 27.0888 134.475 26.5651C134.801 26.2164 135.187 25.9282 135.614 25.7135C135.515 26.1729 135.338 26.6122 135.092 27.013C133.629 29.9348 133.349 32.1519 133.239 35.3381H133.195ZM133.636 32.9448C133.807 31.1325 134.292 29.3637 135.07 27.7177C135.423 27.1745 137.394 25.0748 138.284 24.7812C138.431 24.7371 138.556 24.7371 138.475 24.8693C137.82 25.8897 136.563 27.4534 135.967 28.4372C135.114 29.8978 134.338 31.4025 133.644 32.9448H133.636ZM139.056 26.3376C138.217 27.4094 135.475 30.2872 134.938 30.9259C135.573 29.6097 136.332 28.3561 137.203 27.1818C138.894 25.9631 139.21 26.1393 139.063 26.3376H139.056Z" fill="#090809"/>
</svg>
