<svg width="17" height="14" viewBox="0 0 17 14" fill="none" xmlns="http://www.w3.org/2000/svg">
<path d="M14.9975 2.20751C15.726 1.76595 16.2712 1.07066 16.5311 0.251467C15.8465 0.663275 15.0975 0.953364 14.3165 1.10919C13.2336 -0.0521332 11.518 -0.334747 10.1282 0.419268C8.73835 1.17328 8.01848 2.77725 8.37078 4.33492C5.56666 4.19219 2.95413 2.84929 1.18329 0.640368C0.25912 2.25646 0.731389 4.32239 2.26255 5.36156C1.70887 5.34351 1.16746 5.19152 0.683478 4.91827C0.683478 4.93311 0.683478 4.94794 0.683478 4.96277C0.683799 6.64621 1.85406 8.09629 3.48159 8.42992C2.96802 8.57157 2.42932 8.59243 1.90659 8.49089C2.3643 9.93054 3.67303 10.9168 5.16469 10.9462C3.92925 11.9293 2.40353 12.4624 0.833015 12.4598C0.554642 12.4602 0.276488 12.444 0 12.4112C1.59483 13.4502 3.45101 14.0017 5.34674 13.9998C7.98414 14.0181 10.5188 12.964 12.3837 11.0731C14.2486 9.18228 15.2881 6.6125 15.2698 3.93861C15.2698 3.78535 15.2662 3.63293 15.2592 3.48132C15.9422 2.98086 16.5317 2.36088 17 1.65052C16.3637 1.93648 15.6887 2.12422 14.9975 2.20751Z" fill="#5DA9DD"/>
</svg>
