<svg width="21" height="18" viewBox="0 0 21 18" fill="none" xmlns="http://www.w3.org/2000/svg">
<path d="M18.454 3.44458C19.3504 2.90867 20.0212 2.06482 20.341 1.07058C19.4986 1.57038 18.577 1.92246 17.616 2.11158C16.2836 0.702108 14.1725 0.359106 12.4624 1.27424C10.7523 2.18937 9.8665 4.13607 10.3 6.02658C6.84961 5.85335 3.63497 4.2235 1.456 1.54258C0.31884 3.504 0.899953 6.01136 2.784 7.27258C2.10271 7.25068 1.43653 7.06622 0.841 6.73458C0.841 6.75258 0.841 6.77058 0.841 6.78858C0.841394 8.83173 2.28137 10.5917 4.284 10.9966C3.65206 11.1685 2.98921 11.1938 2.346 11.0706C2.9092 12.8179 4.51955 14.0149 6.355 14.0506C4.83483 15.2437 2.95748 15.8907 1.025 15.8876C0.682471 15.8881 0.34021 15.8684 0 15.8286C1.96239 17.0896 4.24637 17.7589 6.579 17.7566C9.82425 17.7789 12.943 16.4995 15.2377 14.2046C17.5324 11.9097 18.8116 8.79083 18.789 5.54558C18.789 5.35958 18.7847 5.17458 18.776 4.99058C19.6165 4.38318 20.3418 3.63073 20.918 2.76858C20.135 3.11564 19.3045 3.3435 18.454 3.44458Z" fill="#090809"/>
</svg>
