<svg width="409" height="264" viewBox="0 0 409 264" fill="none" xmlns="http://www.w3.org/2000/svg">
<path d="M371.158 0.238311C364.914 5.1328 359.586 9.44527 354.111 13.5622C349.011 17.3984 343.469 19.5476 336.781 18.5184C327.867 17.1478 318.842 16.5076 309.922 15.172C300.478 13.7575 294.31 18.0389 288.589 25.0506C278.295 37.6657 270.165 52.2974 256.801 62.0983C251.199 66.2068 244.211 68.6126 237.604 71.1509C223.471 76.5823 209.717 72.9764 196.204 68.3842C188.322 65.7074 181.474 67.8086 174.75 71.7281C165.774 76.9614 160.186 85.493 154.283 93.4803C146.158 104.479 140.243 117.345 131.05 127.26C117.17 142.229 102.406 156.867 81.9934 163.436C64.2049 169.161 46.6513 175.779 28.5769 180.37C20.9073 182.319 13.7391 184.606 6.91495 188.334C5.62663 189.038 4.56126 190.142 3.35961 191.015C2.78592 191.433 2.13351 191.742 1.51679 192.1C1.1755 191.16 0.365911 189.508 0.559412 189.381C6.65653 185.388 11.0176 179.375 18.7981 177.18C35.4771 172.475 52.3634 168.423 68.5632 161.948C85.7745 155.07 102.679 147.588 115.707 134.23C127.209 122.437 137.265 109.325 146.23 95.3285C153.097 84.6053 161.368 74.7112 169.636 64.9733C173.63 60.2711 180.271 60.2094 185.902 60.6262C193.219 61.1677 200.408 63.2993 207.688 64.5416C224.971 67.4909 241.891 66.7708 255.693 54.6737C262.719 48.5157 267.901 40.2577 273.872 32.9117C278.127 27.6757 281.943 22.0297 286.608 17.1939C292.953 10.6173 300.015 5.99439 310.306 8.90626C317.166 10.8472 324.575 10.9025 331.753 11.6651C339.926 12.5336 347.436 11.2533 353.967 5.57181C359.671 0.608574 365.71 -4.00183 371.821 -8.46755C381.871 -15.8105 387.628 -25.9977 391.921 -37.2975C392.755 -39.4778 393.921 -41.5174 395.377 -43.3447C396.087 -44.2326 397.731 -44.3776 398.953 -44.8589C398.825 -43.7863 398.808 -42.6856 398.55 -41.6444C394.387 -24.911 386.765 -10.3819 371.158 0.238311ZM279.428 101.311C273.413 107.859 268.684 114.202 262.984 119.509C254.663 127.255 245.154 128.277 235.466 122.33C219.809 112.719 217.075 113.032 206.799 128.038C198.875 139.607 190.387 150.883 183.552 163.072C178.751 171.634 172.05 178.457 165.331 184.775C149.807 199.37 132.989 212.607 116.533 226.199C104.735 235.943 90.9513 242.261 77.4118 249.23C67.2719 254.448 58.4035 262.616 51.3634 272.115L49.4903 274.638C49.1399 273.355 48.5734 272.082 48.5087 270.785C48.4613 269.837 48.817 268.635 49.4324 267.924C56.9359 259.257 62.2684 248.682 74.7776 244.835C81.5187 242.762 86.8852 236.611 93.4557 233.545C108.907 226.333 120.544 214.073 133.939 204.171C139.479 200.076 144.01 194.625 149.013 189.804C154.015 184.982 159.239 180.107 164.362 175.742C181.147 161.442 189.832 141.846 201.919 124.482C205.21 119.753 209.381 115.47 213.772 111.706C220.748 105.724 225.715 106.188 232.988 112.257C234.774 113.748 236.846 114.899 238.797 116.188C247.831 122.163 254.22 121.174 260.289 112.837C261.269 111.49 261.889 109.796 263.08 108.701C270.837 101.564 279.647 95.3307 286.321 87.3168C297.188 74.2696 311.781 68.9374 327 63.9011C336.575 60.7328 346.443 61.5597 356.153 60.3832C364.438 59.38 372.53 58.5221 380.822 55.653C390.135 52.431 392.803 45.0621 395.171 38.8349C399.109 28.4844 403.965 17.5971 401.307 5.70163C401.012 4.37597 401.338 2.76099 401.836 1.45604C402.263 0.335465 403.349 -0.535013 404.144 -1.51571C405.168 -0.615673 406.746 0.107241 407.1 1.21917C407.904 3.7446 408.586 6.48085 408.474 9.09579C407.773 25.5855 403.295 40.9644 393.754 54.5877C390.982 58.5446 387.264 60.8704 382.096 62.4368C367.169 66.9621 351.841 65.7879 336.73 67.3384C327.441 68.2914 319.006 71.3215 311.209 76.3741C305.376 80.1543 298.057 82.6767 293.955 87.7962C289.868 92.896 284.852 96.4025 279.428 101.311Z" fill="#FFDE59"/>
</svg>
